M48
;GenerationSoftware,Autodesk,EAGLE,9.7.0*%
;CreationDate,2022-09-12T05:53:15Z*%
FMAT,2
ICI,OFF
METRIC,TZ,000.000
T4C0.800
T3C1.000
T2C1.016
T1C3.500
%
G90
M71
T1
X3000Y18000
X27000Y18000
X27000Y83000
X3000Y83000
T2
X2854Y49762
X2854Y44682
X5596Y22362
X3056Y32122
X5596Y34662
X5596Y32122
X3056Y27442
X3056Y24902
X7934Y77238
X7934Y74698
X7934Y72158
X7934Y69618
X7934Y67078
X7934Y64538
X5394Y77238
X5394Y74698
X5394Y72158
X5394Y69618
X5394Y67078
X5394Y64538
X2854Y77238
X2854Y74698
X2854Y72158
X2854Y69618
X2854Y67078
X2854Y64538
X7934Y59922
X7934Y57382
X7934Y54842
X7934Y52302
X7934Y49762
X7934Y47222
X7934Y44682
X5394Y59922
X5394Y57382
X5394Y54842
X5394Y52302
X5394Y49762
X5394Y47222
X5394Y44682
X2854Y59922
X2854Y57382
X2854Y54842
X2854Y52302
X5596Y24902
X2854Y47222
X3056Y34662
X3056Y22362
X5596Y27442
X12192Y40478
X14732Y40478
X17272Y40478
X19812Y40478
X22352Y40478
X24892Y40478
X27432Y40478
T3
X12198Y68210
X12198Y70750
X12198Y73290
X12198Y75830
X12198Y78370
X27438Y63130
X27438Y60590
X27438Y58050
X27438Y65670
X27438Y55510
X27438Y68210
X27438Y52970
X27438Y50430
X27438Y47890
X27438Y45350
X27438Y70750
X27438Y73290
X27438Y75830
X27438Y78370
X12198Y65670
X12198Y63130
X12198Y45350
X12198Y47890
X12198Y50430
X12198Y52970
X12198Y55510
X12198Y58050
X12198Y60590
T4
X17211Y23073
X27371Y23073
X24831Y23073
X22291Y23073
X9591Y23073
X12131Y23073
X14671Y23073
X19751Y23073
M30