G04 EAGLE Gerber RS-274X export*
G75*
%MOMM*%
%FSLAX34Y34*%
%LPD*%
%INBottom Copper*%
%IPPOS*%
%AMOC8*
5,1,8,0,0,1.08239X$1,22.5*%
G01*
G04 Define Apertures*
%ADD10C,1.473200*%
%ADD11P,1.64956X8X202.5*%
%ADD12C,1.778000*%
%ADD13P,1.64956X8X292.5*%
%ADD14C,0.500000*%
G36*
X248607Y11120D02*
X247632Y10922D01*
X52368Y10922D01*
X51187Y11218D01*
X50421Y11853D01*
X49964Y12737D01*
X49887Y13729D01*
X50203Y14672D01*
X53445Y20289D01*
X55160Y26688D01*
X55160Y33312D01*
X53445Y39711D01*
X50133Y45449D01*
X45449Y50133D01*
X39711Y53445D01*
X33312Y55160D01*
X26688Y55160D01*
X20289Y53445D01*
X14672Y50203D01*
X13502Y49869D01*
X12521Y50036D01*
X11683Y50572D01*
X11120Y51393D01*
X10922Y52368D01*
X10922Y807535D01*
X11218Y808715D01*
X11853Y809481D01*
X12737Y809939D01*
X13729Y810016D01*
X14672Y809700D01*
X20386Y806401D01*
X26785Y804686D01*
X33410Y804686D01*
X39809Y806401D01*
X45546Y809713D01*
X50230Y814398D01*
X53543Y820135D01*
X55257Y826534D01*
X55257Y833159D01*
X53543Y839558D01*
X50211Y845328D01*
X49877Y846498D01*
X50044Y847479D01*
X50580Y848317D01*
X51401Y848880D01*
X52376Y849078D01*
X247624Y849078D01*
X248804Y848782D01*
X249570Y848147D01*
X250028Y847263D01*
X250105Y846271D01*
X249789Y845328D01*
X246457Y839558D01*
X244743Y833159D01*
X244743Y826534D01*
X246457Y820135D01*
X249770Y814398D01*
X254454Y809713D01*
X260191Y806401D01*
X266590Y804686D01*
X273215Y804686D01*
X279614Y806401D01*
X285328Y809700D01*
X286498Y810033D01*
X287479Y809866D01*
X288317Y809330D01*
X288880Y808510D01*
X289078Y807535D01*
X289078Y52368D01*
X288782Y51187D01*
X288147Y50421D01*
X287263Y49964D01*
X286271Y49887D01*
X285328Y50203D01*
X279711Y53445D01*
X273312Y55160D01*
X266688Y55160D01*
X260289Y53445D01*
X254552Y50133D01*
X249867Y45449D01*
X246555Y39711D01*
X244840Y33312D01*
X244840Y26688D01*
X246555Y20289D01*
X249797Y14672D01*
X250131Y13502D01*
X249964Y12521D01*
X249428Y11683D01*
X248607Y11120D01*
G37*
%LPC*%
G36*
X71914Y775862D02*
X81312Y775862D01*
X81312Y785260D01*
X77866Y785260D01*
X71914Y779308D01*
X71914Y775862D01*
G37*
G36*
X82836Y775862D02*
X92234Y775862D01*
X92234Y779308D01*
X86282Y785260D01*
X82836Y785260D01*
X82836Y775862D01*
G37*
G36*
X230686Y765956D02*
X238262Y765956D01*
X243618Y771312D01*
X243618Y778888D01*
X238262Y784244D01*
X230686Y784244D01*
X225330Y778888D01*
X225330Y771312D01*
X230686Y765956D01*
G37*
G36*
X205286Y765956D02*
X212862Y765956D01*
X218218Y771312D01*
X218218Y778888D01*
X212862Y784244D01*
X205286Y784244D01*
X199930Y778888D01*
X199930Y771312D01*
X205286Y765956D01*
G37*
G36*
X179886Y765956D02*
X187462Y765956D01*
X192818Y771312D01*
X192818Y778888D01*
X187462Y784244D01*
X179886Y784244D01*
X174530Y778888D01*
X174530Y771312D01*
X179886Y765956D01*
G37*
G36*
X154486Y765956D02*
X162062Y765956D01*
X167418Y771312D01*
X167418Y778888D01*
X162062Y784244D01*
X154486Y784244D01*
X149130Y778888D01*
X149130Y771312D01*
X154486Y765956D01*
G37*
G36*
X129086Y765956D02*
X136662Y765956D01*
X142018Y771312D01*
X142018Y778888D01*
X136662Y784244D01*
X129086Y784244D01*
X123730Y778888D01*
X123730Y771312D01*
X129086Y765956D01*
G37*
G36*
X103686Y765956D02*
X111262Y765956D01*
X116618Y771312D01*
X116618Y778888D01*
X111262Y784244D01*
X103686Y784244D01*
X98330Y778888D01*
X98330Y771312D01*
X103686Y765956D01*
G37*
G36*
X82836Y764940D02*
X86282Y764940D01*
X92234Y770892D01*
X92234Y774338D01*
X82836Y774338D01*
X82836Y764940D01*
G37*
G36*
X77866Y764940D02*
X81312Y764940D01*
X81312Y774338D01*
X71914Y774338D01*
X71914Y770892D01*
X77866Y764940D01*
G37*
G36*
X129086Y740556D02*
X136662Y740556D01*
X142018Y745912D01*
X142018Y753488D01*
X136662Y758844D01*
X129086Y758844D01*
X123730Y753488D01*
X123730Y745912D01*
X129086Y740556D01*
G37*
G36*
X78286Y740556D02*
X85862Y740556D01*
X91218Y745912D01*
X91218Y753488D01*
X85862Y758844D01*
X78286Y758844D01*
X72930Y753488D01*
X72930Y745912D01*
X78286Y740556D01*
G37*
G36*
X103686Y740556D02*
X111262Y740556D01*
X116618Y745912D01*
X116618Y753488D01*
X111262Y758844D01*
X103686Y758844D01*
X98330Y753488D01*
X98330Y745912D01*
X103686Y740556D01*
G37*
G36*
X230686Y740556D02*
X238262Y740556D01*
X243618Y745912D01*
X243618Y753488D01*
X238262Y758844D01*
X230686Y758844D01*
X225330Y753488D01*
X225330Y745912D01*
X230686Y740556D01*
G37*
G36*
X205286Y740556D02*
X212862Y740556D01*
X218218Y745912D01*
X218218Y753488D01*
X212862Y758844D01*
X205286Y758844D01*
X199930Y753488D01*
X199930Y745912D01*
X205286Y740556D01*
G37*
G36*
X179886Y740556D02*
X187462Y740556D01*
X192818Y745912D01*
X192818Y753488D01*
X187462Y758844D01*
X179886Y758844D01*
X174530Y753488D01*
X174530Y745912D01*
X179886Y740556D01*
G37*
G36*
X154486Y740556D02*
X162062Y740556D01*
X167418Y745912D01*
X167418Y753488D01*
X162062Y758844D01*
X154486Y758844D01*
X149130Y753488D01*
X149130Y745912D01*
X154486Y740556D01*
G37*
G36*
X230686Y715156D02*
X238262Y715156D01*
X243618Y720512D01*
X243618Y728088D01*
X238262Y733444D01*
X230686Y733444D01*
X225330Y728088D01*
X225330Y720512D01*
X230686Y715156D01*
G37*
G36*
X179886Y715156D02*
X187462Y715156D01*
X192818Y720512D01*
X192818Y728088D01*
X187462Y733444D01*
X179886Y733444D01*
X174530Y728088D01*
X174530Y720512D01*
X179886Y715156D01*
G37*
G36*
X103686Y715156D02*
X111262Y715156D01*
X116618Y720512D01*
X116618Y728088D01*
X111262Y733444D01*
X103686Y733444D01*
X98330Y728088D01*
X98330Y720512D01*
X103686Y715156D01*
G37*
G36*
X205286Y715156D02*
X212862Y715156D01*
X218218Y720512D01*
X218218Y728088D01*
X212862Y733444D01*
X205286Y733444D01*
X199930Y728088D01*
X199930Y720512D01*
X205286Y715156D01*
G37*
G36*
X154486Y715156D02*
X162062Y715156D01*
X167418Y720512D01*
X167418Y728088D01*
X162062Y733444D01*
X154486Y733444D01*
X149130Y728088D01*
X149130Y720512D01*
X154486Y715156D01*
G37*
G36*
X129086Y715156D02*
X136662Y715156D01*
X142018Y720512D01*
X142018Y728088D01*
X136662Y733444D01*
X129086Y733444D01*
X123730Y728088D01*
X123730Y720512D01*
X129086Y715156D01*
G37*
G36*
X78286Y715156D02*
X85862Y715156D01*
X91218Y720512D01*
X91218Y728088D01*
X85862Y733444D01*
X78286Y733444D01*
X72930Y728088D01*
X72930Y720512D01*
X78286Y715156D01*
G37*
G36*
X264944Y188910D02*
X268480Y188910D01*
X271748Y190263D01*
X274249Y192764D01*
X275602Y196032D01*
X275602Y199568D01*
X274249Y202836D01*
X271748Y205337D01*
X268480Y206690D01*
X264944Y206690D01*
X261676Y205337D01*
X258896Y202556D01*
X258103Y202022D01*
X257128Y201824D01*
X234902Y201824D01*
X233964Y202007D01*
X233135Y202556D01*
X194756Y240935D01*
X194222Y241727D01*
X194024Y242702D01*
X194024Y360800D01*
X193411Y362279D01*
X111256Y444435D01*
X110722Y445227D01*
X110524Y446202D01*
X110524Y450434D01*
X110699Y451354D01*
X111242Y452188D01*
X112067Y452744D01*
X112399Y452881D01*
X115329Y455811D01*
X116890Y459581D01*
X117363Y460321D01*
X118170Y460903D01*
X119140Y461124D01*
X120120Y460949D01*
X120954Y460406D01*
X121510Y459581D01*
X123071Y455811D01*
X126001Y452881D01*
X129829Y451296D01*
X133972Y451296D01*
X137799Y452881D01*
X140729Y455811D01*
X142290Y459581D01*
X142763Y460321D01*
X143570Y460903D01*
X144540Y461124D01*
X145520Y460949D01*
X146354Y460406D01*
X146910Y459581D01*
X148471Y455811D01*
X151401Y452881D01*
X155229Y451296D01*
X159372Y451296D01*
X163199Y452881D01*
X166129Y455811D01*
X167690Y459581D01*
X168163Y460321D01*
X168970Y460903D01*
X169940Y461124D01*
X170920Y460949D01*
X171754Y460406D01*
X172310Y459581D01*
X173871Y455811D01*
X176801Y452881D01*
X180629Y451296D01*
X184772Y451296D01*
X188599Y452881D01*
X191529Y455811D01*
X193090Y459581D01*
X193563Y460321D01*
X194370Y460903D01*
X195340Y461124D01*
X196320Y460949D01*
X197154Y460406D01*
X197710Y459581D01*
X199271Y455811D01*
X202201Y452881D01*
X206029Y451296D01*
X210172Y451296D01*
X213999Y452881D01*
X216929Y455811D01*
X218514Y459639D01*
X218514Y481562D01*
X216929Y485389D01*
X213999Y488319D01*
X210172Y489904D01*
X206029Y489904D01*
X202201Y488319D01*
X199271Y485389D01*
X197710Y481619D01*
X197237Y480879D01*
X196430Y480297D01*
X195460Y480076D01*
X194480Y480251D01*
X193646Y480794D01*
X193090Y481619D01*
X191529Y485389D01*
X188599Y488319D01*
X184772Y489904D01*
X180629Y489904D01*
X176801Y488319D01*
X173871Y485389D01*
X172310Y481619D01*
X171837Y480879D01*
X171030Y480297D01*
X170060Y480076D01*
X169080Y480251D01*
X168246Y480794D01*
X167690Y481619D01*
X166129Y485389D01*
X163199Y488319D01*
X159372Y489904D01*
X155229Y489904D01*
X151401Y488319D01*
X148471Y485389D01*
X146910Y481619D01*
X146437Y480879D01*
X145630Y480297D01*
X144660Y480076D01*
X143680Y480251D01*
X142846Y480794D01*
X142290Y481619D01*
X140729Y485389D01*
X137799Y488319D01*
X133972Y489904D01*
X129829Y489904D01*
X126001Y488319D01*
X123071Y485389D01*
X121510Y481619D01*
X121037Y480879D01*
X120230Y480297D01*
X119260Y480076D01*
X118280Y480251D01*
X117446Y480794D01*
X116890Y481619D01*
X115329Y485389D01*
X112399Y488319D01*
X108572Y489904D01*
X104429Y489904D01*
X100601Y488319D01*
X97671Y485389D01*
X96110Y481619D01*
X95637Y480879D01*
X94830Y480297D01*
X93860Y480076D01*
X92880Y480251D01*
X92046Y480794D01*
X91490Y481619D01*
X89929Y485389D01*
X86999Y488319D01*
X86667Y488456D01*
X85885Y488970D01*
X85322Y489791D01*
X85124Y490766D01*
X85124Y498398D01*
X85307Y499336D01*
X85856Y500165D01*
X110935Y525244D01*
X111727Y525778D01*
X112702Y525976D01*
X207298Y525976D01*
X208236Y525793D01*
X209065Y525244D01*
X245244Y489065D01*
X245778Y488273D01*
X245976Y487298D01*
X245976Y452702D01*
X245793Y451764D01*
X245244Y450935D01*
X206589Y412279D01*
X205976Y410800D01*
X205976Y249200D01*
X206589Y247721D01*
X234521Y219789D01*
X236000Y219176D01*
X257128Y219176D01*
X258066Y218993D01*
X258896Y218444D01*
X261676Y215663D01*
X264944Y214310D01*
X268480Y214310D01*
X271748Y215663D01*
X274249Y218164D01*
X275602Y221432D01*
X275602Y224968D01*
X274249Y228236D01*
X271748Y230737D01*
X268480Y232090D01*
X264944Y232090D01*
X261676Y230737D01*
X258896Y227956D01*
X258103Y227422D01*
X257128Y227224D01*
X239502Y227224D01*
X238564Y227407D01*
X237735Y227956D01*
X214756Y250935D01*
X214222Y251727D01*
X214024Y252702D01*
X214024Y407298D01*
X214207Y408236D01*
X214756Y409065D01*
X253411Y447721D01*
X254024Y449200D01*
X254024Y490800D01*
X253411Y492279D01*
X212279Y533411D01*
X210800Y534024D01*
X109200Y534024D01*
X107721Y533411D01*
X77689Y503379D01*
X77076Y501900D01*
X77076Y490766D01*
X76901Y489846D01*
X76358Y489012D01*
X75533Y488456D01*
X75201Y488319D01*
X72271Y485389D01*
X71260Y482946D01*
X70787Y482207D01*
X69980Y481625D01*
X69010Y481404D01*
X68030Y481578D01*
X67196Y482121D01*
X66640Y482946D01*
X65390Y485965D01*
X62175Y489180D01*
X57974Y490920D01*
X56462Y490920D01*
X56462Y450280D01*
X57974Y450280D01*
X62175Y452020D01*
X65390Y455235D01*
X66640Y458254D01*
X67113Y458993D01*
X67920Y459575D01*
X68890Y459796D01*
X69870Y459622D01*
X70703Y459079D01*
X71260Y458254D01*
X72271Y455811D01*
X75201Y452881D01*
X79029Y451296D01*
X83172Y451296D01*
X86999Y452881D01*
X89929Y455811D01*
X91490Y459581D01*
X91963Y460321D01*
X92770Y460903D01*
X93740Y461124D01*
X94720Y460949D01*
X95554Y460406D01*
X96110Y459581D01*
X97671Y455811D01*
X100601Y452881D01*
X100933Y452744D01*
X101715Y452230D01*
X102278Y451409D01*
X102476Y450434D01*
X102476Y442700D01*
X103089Y441221D01*
X185244Y359065D01*
X185778Y358273D01*
X185976Y357298D01*
X185976Y239200D01*
X186589Y237721D01*
X229921Y194389D01*
X231400Y193776D01*
X257128Y193776D01*
X258066Y193593D01*
X258896Y193044D01*
X261676Y190263D01*
X264944Y188910D01*
G37*
G36*
X53426Y450280D02*
X54938Y450280D01*
X54938Y490920D01*
X53426Y490920D01*
X49225Y489180D01*
X46010Y485965D01*
X44760Y482946D01*
X44287Y482207D01*
X43480Y481625D01*
X42510Y481404D01*
X41530Y481578D01*
X40697Y482121D01*
X40140Y482946D01*
X39129Y485389D01*
X36199Y488319D01*
X32372Y489904D01*
X28229Y489904D01*
X24401Y488319D01*
X21471Y485389D01*
X19886Y481562D01*
X19886Y459639D01*
X21471Y455811D01*
X24401Y452881D01*
X28229Y451296D01*
X32372Y451296D01*
X36199Y452881D01*
X39129Y455811D01*
X40140Y458254D01*
X40613Y458993D01*
X41420Y459575D01*
X42390Y459796D01*
X43370Y459622D01*
X44204Y459079D01*
X44760Y458254D01*
X46010Y455235D01*
X49225Y452020D01*
X53426Y450280D01*
G37*
G36*
X104406Y401762D02*
X113550Y401762D01*
X113550Y410906D01*
X112342Y410906D01*
X108701Y409398D01*
X105914Y406611D01*
X104406Y402970D01*
X104406Y401762D01*
G37*
G36*
X115074Y401762D02*
X124218Y401762D01*
X124218Y402970D01*
X122710Y406611D01*
X119923Y409398D01*
X116282Y410906D01*
X115074Y410906D01*
X115074Y401762D01*
G37*
G36*
X264944Y392110D02*
X268480Y392110D01*
X271748Y393463D01*
X274249Y395964D01*
X275602Y399232D01*
X275602Y402768D01*
X274249Y406036D01*
X271748Y408537D01*
X268480Y409890D01*
X264944Y409890D01*
X261676Y408537D01*
X259175Y406036D01*
X257822Y402768D01*
X257822Y399232D01*
X259175Y395964D01*
X261676Y393463D01*
X264944Y392110D01*
G37*
G36*
X115074Y391094D02*
X116282Y391094D01*
X119923Y392602D01*
X122710Y395389D01*
X124218Y399030D01*
X124218Y400238D01*
X115074Y400238D01*
X115074Y391094D01*
G37*
G36*
X112342Y391094D02*
X113550Y391094D01*
X113550Y400238D01*
X104406Y400238D01*
X104406Y399030D01*
X105914Y395389D01*
X108701Y392602D01*
X112342Y391094D01*
G37*
G36*
X18940Y390604D02*
X28338Y390604D01*
X28338Y400002D01*
X24892Y400002D01*
X18940Y394050D01*
X18940Y390604D01*
G37*
G36*
X29862Y390604D02*
X39260Y390604D01*
X39260Y394050D01*
X33308Y400002D01*
X29862Y400002D01*
X29862Y390604D01*
G37*
G36*
X50712Y380698D02*
X58288Y380698D01*
X63644Y386054D01*
X63644Y393630D01*
X58288Y398986D01*
X50712Y398986D01*
X45356Y393630D01*
X45356Y386054D01*
X50712Y380698D01*
G37*
G36*
X76112Y380698D02*
X83688Y380698D01*
X89044Y386054D01*
X89044Y393630D01*
X83688Y398986D01*
X76112Y398986D01*
X70756Y393630D01*
X70756Y386054D01*
X76112Y380698D01*
G37*
G36*
X29862Y379682D02*
X33308Y379682D01*
X39260Y385634D01*
X39260Y389080D01*
X29862Y389080D01*
X29862Y379682D01*
G37*
G36*
X24892Y379682D02*
X28338Y379682D01*
X28338Y389080D01*
X18940Y389080D01*
X18940Y385634D01*
X24892Y379682D01*
G37*
G36*
X256806Y376362D02*
X265950Y376362D01*
X265950Y385506D01*
X264742Y385506D01*
X261101Y383998D01*
X258314Y381211D01*
X256806Y377570D01*
X256806Y376362D01*
G37*
G36*
X267474Y376362D02*
X276618Y376362D01*
X276618Y377570D01*
X275110Y381211D01*
X272323Y383998D01*
X268682Y385506D01*
X267474Y385506D01*
X267474Y376362D01*
G37*
G36*
X112544Y366710D02*
X116080Y366710D01*
X119348Y368063D01*
X121849Y370564D01*
X123202Y373832D01*
X123202Y377368D01*
X121849Y380636D01*
X119348Y383137D01*
X116080Y384490D01*
X112544Y384490D01*
X109276Y383137D01*
X106775Y380636D01*
X105422Y377368D01*
X105422Y373832D01*
X106775Y370564D01*
X109276Y368063D01*
X112544Y366710D01*
G37*
G36*
X267474Y365694D02*
X268682Y365694D01*
X272323Y367202D01*
X275110Y369989D01*
X276618Y373630D01*
X276618Y374838D01*
X267474Y374838D01*
X267474Y365694D01*
G37*
G36*
X264742Y365694D02*
X265950Y365694D01*
X265950Y374838D01*
X256806Y374838D01*
X256806Y373630D01*
X258314Y369989D01*
X261101Y367202D01*
X264742Y365694D01*
G37*
G36*
X18940Y365204D02*
X28338Y365204D01*
X28338Y374602D01*
X24892Y374602D01*
X18940Y368650D01*
X18940Y365204D01*
G37*
G36*
X29862Y365204D02*
X39260Y365204D01*
X39260Y368650D01*
X33308Y374602D01*
X29862Y374602D01*
X29862Y365204D01*
G37*
G36*
X50712Y355298D02*
X58288Y355298D01*
X63644Y360654D01*
X63644Y368230D01*
X58288Y373586D01*
X50712Y373586D01*
X45356Y368230D01*
X45356Y360654D01*
X50712Y355298D01*
G37*
G36*
X76112Y355298D02*
X83688Y355298D01*
X89044Y360654D01*
X89044Y368230D01*
X83688Y373586D01*
X76112Y373586D01*
X70756Y368230D01*
X70756Y360654D01*
X76112Y355298D01*
G37*
G36*
X24892Y354282D02*
X28338Y354282D01*
X28338Y363680D01*
X18940Y363680D01*
X18940Y360234D01*
X24892Y354282D01*
G37*
G36*
X29862Y354282D02*
X33308Y354282D01*
X39260Y360234D01*
X39260Y363680D01*
X29862Y363680D01*
X29862Y354282D01*
G37*
G36*
X264944Y341310D02*
X268480Y341310D01*
X271748Y342663D01*
X274249Y345164D01*
X275602Y348432D01*
X275602Y351968D01*
X274249Y355236D01*
X271748Y357737D01*
X268480Y359090D01*
X264944Y359090D01*
X261676Y357737D01*
X259175Y355236D01*
X257822Y351968D01*
X257822Y348432D01*
X259175Y345164D01*
X261676Y342663D01*
X264944Y341310D01*
G37*
G36*
X112544Y341310D02*
X116080Y341310D01*
X119348Y342663D01*
X121849Y345164D01*
X123202Y348432D01*
X123202Y351968D01*
X121849Y355236D01*
X119348Y357737D01*
X116080Y359090D01*
X112544Y359090D01*
X109276Y357737D01*
X106775Y355236D01*
X105422Y351968D01*
X105422Y348432D01*
X106775Y345164D01*
X109276Y342663D01*
X112544Y341310D01*
G37*
G36*
X18940Y339804D02*
X28338Y339804D01*
X28338Y349202D01*
X24892Y349202D01*
X18940Y343250D01*
X18940Y339804D01*
G37*
G36*
X29862Y339804D02*
X39260Y339804D01*
X39260Y343250D01*
X33308Y349202D01*
X29862Y349202D01*
X29862Y339804D01*
G37*
G36*
X76112Y329898D02*
X83688Y329898D01*
X89044Y335254D01*
X89044Y342830D01*
X83688Y348186D01*
X76112Y348186D01*
X70756Y342830D01*
X70756Y335254D01*
X76112Y329898D01*
G37*
G36*
X50712Y329898D02*
X58288Y329898D01*
X63644Y335254D01*
X63644Y342830D01*
X58288Y348186D01*
X50712Y348186D01*
X45356Y342830D01*
X45356Y335254D01*
X50712Y329898D01*
G37*
G36*
X29862Y328882D02*
X33308Y328882D01*
X39260Y334834D01*
X39260Y338280D01*
X29862Y338280D01*
X29862Y328882D01*
G37*
G36*
X24892Y328882D02*
X28338Y328882D01*
X28338Y338280D01*
X18940Y338280D01*
X18940Y334834D01*
X24892Y328882D01*
G37*
G36*
X264944Y315910D02*
X268480Y315910D01*
X271748Y317263D01*
X274249Y319764D01*
X275602Y323032D01*
X275602Y326568D01*
X274249Y329836D01*
X271748Y332337D01*
X268480Y333690D01*
X264944Y333690D01*
X261676Y332337D01*
X259175Y329836D01*
X257822Y326568D01*
X257822Y323032D01*
X259175Y319764D01*
X261676Y317263D01*
X264944Y315910D01*
G37*
G36*
X112544Y315910D02*
X116080Y315910D01*
X119348Y317263D01*
X121849Y319764D01*
X123202Y323032D01*
X123202Y326568D01*
X121849Y329836D01*
X119348Y332337D01*
X116080Y333690D01*
X112544Y333690D01*
X109276Y332337D01*
X106775Y329836D01*
X105422Y326568D01*
X105422Y323032D01*
X106775Y319764D01*
X109276Y317263D01*
X112544Y315910D01*
G37*
G36*
X18940Y314404D02*
X28338Y314404D01*
X28338Y323802D01*
X24892Y323802D01*
X18940Y317850D01*
X18940Y314404D01*
G37*
G36*
X29862Y314404D02*
X39260Y314404D01*
X39260Y317850D01*
X33308Y323802D01*
X29862Y323802D01*
X29862Y314404D01*
G37*
G36*
X50712Y304498D02*
X58288Y304498D01*
X63644Y309854D01*
X63644Y317430D01*
X58288Y322786D01*
X50712Y322786D01*
X45356Y317430D01*
X45356Y309854D01*
X50712Y304498D01*
G37*
G36*
X76112Y304498D02*
X83688Y304498D01*
X89044Y309854D01*
X89044Y317430D01*
X83688Y322786D01*
X76112Y322786D01*
X70756Y317430D01*
X70756Y309854D01*
X76112Y304498D01*
G37*
G36*
X29862Y303482D02*
X33308Y303482D01*
X39260Y309434D01*
X39260Y312880D01*
X29862Y312880D01*
X29862Y303482D01*
G37*
G36*
X24892Y303482D02*
X28338Y303482D01*
X28338Y312880D01*
X18940Y312880D01*
X18940Y309434D01*
X24892Y303482D01*
G37*
G36*
X264944Y290510D02*
X268480Y290510D01*
X271748Y291863D01*
X274249Y294364D01*
X275602Y297632D01*
X275602Y301168D01*
X274249Y304436D01*
X271748Y306937D01*
X268480Y308290D01*
X264944Y308290D01*
X261676Y306937D01*
X259175Y304436D01*
X257822Y301168D01*
X257822Y297632D01*
X259175Y294364D01*
X261676Y291863D01*
X264944Y290510D01*
G37*
G36*
X112544Y290510D02*
X116080Y290510D01*
X119348Y291863D01*
X121849Y294364D01*
X123202Y297632D01*
X123202Y301168D01*
X121849Y304436D01*
X119348Y306937D01*
X116080Y308290D01*
X112544Y308290D01*
X109276Y306937D01*
X106775Y304436D01*
X105422Y301168D01*
X105422Y297632D01*
X106775Y294364D01*
X109276Y291863D01*
X112544Y290510D01*
G37*
G36*
X18940Y289004D02*
X28338Y289004D01*
X28338Y298402D01*
X24892Y298402D01*
X18940Y292450D01*
X18940Y289004D01*
G37*
G36*
X29862Y289004D02*
X39260Y289004D01*
X39260Y292450D01*
X33308Y298402D01*
X29862Y298402D01*
X29862Y289004D01*
G37*
G36*
X76112Y279098D02*
X83688Y279098D01*
X89044Y284454D01*
X89044Y292030D01*
X83688Y297386D01*
X76112Y297386D01*
X70756Y292030D01*
X70756Y284454D01*
X76112Y279098D01*
G37*
G36*
X50712Y279098D02*
X58288Y279098D01*
X63644Y284454D01*
X63644Y292030D01*
X58288Y297386D01*
X50712Y297386D01*
X45356Y292030D01*
X45356Y284454D01*
X50712Y279098D01*
G37*
G36*
X29862Y278082D02*
X33308Y278082D01*
X39260Y284034D01*
X39260Y287480D01*
X29862Y287480D01*
X29862Y278082D01*
G37*
G36*
X24892Y278082D02*
X28338Y278082D01*
X28338Y287480D01*
X18940Y287480D01*
X18940Y284034D01*
X24892Y278082D01*
G37*
G36*
X112544Y265110D02*
X116080Y265110D01*
X119348Y266463D01*
X121849Y268964D01*
X123202Y272232D01*
X123202Y275768D01*
X121849Y279036D01*
X119348Y281537D01*
X116080Y282890D01*
X112544Y282890D01*
X109276Y281537D01*
X106775Y279036D01*
X105422Y275768D01*
X105422Y272232D01*
X106775Y268964D01*
X109276Y266463D01*
X112544Y265110D01*
G37*
G36*
X264944Y265110D02*
X268480Y265110D01*
X271748Y266463D01*
X274249Y268964D01*
X275602Y272232D01*
X275602Y275768D01*
X274249Y279036D01*
X271748Y281537D01*
X268480Y282890D01*
X264944Y282890D01*
X261676Y281537D01*
X259175Y279036D01*
X257822Y275768D01*
X257822Y272232D01*
X259175Y268964D01*
X261676Y266463D01*
X264944Y265110D01*
G37*
G36*
X18940Y263604D02*
X28338Y263604D01*
X28338Y273002D01*
X24892Y273002D01*
X18940Y267050D01*
X18940Y263604D01*
G37*
G36*
X29862Y263604D02*
X39260Y263604D01*
X39260Y267050D01*
X33308Y273002D01*
X29862Y273002D01*
X29862Y263604D01*
G37*
G36*
X50712Y253698D02*
X58288Y253698D01*
X63644Y259054D01*
X63644Y266630D01*
X58288Y271986D01*
X50712Y271986D01*
X45356Y266630D01*
X45356Y259054D01*
X50712Y253698D01*
G37*
G36*
X76112Y253698D02*
X83688Y253698D01*
X89044Y259054D01*
X89044Y266630D01*
X83688Y271986D01*
X76112Y271986D01*
X70756Y266630D01*
X70756Y259054D01*
X76112Y253698D01*
G37*
G36*
X24892Y252682D02*
X28338Y252682D01*
X28338Y262080D01*
X18940Y262080D01*
X18940Y258634D01*
X24892Y252682D01*
G37*
G36*
X29862Y252682D02*
X33308Y252682D01*
X39260Y258634D01*
X39260Y262080D01*
X29862Y262080D01*
X29862Y252682D01*
G37*
G36*
X264944Y239710D02*
X268480Y239710D01*
X271748Y241063D01*
X274249Y243564D01*
X275602Y246832D01*
X275602Y250368D01*
X274249Y253636D01*
X271748Y256137D01*
X268480Y257490D01*
X264944Y257490D01*
X261676Y256137D01*
X259175Y253636D01*
X257822Y250368D01*
X257822Y246832D01*
X259175Y243564D01*
X261676Y241063D01*
X264944Y239710D01*
G37*
G36*
X112544Y239710D02*
X116080Y239710D01*
X119348Y241063D01*
X121849Y243564D01*
X123202Y246832D01*
X123202Y250368D01*
X121849Y253636D01*
X119348Y256137D01*
X116080Y257490D01*
X112544Y257490D01*
X109276Y256137D01*
X106775Y253636D01*
X105422Y250368D01*
X105422Y246832D01*
X106775Y243564D01*
X109276Y241063D01*
X112544Y239710D01*
G37*
G36*
X18940Y238204D02*
X28338Y238204D01*
X28338Y247602D01*
X24892Y247602D01*
X18940Y241650D01*
X18940Y238204D01*
G37*
G36*
X29862Y238204D02*
X39260Y238204D01*
X39260Y241650D01*
X33308Y247602D01*
X29862Y247602D01*
X29862Y238204D01*
G37*
G36*
X50712Y228298D02*
X58288Y228298D01*
X63644Y233654D01*
X63644Y241230D01*
X58288Y246586D01*
X50712Y246586D01*
X45356Y241230D01*
X45356Y233654D01*
X50712Y228298D01*
G37*
G36*
X76112Y228298D02*
X83688Y228298D01*
X89044Y233654D01*
X89044Y241230D01*
X83688Y246586D01*
X76112Y246586D01*
X70756Y241230D01*
X70756Y233654D01*
X76112Y228298D01*
G37*
G36*
X29862Y227282D02*
X33308Y227282D01*
X39260Y233234D01*
X39260Y236680D01*
X29862Y236680D01*
X29862Y227282D01*
G37*
G36*
X24892Y227282D02*
X28338Y227282D01*
X28338Y236680D01*
X18940Y236680D01*
X18940Y233234D01*
X24892Y227282D01*
G37*
G36*
X112544Y214310D02*
X116080Y214310D01*
X119348Y215663D01*
X121849Y218164D01*
X123202Y221432D01*
X123202Y224968D01*
X121849Y228236D01*
X119348Y230737D01*
X116080Y232090D01*
X112544Y232090D01*
X109276Y230737D01*
X106775Y228236D01*
X105422Y224968D01*
X105422Y221432D01*
X106775Y218164D01*
X109276Y215663D01*
X112544Y214310D01*
G37*
G36*
X18940Y212804D02*
X28338Y212804D01*
X28338Y222202D01*
X24892Y222202D01*
X18940Y216250D01*
X18940Y212804D01*
G37*
G36*
X29862Y212804D02*
X39260Y212804D01*
X39260Y216250D01*
X33308Y222202D01*
X29862Y222202D01*
X29862Y212804D01*
G37*
G36*
X76112Y202898D02*
X83688Y202898D01*
X89044Y208254D01*
X89044Y215830D01*
X83688Y221186D01*
X76112Y221186D01*
X70756Y215830D01*
X70756Y208254D01*
X76112Y202898D01*
G37*
G36*
X50712Y202898D02*
X58288Y202898D01*
X63644Y208254D01*
X63644Y215830D01*
X58288Y221186D01*
X50712Y221186D01*
X45356Y215830D01*
X45356Y208254D01*
X50712Y202898D01*
G37*
G36*
X29862Y201882D02*
X33308Y201882D01*
X39260Y207834D01*
X39260Y211280D01*
X29862Y211280D01*
X29862Y201882D01*
G37*
G36*
X24892Y201882D02*
X28338Y201882D01*
X28338Y211280D01*
X18940Y211280D01*
X18940Y207834D01*
X24892Y201882D01*
G37*
G36*
X112544Y188910D02*
X116080Y188910D01*
X119348Y190263D01*
X121849Y192764D01*
X123202Y196032D01*
X123202Y199568D01*
X121849Y202836D01*
X119348Y205337D01*
X116080Y206690D01*
X112544Y206690D01*
X109276Y205337D01*
X106775Y202836D01*
X105422Y199568D01*
X105422Y196032D01*
X106775Y192764D01*
X109276Y190263D01*
X112544Y188910D01*
G37*
G36*
X18940Y187404D02*
X28338Y187404D01*
X28338Y196802D01*
X24892Y196802D01*
X18940Y190850D01*
X18940Y187404D01*
G37*
G36*
X29862Y187404D02*
X39260Y187404D01*
X39260Y190850D01*
X33308Y196802D01*
X29862Y196802D01*
X29862Y187404D01*
G37*
G36*
X76112Y177498D02*
X83688Y177498D01*
X89044Y182854D01*
X89044Y190430D01*
X83688Y195786D01*
X76112Y195786D01*
X70756Y190430D01*
X70756Y182854D01*
X76112Y177498D01*
G37*
G36*
X50712Y177498D02*
X58288Y177498D01*
X63644Y182854D01*
X63644Y190430D01*
X58288Y195786D01*
X50712Y195786D01*
X45356Y190430D01*
X45356Y182854D01*
X50712Y177498D01*
G37*
G36*
X29862Y176482D02*
X33308Y176482D01*
X39260Y182434D01*
X39260Y185880D01*
X29862Y185880D01*
X29862Y176482D01*
G37*
G36*
X24892Y176482D02*
X28338Y176482D01*
X28338Y185880D01*
X18940Y185880D01*
X18940Y182434D01*
X24892Y176482D01*
G37*
G36*
X264944Y163510D02*
X268480Y163510D01*
X271748Y164863D01*
X274249Y167364D01*
X275602Y170632D01*
X275602Y174168D01*
X274249Y177436D01*
X271748Y179937D01*
X268480Y181290D01*
X264944Y181290D01*
X261676Y179937D01*
X259175Y177436D01*
X257822Y174168D01*
X257822Y170632D01*
X259175Y167364D01*
X261676Y164863D01*
X264944Y163510D01*
G37*
G36*
X112544Y163510D02*
X116080Y163510D01*
X119348Y164863D01*
X121849Y167364D01*
X123202Y170632D01*
X123202Y174168D01*
X121849Y177436D01*
X119348Y179937D01*
X116080Y181290D01*
X112544Y181290D01*
X109276Y179937D01*
X106775Y177436D01*
X105422Y174168D01*
X105422Y170632D01*
X106775Y167364D01*
X109276Y164863D01*
X112544Y163510D01*
G37*
G36*
X18940Y162004D02*
X28338Y162004D01*
X28338Y171402D01*
X24892Y171402D01*
X18940Y165450D01*
X18940Y162004D01*
G37*
G36*
X29862Y162004D02*
X39260Y162004D01*
X39260Y165450D01*
X33308Y171402D01*
X29862Y171402D01*
X29862Y162004D01*
G37*
G36*
X50712Y152098D02*
X58288Y152098D01*
X63644Y157454D01*
X63644Y165030D01*
X58288Y170386D01*
X50712Y170386D01*
X45356Y165030D01*
X45356Y157454D01*
X50712Y152098D01*
G37*
G36*
X76112Y152098D02*
X83688Y152098D01*
X89044Y157454D01*
X89044Y165030D01*
X83688Y170386D01*
X76112Y170386D01*
X70756Y165030D01*
X70756Y157454D01*
X76112Y152098D01*
G37*
G36*
X29862Y151082D02*
X33308Y151082D01*
X39260Y157034D01*
X39260Y160480D01*
X29862Y160480D01*
X29862Y151082D01*
G37*
G36*
X24892Y151082D02*
X28338Y151082D01*
X28338Y160480D01*
X18940Y160480D01*
X18940Y157034D01*
X24892Y151082D01*
G37*
G36*
X112544Y138110D02*
X116080Y138110D01*
X119348Y139463D01*
X121849Y141964D01*
X123202Y145232D01*
X123202Y148768D01*
X121849Y152036D01*
X119348Y154537D01*
X116080Y155890D01*
X112544Y155890D01*
X109276Y154537D01*
X106775Y152036D01*
X105422Y148768D01*
X105422Y145232D01*
X106775Y141964D01*
X109276Y139463D01*
X112544Y138110D01*
G37*
G36*
X264944Y138110D02*
X268480Y138110D01*
X271748Y139463D01*
X274249Y141964D01*
X275602Y145232D01*
X275602Y148768D01*
X274249Y152036D01*
X271748Y154537D01*
X268480Y155890D01*
X264944Y155890D01*
X261676Y154537D01*
X259175Y152036D01*
X257822Y148768D01*
X257822Y145232D01*
X259175Y141964D01*
X261676Y139463D01*
X264944Y138110D01*
G37*
G36*
X112544Y112710D02*
X116080Y112710D01*
X119348Y114063D01*
X121849Y116564D01*
X123202Y119832D01*
X123202Y123368D01*
X121849Y126636D01*
X119348Y129137D01*
X116080Y130490D01*
X112544Y130490D01*
X109276Y129137D01*
X106775Y126636D01*
X105422Y123368D01*
X105422Y119832D01*
X106775Y116564D01*
X109276Y114063D01*
X112544Y112710D01*
G37*
G36*
X264944Y112710D02*
X268480Y112710D01*
X271748Y114063D01*
X274249Y116564D01*
X275602Y119832D01*
X275602Y123368D01*
X274249Y126636D01*
X271748Y129137D01*
X268480Y130490D01*
X264944Y130490D01*
X261676Y129137D01*
X259175Y126636D01*
X257822Y123368D01*
X257822Y119832D01*
X259175Y116564D01*
X261676Y114063D01*
X264944Y112710D01*
G37*
G36*
X112544Y87310D02*
X116080Y87310D01*
X119348Y88663D01*
X121849Y91164D01*
X123202Y94432D01*
X123202Y97968D01*
X121849Y101236D01*
X119348Y103737D01*
X116080Y105090D01*
X112544Y105090D01*
X109276Y103737D01*
X106775Y101236D01*
X105422Y97968D01*
X105422Y94432D01*
X106775Y91164D01*
X109276Y88663D01*
X112544Y87310D01*
G37*
G36*
X264944Y87310D02*
X268480Y87310D01*
X271748Y88663D01*
X274249Y91164D01*
X275602Y94432D01*
X275602Y97968D01*
X274249Y101236D01*
X271748Y103737D01*
X268480Y105090D01*
X264944Y105090D01*
X261676Y103737D01*
X259175Y101236D01*
X257822Y97968D01*
X257822Y94432D01*
X259175Y91164D01*
X261676Y88663D01*
X264944Y87310D01*
G37*
G36*
X239544Y61910D02*
X243080Y61910D01*
X246348Y63263D01*
X248849Y65764D01*
X250202Y69032D01*
X250202Y72568D01*
X248849Y75836D01*
X246348Y78337D01*
X243080Y79690D01*
X239544Y79690D01*
X236276Y78337D01*
X233775Y75836D01*
X232422Y72568D01*
X232422Y69032D01*
X233775Y65764D01*
X236276Y63263D01*
X239544Y61910D01*
G37*
G36*
X214144Y61910D02*
X217680Y61910D01*
X220948Y63263D01*
X223449Y65764D01*
X224802Y69032D01*
X224802Y72568D01*
X223449Y75836D01*
X220948Y78337D01*
X217680Y79690D01*
X214144Y79690D01*
X210876Y78337D01*
X208375Y75836D01*
X207022Y72568D01*
X207022Y69032D01*
X208375Y65764D01*
X210876Y63263D01*
X214144Y61910D01*
G37*
G36*
X188744Y61910D02*
X192280Y61910D01*
X195548Y63263D01*
X198049Y65764D01*
X199402Y69032D01*
X199402Y72568D01*
X198049Y75836D01*
X195548Y78337D01*
X192280Y79690D01*
X188744Y79690D01*
X185476Y78337D01*
X182975Y75836D01*
X181622Y72568D01*
X181622Y69032D01*
X182975Y65764D01*
X185476Y63263D01*
X188744Y61910D01*
G37*
G36*
X163344Y61910D02*
X166880Y61910D01*
X170148Y63263D01*
X172649Y65764D01*
X174002Y69032D01*
X174002Y72568D01*
X172649Y75836D01*
X170148Y78337D01*
X166880Y79690D01*
X163344Y79690D01*
X160076Y78337D01*
X157575Y75836D01*
X156222Y72568D01*
X156222Y69032D01*
X157575Y65764D01*
X160076Y63263D01*
X163344Y61910D01*
G37*
G36*
X137944Y61910D02*
X141480Y61910D01*
X144748Y63263D01*
X147249Y65764D01*
X148602Y69032D01*
X148602Y72568D01*
X147249Y75836D01*
X144748Y78337D01*
X141480Y79690D01*
X137944Y79690D01*
X134676Y78337D01*
X132175Y75836D01*
X130822Y72568D01*
X130822Y69032D01*
X132175Y65764D01*
X134676Y63263D01*
X137944Y61910D01*
G37*
G36*
X264944Y61910D02*
X268480Y61910D01*
X271748Y63263D01*
X274249Y65764D01*
X275602Y69032D01*
X275602Y72568D01*
X274249Y75836D01*
X271748Y78337D01*
X268480Y79690D01*
X264944Y79690D01*
X261676Y78337D01*
X259175Y75836D01*
X257822Y72568D01*
X257822Y69032D01*
X259175Y65764D01*
X261676Y63263D01*
X264944Y61910D01*
G37*
G36*
X112544Y61910D02*
X116080Y61910D01*
X119348Y63263D01*
X121849Y65764D01*
X123202Y69032D01*
X123202Y72568D01*
X121849Y75836D01*
X119348Y78337D01*
X116080Y79690D01*
X112544Y79690D01*
X109276Y78337D01*
X106775Y75836D01*
X105422Y72568D01*
X105422Y69032D01*
X106775Y65764D01*
X109276Y63263D01*
X112544Y61910D01*
G37*
%LPD*%
D10*
X114312Y350200D03*
X114312Y324800D03*
X114312Y299400D03*
X114312Y274000D03*
X114312Y248600D03*
X114312Y223200D03*
X114312Y197800D03*
X114312Y172400D03*
X114312Y147000D03*
X114312Y121600D03*
X114312Y96200D03*
X114312Y70800D03*
X266712Y70800D03*
X266712Y96200D03*
X266712Y121600D03*
X266712Y147000D03*
X266712Y172400D03*
X266712Y197800D03*
X266712Y223200D03*
X266712Y248600D03*
X266712Y274000D03*
X266712Y299400D03*
X266712Y324800D03*
X114312Y375600D03*
X266712Y350200D03*
X114312Y401000D03*
X266712Y401000D03*
X266712Y375600D03*
X241312Y70800D03*
X215912Y70800D03*
X190512Y70800D03*
X165112Y70800D03*
X139712Y70800D03*
D11*
X234474Y724300D03*
X209074Y724300D03*
X183674Y724300D03*
X158274Y724300D03*
X132874Y724300D03*
X107474Y724300D03*
X82074Y724300D03*
X234474Y749700D03*
X209074Y749700D03*
X183674Y749700D03*
X158274Y749700D03*
X132874Y749700D03*
X107474Y749700D03*
X82074Y749700D03*
X234474Y775100D03*
X209074Y775100D03*
X183674Y775100D03*
X158274Y775100D03*
X132874Y775100D03*
X107474Y775100D03*
X82074Y775100D03*
D12*
X106500Y479490D02*
X106500Y461710D01*
X131900Y461710D02*
X131900Y479490D01*
X81100Y479490D02*
X81100Y461710D01*
X55700Y461710D02*
X55700Y479490D01*
X30300Y479490D02*
X30300Y461710D01*
X157300Y461710D02*
X157300Y479490D01*
X182700Y479490D02*
X182700Y461710D01*
X208100Y461710D02*
X208100Y479490D01*
D13*
X79900Y389842D03*
X79900Y364442D03*
X79900Y339042D03*
X79900Y313642D03*
X79900Y288242D03*
X79900Y262842D03*
X79900Y237442D03*
X79900Y212042D03*
X79900Y186642D03*
X79900Y161242D03*
X54500Y389842D03*
X54500Y364442D03*
X54500Y339042D03*
X54500Y313642D03*
X54500Y288242D03*
X54500Y262842D03*
X54500Y237442D03*
X54500Y212042D03*
X54500Y186642D03*
X54500Y161242D03*
X29100Y389842D03*
X29100Y364442D03*
X29100Y339042D03*
X29100Y313642D03*
X29100Y288242D03*
X29100Y262842D03*
X29100Y237442D03*
X29100Y212042D03*
X29100Y186642D03*
X29100Y161242D03*
D14*
X81100Y470600D02*
X81100Y501100D01*
X110000Y530000D01*
X210000Y530000D01*
X250000Y490000D01*
X250000Y450000D01*
X210000Y410000D01*
X210000Y250000D01*
X236800Y223200D01*
X266712Y223200D01*
X106500Y443500D02*
X106500Y470600D01*
X106500Y443500D02*
X190000Y360000D01*
X190000Y240000D01*
X232200Y197800D01*
X266712Y197800D01*
M02*
