G04 EAGLE Gerber RS-274X export*
G75*
%MOMM*%
%FSLAX34Y34*%
%LPD*%
%IN*%
%IPPOS*%
%AMOC8*
5,1,8,0,0,1.08239X$1,22.5*%
G01*
G04 Define Apertures*
%ADD10C,0.254000*%
D10*
X0Y34142D02*
X130Y31166D01*
X519Y28213D01*
X1163Y25305D01*
X2059Y22465D01*
X3199Y19713D01*
X4574Y17071D01*
X6175Y14559D01*
X7988Y12196D01*
X10000Y10000D01*
X12196Y7988D01*
X14559Y6175D01*
X17071Y4574D01*
X19713Y3199D01*
X22465Y2059D01*
X25305Y1163D01*
X28213Y519D01*
X31166Y130D01*
X34142Y0D01*
X265858Y0D01*
X268834Y130D01*
X271787Y519D01*
X274695Y1163D01*
X277535Y2059D01*
X280287Y3199D01*
X282929Y4574D01*
X285441Y6175D01*
X287804Y7988D01*
X290000Y10000D01*
X292012Y12196D01*
X293825Y14559D01*
X295426Y17071D01*
X296801Y19713D01*
X297941Y22465D01*
X298837Y25305D01*
X299481Y28213D01*
X299870Y31166D01*
X300000Y34142D01*
X300000Y815858D01*
X300287Y819288D01*
X300274Y822731D01*
X299960Y826159D01*
X299350Y829547D01*
X298446Y832869D01*
X297256Y836099D01*
X295789Y839213D01*
X294056Y842188D01*
X292071Y845000D01*
X289848Y847629D01*
X287405Y850053D01*
X284759Y852256D01*
X281932Y854220D01*
X278944Y855929D01*
X275818Y857372D01*
X272579Y858537D01*
X269250Y859415D01*
X265858Y860000D01*
X34142Y860000D01*
X30750Y859415D01*
X27421Y858537D01*
X24182Y857372D01*
X21056Y855929D01*
X18068Y854220D01*
X15241Y852256D01*
X12595Y850053D01*
X10152Y847629D01*
X7929Y845000D01*
X5944Y842188D01*
X4211Y839213D01*
X2744Y836099D01*
X1554Y832869D01*
X650Y829547D01*
X40Y826159D01*
X-274Y822731D01*
X-287Y819288D01*
X0Y815858D01*
X0Y34142D01*
M02*
