G04 EAGLE Gerber RS-274X export*
G75*
%MOMM*%
%FSLAX34Y34*%
%LPD*%
%INSilkscreen Top*%
%IPPOS*%
%AMOC8*
5,1,8,0,0,1.08239X$1,22.5*%
G01*
G04 Define Apertures*
%ADD10C,0.076200*%
%ADD11C,0.304800*%
%ADD12C,0.127000*%
G36*
X79344Y612870D02*
X78784Y612884D01*
X78243Y612928D01*
X77721Y613000D01*
X77219Y613101D01*
X76737Y613231D01*
X76274Y613390D01*
X75831Y613578D01*
X75407Y613795D01*
X75005Y614039D01*
X74628Y614309D01*
X74275Y614605D01*
X73947Y614926D01*
X73643Y615274D01*
X73364Y615647D01*
X73109Y616046D01*
X72879Y616471D01*
X72674Y616917D01*
X72497Y617382D01*
X72347Y617865D01*
X72224Y618367D01*
X72129Y618887D01*
X72061Y619424D01*
X72020Y619981D01*
X72006Y620555D01*
X72014Y620993D01*
X72037Y621419D01*
X72075Y621833D01*
X72128Y622235D01*
X72196Y622624D01*
X72280Y623002D01*
X72378Y623367D01*
X72492Y623721D01*
X72622Y624062D01*
X72766Y624391D01*
X72925Y624708D01*
X73100Y625013D01*
X73290Y625306D01*
X73495Y625586D01*
X73716Y625855D01*
X73951Y626111D01*
X74200Y626354D01*
X74461Y626581D01*
X74734Y626792D01*
X75019Y626987D01*
X75316Y627167D01*
X75624Y627332D01*
X75945Y627480D01*
X76277Y627613D01*
X76622Y627731D01*
X76978Y627832D01*
X77346Y627918D01*
X77726Y627989D01*
X78118Y628044D01*
X78522Y628083D01*
X78938Y628106D01*
X79365Y628114D01*
X79921Y628100D01*
X80458Y628058D01*
X80976Y627988D01*
X81476Y627889D01*
X81957Y627763D01*
X82419Y627608D01*
X82862Y627426D01*
X83287Y627215D01*
X83690Y626978D01*
X84069Y626715D01*
X84423Y626426D01*
X84752Y626113D01*
X85057Y625773D01*
X85338Y625408D01*
X85594Y625018D01*
X85826Y624603D01*
X86032Y624164D01*
X86210Y623707D01*
X86361Y623230D01*
X86484Y622734D01*
X86580Y622218D01*
X86649Y621683D01*
X86690Y621129D01*
X86704Y620555D01*
X86690Y619983D01*
X86648Y619429D01*
X86579Y618894D01*
X86482Y618376D01*
X86357Y617877D01*
X86204Y617395D01*
X86024Y616932D01*
X85815Y616486D01*
X85581Y616063D01*
X85323Y615664D01*
X85040Y615291D01*
X84734Y614943D01*
X84403Y614621D01*
X84048Y614324D01*
X83669Y614052D01*
X83266Y613805D01*
X82841Y613586D01*
X82398Y613396D01*
X81936Y613235D01*
X81455Y613104D01*
X80955Y613001D01*
X80437Y612928D01*
X79900Y612884D01*
X79344Y612870D01*
G37*
%LPC*%
G36*
X79344Y614499D02*
X79660Y614505D01*
X79967Y614524D01*
X80264Y614555D01*
X80552Y614598D01*
X80831Y614654D01*
X81101Y614722D01*
X81611Y614895D01*
X82085Y615117D01*
X82521Y615389D01*
X82920Y615711D01*
X83282Y616082D01*
X83603Y616498D01*
X83882Y616954D01*
X84118Y617452D01*
X84311Y617991D01*
X84461Y618571D01*
X84568Y619191D01*
X84632Y619853D01*
X84654Y620555D01*
X84632Y621228D01*
X84567Y621863D01*
X84459Y622462D01*
X84308Y623023D01*
X84114Y623547D01*
X83876Y624034D01*
X83595Y624484D01*
X83271Y624897D01*
X82908Y625267D01*
X82509Y625587D01*
X82074Y625858D01*
X81603Y626080D01*
X81097Y626252D01*
X80556Y626375D01*
X80272Y626419D01*
X79978Y626449D01*
X79676Y626468D01*
X79365Y626474D01*
X79052Y626468D01*
X78747Y626450D01*
X78452Y626419D01*
X78166Y626377D01*
X77620Y626255D01*
X77110Y626085D01*
X76637Y625866D01*
X76200Y625599D01*
X75798Y625283D01*
X75433Y624918D01*
X75108Y624509D01*
X74826Y624062D01*
X74588Y623575D01*
X74393Y623049D01*
X74241Y622484D01*
X74132Y621880D01*
X74067Y621237D01*
X74046Y620555D01*
X74068Y619876D01*
X74133Y619234D01*
X74243Y618627D01*
X74397Y618057D01*
X74594Y617522D01*
X74835Y617023D01*
X75120Y616561D01*
X75449Y616134D01*
X75817Y615751D01*
X76219Y615419D01*
X76655Y615138D01*
X77125Y614908D01*
X77629Y614729D01*
X77893Y614659D01*
X78167Y614601D01*
X78448Y614557D01*
X78739Y614525D01*
X79037Y614506D01*
X79344Y614499D01*
G37*
%LPD*%
G36*
X133373Y608612D02*
X132919Y608623D01*
X132490Y608658D01*
X132083Y608715D01*
X131701Y608795D01*
X131342Y608897D01*
X131007Y609023D01*
X130696Y609171D01*
X130408Y609343D01*
X130144Y609535D01*
X129905Y609746D01*
X129691Y609977D01*
X129501Y610227D01*
X129336Y610496D01*
X129196Y610785D01*
X129080Y611092D01*
X128989Y611419D01*
X130891Y611692D01*
X130946Y611501D01*
X131015Y611321D01*
X131098Y611152D01*
X131195Y610994D01*
X131307Y610848D01*
X131433Y610714D01*
X131573Y610590D01*
X131727Y610478D01*
X131895Y610378D01*
X132076Y610292D01*
X132269Y610219D01*
X132475Y610159D01*
X132694Y610112D01*
X132925Y610079D01*
X133169Y610059D01*
X133425Y610052D01*
X133768Y610065D01*
X133785Y610067D01*
X134088Y610104D01*
X134386Y610169D01*
X134662Y610259D01*
X134917Y610376D01*
X135149Y610518D01*
X135358Y610686D01*
X135546Y610880D01*
X135712Y611100D01*
X135856Y611346D01*
X135977Y611617D01*
X136077Y611915D01*
X136154Y612238D01*
X136209Y612588D01*
X136242Y612963D01*
X136253Y613364D01*
X136253Y615193D01*
X136232Y615193D01*
X136092Y614928D01*
X135939Y614680D01*
X135774Y614449D01*
X135596Y614235D01*
X135406Y614038D01*
X135203Y613858D01*
X134988Y613694D01*
X134775Y613558D01*
X134760Y613548D01*
X134522Y613418D01*
X134273Y613306D01*
X134014Y613211D01*
X133746Y613134D01*
X133468Y613074D01*
X133179Y613030D01*
X132881Y613005D01*
X132574Y612996D01*
X132068Y613018D01*
X131597Y613083D01*
X131160Y613191D01*
X130759Y613343D01*
X130392Y613538D01*
X130059Y613777D01*
X129762Y614058D01*
X129498Y614384D01*
X129268Y614755D01*
X129068Y615177D01*
X128899Y615648D01*
X128761Y616168D01*
X128654Y616738D01*
X128577Y617358D01*
X128531Y618028D01*
X128515Y618747D01*
X128532Y619476D01*
X128582Y620156D01*
X128664Y620787D01*
X128780Y621368D01*
X128928Y621900D01*
X129110Y622383D01*
X129324Y622816D01*
X129572Y623199D01*
X129853Y623535D01*
X130169Y623827D01*
X130519Y624074D01*
X130903Y624275D01*
X131322Y624432D01*
X131775Y624544D01*
X132262Y624612D01*
X132784Y624634D01*
X133081Y624625D01*
X133368Y624600D01*
X133646Y624557D01*
X133913Y624496D01*
X134170Y624419D01*
X134417Y624324D01*
X134654Y624212D01*
X134881Y624082D01*
X135097Y623937D01*
X135300Y623777D01*
X135491Y623602D01*
X135668Y623413D01*
X135834Y623209D01*
X135986Y622991D01*
X136126Y622758D01*
X136253Y622510D01*
X136274Y622510D01*
X136316Y623604D01*
X136358Y624206D01*
X136379Y624375D01*
X136400Y624455D01*
X138198Y624455D01*
X138171Y624095D01*
X138151Y623583D01*
X138135Y622100D01*
X138135Y613406D01*
X138117Y612825D01*
X138061Y612282D01*
X137968Y611777D01*
X137838Y611309D01*
X137670Y610878D01*
X137465Y610485D01*
X137224Y610129D01*
X136945Y609810D01*
X136628Y609529D01*
X136275Y609286D01*
X135884Y609080D01*
X135456Y608912D01*
X134991Y608780D01*
X134489Y608687D01*
X133949Y608631D01*
X133373Y608612D01*
G37*
%LPC*%
G36*
X133215Y614394D02*
X133435Y614402D01*
X133649Y614427D01*
X133857Y614468D01*
X134059Y614526D01*
X134254Y614600D01*
X134443Y614690D01*
X134626Y614797D01*
X134802Y614920D01*
X134971Y615058D01*
X135130Y615211D01*
X135279Y615378D01*
X135300Y615406D01*
X135417Y615560D01*
X135666Y615966D01*
X135875Y616428D01*
X135964Y616680D01*
X136040Y616943D01*
X136105Y617218D01*
X136159Y617505D01*
X136200Y617803D01*
X136230Y618113D01*
X136247Y618434D01*
X136253Y618768D01*
X136247Y619109D01*
X136230Y619438D01*
X136200Y619755D01*
X136159Y620060D01*
X136105Y620352D01*
X136040Y620633D01*
X135964Y620902D01*
X135875Y621159D01*
X135666Y621632D01*
X135419Y622045D01*
X135281Y622230D01*
X135133Y622399D01*
X134975Y622554D01*
X134808Y622694D01*
X134633Y622819D01*
X134452Y622927D01*
X134265Y623018D01*
X134073Y623093D01*
X133875Y623151D01*
X133671Y623192D01*
X133462Y623217D01*
X133246Y623225D01*
X132896Y623209D01*
X132570Y623160D01*
X132269Y623077D01*
X131993Y622963D01*
X131741Y622815D01*
X131514Y622634D01*
X131311Y622420D01*
X131133Y622174D01*
X130978Y621891D01*
X130844Y621567D01*
X130730Y621202D01*
X130637Y620797D01*
X130564Y620351D01*
X130512Y619864D01*
X130481Y619336D01*
X130471Y618768D01*
X130481Y618205D01*
X130510Y617683D01*
X130558Y617202D01*
X130626Y616762D01*
X130713Y616364D01*
X130820Y616006D01*
X130946Y615689D01*
X131091Y615414D01*
X131260Y615175D01*
X131457Y614968D01*
X131681Y614793D01*
X131932Y614649D01*
X132212Y614538D01*
X132518Y614458D01*
X132853Y614410D01*
X133215Y614394D01*
G37*
%LPD*%
G36*
X195599Y631472D02*
X195146Y631483D01*
X194716Y631518D01*
X194310Y631575D01*
X193928Y631655D01*
X193569Y631757D01*
X193234Y631883D01*
X192922Y632031D01*
X192634Y632203D01*
X192371Y632395D01*
X192132Y632606D01*
X191917Y632837D01*
X191728Y633087D01*
X191563Y633356D01*
X191422Y633645D01*
X191306Y633952D01*
X191215Y634279D01*
X193118Y634552D01*
X193173Y634361D01*
X193241Y634181D01*
X193324Y634012D01*
X193422Y633854D01*
X193533Y633708D01*
X193659Y633574D01*
X193799Y633450D01*
X193954Y633338D01*
X194122Y633238D01*
X194302Y633152D01*
X194496Y633079D01*
X194702Y633019D01*
X194920Y632972D01*
X195151Y632939D01*
X195395Y632919D01*
X195652Y632912D01*
X195994Y632925D01*
X196012Y632927D01*
X196315Y632964D01*
X196613Y633029D01*
X196889Y633119D01*
X197143Y633236D01*
X197375Y633378D01*
X197585Y633546D01*
X197773Y633740D01*
X197939Y633960D01*
X198082Y634206D01*
X198204Y634477D01*
X198303Y634775D01*
X198380Y635098D01*
X198436Y635448D01*
X198469Y635823D01*
X198480Y636224D01*
X198480Y638053D01*
X198459Y638053D01*
X198319Y637788D01*
X198166Y637540D01*
X198001Y637309D01*
X197823Y637095D01*
X197633Y636898D01*
X197430Y636718D01*
X197215Y636554D01*
X197002Y636418D01*
X196987Y636408D01*
X196748Y636278D01*
X196499Y636166D01*
X196241Y636071D01*
X195972Y635994D01*
X195694Y635934D01*
X195406Y635890D01*
X195108Y635865D01*
X194800Y635856D01*
X194294Y635878D01*
X193823Y635943D01*
X193387Y636051D01*
X192985Y636203D01*
X192618Y636398D01*
X192286Y636637D01*
X191988Y636918D01*
X191725Y637244D01*
X191495Y637615D01*
X191295Y638037D01*
X191126Y638508D01*
X190988Y639028D01*
X190880Y639598D01*
X190803Y640218D01*
X190757Y640888D01*
X190742Y641607D01*
X190759Y642336D01*
X190808Y643016D01*
X190891Y643647D01*
X191006Y644228D01*
X191155Y644760D01*
X191336Y645243D01*
X191551Y645676D01*
X191799Y646059D01*
X192080Y646395D01*
X192396Y646687D01*
X192746Y646934D01*
X193130Y647135D01*
X193549Y647292D01*
X194002Y647404D01*
X194489Y647472D01*
X195010Y647494D01*
X195308Y647485D01*
X195595Y647460D01*
X195872Y647417D01*
X196139Y647356D01*
X196396Y647279D01*
X196644Y647184D01*
X196881Y647072D01*
X197108Y646942D01*
X197324Y646797D01*
X197527Y646637D01*
X197717Y646462D01*
X197895Y646273D01*
X198060Y646069D01*
X198213Y645851D01*
X198353Y645618D01*
X198480Y645370D01*
X198501Y645370D01*
X198543Y646464D01*
X198585Y647066D01*
X198606Y647235D01*
X198627Y647315D01*
X200425Y647315D01*
X200397Y646955D01*
X200377Y646443D01*
X200362Y644960D01*
X200362Y636266D01*
X200343Y635685D01*
X200287Y635142D01*
X200194Y634637D01*
X200064Y634169D01*
X199897Y633738D01*
X199692Y633345D01*
X199450Y632989D01*
X199171Y632670D01*
X198855Y632389D01*
X198501Y632146D01*
X198111Y631940D01*
X197683Y631772D01*
X197218Y631640D01*
X196715Y631547D01*
X196176Y631491D01*
X195599Y631472D01*
G37*
%LPC*%
G36*
X195441Y637254D02*
X195662Y637262D01*
X195876Y637287D01*
X196084Y637328D01*
X196285Y637386D01*
X196481Y637460D01*
X196670Y637550D01*
X196852Y637657D01*
X197029Y637780D01*
X197198Y637918D01*
X197356Y638071D01*
X197505Y638238D01*
X197526Y638266D01*
X197644Y638420D01*
X197892Y638826D01*
X198101Y639288D01*
X198190Y639540D01*
X198267Y639803D01*
X198332Y640078D01*
X198385Y640365D01*
X198427Y640663D01*
X198456Y640973D01*
X198474Y641294D01*
X198480Y641628D01*
X198474Y641969D01*
X198456Y642298D01*
X198427Y642615D01*
X198385Y642920D01*
X198332Y643212D01*
X198267Y643493D01*
X198190Y643762D01*
X198101Y644019D01*
X197893Y644492D01*
X197645Y644905D01*
X197507Y645090D01*
X197359Y645259D01*
X197202Y645414D01*
X197034Y645554D01*
X196859Y645679D01*
X196678Y645787D01*
X196492Y645878D01*
X196300Y645953D01*
X196102Y646011D01*
X195898Y646052D01*
X195688Y646077D01*
X195473Y646085D01*
X195123Y646069D01*
X194797Y646020D01*
X194496Y645937D01*
X194219Y645823D01*
X193967Y645675D01*
X193740Y645494D01*
X193538Y645280D01*
X193360Y645034D01*
X193205Y644751D01*
X193070Y644427D01*
X192956Y644062D01*
X192863Y643657D01*
X192791Y643211D01*
X192739Y642724D01*
X192708Y642196D01*
X192698Y641628D01*
X192707Y641065D01*
X192736Y640543D01*
X192785Y640062D01*
X192853Y639622D01*
X192940Y639224D01*
X193046Y638866D01*
X193172Y638549D01*
X193318Y638274D01*
X193487Y638035D01*
X193683Y637828D01*
X193907Y637653D01*
X194159Y637509D01*
X194438Y637398D01*
X194745Y637318D01*
X195079Y637270D01*
X195441Y637254D01*
G37*
%LPD*%
G36*
X212330Y608612D02*
X210437Y608612D01*
X210437Y622132D01*
X210421Y623591D01*
X210402Y624097D01*
X210374Y624455D01*
X212203Y624455D01*
X212235Y624156D01*
X212282Y623362D01*
X212309Y622626D01*
X212351Y622626D01*
X212482Y622880D01*
X212623Y623117D01*
X212775Y623335D01*
X212937Y623537D01*
X213109Y623721D01*
X213291Y623887D01*
X213483Y624035D01*
X213686Y624166D01*
X213902Y624281D01*
X214134Y624380D01*
X214383Y624464D01*
X214648Y624533D01*
X214929Y624586D01*
X215227Y624625D01*
X215542Y624648D01*
X215873Y624655D01*
X216382Y624633D01*
X216858Y624567D01*
X217300Y624457D01*
X217710Y624303D01*
X218086Y624105D01*
X218429Y623863D01*
X218739Y623577D01*
X219016Y623246D01*
X219260Y622869D01*
X219471Y622441D01*
X219650Y621964D01*
X219797Y621435D01*
X219910Y620857D01*
X219992Y620228D01*
X220041Y619549D01*
X220057Y618820D01*
X220041Y618100D01*
X219991Y617426D01*
X219910Y616798D01*
X219795Y616217D01*
X219648Y615682D01*
X219468Y615194D01*
X219256Y614753D01*
X219011Y614357D01*
X218733Y614009D01*
X218422Y613707D01*
X218079Y613451D01*
X217703Y613242D01*
X217295Y613079D01*
X216853Y612963D01*
X216379Y612893D01*
X215873Y612870D01*
X215551Y612877D01*
X215242Y612901D01*
X214948Y612939D01*
X214666Y612993D01*
X214398Y613063D01*
X214144Y613148D01*
X213903Y613248D01*
X213675Y613364D01*
X213461Y613495D01*
X213261Y613642D01*
X213074Y613804D01*
X212900Y613982D01*
X212740Y614175D01*
X212593Y614383D01*
X212460Y614607D01*
X212340Y614846D01*
X212288Y614846D01*
X212306Y614703D01*
X212319Y614357D01*
X212330Y613059D01*
X212330Y608612D01*
G37*
%LPC*%
G36*
X215368Y614268D02*
X215708Y614284D01*
X216025Y614333D01*
X216317Y614414D01*
X216586Y614527D01*
X216831Y614673D01*
X217052Y614851D01*
X217250Y615061D01*
X217423Y615304D01*
X217575Y615584D01*
X217706Y615909D01*
X217817Y616278D01*
X217908Y616690D01*
X217979Y617146D01*
X218029Y617646D01*
X218060Y618190D01*
X218070Y618778D01*
X218060Y619351D01*
X218030Y619881D01*
X217980Y620369D01*
X217910Y620815D01*
X217819Y621218D01*
X217709Y621579D01*
X217579Y621898D01*
X217429Y622174D01*
X217256Y622413D01*
X217061Y622620D01*
X216841Y622795D01*
X216598Y622939D01*
X216331Y623050D01*
X216041Y623130D01*
X215727Y623178D01*
X215389Y623194D01*
X215115Y623186D01*
X214857Y623164D01*
X214614Y623127D01*
X214386Y623076D01*
X214174Y623009D01*
X213977Y622928D01*
X213795Y622832D01*
X213628Y622721D01*
X213474Y622594D01*
X213329Y622451D01*
X213194Y622291D01*
X213068Y622115D01*
X212952Y621922D01*
X212845Y621712D01*
X212661Y621244D01*
X212583Y620983D01*
X212516Y620704D01*
X212412Y620088D01*
X212350Y619398D01*
X212330Y618631D01*
X212341Y618090D01*
X212374Y617585D01*
X212430Y617117D01*
X212508Y616686D01*
X212609Y616292D01*
X212732Y615934D01*
X212877Y615614D01*
X213044Y615330D01*
X213237Y615081D01*
X213458Y614865D01*
X213706Y614683D01*
X213983Y614533D01*
X214287Y614417D01*
X214620Y614334D01*
X214980Y614285D01*
X215368Y614268D01*
G37*
%LPD*%
G36*
X143153Y635730D02*
X142846Y635736D01*
X142549Y635754D01*
X141983Y635825D01*
X141456Y635943D01*
X140966Y636110D01*
X140515Y636323D01*
X140101Y636584D01*
X139726Y636893D01*
X139389Y637249D01*
X139091Y637650D01*
X138833Y638093D01*
X138614Y638578D01*
X138435Y639106D01*
X138296Y639676D01*
X138197Y640288D01*
X138137Y640942D01*
X138117Y641638D01*
X138137Y642351D01*
X138197Y643018D01*
X138296Y643639D01*
X138436Y644214D01*
X138615Y644743D01*
X138834Y645226D01*
X139093Y645663D01*
X139392Y646054D01*
X139730Y646399D01*
X140109Y646698D01*
X140527Y646951D01*
X140985Y647158D01*
X141483Y647319D01*
X142021Y647434D01*
X142599Y647503D01*
X143216Y647526D01*
X143846Y647503D01*
X144434Y647436D01*
X144978Y647324D01*
X145479Y647167D01*
X145937Y646965D01*
X146352Y646718D01*
X146724Y646427D01*
X147053Y646091D01*
X147342Y645707D01*
X147592Y645274D01*
X147803Y644792D01*
X147976Y644260D01*
X148110Y643679D01*
X148207Y643048D01*
X148264Y642368D01*
X148283Y641638D01*
X148263Y640916D01*
X148201Y640241D01*
X148099Y639613D01*
X147955Y639034D01*
X147770Y638501D01*
X147544Y638017D01*
X147277Y637580D01*
X146969Y637191D01*
X146622Y636849D01*
X146238Y636552D01*
X145817Y636301D01*
X145358Y636095D01*
X144862Y635935D01*
X144330Y635821D01*
X143760Y635753D01*
X143153Y635730D01*
G37*
%LPC*%
G36*
X143132Y637128D02*
X143542Y637145D01*
X143923Y637196D01*
X144273Y637282D01*
X144592Y637401D01*
X144881Y637555D01*
X145140Y637743D01*
X145368Y637965D01*
X145566Y638221D01*
X145737Y638514D01*
X145885Y638845D01*
X146011Y639214D01*
X146114Y639622D01*
X146194Y640069D01*
X146251Y640553D01*
X146285Y641077D01*
X146296Y641638D01*
X146285Y642207D01*
X146253Y642735D01*
X146198Y643223D01*
X146122Y643671D01*
X146023Y644079D01*
X145903Y644446D01*
X145761Y644773D01*
X145597Y645060D01*
X145408Y645310D01*
X145188Y645527D01*
X144939Y645711D01*
X144660Y645861D01*
X144352Y645977D01*
X144013Y646061D01*
X143645Y646111D01*
X143248Y646127D01*
X142847Y646110D01*
X142474Y646059D01*
X142131Y645974D01*
X141816Y645855D01*
X141531Y645702D01*
X141273Y645515D01*
X141045Y645294D01*
X140845Y645039D01*
X140672Y644748D01*
X140521Y644419D01*
X140394Y644051D01*
X140289Y643645D01*
X140208Y643201D01*
X140150Y642718D01*
X140116Y642197D01*
X140104Y641638D01*
X140115Y641093D01*
X140150Y640583D01*
X140207Y640108D01*
X140287Y639668D01*
X140389Y639263D01*
X140515Y638893D01*
X140663Y638558D01*
X140835Y638258D01*
X141030Y637993D01*
X141252Y637764D01*
X141500Y637569D01*
X141774Y637411D01*
X142075Y637287D01*
X142401Y637199D01*
X142753Y637146D01*
X143132Y637128D01*
G37*
%LPD*%
G36*
X185020Y612870D02*
X184713Y612876D01*
X184416Y612894D01*
X183851Y612965D01*
X183323Y613083D01*
X182833Y613250D01*
X182382Y613463D01*
X181969Y613724D01*
X181593Y614033D01*
X181256Y614389D01*
X180958Y614790D01*
X180700Y615233D01*
X180481Y615718D01*
X180302Y616246D01*
X180163Y616816D01*
X180064Y617428D01*
X180004Y618082D01*
X179984Y618778D01*
X180004Y619491D01*
X180064Y620158D01*
X180163Y620779D01*
X180303Y621354D01*
X180482Y621883D01*
X180701Y622366D01*
X180960Y622803D01*
X181259Y623194D01*
X181598Y623539D01*
X181976Y623838D01*
X182394Y624091D01*
X182852Y624298D01*
X183350Y624459D01*
X183888Y624574D01*
X184466Y624643D01*
X185083Y624666D01*
X185713Y624643D01*
X186301Y624576D01*
X186845Y624464D01*
X187346Y624307D01*
X187804Y624105D01*
X188219Y623858D01*
X188592Y623567D01*
X188921Y623231D01*
X189209Y622847D01*
X189459Y622414D01*
X189670Y621932D01*
X189843Y621400D01*
X189978Y620819D01*
X190074Y620188D01*
X190131Y619508D01*
X190151Y618778D01*
X190130Y618056D01*
X190068Y617381D01*
X189966Y616753D01*
X189822Y616174D01*
X189637Y615641D01*
X189411Y615157D01*
X189144Y614720D01*
X188836Y614331D01*
X188489Y613989D01*
X188105Y613692D01*
X187684Y613441D01*
X187225Y613235D01*
X186730Y613075D01*
X186197Y612961D01*
X185627Y612893D01*
X185020Y612870D01*
G37*
%LPC*%
G36*
X184999Y614268D02*
X185410Y614285D01*
X185790Y614336D01*
X186140Y614422D01*
X186459Y614541D01*
X186748Y614695D01*
X187007Y614883D01*
X187235Y615105D01*
X187433Y615361D01*
X187604Y615654D01*
X187753Y615985D01*
X187878Y616354D01*
X187981Y616762D01*
X188061Y617209D01*
X188118Y617693D01*
X188152Y618217D01*
X188164Y618778D01*
X188153Y619347D01*
X188120Y619875D01*
X188065Y620363D01*
X187989Y620811D01*
X187890Y621219D01*
X187770Y621586D01*
X187628Y621913D01*
X187464Y622200D01*
X187275Y622450D01*
X187055Y622667D01*
X186806Y622851D01*
X186527Y623001D01*
X186219Y623117D01*
X185881Y623201D01*
X185513Y623251D01*
X185115Y623267D01*
X184714Y623250D01*
X184342Y623199D01*
X183998Y623114D01*
X183684Y622995D01*
X183398Y622842D01*
X183141Y622655D01*
X182912Y622434D01*
X182712Y622179D01*
X182539Y621888D01*
X182388Y621559D01*
X182261Y621191D01*
X182157Y620785D01*
X182075Y620341D01*
X182018Y619858D01*
X181983Y619337D01*
X181971Y618778D01*
X181983Y618233D01*
X182017Y617723D01*
X182074Y617248D01*
X182154Y616808D01*
X182257Y616403D01*
X182382Y616033D01*
X182531Y615698D01*
X182702Y615398D01*
X182898Y615133D01*
X183120Y614904D01*
X183367Y614709D01*
X183642Y614551D01*
X183942Y614427D01*
X184268Y614339D01*
X184621Y614286D01*
X184999Y614268D01*
G37*
%LPD*%
G36*
X194424Y613080D02*
X192542Y613080D01*
X192542Y622027D01*
X192526Y623627D01*
X192506Y624138D01*
X192479Y624455D01*
X194266Y624455D01*
X194287Y624172D01*
X194313Y623641D01*
X194350Y622510D01*
X194382Y622510D01*
X194537Y622801D01*
X194698Y623069D01*
X194864Y623314D01*
X195036Y623535D01*
X195214Y623734D01*
X195397Y623910D01*
X195585Y624063D01*
X195780Y624193D01*
X195982Y624303D01*
X196196Y624400D01*
X196420Y624481D01*
X196655Y624547D01*
X196901Y624599D01*
X197158Y624636D01*
X197425Y624658D01*
X197704Y624666D01*
X198019Y624658D01*
X198316Y624633D01*
X198597Y624593D01*
X198862Y624537D01*
X199109Y624464D01*
X199339Y624376D01*
X199552Y624271D01*
X199749Y624151D01*
X199929Y624012D01*
X200096Y623855D01*
X200248Y623678D01*
X200386Y623483D01*
X200510Y623268D01*
X200619Y623035D01*
X200714Y622782D01*
X200795Y622510D01*
X200826Y622510D01*
X200977Y622787D01*
X201136Y623043D01*
X201303Y623280D01*
X201477Y623496D01*
X201659Y623692D01*
X201848Y623869D01*
X202046Y624025D01*
X202251Y624161D01*
X202465Y624279D01*
X202691Y624382D01*
X202927Y624469D01*
X203175Y624540D01*
X203433Y624595D01*
X203703Y624634D01*
X203983Y624658D01*
X204275Y624666D01*
X204691Y624651D01*
X205078Y624607D01*
X205435Y624534D01*
X205764Y624432D01*
X206062Y624300D01*
X206332Y624139D01*
X206571Y623949D01*
X206782Y623730D01*
X206966Y623477D01*
X207125Y623187D01*
X207259Y622860D01*
X207369Y622495D01*
X207455Y622092D01*
X207516Y621652D01*
X207553Y621175D01*
X207565Y620660D01*
X207565Y613080D01*
X205694Y613080D01*
X205694Y620292D01*
X205687Y620689D01*
X205666Y621054D01*
X205630Y621387D01*
X205581Y621688D01*
X205517Y621957D01*
X205440Y622194D01*
X205348Y622400D01*
X205242Y622574D01*
X205117Y622721D01*
X204970Y622849D01*
X204801Y622958D01*
X204608Y623047D01*
X204393Y623116D01*
X204156Y623165D01*
X203895Y623194D01*
X203612Y623204D01*
X203311Y623190D01*
X203026Y623147D01*
X202759Y623075D01*
X202510Y622974D01*
X202277Y622845D01*
X202062Y622687D01*
X201864Y622500D01*
X201683Y622284D01*
X201522Y622042D01*
X201382Y621776D01*
X201263Y621486D01*
X201167Y621171D01*
X201091Y620833D01*
X201037Y620470D01*
X201005Y620083D01*
X200994Y619672D01*
X200994Y613080D01*
X199123Y613080D01*
X199123Y620292D01*
X199116Y620689D01*
X199095Y621054D01*
X199059Y621387D01*
X199010Y621688D01*
X198946Y621957D01*
X198869Y622194D01*
X198777Y622400D01*
X198671Y622574D01*
X198547Y622721D01*
X198400Y622849D01*
X198230Y622958D01*
X198038Y623047D01*
X197823Y623116D01*
X197585Y623165D01*
X197324Y623194D01*
X197041Y623204D01*
X196747Y623190D01*
X196468Y623146D01*
X196206Y623074D01*
X195959Y622973D01*
X195727Y622843D01*
X195512Y622684D01*
X195312Y622496D01*
X195128Y622279D01*
X194963Y622036D01*
X194820Y621769D01*
X194699Y621479D01*
X194600Y621165D01*
X194523Y620827D01*
X194468Y620466D01*
X194435Y620081D01*
X194424Y619672D01*
X194424Y613080D01*
G37*
G36*
X95618Y635940D02*
X83948Y635940D01*
X83948Y650753D01*
X95187Y650753D01*
X95187Y649113D01*
X85956Y649113D01*
X85956Y644361D01*
X94556Y644361D01*
X94556Y642742D01*
X85956Y642742D01*
X85956Y637580D01*
X95618Y637580D01*
X95618Y635940D01*
G37*
G36*
X107383Y635730D02*
X106771Y635753D01*
X106197Y635824D01*
X105660Y635941D01*
X105161Y636106D01*
X104700Y636317D01*
X104276Y636575D01*
X103889Y636881D01*
X103541Y637233D01*
X103231Y637632D01*
X102963Y638076D01*
X102737Y638566D01*
X102551Y639102D01*
X102407Y639683D01*
X102304Y640310D01*
X102242Y640983D01*
X102221Y641701D01*
X102242Y642385D01*
X102304Y643028D01*
X102407Y643630D01*
X102551Y644190D01*
X102737Y644710D01*
X102963Y645188D01*
X103231Y645626D01*
X103541Y646022D01*
X103888Y646375D01*
X104271Y646680D01*
X104689Y646938D01*
X105143Y647150D01*
X105631Y647314D01*
X106156Y647432D01*
X106715Y647502D01*
X107310Y647526D01*
X107618Y647520D01*
X107917Y647502D01*
X108485Y647431D01*
X109014Y647313D01*
X109504Y647148D01*
X109954Y646935D01*
X110366Y646676D01*
X110738Y646369D01*
X111071Y646014D01*
X111365Y645613D01*
X111619Y645164D01*
X111835Y644668D01*
X112011Y644125D01*
X112148Y643535D01*
X112246Y642897D01*
X112305Y642213D01*
X112325Y641481D01*
X112325Y641228D01*
X104208Y641228D01*
X104221Y640753D01*
X104259Y640306D01*
X104322Y639887D01*
X104411Y639496D01*
X104525Y639133D01*
X104664Y638798D01*
X104828Y638490D01*
X105018Y638211D01*
X105232Y637962D01*
X105469Y637746D01*
X105730Y637564D01*
X106014Y637414D01*
X106321Y637298D01*
X106652Y637215D01*
X107006Y637166D01*
X107383Y637149D01*
X107683Y637157D01*
X107968Y637180D01*
X108237Y637219D01*
X108491Y637273D01*
X108730Y637342D01*
X108953Y637427D01*
X109162Y637527D01*
X109355Y637643D01*
X109695Y637907D01*
X109976Y638203D01*
X110094Y638363D01*
X110197Y638532D01*
X110285Y638709D01*
X110359Y638894D01*
X112020Y638421D01*
X111882Y638095D01*
X111724Y637790D01*
X111546Y637506D01*
X111348Y637244D01*
X111129Y637002D01*
X110890Y636781D01*
X110630Y636581D01*
X110351Y636403D01*
X110051Y636245D01*
X109731Y636108D01*
X109390Y635993D01*
X109029Y635898D01*
X108648Y635824D01*
X108247Y635772D01*
X107825Y635740D01*
X107383Y635730D01*
G37*
%LPC*%
G36*
X110369Y642679D02*
X110320Y643113D01*
X110253Y643517D01*
X110167Y643891D01*
X110062Y644234D01*
X109938Y644546D01*
X109795Y644829D01*
X109634Y645081D01*
X109454Y645302D01*
X109255Y645496D01*
X109035Y645663D01*
X108794Y645805D01*
X108532Y645921D01*
X108250Y646011D01*
X107946Y646076D01*
X107623Y646114D01*
X107278Y646127D01*
X106943Y646113D01*
X106625Y646070D01*
X106326Y645998D01*
X106044Y645897D01*
X105780Y645768D01*
X105535Y645610D01*
X105307Y645423D01*
X105097Y645207D01*
X104907Y644967D01*
X104741Y644704D01*
X104598Y644421D01*
X104478Y644115D01*
X104381Y643789D01*
X104307Y643440D01*
X104257Y643070D01*
X104229Y642679D01*
X110369Y642679D01*
G37*
%LPD*%
G36*
X245001Y612870D02*
X244389Y612893D01*
X243814Y612964D01*
X243277Y613081D01*
X242778Y613246D01*
X242317Y613457D01*
X241893Y613715D01*
X241507Y614021D01*
X241158Y614373D01*
X240849Y614772D01*
X240581Y615216D01*
X240354Y615706D01*
X240168Y616242D01*
X240024Y616823D01*
X239921Y617450D01*
X239859Y618123D01*
X239839Y618841D01*
X239859Y619525D01*
X239921Y620168D01*
X240024Y620770D01*
X240168Y621330D01*
X240354Y621850D01*
X240581Y622328D01*
X240849Y622766D01*
X241158Y623162D01*
X241505Y623515D01*
X241888Y623820D01*
X242306Y624078D01*
X242760Y624290D01*
X243249Y624454D01*
X243773Y624572D01*
X244332Y624642D01*
X244927Y624666D01*
X245235Y624660D01*
X245534Y624642D01*
X246102Y624571D01*
X246631Y624453D01*
X247121Y624288D01*
X247571Y624075D01*
X247983Y623816D01*
X248355Y623509D01*
X248688Y623154D01*
X248982Y622753D01*
X249237Y622304D01*
X249452Y621808D01*
X249628Y621265D01*
X249765Y620675D01*
X249863Y620037D01*
X249922Y619353D01*
X249942Y618621D01*
X249942Y618368D01*
X241826Y618368D01*
X241838Y617893D01*
X241876Y617446D01*
X241939Y617027D01*
X242028Y616636D01*
X242142Y616273D01*
X242281Y615938D01*
X242445Y615630D01*
X242635Y615351D01*
X242849Y615102D01*
X243086Y614886D01*
X243347Y614704D01*
X243631Y614554D01*
X243939Y614438D01*
X244269Y614355D01*
X244623Y614306D01*
X245001Y614289D01*
X245300Y614297D01*
X245585Y614320D01*
X245854Y614359D01*
X246108Y614413D01*
X246347Y614482D01*
X246571Y614567D01*
X246779Y614667D01*
X246972Y614783D01*
X247312Y615047D01*
X247593Y615343D01*
X247711Y615503D01*
X247814Y615672D01*
X247903Y615849D01*
X247976Y616034D01*
X249637Y615561D01*
X249499Y615235D01*
X249341Y614930D01*
X249163Y614646D01*
X248965Y614384D01*
X248746Y614142D01*
X248507Y613921D01*
X248248Y613721D01*
X247968Y613543D01*
X247668Y613385D01*
X247348Y613248D01*
X247007Y613133D01*
X246647Y613038D01*
X246265Y612964D01*
X245864Y612912D01*
X245442Y612880D01*
X245001Y612870D01*
G37*
%LPC*%
G36*
X247986Y619819D02*
X247938Y620253D01*
X247870Y620657D01*
X247784Y621031D01*
X247679Y621374D01*
X247555Y621686D01*
X247413Y621969D01*
X247252Y622221D01*
X247072Y622442D01*
X246872Y622636D01*
X246652Y622803D01*
X246411Y622945D01*
X246149Y623061D01*
X245867Y623151D01*
X245564Y623216D01*
X245240Y623254D01*
X244895Y623267D01*
X244560Y623253D01*
X244243Y623210D01*
X243943Y623138D01*
X243661Y623037D01*
X243398Y622908D01*
X243152Y622750D01*
X242924Y622563D01*
X242714Y622347D01*
X242524Y622107D01*
X242358Y621844D01*
X242215Y621561D01*
X242095Y621255D01*
X241998Y620929D01*
X241924Y620580D01*
X241874Y620210D01*
X241847Y619819D01*
X247986Y619819D01*
G37*
%LPD*%
G36*
X171865Y612870D02*
X171314Y612884D01*
X170783Y612928D01*
X170270Y613001D01*
X169777Y613102D01*
X169302Y613233D01*
X168846Y613393D01*
X168409Y613582D01*
X167991Y613800D01*
X167594Y614045D01*
X167222Y614315D01*
X166874Y614610D01*
X166550Y614930D01*
X166251Y615275D01*
X165976Y615645D01*
X165725Y616040D01*
X165499Y616460D01*
X165298Y616902D01*
X165124Y617365D01*
X164977Y617847D01*
X164856Y618348D01*
X164763Y618870D01*
X164696Y619412D01*
X164656Y619974D01*
X164642Y620555D01*
X164650Y620992D01*
X164672Y621417D01*
X164709Y621830D01*
X164762Y622231D01*
X164829Y622619D01*
X164911Y622996D01*
X165008Y623361D01*
X165121Y623714D01*
X165248Y624055D01*
X165390Y624384D01*
X165547Y624701D01*
X165719Y625006D01*
X165905Y625299D01*
X166107Y625580D01*
X166324Y625849D01*
X166556Y626106D01*
X166801Y626349D01*
X167057Y626577D01*
X167325Y626788D01*
X167604Y626985D01*
X167895Y627165D01*
X168198Y627330D01*
X168512Y627479D01*
X168837Y627612D01*
X169174Y627730D01*
X169522Y627832D01*
X169882Y627918D01*
X170254Y627989D01*
X170637Y628043D01*
X171031Y628083D01*
X171437Y628106D01*
X171854Y628114D01*
X172434Y628100D01*
X172988Y628056D01*
X173519Y627984D01*
X174025Y627883D01*
X174507Y627753D01*
X174965Y627594D01*
X175398Y627406D01*
X175807Y627189D01*
X176191Y626944D01*
X176549Y626670D01*
X176880Y626369D01*
X177185Y626040D01*
X177463Y625683D01*
X177716Y625298D01*
X177942Y624886D01*
X178141Y624445D01*
X176238Y623814D01*
X176100Y624128D01*
X175942Y624423D01*
X175764Y624698D01*
X175567Y624955D01*
X175350Y625192D01*
X175114Y625411D01*
X174858Y625610D01*
X174583Y625791D01*
X174291Y625951D01*
X173986Y626090D01*
X173667Y626207D01*
X173335Y626303D01*
X172990Y626378D01*
X172632Y626431D01*
X172260Y626463D01*
X171875Y626474D01*
X171572Y626468D01*
X171277Y626449D01*
X170991Y626418D01*
X170714Y626375D01*
X170184Y626251D01*
X169689Y626078D01*
X169227Y625856D01*
X168800Y625584D01*
X168407Y625263D01*
X168049Y624892D01*
X167728Y624478D01*
X167451Y624027D01*
X167216Y623540D01*
X167023Y623016D01*
X166874Y622456D01*
X166767Y621859D01*
X166703Y621225D01*
X166682Y620555D01*
X166704Y619891D01*
X166771Y619260D01*
X166882Y618663D01*
X167038Y618099D01*
X167238Y617568D01*
X167483Y617071D01*
X167772Y616607D01*
X168106Y616176D01*
X168478Y615788D01*
X168881Y615452D01*
X169316Y615167D01*
X169782Y614934D01*
X170279Y614753D01*
X170540Y614682D01*
X170808Y614624D01*
X171084Y614579D01*
X171368Y614546D01*
X171660Y614527D01*
X171959Y614520D01*
X172342Y614532D01*
X172713Y614568D01*
X173072Y614629D01*
X173419Y614713D01*
X173754Y614821D01*
X174076Y614954D01*
X174387Y615110D01*
X174685Y615290D01*
X174971Y615495D01*
X175246Y615724D01*
X175508Y615976D01*
X175758Y616253D01*
X175996Y616554D01*
X176222Y616879D01*
X176436Y617228D01*
X176638Y617601D01*
X178278Y616781D01*
X178038Y616317D01*
X177774Y615881D01*
X177488Y615474D01*
X177178Y615096D01*
X176845Y614746D01*
X176489Y614425D01*
X176110Y614132D01*
X175707Y613868D01*
X175285Y613634D01*
X174846Y613432D01*
X174391Y613260D01*
X173919Y613119D01*
X173430Y613010D01*
X172925Y612932D01*
X172403Y612885D01*
X171865Y612870D01*
G37*
G36*
X142997Y613080D02*
X141104Y613080D01*
X141104Y628682D01*
X142997Y628682D01*
X142997Y624624D01*
X142987Y623972D01*
X142960Y623299D01*
X142913Y622510D01*
X142944Y622510D01*
X143100Y622780D01*
X143264Y623031D01*
X143436Y623263D01*
X143616Y623476D01*
X143803Y623671D01*
X143998Y623848D01*
X144200Y624006D01*
X144411Y624145D01*
X144632Y624267D01*
X144868Y624373D01*
X145118Y624462D01*
X145382Y624536D01*
X145660Y624592D01*
X145953Y624633D01*
X146260Y624658D01*
X146582Y624666D01*
X147029Y624651D01*
X147446Y624608D01*
X147833Y624536D01*
X148189Y624436D01*
X148515Y624306D01*
X148810Y624148D01*
X149075Y623961D01*
X149310Y623746D01*
X149516Y623496D01*
X149694Y623208D01*
X149845Y622881D01*
X149968Y622514D01*
X150064Y622109D01*
X150133Y621665D01*
X150174Y621182D01*
X150188Y620660D01*
X150188Y613080D01*
X148285Y613080D01*
X148285Y620292D01*
X148271Y620853D01*
X148230Y621337D01*
X148161Y621744D01*
X148064Y622074D01*
X147936Y622346D01*
X147772Y622580D01*
X147573Y622775D01*
X147339Y622931D01*
X147062Y623051D01*
X146737Y623136D01*
X146363Y623187D01*
X145940Y623204D01*
X145615Y623190D01*
X145306Y623146D01*
X145014Y623074D01*
X144738Y622973D01*
X144479Y622843D01*
X144236Y622684D01*
X144010Y622496D01*
X143801Y622279D01*
X143612Y622038D01*
X143449Y621776D01*
X143311Y621495D01*
X143198Y621194D01*
X143110Y620872D01*
X143047Y620531D01*
X143009Y620169D01*
X142997Y619787D01*
X142997Y613080D01*
G37*
G36*
X205223Y635940D02*
X203331Y635940D01*
X203331Y651542D01*
X205223Y651542D01*
X205223Y647484D01*
X205214Y646832D01*
X205186Y646159D01*
X205139Y645370D01*
X205171Y645370D01*
X205327Y645640D01*
X205491Y645891D01*
X205663Y646123D01*
X205842Y646336D01*
X206029Y646531D01*
X206224Y646708D01*
X206427Y646866D01*
X206637Y647005D01*
X206859Y647127D01*
X207094Y647233D01*
X207344Y647322D01*
X207608Y647396D01*
X207887Y647452D01*
X208180Y647493D01*
X208487Y647518D01*
X208808Y647526D01*
X209256Y647511D01*
X209673Y647468D01*
X210059Y647396D01*
X210415Y647296D01*
X210741Y647166D01*
X211037Y647008D01*
X211302Y646821D01*
X211536Y646606D01*
X211742Y646356D01*
X211920Y646068D01*
X212071Y645741D01*
X212195Y645374D01*
X212291Y644969D01*
X212359Y644525D01*
X212401Y644042D01*
X212414Y643520D01*
X212414Y635940D01*
X210511Y635940D01*
X210511Y643152D01*
X210498Y643713D01*
X210456Y644197D01*
X210387Y644604D01*
X210291Y644934D01*
X210162Y645206D01*
X209999Y645440D01*
X209800Y645635D01*
X209565Y645791D01*
X209289Y645911D01*
X208963Y645996D01*
X208589Y646047D01*
X208167Y646064D01*
X207841Y646050D01*
X207533Y646006D01*
X207240Y645934D01*
X206964Y645833D01*
X206705Y645703D01*
X206463Y645544D01*
X206237Y645356D01*
X206027Y645139D01*
X205839Y644898D01*
X205676Y644636D01*
X205537Y644355D01*
X205424Y644054D01*
X205336Y643732D01*
X205273Y643391D01*
X205236Y643029D01*
X205223Y642647D01*
X205223Y635940D01*
G37*
G36*
X108667Y613080D02*
X106659Y613080D01*
X106659Y627893D01*
X117183Y627893D01*
X117183Y626253D01*
X108667Y626253D01*
X108667Y620744D01*
X116930Y620744D01*
X116930Y619083D01*
X108667Y619083D01*
X108667Y613080D01*
G37*
G36*
X170893Y635940D02*
X168885Y635940D01*
X168885Y650753D01*
X179409Y650753D01*
X179409Y649113D01*
X170893Y649113D01*
X170893Y643604D01*
X179157Y643604D01*
X179157Y641943D01*
X170893Y641943D01*
X170893Y635940D01*
G37*
G36*
X52114Y613080D02*
X50032Y613080D01*
X43987Y627893D01*
X46100Y627893D01*
X50201Y617464D01*
X51084Y614846D01*
X51967Y617464D01*
X56046Y627893D01*
X58159Y627893D01*
X52114Y613080D01*
G37*
G36*
X152567Y635940D02*
X150675Y635940D01*
X150675Y644887D01*
X150659Y646487D01*
X150639Y646998D01*
X150611Y647315D01*
X152399Y647315D01*
X152420Y647032D01*
X152446Y646501D01*
X152483Y645370D01*
X152514Y645370D01*
X152681Y645654D01*
X152853Y645916D01*
X153032Y646157D01*
X153217Y646376D01*
X153409Y646573D01*
X153607Y646749D01*
X153812Y646904D01*
X154023Y647037D01*
X154244Y647151D01*
X154477Y647251D01*
X154724Y647335D01*
X154984Y647403D01*
X155256Y647457D01*
X155542Y647495D01*
X155840Y647518D01*
X156152Y647526D01*
X156604Y647511D01*
X157025Y647468D01*
X157414Y647395D01*
X157772Y647293D01*
X158099Y647162D01*
X158394Y647002D01*
X158658Y646813D01*
X158891Y646595D01*
X159094Y646344D01*
X159270Y646054D01*
X159419Y645727D01*
X159541Y645361D01*
X159636Y644958D01*
X159704Y644517D01*
X159744Y644037D01*
X159758Y643520D01*
X159758Y635940D01*
X157855Y635940D01*
X157855Y643152D01*
X157841Y643683D01*
X157800Y644151D01*
X157731Y644556D01*
X157634Y644897D01*
X157508Y645186D01*
X157348Y645431D01*
X157155Y645633D01*
X156930Y645791D01*
X156660Y645911D01*
X156333Y645996D01*
X155950Y646047D01*
X155511Y646064D01*
X155178Y646050D01*
X154863Y646006D01*
X154567Y645933D01*
X154288Y645830D01*
X154028Y645699D01*
X153786Y645538D01*
X153562Y645348D01*
X153355Y645129D01*
X153171Y644883D01*
X153010Y644615D01*
X152875Y644325D01*
X152764Y644012D01*
X152678Y643676D01*
X152616Y643317D01*
X152579Y642936D01*
X152567Y642532D01*
X152567Y635940D01*
G37*
G36*
X225991Y612870D02*
X225539Y612884D01*
X225118Y612928D01*
X224728Y613001D01*
X224370Y613102D01*
X224044Y613233D01*
X223748Y613393D01*
X223484Y613582D01*
X223252Y613800D01*
X223049Y614052D01*
X222872Y614341D01*
X222723Y614669D01*
X222601Y615034D01*
X222507Y615438D01*
X222439Y615879D01*
X222398Y616358D01*
X222385Y616875D01*
X222385Y624455D01*
X224288Y624455D01*
X224288Y617243D01*
X224301Y616712D01*
X224343Y616245D01*
X224412Y615840D01*
X224508Y615498D01*
X224635Y615210D01*
X224795Y614965D01*
X224987Y614763D01*
X225213Y614604D01*
X225483Y614485D01*
X225809Y614399D01*
X226192Y614348D01*
X226632Y614331D01*
X226965Y614346D01*
X227279Y614390D01*
X227576Y614463D01*
X227854Y614565D01*
X228115Y614697D01*
X228357Y614857D01*
X228581Y615047D01*
X228787Y615267D01*
X228972Y615512D01*
X229132Y615780D01*
X229268Y616071D01*
X229379Y616384D01*
X229465Y616720D01*
X229526Y617078D01*
X229563Y617460D01*
X229576Y617864D01*
X229576Y624455D01*
X231468Y624455D01*
X231468Y615509D01*
X231484Y613908D01*
X231504Y613397D01*
X231531Y613080D01*
X229744Y613080D01*
X229723Y613364D01*
X229697Y613895D01*
X229660Y615025D01*
X229628Y615025D01*
X229462Y614741D01*
X229290Y614479D01*
X229111Y614239D01*
X228925Y614020D01*
X228733Y613822D01*
X228535Y613646D01*
X228331Y613492D01*
X228120Y613359D01*
X227899Y613244D01*
X227665Y613145D01*
X227419Y613061D01*
X227159Y612992D01*
X226886Y612939D01*
X226601Y612900D01*
X226302Y612877D01*
X225991Y612870D01*
G37*
G36*
X65806Y613080D02*
X63808Y613080D01*
X63808Y626253D01*
X58720Y626253D01*
X58720Y627893D01*
X70894Y627893D01*
X70894Y626253D01*
X65806Y626253D01*
X65806Y613080D01*
G37*
G36*
X119089Y635730D02*
X118510Y635753D01*
X117967Y635824D01*
X117458Y635942D01*
X116985Y636107D01*
X116548Y636319D01*
X116145Y636578D01*
X115778Y636885D01*
X115446Y637238D01*
X115152Y637637D01*
X114897Y638079D01*
X114681Y638564D01*
X114504Y639093D01*
X114367Y639664D01*
X114269Y640279D01*
X114210Y640937D01*
X114190Y641638D01*
X114210Y642334D01*
X114269Y642988D01*
X114367Y643599D01*
X114505Y644168D01*
X114683Y644694D01*
X114900Y645178D01*
X115156Y645619D01*
X115452Y646017D01*
X115784Y646371D01*
X116151Y646677D01*
X116552Y646936D01*
X116987Y647148D01*
X117456Y647314D01*
X117959Y647431D01*
X118497Y647502D01*
X119068Y647526D01*
X119495Y647512D01*
X119904Y647469D01*
X120294Y647399D01*
X120665Y647300D01*
X121018Y647172D01*
X121352Y647017D01*
X121668Y646833D01*
X121965Y646622D01*
X122239Y646385D01*
X122487Y646127D01*
X122708Y645847D01*
X122902Y645547D01*
X123069Y645224D01*
X123209Y644881D01*
X123323Y644516D01*
X123410Y644130D01*
X121465Y643983D01*
X121421Y644213D01*
X121363Y644431D01*
X121291Y644638D01*
X121205Y644832D01*
X121105Y645013D01*
X120990Y645183D01*
X120862Y645341D01*
X120719Y645486D01*
X120561Y645617D01*
X120388Y645730D01*
X120198Y645826D01*
X119993Y645904D01*
X119773Y645965D01*
X119536Y646008D01*
X119284Y646035D01*
X119016Y646043D01*
X118653Y646028D01*
X118316Y645981D01*
X118005Y645903D01*
X117720Y645794D01*
X117461Y645653D01*
X117228Y645481D01*
X117021Y645279D01*
X116839Y645045D01*
X116682Y644773D01*
X116545Y644460D01*
X116429Y644103D01*
X116335Y643704D01*
X116261Y643262D01*
X116209Y642778D01*
X116177Y642250D01*
X116167Y641680D01*
X116178Y641131D01*
X116211Y640618D01*
X116267Y640143D01*
X116345Y639704D01*
X116446Y639302D01*
X116569Y638936D01*
X116714Y638608D01*
X116881Y638316D01*
X117072Y638060D01*
X117284Y637838D01*
X117520Y637650D01*
X117778Y637496D01*
X118058Y637376D01*
X118362Y637291D01*
X118688Y637240D01*
X119037Y637223D01*
X119284Y637231D01*
X119521Y637257D01*
X119747Y637300D01*
X119963Y637359D01*
X120169Y637436D01*
X120364Y637530D01*
X120549Y637641D01*
X120724Y637769D01*
X120885Y637915D01*
X121031Y638079D01*
X121159Y638262D01*
X121272Y638463D01*
X121368Y638683D01*
X121449Y638921D01*
X121512Y639177D01*
X121560Y639451D01*
X123473Y639325D01*
X123403Y638926D01*
X123303Y638547D01*
X123173Y638188D01*
X123013Y637851D01*
X122824Y637534D01*
X122604Y637238D01*
X122354Y636962D01*
X122075Y636707D01*
X121771Y636478D01*
X121447Y636280D01*
X121103Y636112D01*
X120740Y635974D01*
X120357Y635867D01*
X119954Y635791D01*
X119531Y635745D01*
X119089Y635730D01*
G37*
G36*
X98996Y613080D02*
X89503Y613080D01*
X89503Y627893D01*
X91511Y627893D01*
X91511Y614720D01*
X98996Y614720D01*
X98996Y613080D01*
G37*
G36*
X127968Y635772D02*
X127693Y635782D01*
X127435Y635812D01*
X127196Y635862D01*
X126974Y635933D01*
X126770Y636023D01*
X126584Y636134D01*
X126415Y636265D01*
X126264Y636416D01*
X126131Y636587D01*
X126016Y636778D01*
X125918Y636989D01*
X125839Y637221D01*
X125777Y637472D01*
X125732Y637744D01*
X125706Y638036D01*
X125697Y638348D01*
X125697Y645938D01*
X124383Y645938D01*
X124383Y647315D01*
X125770Y647315D01*
X126328Y649860D01*
X127589Y649860D01*
X127589Y647315D01*
X129692Y647315D01*
X129692Y645938D01*
X127589Y645938D01*
X127589Y638758D01*
X127606Y638378D01*
X127656Y638060D01*
X127740Y637802D01*
X127857Y637606D01*
X128016Y637461D01*
X128224Y637358D01*
X128481Y637296D01*
X128788Y637275D01*
X128998Y637284D01*
X129250Y637312D01*
X129881Y637422D01*
X129881Y636024D01*
X129411Y635914D01*
X128935Y635835D01*
X128454Y635788D01*
X127968Y635772D01*
G37*
G36*
X155491Y612912D02*
X155216Y612922D01*
X154959Y612952D01*
X154719Y613002D01*
X154498Y613073D01*
X154294Y613163D01*
X154107Y613274D01*
X153939Y613405D01*
X153788Y613556D01*
X153655Y613727D01*
X153540Y613918D01*
X153442Y614129D01*
X153362Y614361D01*
X153300Y614612D01*
X153256Y614884D01*
X153229Y615176D01*
X153220Y615488D01*
X153220Y623078D01*
X151906Y623078D01*
X151906Y624455D01*
X153294Y624455D01*
X153851Y627000D01*
X155113Y627000D01*
X155113Y624455D01*
X157215Y624455D01*
X157215Y623078D01*
X155113Y623078D01*
X155113Y615898D01*
X155129Y615518D01*
X155180Y615200D01*
X155263Y614942D01*
X155381Y614746D01*
X155539Y614601D01*
X155747Y614498D01*
X156005Y614436D01*
X156311Y614415D01*
X156521Y614424D01*
X156774Y614452D01*
X157404Y614562D01*
X157404Y613164D01*
X156934Y613054D01*
X156458Y612975D01*
X155977Y612928D01*
X155491Y612912D01*
G37*
G36*
X217718Y635772D02*
X217443Y635782D01*
X217185Y635812D01*
X216946Y635862D01*
X216724Y635933D01*
X216520Y636023D01*
X216334Y636134D01*
X216165Y636265D01*
X216014Y636416D01*
X215881Y636587D01*
X215766Y636778D01*
X215668Y636989D01*
X215589Y637221D01*
X215527Y637472D01*
X215482Y637744D01*
X215456Y638036D01*
X215447Y638348D01*
X215447Y645938D01*
X214133Y645938D01*
X214133Y647315D01*
X215520Y647315D01*
X216078Y649860D01*
X217339Y649860D01*
X217339Y647315D01*
X219442Y647315D01*
X219442Y645938D01*
X217339Y645938D01*
X217339Y638758D01*
X217356Y638378D01*
X217406Y638060D01*
X217490Y637802D01*
X217607Y637606D01*
X217766Y637461D01*
X217974Y637358D01*
X218231Y637296D01*
X218538Y637275D01*
X218748Y637284D01*
X219000Y637312D01*
X219631Y637422D01*
X219631Y636024D01*
X219161Y635914D01*
X218685Y635835D01*
X218204Y635788D01*
X217718Y635772D01*
G37*
G36*
X236866Y612912D02*
X236591Y612922D01*
X236334Y612952D01*
X236094Y613002D01*
X235873Y613073D01*
X235669Y613163D01*
X235482Y613274D01*
X235314Y613405D01*
X235163Y613556D01*
X235030Y613727D01*
X234915Y613918D01*
X234817Y614129D01*
X234737Y614361D01*
X234675Y614612D01*
X234631Y614884D01*
X234604Y615176D01*
X234595Y615488D01*
X234595Y623078D01*
X233281Y623078D01*
X233281Y624455D01*
X234669Y624455D01*
X235226Y627000D01*
X236488Y627000D01*
X236488Y624455D01*
X238590Y624455D01*
X238590Y623078D01*
X236488Y623078D01*
X236488Y615898D01*
X236504Y615518D01*
X236555Y615200D01*
X236638Y614942D01*
X236756Y614746D01*
X236914Y614601D01*
X237122Y614498D01*
X237380Y614436D01*
X237686Y614415D01*
X237896Y614424D01*
X238149Y614452D01*
X238779Y614562D01*
X238779Y613164D01*
X238309Y613054D01*
X237833Y612975D01*
X237352Y612928D01*
X236866Y612912D01*
G37*
G36*
X99869Y635940D02*
X97976Y635940D01*
X97976Y651542D01*
X99869Y651542D01*
X99869Y635940D01*
G37*
G36*
X121392Y613080D02*
X119500Y613080D01*
X119500Y628682D01*
X121392Y628682D01*
X121392Y613080D01*
G37*
G36*
X183619Y635940D02*
X181726Y635940D01*
X181726Y651542D01*
X183619Y651542D01*
X183619Y635940D01*
G37*
G36*
X133411Y635940D02*
X131518Y635940D01*
X131518Y644666D01*
X131503Y645928D01*
X131455Y647315D01*
X133242Y647315D01*
X133306Y645767D01*
X133327Y644992D01*
X133369Y644992D01*
X133603Y645665D01*
X133727Y645958D01*
X133855Y646222D01*
X133987Y646457D01*
X134124Y646664D01*
X134264Y646841D01*
X134409Y646989D01*
X134564Y647115D01*
X134734Y647224D01*
X134919Y647316D01*
X135119Y647392D01*
X135334Y647450D01*
X135565Y647492D01*
X135810Y647517D01*
X136071Y647526D01*
X136260Y647519D01*
X136452Y647499D01*
X136838Y647421D01*
X136838Y645686D01*
X136633Y645732D01*
X136396Y645765D01*
X136128Y645784D01*
X135829Y645791D01*
X135543Y645775D01*
X135275Y645728D01*
X135024Y645648D01*
X134791Y645537D01*
X134575Y645395D01*
X134376Y645220D01*
X134195Y645014D01*
X134031Y644776D01*
X133886Y644509D01*
X133760Y644214D01*
X133653Y643892D01*
X133566Y643542D01*
X133498Y643165D01*
X133449Y642761D01*
X133420Y642329D01*
X133411Y641870D01*
X133411Y635940D01*
G37*
G36*
X254278Y613080D02*
X252385Y613080D01*
X252385Y621806D01*
X252370Y623068D01*
X252322Y624455D01*
X254110Y624455D01*
X254173Y622907D01*
X254194Y622132D01*
X254236Y622132D01*
X254470Y622805D01*
X254594Y623098D01*
X254722Y623362D01*
X254854Y623597D01*
X254991Y623804D01*
X255132Y623981D01*
X255277Y624129D01*
X255431Y624255D01*
X255601Y624364D01*
X255786Y624456D01*
X255986Y624532D01*
X256201Y624590D01*
X256432Y624632D01*
X256677Y624657D01*
X256938Y624666D01*
X257128Y624659D01*
X257319Y624639D01*
X257705Y624561D01*
X257705Y622826D01*
X257500Y622872D01*
X257264Y622905D01*
X256996Y622924D01*
X256696Y622931D01*
X256410Y622915D01*
X256142Y622868D01*
X255891Y622788D01*
X255658Y622677D01*
X255442Y622535D01*
X255243Y622360D01*
X255062Y622154D01*
X254898Y621916D01*
X254753Y621649D01*
X254627Y621354D01*
X254520Y621032D01*
X254433Y620682D01*
X254365Y620305D01*
X254317Y619901D01*
X254288Y619469D01*
X254278Y619010D01*
X254278Y613080D01*
G37*
G36*
X126163Y613080D02*
X124270Y613080D01*
X124270Y624455D01*
X126163Y624455D01*
X126163Y613080D01*
G37*
G36*
X188389Y635940D02*
X186497Y635940D01*
X186497Y647315D01*
X188389Y647315D01*
X188389Y635940D01*
G37*
G36*
X126163Y626873D02*
X124270Y626873D01*
X124270Y628682D01*
X126163Y628682D01*
X126163Y626873D01*
G37*
G36*
X188389Y649733D02*
X186497Y649733D01*
X186497Y651542D01*
X188389Y651542D01*
X188389Y649733D01*
G37*
G36*
X164148Y19232D02*
X163695Y19243D01*
X163265Y19278D01*
X162859Y19335D01*
X162477Y19415D01*
X162118Y19517D01*
X161783Y19643D01*
X161471Y19791D01*
X161183Y19963D01*
X160920Y20155D01*
X160681Y20366D01*
X160466Y20597D01*
X160277Y20847D01*
X160112Y21116D01*
X159971Y21405D01*
X159855Y21712D01*
X159764Y22039D01*
X161667Y22312D01*
X161721Y22121D01*
X161790Y21941D01*
X161873Y21772D01*
X161971Y21614D01*
X162082Y21468D01*
X162208Y21334D01*
X162348Y21210D01*
X162503Y21098D01*
X162671Y20998D01*
X162851Y20912D01*
X163045Y20839D01*
X163251Y20779D01*
X163469Y20732D01*
X163700Y20699D01*
X163944Y20679D01*
X164201Y20672D01*
X164543Y20685D01*
X164561Y20687D01*
X164864Y20724D01*
X165162Y20789D01*
X165438Y20879D01*
X165692Y20996D01*
X165924Y21138D01*
X166134Y21306D01*
X166322Y21500D01*
X166487Y21720D01*
X166631Y21966D01*
X166753Y22237D01*
X166852Y22535D01*
X166929Y22858D01*
X166985Y23208D01*
X167018Y23583D01*
X167029Y23984D01*
X167029Y25813D01*
X167008Y25813D01*
X166867Y25548D01*
X166715Y25300D01*
X166549Y25069D01*
X166372Y24855D01*
X166181Y24658D01*
X165979Y24478D01*
X165764Y24314D01*
X165551Y24178D01*
X165536Y24168D01*
X165297Y24038D01*
X165048Y23926D01*
X164790Y23831D01*
X164521Y23754D01*
X164243Y23694D01*
X163955Y23650D01*
X163657Y23625D01*
X163349Y23616D01*
X162843Y23638D01*
X162372Y23703D01*
X161936Y23811D01*
X161534Y23963D01*
X161167Y24158D01*
X160835Y24397D01*
X160537Y24678D01*
X160274Y25004D01*
X160044Y25375D01*
X159844Y25797D01*
X159675Y26268D01*
X159537Y26788D01*
X159429Y27358D01*
X159352Y27978D01*
X159306Y28648D01*
X159291Y29367D01*
X159307Y30096D01*
X159357Y30776D01*
X159440Y31407D01*
X159555Y31988D01*
X159704Y32520D01*
X159885Y33003D01*
X160100Y33436D01*
X160348Y33819D01*
X160629Y34155D01*
X160945Y34447D01*
X161295Y34694D01*
X161679Y34895D01*
X162097Y35052D01*
X162550Y35164D01*
X163038Y35232D01*
X163559Y35254D01*
X163857Y35245D01*
X164144Y35220D01*
X164421Y35177D01*
X164688Y35116D01*
X164945Y35039D01*
X165193Y34944D01*
X165430Y34832D01*
X165657Y34702D01*
X165873Y34557D01*
X166076Y34397D01*
X166266Y34222D01*
X166444Y34033D01*
X166609Y33829D01*
X166762Y33611D01*
X166902Y33378D01*
X167029Y33130D01*
X167050Y33130D01*
X167092Y34224D01*
X167134Y34826D01*
X167155Y34995D01*
X167176Y35075D01*
X168974Y35075D01*
X168946Y34715D01*
X168926Y34203D01*
X168911Y32720D01*
X168911Y24026D01*
X168892Y23445D01*
X168836Y22902D01*
X168743Y22397D01*
X168613Y21929D01*
X168446Y21498D01*
X168241Y21105D01*
X167999Y20749D01*
X167720Y20430D01*
X167404Y20149D01*
X167050Y19906D01*
X166660Y19700D01*
X166232Y19532D01*
X165767Y19400D01*
X165264Y19307D01*
X164725Y19251D01*
X164148Y19232D01*
G37*
%LPC*%
G36*
X163990Y25014D02*
X164211Y25022D01*
X164425Y25047D01*
X164633Y25088D01*
X164834Y25146D01*
X165029Y25220D01*
X165219Y25310D01*
X165401Y25417D01*
X165578Y25540D01*
X165746Y25678D01*
X165905Y25831D01*
X166054Y25998D01*
X166075Y26026D01*
X166193Y26180D01*
X166441Y26586D01*
X166650Y27048D01*
X166739Y27300D01*
X166816Y27563D01*
X166881Y27838D01*
X166934Y28125D01*
X166976Y28423D01*
X167005Y28733D01*
X167023Y29054D01*
X167029Y29388D01*
X167023Y29729D01*
X167005Y30058D01*
X166976Y30375D01*
X166934Y30680D01*
X166881Y30972D01*
X166816Y31253D01*
X166739Y31522D01*
X166650Y31779D01*
X166442Y32252D01*
X166194Y32665D01*
X166056Y32850D01*
X165908Y33019D01*
X165751Y33174D01*
X165583Y33314D01*
X165408Y33439D01*
X165227Y33547D01*
X165041Y33638D01*
X164849Y33713D01*
X164651Y33771D01*
X164447Y33812D01*
X164237Y33837D01*
X164022Y33845D01*
X163672Y33829D01*
X163346Y33780D01*
X163045Y33697D01*
X162768Y33583D01*
X162516Y33435D01*
X162289Y33254D01*
X162087Y33040D01*
X161909Y32794D01*
X161754Y32511D01*
X161619Y32187D01*
X161505Y31822D01*
X161412Y31417D01*
X161340Y30971D01*
X161288Y30484D01*
X161257Y29956D01*
X161246Y29388D01*
X161256Y28825D01*
X161285Y28303D01*
X161334Y27822D01*
X161402Y27382D01*
X161489Y26984D01*
X161595Y26626D01*
X161721Y26309D01*
X161867Y26034D01*
X162036Y25795D01*
X162232Y25588D01*
X162456Y25413D01*
X162708Y25269D01*
X162987Y25158D01*
X163294Y25078D01*
X163628Y25030D01*
X163990Y25014D01*
G37*
%LPD*%
G36*
X124827Y23490D02*
X124520Y23496D01*
X124223Y23514D01*
X123657Y23585D01*
X123130Y23703D01*
X122640Y23870D01*
X122189Y24083D01*
X121775Y24344D01*
X121400Y24653D01*
X121063Y25009D01*
X120765Y25410D01*
X120507Y25853D01*
X120288Y26338D01*
X120109Y26866D01*
X119970Y27436D01*
X119870Y28048D01*
X119811Y28702D01*
X119791Y29398D01*
X119811Y30111D01*
X119871Y30778D01*
X119970Y31399D01*
X120110Y31974D01*
X120289Y32503D01*
X120508Y32986D01*
X120767Y33423D01*
X121066Y33814D01*
X121404Y34159D01*
X121783Y34458D01*
X122201Y34711D01*
X122659Y34918D01*
X123157Y35079D01*
X123695Y35194D01*
X124272Y35263D01*
X124890Y35286D01*
X125520Y35263D01*
X126108Y35196D01*
X126652Y35084D01*
X127153Y34927D01*
X127611Y34725D01*
X128026Y34478D01*
X128398Y34187D01*
X128727Y33851D01*
X129016Y33467D01*
X129265Y33034D01*
X129477Y32552D01*
X129650Y32020D01*
X129784Y31439D01*
X129880Y30808D01*
X129938Y30128D01*
X129957Y29398D01*
X129937Y28676D01*
X129875Y28001D01*
X129773Y27373D01*
X129629Y26794D01*
X129444Y26261D01*
X129218Y25777D01*
X128951Y25340D01*
X128643Y24951D01*
X128296Y24609D01*
X127912Y24312D01*
X127491Y24061D01*
X127032Y23855D01*
X126536Y23695D01*
X126004Y23581D01*
X125434Y23513D01*
X124827Y23490D01*
G37*
%LPC*%
G36*
X124806Y24888D02*
X125216Y24905D01*
X125597Y24956D01*
X125946Y25042D01*
X126266Y25161D01*
X126555Y25315D01*
X126814Y25503D01*
X127042Y25725D01*
X127240Y25981D01*
X127411Y26274D01*
X127559Y26605D01*
X127685Y26974D01*
X127788Y27382D01*
X127868Y27829D01*
X127925Y28313D01*
X127959Y28837D01*
X127970Y29398D01*
X127959Y29967D01*
X127927Y30495D01*
X127872Y30983D01*
X127796Y31431D01*
X127697Y31839D01*
X127577Y32206D01*
X127435Y32533D01*
X127271Y32820D01*
X127082Y33070D01*
X126862Y33287D01*
X126613Y33471D01*
X126334Y33621D01*
X126026Y33737D01*
X125687Y33821D01*
X125319Y33871D01*
X124921Y33887D01*
X124521Y33870D01*
X124148Y33819D01*
X123805Y33734D01*
X123490Y33615D01*
X123204Y33462D01*
X122947Y33275D01*
X122719Y33054D01*
X122519Y32799D01*
X122345Y32508D01*
X122195Y32179D01*
X122068Y31811D01*
X121963Y31405D01*
X121882Y30961D01*
X121824Y30478D01*
X121790Y29957D01*
X121778Y29398D01*
X121789Y28853D01*
X121824Y28343D01*
X121881Y27868D01*
X121961Y27428D01*
X122063Y27023D01*
X122189Y26653D01*
X122337Y26318D01*
X122509Y26018D01*
X122704Y25753D01*
X122926Y25524D01*
X123174Y25329D01*
X123448Y25171D01*
X123749Y25047D01*
X124075Y24959D01*
X124427Y24906D01*
X124806Y24888D01*
G37*
%LPD*%
G36*
X211014Y23490D02*
X210708Y23496D01*
X210411Y23514D01*
X209845Y23585D01*
X209317Y23703D01*
X208828Y23870D01*
X208376Y24083D01*
X207963Y24344D01*
X207588Y24653D01*
X207251Y25009D01*
X206952Y25410D01*
X206694Y25853D01*
X206475Y26338D01*
X206297Y26866D01*
X206157Y27436D01*
X206058Y28048D01*
X205998Y28702D01*
X205978Y29398D01*
X205998Y30111D01*
X206058Y30778D01*
X206158Y31399D01*
X206297Y31974D01*
X206476Y32503D01*
X206696Y32986D01*
X206954Y33423D01*
X207253Y33814D01*
X207592Y34159D01*
X207970Y34458D01*
X208389Y34711D01*
X208847Y34918D01*
X209345Y35079D01*
X209882Y35194D01*
X210460Y35263D01*
X211077Y35286D01*
X211708Y35263D01*
X212295Y35196D01*
X212839Y35084D01*
X213340Y34927D01*
X213799Y34725D01*
X214214Y34478D01*
X214586Y34187D01*
X214915Y33851D01*
X215203Y33467D01*
X215453Y33034D01*
X215664Y32552D01*
X215837Y32020D01*
X215972Y31439D01*
X216068Y30808D01*
X216126Y30128D01*
X216145Y29398D01*
X216124Y28676D01*
X216063Y28001D01*
X215960Y27373D01*
X215816Y26794D01*
X215632Y26261D01*
X215406Y25777D01*
X215139Y25340D01*
X214831Y24951D01*
X214484Y24609D01*
X214099Y24312D01*
X213678Y24061D01*
X213220Y23855D01*
X212724Y23695D01*
X212191Y23581D01*
X211621Y23513D01*
X211014Y23490D01*
G37*
%LPC*%
G36*
X210993Y24888D02*
X211404Y24905D01*
X211784Y24956D01*
X212134Y25042D01*
X212453Y25161D01*
X212742Y25315D01*
X213001Y25503D01*
X213229Y25725D01*
X213427Y25981D01*
X213598Y26274D01*
X213747Y26605D01*
X213872Y26974D01*
X213975Y27382D01*
X214055Y27829D01*
X214112Y28313D01*
X214146Y28837D01*
X214158Y29398D01*
X214147Y29967D01*
X214114Y30495D01*
X214060Y30983D01*
X213983Y31431D01*
X213885Y31839D01*
X213765Y32206D01*
X213623Y32533D01*
X213459Y32820D01*
X213269Y33070D01*
X213050Y33287D01*
X212801Y33471D01*
X212522Y33621D01*
X212213Y33737D01*
X211875Y33821D01*
X211507Y33871D01*
X211109Y33887D01*
X210708Y33870D01*
X210336Y33819D01*
X209993Y33734D01*
X209678Y33615D01*
X209392Y33462D01*
X209135Y33275D01*
X208906Y33054D01*
X208707Y32799D01*
X208533Y32508D01*
X208382Y32179D01*
X208255Y31811D01*
X208151Y31405D01*
X208070Y30961D01*
X208012Y30478D01*
X207977Y29957D01*
X207966Y29398D01*
X207977Y28853D01*
X208011Y28343D01*
X208068Y27868D01*
X208148Y27428D01*
X208251Y27023D01*
X208377Y26653D01*
X208525Y26318D01*
X208696Y26018D01*
X208892Y25753D01*
X209114Y25524D01*
X209362Y25329D01*
X209636Y25171D01*
X209936Y25047D01*
X210262Y24959D01*
X210615Y24906D01*
X210993Y24888D01*
G37*
%LPD*%
G36*
X220418Y23700D02*
X218536Y23700D01*
X218536Y32647D01*
X218520Y34247D01*
X218501Y34758D01*
X218473Y35075D01*
X220260Y35075D01*
X220281Y34792D01*
X220307Y34261D01*
X220344Y33130D01*
X220376Y33130D01*
X220531Y33421D01*
X220692Y33689D01*
X220858Y33934D01*
X221030Y34155D01*
X221208Y34354D01*
X221391Y34530D01*
X221580Y34683D01*
X221774Y34813D01*
X221977Y34923D01*
X222190Y35020D01*
X222414Y35101D01*
X222649Y35167D01*
X222895Y35219D01*
X223152Y35256D01*
X223420Y35278D01*
X223698Y35286D01*
X224013Y35278D01*
X224311Y35253D01*
X224592Y35213D01*
X224856Y35157D01*
X225103Y35084D01*
X225333Y34996D01*
X225546Y34891D01*
X225743Y34771D01*
X225924Y34632D01*
X226090Y34475D01*
X226242Y34298D01*
X226380Y34103D01*
X226504Y33888D01*
X226613Y33655D01*
X226708Y33402D01*
X226789Y33130D01*
X226820Y33130D01*
X226972Y33407D01*
X227130Y33663D01*
X227297Y33900D01*
X227471Y34116D01*
X227653Y34312D01*
X227843Y34489D01*
X228040Y34645D01*
X228245Y34781D01*
X228459Y34899D01*
X228685Y35002D01*
X228921Y35089D01*
X229169Y35160D01*
X229427Y35215D01*
X229697Y35254D01*
X229977Y35278D01*
X230269Y35286D01*
X230685Y35271D01*
X231072Y35227D01*
X231430Y35154D01*
X231758Y35052D01*
X232057Y34920D01*
X232326Y34759D01*
X232566Y34569D01*
X232776Y34350D01*
X232960Y34097D01*
X233119Y33807D01*
X233254Y33480D01*
X233364Y33115D01*
X233449Y32712D01*
X233511Y32272D01*
X233547Y31795D01*
X233559Y31280D01*
X233559Y23700D01*
X231688Y23700D01*
X231688Y30912D01*
X231681Y31309D01*
X231660Y31674D01*
X231625Y32007D01*
X231575Y32308D01*
X231512Y32577D01*
X231434Y32814D01*
X231342Y33020D01*
X231236Y33194D01*
X231112Y33341D01*
X230965Y33469D01*
X230795Y33578D01*
X230603Y33667D01*
X230388Y33736D01*
X230150Y33785D01*
X229890Y33814D01*
X229606Y33824D01*
X229305Y33810D01*
X229021Y33767D01*
X228754Y33695D01*
X228504Y33594D01*
X228271Y33465D01*
X228056Y33307D01*
X227858Y33120D01*
X227677Y32904D01*
X227516Y32662D01*
X227376Y32396D01*
X227258Y32106D01*
X227161Y31791D01*
X227086Y31453D01*
X227032Y31090D01*
X226999Y30703D01*
X226989Y30292D01*
X226989Y23700D01*
X225117Y23700D01*
X225117Y30912D01*
X225110Y31309D01*
X225089Y31674D01*
X225054Y32007D01*
X225004Y32308D01*
X224941Y32577D01*
X224863Y32814D01*
X224771Y33020D01*
X224665Y33194D01*
X224541Y33341D01*
X224394Y33469D01*
X224224Y33578D01*
X224032Y33667D01*
X223817Y33736D01*
X223579Y33785D01*
X223319Y33814D01*
X223036Y33824D01*
X222741Y33810D01*
X222463Y33766D01*
X222200Y33694D01*
X221953Y33593D01*
X221722Y33463D01*
X221506Y33304D01*
X221306Y33116D01*
X221122Y32899D01*
X220957Y32656D01*
X220814Y32389D01*
X220693Y32099D01*
X220594Y31785D01*
X220517Y31447D01*
X220462Y31086D01*
X220429Y30701D01*
X220418Y30292D01*
X220418Y23700D01*
G37*
G36*
X72339Y23490D02*
X71727Y23513D01*
X71152Y23584D01*
X70615Y23701D01*
X70116Y23866D01*
X69655Y24077D01*
X69231Y24335D01*
X68845Y24641D01*
X68496Y24993D01*
X68187Y25392D01*
X67919Y25836D01*
X67692Y26326D01*
X67506Y26862D01*
X67362Y27443D01*
X67259Y28070D01*
X67197Y28743D01*
X67177Y29461D01*
X67197Y30145D01*
X67259Y30788D01*
X67362Y31390D01*
X67506Y31950D01*
X67692Y32470D01*
X67919Y32948D01*
X68187Y33386D01*
X68496Y33782D01*
X68843Y34135D01*
X69226Y34440D01*
X69644Y34698D01*
X70098Y34910D01*
X70587Y35074D01*
X71111Y35192D01*
X71670Y35262D01*
X72265Y35286D01*
X72573Y35280D01*
X72872Y35262D01*
X73440Y35191D01*
X73969Y35073D01*
X74459Y34908D01*
X74909Y34695D01*
X75321Y34436D01*
X75693Y34129D01*
X76026Y33774D01*
X76320Y33373D01*
X76575Y32924D01*
X76790Y32428D01*
X76966Y31885D01*
X77103Y31295D01*
X77201Y30657D01*
X77260Y29973D01*
X77280Y29241D01*
X77280Y28988D01*
X69164Y28988D01*
X69176Y28513D01*
X69214Y28066D01*
X69277Y27647D01*
X69366Y27256D01*
X69480Y26893D01*
X69619Y26558D01*
X69783Y26250D01*
X69973Y25971D01*
X70187Y25722D01*
X70424Y25506D01*
X70685Y25324D01*
X70969Y25174D01*
X71277Y25058D01*
X71607Y24975D01*
X71961Y24926D01*
X72339Y24909D01*
X72638Y24917D01*
X72923Y24940D01*
X73192Y24979D01*
X73446Y25033D01*
X73685Y25102D01*
X73909Y25187D01*
X74117Y25287D01*
X74310Y25403D01*
X74650Y25667D01*
X74931Y25963D01*
X75049Y26123D01*
X75152Y26292D01*
X75241Y26469D01*
X75314Y26654D01*
X76975Y26181D01*
X76837Y25855D01*
X76679Y25550D01*
X76501Y25266D01*
X76303Y25004D01*
X76084Y24762D01*
X75845Y24541D01*
X75586Y24341D01*
X75306Y24163D01*
X75006Y24005D01*
X74686Y23868D01*
X74345Y23753D01*
X73985Y23658D01*
X73603Y23584D01*
X73202Y23532D01*
X72780Y23500D01*
X72339Y23490D01*
G37*
%LPC*%
G36*
X75324Y30439D02*
X75276Y30873D01*
X75208Y31277D01*
X75122Y31651D01*
X75017Y31994D01*
X74893Y32306D01*
X74751Y32589D01*
X74590Y32841D01*
X74410Y33062D01*
X74210Y33256D01*
X73990Y33423D01*
X73749Y33565D01*
X73487Y33681D01*
X73205Y33771D01*
X72902Y33836D01*
X72578Y33874D01*
X72233Y33887D01*
X71898Y33873D01*
X71581Y33830D01*
X71281Y33758D01*
X70999Y33657D01*
X70736Y33528D01*
X70490Y33370D01*
X70262Y33183D01*
X70052Y32967D01*
X69862Y32727D01*
X69696Y32464D01*
X69553Y32181D01*
X69433Y31875D01*
X69336Y31549D01*
X69262Y31200D01*
X69212Y30830D01*
X69185Y30439D01*
X75324Y30439D01*
G37*
%LPD*%
G36*
X89089Y23490D02*
X88477Y23513D01*
X87902Y23584D01*
X87365Y23701D01*
X86866Y23866D01*
X86405Y24077D01*
X85981Y24335D01*
X85595Y24641D01*
X85246Y24993D01*
X84937Y25392D01*
X84669Y25836D01*
X84442Y26326D01*
X84256Y26862D01*
X84112Y27443D01*
X84009Y28070D01*
X83947Y28743D01*
X83927Y29461D01*
X83947Y30145D01*
X84009Y30788D01*
X84112Y31390D01*
X84256Y31950D01*
X84442Y32470D01*
X84669Y32948D01*
X84937Y33386D01*
X85246Y33782D01*
X85593Y34135D01*
X85976Y34440D01*
X86394Y34698D01*
X86848Y34910D01*
X87337Y35074D01*
X87861Y35192D01*
X88420Y35262D01*
X89015Y35286D01*
X89323Y35280D01*
X89622Y35262D01*
X90190Y35191D01*
X90719Y35073D01*
X91209Y34908D01*
X91659Y34695D01*
X92071Y34436D01*
X92443Y34129D01*
X92776Y33774D01*
X93070Y33373D01*
X93325Y32924D01*
X93540Y32428D01*
X93716Y31885D01*
X93853Y31295D01*
X93951Y30657D01*
X94010Y29973D01*
X94030Y29241D01*
X94030Y28988D01*
X85914Y28988D01*
X85926Y28513D01*
X85964Y28066D01*
X86027Y27647D01*
X86116Y27256D01*
X86230Y26893D01*
X86369Y26558D01*
X86533Y26250D01*
X86723Y25971D01*
X86937Y25722D01*
X87174Y25506D01*
X87435Y25324D01*
X87719Y25174D01*
X88027Y25058D01*
X88357Y24975D01*
X88711Y24926D01*
X89089Y24909D01*
X89388Y24917D01*
X89673Y24940D01*
X89942Y24979D01*
X90196Y25033D01*
X90435Y25102D01*
X90659Y25187D01*
X90867Y25287D01*
X91060Y25403D01*
X91400Y25667D01*
X91681Y25963D01*
X91799Y26123D01*
X91902Y26292D01*
X91991Y26469D01*
X92064Y26654D01*
X93725Y26181D01*
X93587Y25855D01*
X93429Y25550D01*
X93251Y25266D01*
X93053Y25004D01*
X92834Y24762D01*
X92595Y24541D01*
X92336Y24341D01*
X92056Y24163D01*
X91756Y24005D01*
X91436Y23868D01*
X91095Y23753D01*
X90735Y23658D01*
X90353Y23584D01*
X89952Y23532D01*
X89530Y23500D01*
X89089Y23490D01*
G37*
%LPC*%
G36*
X92074Y30439D02*
X92026Y30873D01*
X91958Y31277D01*
X91872Y31651D01*
X91767Y31994D01*
X91643Y32306D01*
X91501Y32589D01*
X91340Y32841D01*
X91160Y33062D01*
X90960Y33256D01*
X90740Y33423D01*
X90499Y33565D01*
X90237Y33681D01*
X89955Y33771D01*
X89652Y33836D01*
X89328Y33874D01*
X88983Y33887D01*
X88648Y33873D01*
X88331Y33830D01*
X88031Y33758D01*
X87749Y33657D01*
X87486Y33528D01*
X87240Y33370D01*
X87012Y33183D01*
X86802Y32967D01*
X86612Y32727D01*
X86446Y32464D01*
X86303Y32181D01*
X86183Y31875D01*
X86086Y31549D01*
X86012Y31200D01*
X85962Y30830D01*
X85935Y30439D01*
X92074Y30439D01*
G37*
%LPD*%
G36*
X173741Y23700D02*
X171848Y23700D01*
X171848Y39302D01*
X173741Y39302D01*
X173741Y35244D01*
X173732Y34592D01*
X173704Y33919D01*
X173657Y33130D01*
X173688Y33130D01*
X173845Y33400D01*
X174009Y33651D01*
X174180Y33883D01*
X174360Y34096D01*
X174547Y34291D01*
X174742Y34468D01*
X174945Y34626D01*
X175155Y34765D01*
X175376Y34887D01*
X175612Y34993D01*
X175862Y35082D01*
X176126Y35156D01*
X176405Y35212D01*
X176697Y35253D01*
X177005Y35278D01*
X177326Y35286D01*
X177773Y35271D01*
X178190Y35228D01*
X178577Y35156D01*
X178933Y35056D01*
X179259Y34926D01*
X179554Y34768D01*
X179819Y34581D01*
X180054Y34366D01*
X180260Y34116D01*
X180438Y33828D01*
X180589Y33501D01*
X180713Y33134D01*
X180809Y32729D01*
X180877Y32285D01*
X180918Y31802D01*
X180932Y31280D01*
X180932Y23700D01*
X179029Y23700D01*
X179029Y30912D01*
X179015Y31473D01*
X178974Y31957D01*
X178905Y32364D01*
X178808Y32694D01*
X178680Y32966D01*
X178517Y33200D01*
X178317Y33395D01*
X178083Y33551D01*
X177806Y33671D01*
X177481Y33756D01*
X177107Y33807D01*
X176685Y33824D01*
X176359Y33810D01*
X176050Y33766D01*
X175758Y33694D01*
X175482Y33593D01*
X175223Y33463D01*
X174980Y33304D01*
X174755Y33116D01*
X174545Y32899D01*
X174357Y32658D01*
X174193Y32396D01*
X174055Y32115D01*
X173942Y31814D01*
X173854Y31492D01*
X173791Y31151D01*
X173753Y30789D01*
X173741Y30407D01*
X173741Y23700D01*
G37*
G36*
X134241Y23700D02*
X132348Y23700D01*
X132348Y32647D01*
X132333Y34247D01*
X132313Y34758D01*
X132285Y35075D01*
X134073Y35075D01*
X134094Y34792D01*
X134120Y34261D01*
X134157Y33130D01*
X134188Y33130D01*
X134354Y33414D01*
X134527Y33676D01*
X134706Y33917D01*
X134891Y34136D01*
X135083Y34333D01*
X135281Y34509D01*
X135486Y34664D01*
X135697Y34797D01*
X135918Y34911D01*
X136151Y35011D01*
X136398Y35095D01*
X136658Y35163D01*
X136930Y35217D01*
X137216Y35255D01*
X137514Y35278D01*
X137826Y35286D01*
X138278Y35271D01*
X138699Y35228D01*
X139088Y35155D01*
X139446Y35053D01*
X139773Y34922D01*
X140068Y34762D01*
X140332Y34573D01*
X140565Y34355D01*
X140768Y34104D01*
X140944Y33814D01*
X141093Y33487D01*
X141215Y33121D01*
X141310Y32718D01*
X141378Y32277D01*
X141418Y31797D01*
X141432Y31280D01*
X141432Y23700D01*
X139529Y23700D01*
X139529Y30912D01*
X139515Y31443D01*
X139474Y31911D01*
X139405Y32316D01*
X139308Y32657D01*
X139181Y32946D01*
X139022Y33191D01*
X138829Y33393D01*
X138604Y33551D01*
X138334Y33671D01*
X138007Y33756D01*
X137624Y33807D01*
X137185Y33824D01*
X136852Y33810D01*
X136537Y33766D01*
X136241Y33693D01*
X135962Y33590D01*
X135702Y33459D01*
X135460Y33298D01*
X135236Y33108D01*
X135029Y32889D01*
X134845Y32643D01*
X134684Y32375D01*
X134549Y32085D01*
X134438Y31772D01*
X134352Y31436D01*
X134290Y31077D01*
X134253Y30696D01*
X134241Y30292D01*
X134241Y23700D01*
G37*
G36*
X100794Y23490D02*
X100215Y23513D01*
X99672Y23584D01*
X99163Y23702D01*
X98690Y23867D01*
X98253Y24079D01*
X97850Y24338D01*
X97483Y24645D01*
X97152Y24998D01*
X96857Y25397D01*
X96602Y25839D01*
X96386Y26324D01*
X96209Y26853D01*
X96072Y27424D01*
X95974Y28039D01*
X95915Y28697D01*
X95895Y29398D01*
X95915Y30094D01*
X95974Y30748D01*
X96073Y31359D01*
X96211Y31928D01*
X96388Y32454D01*
X96605Y32938D01*
X96861Y33379D01*
X97157Y33777D01*
X97489Y34131D01*
X97856Y34437D01*
X98257Y34696D01*
X98692Y34908D01*
X99161Y35074D01*
X99664Y35191D01*
X100202Y35262D01*
X100773Y35286D01*
X101200Y35272D01*
X101609Y35229D01*
X101999Y35159D01*
X102370Y35060D01*
X102723Y34932D01*
X103057Y34777D01*
X103373Y34593D01*
X103670Y34382D01*
X103944Y34145D01*
X104192Y33887D01*
X104413Y33607D01*
X104607Y33307D01*
X104774Y32984D01*
X104915Y32641D01*
X105028Y32276D01*
X105115Y31890D01*
X103170Y31743D01*
X103127Y31973D01*
X103069Y32191D01*
X102996Y32398D01*
X102910Y32592D01*
X102810Y32773D01*
X102695Y32943D01*
X102567Y33101D01*
X102424Y33246D01*
X102266Y33377D01*
X102093Y33490D01*
X101904Y33586D01*
X101699Y33664D01*
X101478Y33725D01*
X101241Y33768D01*
X100989Y33795D01*
X100721Y33803D01*
X100358Y33788D01*
X100021Y33741D01*
X99710Y33663D01*
X99425Y33554D01*
X99166Y33413D01*
X98933Y33241D01*
X98726Y33039D01*
X98545Y32805D01*
X98387Y32533D01*
X98250Y32220D01*
X98135Y31863D01*
X98040Y31464D01*
X97966Y31022D01*
X97914Y30538D01*
X97882Y30010D01*
X97872Y29440D01*
X97883Y28891D01*
X97916Y28378D01*
X97972Y27903D01*
X98050Y27464D01*
X98151Y27062D01*
X98274Y26696D01*
X98419Y26368D01*
X98587Y26076D01*
X98777Y25820D01*
X98989Y25598D01*
X99225Y25410D01*
X99483Y25256D01*
X99764Y25136D01*
X100067Y25051D01*
X100393Y25000D01*
X100742Y24983D01*
X100989Y24991D01*
X101226Y25017D01*
X101452Y25060D01*
X101668Y25119D01*
X101874Y25196D01*
X102070Y25290D01*
X102255Y25401D01*
X102429Y25529D01*
X102591Y25675D01*
X102736Y25839D01*
X102865Y26022D01*
X102977Y26223D01*
X103074Y26443D01*
X103154Y26681D01*
X103218Y26937D01*
X103265Y27211D01*
X105179Y27085D01*
X105108Y26686D01*
X105008Y26307D01*
X104878Y25948D01*
X104719Y25611D01*
X104529Y25294D01*
X104309Y24998D01*
X104060Y24722D01*
X103780Y24467D01*
X103476Y24238D01*
X103152Y24040D01*
X102808Y23872D01*
X102445Y23734D01*
X102062Y23627D01*
X101659Y23551D01*
X101237Y23505D01*
X100794Y23490D01*
G37*
G36*
X200107Y23490D02*
X199528Y23513D01*
X198984Y23584D01*
X198476Y23702D01*
X198003Y23867D01*
X197565Y24079D01*
X197163Y24338D01*
X196796Y24645D01*
X196464Y24998D01*
X196170Y25397D01*
X195914Y25839D01*
X195699Y26324D01*
X195522Y26853D01*
X195384Y27424D01*
X195286Y28039D01*
X195227Y28697D01*
X195208Y29398D01*
X195227Y30094D01*
X195287Y30748D01*
X195385Y31359D01*
X195523Y31928D01*
X195701Y32454D01*
X195917Y32938D01*
X196174Y33379D01*
X196469Y33777D01*
X196802Y34131D01*
X197168Y34437D01*
X197569Y34696D01*
X198004Y34908D01*
X198473Y35074D01*
X198977Y35191D01*
X199514Y35262D01*
X200086Y35286D01*
X200513Y35272D01*
X200921Y35229D01*
X201311Y35159D01*
X201683Y35060D01*
X202035Y34932D01*
X202370Y34777D01*
X202685Y34593D01*
X202982Y34382D01*
X203257Y34145D01*
X203504Y33887D01*
X203725Y33607D01*
X203919Y33307D01*
X204087Y32984D01*
X204227Y32641D01*
X204341Y32276D01*
X204428Y31890D01*
X202483Y31743D01*
X202439Y31973D01*
X202381Y32191D01*
X202309Y32398D01*
X202223Y32592D01*
X202122Y32773D01*
X202008Y32943D01*
X201879Y33101D01*
X201737Y33246D01*
X201579Y33377D01*
X201405Y33490D01*
X201216Y33586D01*
X201011Y33664D01*
X200790Y33725D01*
X200554Y33768D01*
X200301Y33795D01*
X200033Y33803D01*
X199670Y33788D01*
X199334Y33741D01*
X199023Y33663D01*
X198738Y33554D01*
X198479Y33413D01*
X198245Y33241D01*
X198038Y33039D01*
X197857Y32805D01*
X197699Y32533D01*
X197563Y32220D01*
X197447Y31863D01*
X197352Y31464D01*
X197279Y31022D01*
X197226Y30538D01*
X197195Y30010D01*
X197184Y29440D01*
X197195Y28891D01*
X197229Y28378D01*
X197285Y27903D01*
X197363Y27464D01*
X197464Y27062D01*
X197586Y26696D01*
X197732Y26368D01*
X197899Y26076D01*
X198089Y25820D01*
X198302Y25598D01*
X198537Y25410D01*
X198795Y25256D01*
X199076Y25136D01*
X199380Y25051D01*
X199706Y25000D01*
X200054Y24983D01*
X200302Y24991D01*
X200538Y25017D01*
X200765Y25060D01*
X200981Y25119D01*
X201187Y25196D01*
X201382Y25290D01*
X201567Y25401D01*
X201742Y25529D01*
X201903Y25675D01*
X202048Y25839D01*
X202177Y26022D01*
X202290Y26223D01*
X202386Y26443D01*
X202466Y26681D01*
X202530Y26937D01*
X202578Y27211D01*
X204491Y27085D01*
X204421Y26686D01*
X204321Y26307D01*
X204191Y25948D01*
X204031Y25611D01*
X203841Y25294D01*
X203622Y24998D01*
X203372Y24722D01*
X203093Y24467D01*
X202789Y24238D01*
X202465Y24040D01*
X202121Y23872D01*
X201758Y23734D01*
X201374Y23627D01*
X200972Y23551D01*
X200549Y23505D01*
X200107Y23490D01*
G37*
G36*
X146651Y23700D02*
X144759Y23700D01*
X144759Y33698D01*
X143160Y33698D01*
X143160Y35075D01*
X144759Y35075D01*
X144759Y36358D01*
X144769Y36733D01*
X144801Y37081D01*
X144855Y37402D01*
X144929Y37696D01*
X145025Y37962D01*
X145143Y38201D01*
X145282Y38413D01*
X145442Y38597D01*
X145624Y38758D01*
X145829Y38896D01*
X146056Y39014D01*
X146307Y39110D01*
X146579Y39185D01*
X146875Y39238D01*
X147193Y39270D01*
X147534Y39281D01*
X147913Y39273D01*
X148262Y39249D01*
X148581Y39210D01*
X148869Y39155D01*
X148869Y37714D01*
X148422Y37777D01*
X148028Y37798D01*
X147690Y37775D01*
X147403Y37706D01*
X147277Y37655D01*
X147165Y37591D01*
X147065Y37517D01*
X146977Y37430D01*
X146900Y37329D01*
X146834Y37209D01*
X146778Y37070D01*
X146732Y36913D01*
X146671Y36541D01*
X146651Y36095D01*
X146651Y35075D01*
X148869Y35075D01*
X148869Y33698D01*
X146651Y33698D01*
X146651Y23700D01*
G37*
G36*
X109642Y23532D02*
X109367Y23542D01*
X109109Y23572D01*
X108870Y23622D01*
X108648Y23693D01*
X108444Y23783D01*
X108258Y23894D01*
X108089Y24025D01*
X107938Y24176D01*
X107805Y24347D01*
X107690Y24538D01*
X107592Y24749D01*
X107513Y24981D01*
X107451Y25232D01*
X107406Y25504D01*
X107380Y25796D01*
X107371Y26108D01*
X107371Y33698D01*
X106057Y33698D01*
X106057Y35075D01*
X107444Y35075D01*
X108001Y37620D01*
X109263Y37620D01*
X109263Y35075D01*
X111366Y35075D01*
X111366Y33698D01*
X109263Y33698D01*
X109263Y26518D01*
X109280Y26138D01*
X109330Y25820D01*
X109414Y25562D01*
X109531Y25366D01*
X109690Y25221D01*
X109898Y25118D01*
X110155Y25056D01*
X110462Y25035D01*
X110672Y25044D01*
X110924Y25072D01*
X111555Y25182D01*
X111555Y23784D01*
X111084Y23674D01*
X110609Y23595D01*
X110128Y23548D01*
X109642Y23532D01*
G37*
G36*
X186267Y23532D02*
X185992Y23542D01*
X185734Y23572D01*
X185495Y23622D01*
X185273Y23693D01*
X185069Y23783D01*
X184883Y23894D01*
X184714Y24025D01*
X184563Y24176D01*
X184430Y24347D01*
X184315Y24538D01*
X184217Y24749D01*
X184138Y24981D01*
X184076Y25232D01*
X184031Y25504D01*
X184005Y25796D01*
X183996Y26108D01*
X183996Y33698D01*
X182682Y33698D01*
X182682Y35075D01*
X184069Y35075D01*
X184626Y37620D01*
X185888Y37620D01*
X185888Y35075D01*
X187991Y35075D01*
X187991Y33698D01*
X185888Y33698D01*
X185888Y26518D01*
X185905Y26138D01*
X185955Y25820D01*
X186039Y25562D01*
X186156Y25366D01*
X186315Y25221D01*
X186523Y25118D01*
X186780Y25056D01*
X187087Y25035D01*
X187297Y25044D01*
X187549Y25072D01*
X188180Y25182D01*
X188180Y23784D01*
X187709Y23674D01*
X187234Y23595D01*
X186753Y23548D01*
X186267Y23532D01*
G37*
G36*
X81574Y23700D02*
X79681Y23700D01*
X79681Y39302D01*
X81574Y39302D01*
X81574Y23700D01*
G37*
G36*
X152168Y23700D02*
X150275Y23700D01*
X150275Y39302D01*
X152168Y39302D01*
X152168Y23700D01*
G37*
G36*
X115116Y23700D02*
X113223Y23700D01*
X113223Y32426D01*
X113208Y33688D01*
X113160Y35075D01*
X114948Y35075D01*
X115011Y33527D01*
X115032Y32752D01*
X115074Y32752D01*
X115308Y33425D01*
X115432Y33718D01*
X115560Y33982D01*
X115692Y34217D01*
X115829Y34424D01*
X115970Y34601D01*
X116115Y34749D01*
X116269Y34875D01*
X116439Y34984D01*
X116624Y35076D01*
X116824Y35152D01*
X117039Y35210D01*
X117270Y35252D01*
X117515Y35277D01*
X117776Y35286D01*
X117966Y35279D01*
X118157Y35259D01*
X118543Y35181D01*
X118543Y33446D01*
X118338Y33492D01*
X118102Y33525D01*
X117834Y33544D01*
X117534Y33551D01*
X117248Y33535D01*
X116980Y33488D01*
X116729Y33408D01*
X116496Y33297D01*
X116280Y33155D01*
X116081Y32980D01*
X115900Y32774D01*
X115736Y32536D01*
X115591Y32269D01*
X115465Y31974D01*
X115358Y31652D01*
X115271Y31302D01*
X115203Y30925D01*
X115155Y30521D01*
X115126Y30089D01*
X115116Y29630D01*
X115116Y23700D01*
G37*
G36*
X156938Y23700D02*
X155046Y23700D01*
X155046Y35075D01*
X156938Y35075D01*
X156938Y23700D01*
G37*
G36*
X192340Y23700D02*
X190290Y23700D01*
X190290Y26002D01*
X192340Y26002D01*
X192340Y23700D01*
G37*
G36*
X156938Y37493D02*
X155046Y37493D01*
X155046Y39302D01*
X156938Y39302D01*
X156938Y37493D01*
G37*
G36*
X195165Y239396D02*
X194241Y239415D01*
X193377Y239473D01*
X192572Y239571D01*
X191827Y239707D01*
X191142Y239882D01*
X190517Y240096D01*
X189952Y240349D01*
X189446Y240641D01*
X189215Y240803D01*
X189000Y240975D01*
X188799Y241159D01*
X188613Y241355D01*
X188442Y241561D01*
X188286Y241779D01*
X188145Y242008D01*
X188019Y242249D01*
X187907Y242500D01*
X187811Y242763D01*
X187729Y243038D01*
X187662Y243323D01*
X187610Y243620D01*
X187573Y243928D01*
X187550Y244248D01*
X187543Y244579D01*
X187551Y244900D01*
X187573Y245212D01*
X187611Y245512D01*
X187663Y245802D01*
X187731Y246081D01*
X187814Y246349D01*
X187911Y246607D01*
X188024Y246853D01*
X188152Y247089D01*
X188295Y247315D01*
X188452Y247530D01*
X188625Y247734D01*
X188813Y247927D01*
X189016Y248109D01*
X189234Y248281D01*
X189467Y248442D01*
X189977Y248734D01*
X190545Y248987D01*
X191170Y249201D01*
X191853Y249377D01*
X192595Y249513D01*
X193394Y249610D01*
X194250Y249669D01*
X195165Y249688D01*
X196066Y249668D01*
X196911Y249606D01*
X197702Y249504D01*
X198437Y249361D01*
X199118Y249177D01*
X199744Y248952D01*
X200316Y248686D01*
X200832Y248379D01*
X201069Y248211D01*
X201290Y248032D01*
X201496Y247844D01*
X201687Y247647D01*
X201863Y247439D01*
X202023Y247222D01*
X202169Y246995D01*
X202298Y246759D01*
X202413Y246512D01*
X202512Y246256D01*
X202596Y245991D01*
X202665Y245715D01*
X202719Y245430D01*
X202757Y245135D01*
X202780Y244830D01*
X202787Y244515D01*
X202780Y244201D01*
X202757Y243897D01*
X202719Y243602D01*
X202666Y243318D01*
X202597Y243043D01*
X202514Y242778D01*
X202415Y242524D01*
X202301Y242279D01*
X202172Y242044D01*
X202028Y241819D01*
X201868Y241604D01*
X201693Y241399D01*
X201503Y241204D01*
X201298Y241019D01*
X201078Y240843D01*
X200842Y240678D01*
X200328Y240378D01*
X199758Y240117D01*
X199132Y239897D01*
X198451Y239716D01*
X197713Y239576D01*
X196920Y239476D01*
X196070Y239416D01*
X195165Y239396D01*
G37*
%LPC*%
G36*
X195165Y241309D02*
X195927Y241321D01*
X196636Y241357D01*
X197293Y241418D01*
X197896Y241502D01*
X198446Y241611D01*
X198944Y241744D01*
X199389Y241901D01*
X199780Y242082D01*
X200123Y242289D01*
X200420Y242525D01*
X200671Y242789D01*
X200877Y243082D01*
X201036Y243403D01*
X201151Y243752D01*
X201219Y244130D01*
X201242Y244537D01*
X201219Y244940D01*
X201149Y245316D01*
X201032Y245665D01*
X200869Y245985D01*
X200659Y246277D01*
X200402Y246541D01*
X200099Y246778D01*
X199749Y246986D01*
X199351Y247168D01*
X198903Y247326D01*
X198405Y247460D01*
X197857Y247570D01*
X197259Y247655D01*
X196611Y247715D01*
X195913Y247752D01*
X195165Y247764D01*
X194391Y247753D01*
X193672Y247718D01*
X193009Y247660D01*
X192400Y247579D01*
X191847Y247475D01*
X191349Y247347D01*
X190906Y247197D01*
X190518Y247023D01*
X190181Y246823D01*
X189888Y246592D01*
X189641Y246332D01*
X189438Y246041D01*
X189280Y245721D01*
X189168Y245370D01*
X189100Y244989D01*
X189078Y244579D01*
X189100Y244158D01*
X189167Y243767D01*
X189278Y243408D01*
X189433Y243079D01*
X189632Y242781D01*
X189876Y242514D01*
X190165Y242277D01*
X190497Y242071D01*
X190881Y241892D01*
X191321Y241738D01*
X191819Y241607D01*
X192374Y241499D01*
X192986Y241416D01*
X193655Y241357D01*
X194382Y241321D01*
X195165Y241309D01*
G37*
%LPD*%
G36*
X183527Y236120D02*
X168714Y236120D01*
X168714Y238454D01*
X181414Y246466D01*
X179637Y246371D01*
X178962Y246347D01*
X178428Y246339D01*
X168714Y246339D01*
X168714Y248148D01*
X183527Y248148D01*
X183527Y245730D01*
X170911Y237803D01*
X171931Y237855D01*
X173687Y237908D01*
X183527Y237908D01*
X183527Y236120D01*
G37*
G36*
X199223Y221111D02*
X197751Y221111D01*
X187764Y227892D01*
X187764Y229879D01*
X197730Y229879D01*
X197730Y231961D01*
X199223Y231961D01*
X199223Y229879D01*
X202577Y229879D01*
X202577Y228092D01*
X199223Y228092D01*
X199223Y221111D01*
G37*
%LPC*%
G36*
X197730Y222856D02*
X197730Y228092D01*
X189898Y228092D01*
X190455Y227798D01*
X191149Y227388D01*
X196742Y223592D01*
X197520Y223024D01*
X197730Y222856D01*
G37*
%LPD*%
G36*
X183527Y207402D02*
X168714Y207402D01*
X168714Y218640D01*
X170354Y218640D01*
X170354Y209410D01*
X175106Y209410D01*
X175106Y218010D01*
X176725Y218010D01*
X176725Y209410D01*
X181887Y209410D01*
X181887Y219072D01*
X183527Y219072D01*
X183527Y207402D01*
G37*
G36*
X183527Y221777D02*
X168714Y221777D01*
X168714Y233015D01*
X170354Y233015D01*
X170354Y223785D01*
X175106Y223785D01*
X175106Y232385D01*
X176725Y232385D01*
X176725Y223785D01*
X181887Y223785D01*
X181887Y233447D01*
X183527Y233447D01*
X183527Y221777D01*
G37*
G36*
X179974Y250894D02*
X179585Y252839D01*
X179907Y252935D01*
X180208Y253055D01*
X180486Y253198D01*
X180742Y253365D01*
X180976Y253556D01*
X181188Y253770D01*
X181378Y254008D01*
X181545Y254269D01*
X181692Y254555D01*
X181819Y254865D01*
X181926Y255200D01*
X182014Y255560D01*
X182083Y255944D01*
X182132Y256353D01*
X182161Y256786D01*
X182171Y257245D01*
X182160Y257717D01*
X182129Y258161D01*
X182077Y258578D01*
X182004Y258967D01*
X181910Y259329D01*
X181795Y259662D01*
X181660Y259968D01*
X181503Y260246D01*
X181327Y260494D01*
X181130Y260708D01*
X180915Y260890D01*
X180679Y261039D01*
X180424Y261154D01*
X180150Y261237D01*
X179856Y261286D01*
X179542Y261303D01*
X179197Y261282D01*
X178885Y261220D01*
X178608Y261116D01*
X178365Y260971D01*
X178149Y260789D01*
X177952Y260573D01*
X177776Y260324D01*
X177619Y260041D01*
X177477Y259727D01*
X177348Y259384D01*
X177230Y259012D01*
X177124Y258611D01*
X176693Y256771D01*
X176499Y255946D01*
X176304Y255227D01*
X176110Y254614D01*
X175915Y254106D01*
X175715Y253676D01*
X175504Y253293D01*
X175282Y252958D01*
X175048Y252671D01*
X174799Y252424D01*
X174529Y252207D01*
X174239Y252022D01*
X173928Y251867D01*
X173596Y251745D01*
X173240Y251658D01*
X172860Y251606D01*
X172457Y251588D01*
X171994Y251611D01*
X171560Y251679D01*
X171152Y251793D01*
X170772Y251952D01*
X170419Y252157D01*
X170093Y252407D01*
X169795Y252703D01*
X169523Y253044D01*
X169282Y253428D01*
X169073Y253851D01*
X168895Y254313D01*
X168751Y254815D01*
X168638Y255355D01*
X168557Y255935D01*
X168509Y256555D01*
X168493Y257213D01*
X168505Y257825D01*
X168541Y258400D01*
X168602Y258938D01*
X168686Y259439D01*
X168795Y259903D01*
X168928Y260330D01*
X169085Y260719D01*
X169266Y261071D01*
X169476Y261393D01*
X169720Y261689D01*
X169998Y261960D01*
X170310Y262207D01*
X170657Y262428D01*
X171037Y262625D01*
X171451Y262796D01*
X171899Y262943D01*
X172246Y260966D01*
X171962Y260876D01*
X171698Y260766D01*
X171454Y260639D01*
X171230Y260493D01*
X171027Y260329D01*
X170844Y260146D01*
X170681Y259945D01*
X170538Y259726D01*
X170413Y259486D01*
X170306Y259224D01*
X170214Y258941D01*
X170140Y258635D01*
X170082Y258307D01*
X170040Y257957D01*
X170015Y257586D01*
X170007Y257192D01*
X170016Y256761D01*
X170044Y256356D01*
X170090Y255978D01*
X170154Y255625D01*
X170237Y255300D01*
X170338Y255000D01*
X170458Y254727D01*
X170596Y254480D01*
X170752Y254260D01*
X170926Y254070D01*
X171119Y253909D01*
X171329Y253778D01*
X171557Y253675D01*
X171804Y253602D01*
X172069Y253558D01*
X172351Y253544D01*
X172678Y253567D01*
X172976Y253635D01*
X173243Y253748D01*
X173482Y253907D01*
X173696Y254108D01*
X173894Y254349D01*
X174075Y254631D01*
X174239Y254953D01*
X174402Y255379D01*
X174584Y255975D01*
X174784Y256741D01*
X175001Y257676D01*
X175321Y259037D01*
X175500Y259701D01*
X175710Y260335D01*
X175956Y260936D01*
X176241Y261497D01*
X176402Y261759D01*
X176580Y262003D01*
X176776Y262229D01*
X176988Y262438D01*
X177218Y262627D01*
X177469Y262794D01*
X177739Y262940D01*
X178029Y263064D01*
X178341Y263163D01*
X178680Y263233D01*
X179046Y263276D01*
X179437Y263290D01*
X179690Y263283D01*
X179935Y263265D01*
X180174Y263233D01*
X180405Y263189D01*
X180845Y263064D01*
X181256Y262889D01*
X181639Y262663D01*
X181992Y262388D01*
X182317Y262062D01*
X182612Y261686D01*
X182876Y261265D01*
X183105Y260803D01*
X183298Y260300D01*
X183456Y259756D01*
X183579Y259171D01*
X183667Y258545D01*
X183720Y257879D01*
X183737Y257171D01*
X183723Y256512D01*
X183678Y255888D01*
X183605Y255301D01*
X183502Y254748D01*
X183370Y254232D01*
X183208Y253750D01*
X183017Y253305D01*
X182796Y252895D01*
X182546Y252520D01*
X182267Y252181D01*
X181958Y251878D01*
X181620Y251610D01*
X181253Y251378D01*
X180856Y251181D01*
X180429Y251020D01*
X179974Y250894D01*
G37*
G36*
X168714Y264765D02*
X168714Y266973D01*
X175768Y271483D01*
X168714Y275972D01*
X168714Y278180D01*
X177387Y272461D01*
X183527Y272461D01*
X183527Y270463D01*
X177387Y270463D01*
X168714Y264765D01*
G37*
G36*
X170354Y192994D02*
X168714Y192994D01*
X168714Y205169D01*
X170354Y205169D01*
X170354Y200080D01*
X183527Y200080D01*
X183527Y198083D01*
X170354Y198083D01*
X170354Y192994D01*
G37*
G36*
X202577Y234552D02*
X200275Y234552D01*
X200275Y236602D01*
X202577Y236602D01*
X202577Y234552D01*
G37*
G36*
X131158Y122709D02*
X130698Y122726D01*
X130264Y122774D01*
X129855Y122855D01*
X129472Y122968D01*
X129115Y123114D01*
X128784Y123292D01*
X128478Y123503D01*
X128199Y123745D01*
X127949Y124017D01*
X127732Y124314D01*
X127549Y124637D01*
X127399Y124984D01*
X127282Y125357D01*
X127199Y125756D01*
X127149Y126180D01*
X127132Y126629D01*
X127140Y126925D01*
X127162Y127211D01*
X127199Y127487D01*
X127252Y127754D01*
X127319Y128010D01*
X127401Y128256D01*
X127499Y128492D01*
X127611Y128718D01*
X127737Y128933D01*
X127877Y129134D01*
X128031Y129323D01*
X128198Y129499D01*
X128379Y129661D01*
X128573Y129811D01*
X128781Y129947D01*
X129002Y130070D01*
X129236Y130180D01*
X129480Y130275D01*
X129734Y130355D01*
X129998Y130421D01*
X130273Y130472D01*
X130558Y130509D01*
X130853Y130531D01*
X131158Y130538D01*
X131463Y130531D01*
X131758Y130509D01*
X132043Y130472D01*
X132319Y130420D01*
X132585Y130353D01*
X132842Y130272D01*
X133088Y130176D01*
X133326Y130065D01*
X133551Y129940D01*
X133763Y129803D01*
X133962Y129652D01*
X134147Y129489D01*
X134319Y129313D01*
X134477Y129124D01*
X134622Y128922D01*
X134754Y128707D01*
X134870Y128481D01*
X134972Y128245D01*
X135057Y127998D01*
X135127Y127742D01*
X135182Y127476D01*
X135221Y127200D01*
X135244Y126914D01*
X135252Y126618D01*
X135244Y126320D01*
X135221Y126031D01*
X135183Y125754D01*
X135129Y125486D01*
X135060Y125229D01*
X134975Y124983D01*
X134875Y124747D01*
X134759Y124521D01*
X134629Y124307D01*
X134485Y124106D01*
X134328Y123918D01*
X134157Y123743D01*
X133972Y123581D01*
X133773Y123433D01*
X133560Y123297D01*
X133334Y123174D01*
X133096Y123065D01*
X132848Y122971D01*
X132591Y122891D01*
X132324Y122826D01*
X132047Y122775D01*
X131761Y122738D01*
X131464Y122717D01*
X131158Y122709D01*
G37*
%LPC*%
G36*
X131158Y123796D02*
X131520Y123807D01*
X131862Y123842D01*
X132185Y123901D01*
X132489Y123983D01*
X132774Y124088D01*
X133040Y124216D01*
X133286Y124368D01*
X133513Y124543D01*
X133717Y124739D01*
X133894Y124953D01*
X134044Y125186D01*
X134166Y125436D01*
X134262Y125704D01*
X134330Y125991D01*
X134370Y126295D01*
X134384Y126618D01*
X134371Y126950D01*
X134331Y127262D01*
X134266Y127554D01*
X134173Y127826D01*
X134055Y128078D01*
X133910Y128310D01*
X133739Y128523D01*
X133541Y128715D01*
X133320Y128887D01*
X133076Y129035D01*
X132811Y129161D01*
X132524Y129263D01*
X132215Y129343D01*
X131885Y129400D01*
X131533Y129435D01*
X131158Y129446D01*
X130800Y129435D01*
X130462Y129400D01*
X130143Y129343D01*
X129844Y129262D01*
X129565Y129158D01*
X129305Y129032D01*
X129066Y128882D01*
X128846Y128710D01*
X128649Y128516D01*
X128478Y128304D01*
X128334Y128072D01*
X128216Y127821D01*
X128124Y127552D01*
X128058Y127263D01*
X128019Y126956D01*
X128006Y126629D01*
X128019Y126300D01*
X128057Y125990D01*
X128122Y125700D01*
X128213Y125428D01*
X128329Y125176D01*
X128472Y124943D01*
X128640Y124729D01*
X128834Y124535D01*
X129052Y124362D01*
X129291Y124212D01*
X129550Y124084D01*
X129830Y123981D01*
X130131Y123900D01*
X130453Y123842D01*
X130795Y123807D01*
X131158Y123796D01*
G37*
%LPD*%
G36*
X135140Y95076D02*
X127250Y95076D01*
X127250Y98788D01*
X127259Y99112D01*
X127287Y99417D01*
X127334Y99703D01*
X127399Y99969D01*
X127483Y100217D01*
X127585Y100446D01*
X127706Y100656D01*
X127846Y100846D01*
X128002Y101016D01*
X128173Y101164D01*
X128359Y101288D01*
X128559Y101390D01*
X128774Y101470D01*
X129004Y101526D01*
X129248Y101560D01*
X129506Y101572D01*
X129722Y101564D01*
X129929Y101540D01*
X130126Y101500D01*
X130316Y101444D01*
X130496Y101371D01*
X130668Y101283D01*
X130831Y101179D01*
X130985Y101059D01*
X131128Y100925D01*
X131257Y100779D01*
X131372Y100620D01*
X131414Y100549D01*
X131473Y100450D01*
X131561Y100267D01*
X131635Y100072D01*
X131695Y99865D01*
X131741Y99645D01*
X133188Y100599D01*
X135140Y101885D01*
X135140Y100653D01*
X131864Y98604D01*
X131864Y96145D01*
X135140Y96145D01*
X135140Y95076D01*
G37*
%LPC*%
G36*
X131018Y96145D02*
X131018Y98727D01*
X131012Y98932D01*
X130994Y99126D01*
X130963Y99307D01*
X130920Y99477D01*
X130864Y99634D01*
X130796Y99779D01*
X130716Y99913D01*
X130624Y100034D01*
X130520Y100143D01*
X130406Y100237D01*
X130283Y100316D01*
X130150Y100381D01*
X130007Y100431D01*
X129853Y100468D01*
X129691Y100489D01*
X129518Y100496D01*
X129351Y100489D01*
X129194Y100467D01*
X129047Y100431D01*
X128911Y100380D01*
X128785Y100314D01*
X128669Y100233D01*
X128563Y100138D01*
X128468Y100029D01*
X128383Y99906D01*
X128310Y99769D01*
X128197Y99458D01*
X128129Y99096D01*
X128106Y98682D01*
X128106Y96145D01*
X131018Y96145D01*
G37*
%LPD*%
G36*
X135140Y81701D02*
X127250Y81701D01*
X127250Y85021D01*
X127259Y85344D01*
X127289Y85648D01*
X127337Y85933D01*
X127405Y86199D01*
X127492Y86446D01*
X127599Y86675D01*
X127726Y86885D01*
X127871Y87077D01*
X128035Y87247D01*
X128214Y87395D01*
X128409Y87520D01*
X128620Y87623D01*
X128847Y87702D01*
X129090Y87759D01*
X129349Y87793D01*
X129624Y87805D01*
X129897Y87793D01*
X130155Y87759D01*
X130399Y87702D01*
X130629Y87622D01*
X130845Y87519D01*
X131046Y87394D01*
X131232Y87245D01*
X131405Y87074D01*
X131560Y86883D01*
X131694Y86676D01*
X131808Y86452D01*
X131900Y86212D01*
X131973Y85956D01*
X132024Y85683D01*
X132055Y85394D01*
X132066Y85089D01*
X132066Y82770D01*
X135140Y82770D01*
X135140Y81701D01*
G37*
%LPC*%
G36*
X131220Y82770D02*
X131220Y84937D01*
X131214Y85154D01*
X131195Y85357D01*
X131164Y85546D01*
X131121Y85721D01*
X131065Y85882D01*
X130997Y86029D01*
X130917Y86162D01*
X130824Y86281D01*
X130719Y86386D01*
X130601Y86477D01*
X130471Y86554D01*
X130329Y86617D01*
X130174Y86666D01*
X130007Y86701D01*
X129827Y86722D01*
X129635Y86729D01*
X129450Y86722D01*
X129277Y86701D01*
X129116Y86665D01*
X128966Y86615D01*
X128829Y86550D01*
X128704Y86471D01*
X128590Y86378D01*
X128489Y86270D01*
X128399Y86148D01*
X128321Y86012D01*
X128256Y85861D01*
X128202Y85696D01*
X128160Y85517D01*
X128130Y85323D01*
X128112Y85115D01*
X128106Y84893D01*
X128106Y82770D01*
X131220Y82770D01*
G37*
%LPD*%
G36*
X135140Y132013D02*
X127250Y132013D01*
X127250Y133419D01*
X132721Y135519D01*
X133429Y135734D01*
X133975Y135872D01*
X133693Y135941D01*
X133295Y136059D01*
X132721Y136252D01*
X127250Y138313D01*
X127250Y139685D01*
X135140Y139685D01*
X135140Y138722D01*
X129876Y138722D01*
X129019Y138735D01*
X128196Y138772D01*
X129089Y138512D01*
X129764Y138280D01*
X135140Y136241D01*
X135140Y135491D01*
X129764Y133424D01*
X128812Y133111D01*
X128196Y132926D01*
X128818Y132943D01*
X129876Y132965D01*
X135140Y132965D01*
X135140Y132013D01*
G37*
G36*
X131158Y102999D02*
X130699Y103014D01*
X130266Y103062D01*
X129858Y103142D01*
X129476Y103253D01*
X129119Y103397D01*
X128788Y103572D01*
X128482Y103779D01*
X128202Y104018D01*
X127951Y104285D01*
X127734Y104576D01*
X127550Y104892D01*
X127399Y105233D01*
X127282Y105598D01*
X127199Y105988D01*
X127149Y106402D01*
X127132Y106840D01*
X127140Y107149D01*
X127163Y107444D01*
X127201Y107727D01*
X127255Y107997D01*
X127325Y108253D01*
X127409Y108497D01*
X127509Y108728D01*
X127625Y108946D01*
X127756Y109150D01*
X127901Y109340D01*
X128061Y109517D01*
X128237Y109679D01*
X128427Y109828D01*
X128632Y109962D01*
X128852Y110082D01*
X129086Y110189D01*
X129422Y109175D01*
X129098Y109017D01*
X128815Y108818D01*
X128572Y108576D01*
X128370Y108293D01*
X128210Y107975D01*
X128097Y107629D01*
X128028Y107254D01*
X128006Y106851D01*
X128019Y106533D01*
X128058Y106233D01*
X128124Y105950D01*
X128216Y105687D01*
X128335Y105441D01*
X128480Y105213D01*
X128651Y105004D01*
X128848Y104813D01*
X129069Y104642D01*
X129309Y104494D01*
X129568Y104369D01*
X129847Y104267D01*
X130146Y104187D01*
X130464Y104130D01*
X130801Y104096D01*
X131158Y104085D01*
X131512Y104097D01*
X131848Y104132D01*
X132166Y104192D01*
X132467Y104275D01*
X132749Y104381D01*
X133014Y104512D01*
X133261Y104666D01*
X133491Y104844D01*
X133698Y105042D01*
X133877Y105257D01*
X134028Y105488D01*
X134152Y105736D01*
X134249Y106001D01*
X134318Y106283D01*
X134359Y106581D01*
X134373Y106896D01*
X134366Y107100D01*
X134347Y107298D01*
X134315Y107489D01*
X134270Y107673D01*
X134142Y108024D01*
X133963Y108348D01*
X133732Y108647D01*
X133450Y108919D01*
X133117Y109167D01*
X132732Y109388D01*
X133169Y110262D01*
X133416Y110134D01*
X133648Y109993D01*
X133865Y109841D01*
X134066Y109676D01*
X134253Y109498D01*
X134424Y109309D01*
X134579Y109107D01*
X134720Y108892D01*
X134845Y108668D01*
X134953Y108434D01*
X135044Y108191D01*
X135119Y107940D01*
X135177Y107680D01*
X135219Y107410D01*
X135244Y107132D01*
X135252Y106846D01*
X135244Y106553D01*
X135221Y106269D01*
X135182Y105996D01*
X135128Y105733D01*
X135058Y105480D01*
X134973Y105238D01*
X134873Y105005D01*
X134756Y104782D01*
X134626Y104571D01*
X134482Y104373D01*
X134325Y104187D01*
X134154Y104015D01*
X133971Y103855D01*
X133774Y103709D01*
X133563Y103575D01*
X133340Y103455D01*
X133104Y103348D01*
X132858Y103255D01*
X132601Y103177D01*
X132334Y103113D01*
X132056Y103063D01*
X131767Y103027D01*
X131468Y103006D01*
X131158Y102999D01*
G37*
G36*
X131158Y114467D02*
X130699Y114483D01*
X130266Y114531D01*
X129858Y114611D01*
X129476Y114722D01*
X129119Y114865D01*
X128788Y115041D01*
X128482Y115248D01*
X128202Y115486D01*
X127951Y115754D01*
X127734Y116045D01*
X127550Y116361D01*
X127399Y116702D01*
X127282Y117067D01*
X127199Y117456D01*
X127149Y117870D01*
X127132Y118309D01*
X127140Y118617D01*
X127163Y118913D01*
X127201Y119196D01*
X127255Y119465D01*
X127325Y119722D01*
X127409Y119966D01*
X127509Y120197D01*
X127625Y120414D01*
X127756Y120619D01*
X127901Y120809D01*
X128061Y120986D01*
X128237Y121148D01*
X128427Y121296D01*
X128632Y121431D01*
X128852Y121551D01*
X129086Y121658D01*
X129422Y120644D01*
X129098Y120486D01*
X128815Y120286D01*
X128572Y120045D01*
X128370Y119762D01*
X128210Y119444D01*
X128097Y119098D01*
X128028Y118723D01*
X128006Y118320D01*
X128019Y118002D01*
X128058Y117701D01*
X128124Y117419D01*
X128216Y117155D01*
X128335Y116910D01*
X128480Y116682D01*
X128651Y116473D01*
X128848Y116282D01*
X129069Y116111D01*
X129309Y115963D01*
X129568Y115838D01*
X129847Y115736D01*
X130146Y115656D01*
X130464Y115599D01*
X130801Y115565D01*
X131158Y115554D01*
X131512Y115566D01*
X131848Y115601D01*
X132166Y115660D01*
X132467Y115743D01*
X132749Y115850D01*
X133014Y115980D01*
X133261Y116135D01*
X133491Y116312D01*
X133698Y116511D01*
X133877Y116725D01*
X134028Y116957D01*
X134152Y117205D01*
X134249Y117470D01*
X134318Y117751D01*
X134359Y118050D01*
X134373Y118365D01*
X134366Y118569D01*
X134347Y118766D01*
X134315Y118958D01*
X134270Y119142D01*
X134142Y119492D01*
X133963Y119817D01*
X133732Y120115D01*
X133450Y120388D01*
X133117Y120635D01*
X132732Y120857D01*
X133169Y121730D01*
X133416Y121602D01*
X133648Y121462D01*
X133865Y121310D01*
X134066Y121145D01*
X134253Y120967D01*
X134424Y120778D01*
X134579Y120576D01*
X134720Y120361D01*
X134845Y120136D01*
X134953Y119903D01*
X135044Y119660D01*
X135119Y119409D01*
X135177Y119148D01*
X135219Y118879D01*
X135244Y118601D01*
X135252Y118314D01*
X135244Y118021D01*
X135221Y117738D01*
X135182Y117465D01*
X135128Y117202D01*
X135058Y116949D01*
X134973Y116706D01*
X134873Y116474D01*
X134756Y116251D01*
X134626Y116040D01*
X134482Y115841D01*
X134325Y115656D01*
X134154Y115484D01*
X133971Y115324D01*
X133774Y115178D01*
X133563Y115044D01*
X133340Y114924D01*
X133104Y114817D01*
X132858Y114724D01*
X132601Y114646D01*
X132334Y114581D01*
X132056Y114531D01*
X131767Y114496D01*
X131468Y114474D01*
X131158Y114467D01*
G37*
G36*
X133180Y88564D02*
X133006Y89611D01*
X133313Y89677D01*
X133585Y89775D01*
X133820Y89904D01*
X134020Y90065D01*
X134179Y90252D01*
X134293Y90462D01*
X134361Y90695D01*
X134384Y90950D01*
X134378Y91091D01*
X134359Y91225D01*
X134284Y91470D01*
X134159Y91685D01*
X133984Y91868D01*
X133760Y92015D01*
X133490Y92120D01*
X133174Y92183D01*
X132810Y92204D01*
X128123Y92204D01*
X128123Y90686D01*
X127250Y90686D01*
X127250Y93268D01*
X132788Y93268D01*
X133067Y93258D01*
X133331Y93229D01*
X133580Y93181D01*
X133814Y93113D01*
X134032Y93025D01*
X134234Y92918D01*
X134422Y92792D01*
X134594Y92646D01*
X134748Y92484D01*
X134882Y92307D01*
X134995Y92116D01*
X135088Y91910D01*
X135159Y91690D01*
X135211Y91456D01*
X135242Y91207D01*
X135252Y90944D01*
X135244Y90700D01*
X135220Y90468D01*
X135179Y90250D01*
X135123Y90044D01*
X135050Y89850D01*
X134961Y89670D01*
X134855Y89502D01*
X134734Y89347D01*
X134596Y89204D01*
X134443Y89075D01*
X134273Y88958D01*
X134087Y88854D01*
X133884Y88762D01*
X133666Y88683D01*
X133431Y88617D01*
X133180Y88564D01*
G37*
G36*
X135140Y111745D02*
X133914Y111745D01*
X133914Y112837D01*
X135140Y112837D01*
X135140Y111745D01*
G37*
G36*
X208100Y578751D02*
X203230Y582123D01*
X198623Y578909D01*
X198623Y580652D01*
X202311Y583017D01*
X198623Y585364D01*
X198623Y587125D01*
X203213Y583910D01*
X208100Y587326D01*
X208100Y585566D01*
X204211Y583017D01*
X208100Y580451D01*
X208100Y578751D01*
G37*
G36*
X160523Y546844D02*
X160523Y548525D01*
X165761Y550522D01*
X166054Y550627D01*
X167197Y551022D01*
X168283Y551381D01*
X166558Y551994D01*
X160523Y554070D01*
X160523Y555734D01*
X170000Y552090D01*
X170709Y551802D01*
X171321Y551523D01*
X171837Y551254D01*
X172255Y550995D01*
X172602Y550735D01*
X172901Y550460D01*
X173154Y550172D01*
X173359Y549870D01*
X173518Y549551D01*
X173632Y549212D01*
X173700Y548853D01*
X173722Y548473D01*
X173716Y548162D01*
X173698Y547877D01*
X173668Y547619D01*
X173626Y547387D01*
X172444Y547387D01*
X172483Y547737D01*
X172496Y548123D01*
X172488Y548304D01*
X172462Y548481D01*
X172420Y548653D01*
X172361Y548820D01*
X172285Y548982D01*
X172192Y549140D01*
X171955Y549441D01*
X171651Y549722D01*
X171279Y549985D01*
X170840Y550228D01*
X170333Y550452D01*
X169956Y550601D01*
X160523Y546844D01*
G37*
G36*
X110122Y584900D02*
X108449Y584900D01*
X108449Y597241D01*
X113643Y597241D01*
X114147Y597226D01*
X114622Y597180D01*
X115068Y597104D01*
X115484Y596998D01*
X115872Y596861D01*
X116229Y596694D01*
X116558Y596496D01*
X116857Y596269D01*
X117124Y596013D01*
X117355Y595733D01*
X117551Y595427D01*
X117711Y595097D01*
X117836Y594742D01*
X117925Y594362D01*
X117978Y593957D01*
X117996Y593527D01*
X117978Y593100D01*
X117924Y592696D01*
X117835Y592314D01*
X117710Y591955D01*
X117549Y591618D01*
X117353Y591304D01*
X117121Y591012D01*
X116853Y590742D01*
X116554Y590500D01*
X116230Y590290D01*
X115881Y590112D01*
X115505Y589967D01*
X115104Y589854D01*
X114678Y589773D01*
X114226Y589725D01*
X113748Y589708D01*
X110122Y589708D01*
X110122Y584900D01*
G37*
%LPC*%
G36*
X113512Y591031D02*
X113851Y591041D01*
X114168Y591070D01*
X114464Y591118D01*
X114738Y591186D01*
X114990Y591273D01*
X115219Y591380D01*
X115427Y591505D01*
X115614Y591651D01*
X115778Y591815D01*
X115920Y591999D01*
X116041Y592203D01*
X116139Y592425D01*
X116216Y592667D01*
X116270Y592929D01*
X116303Y593209D01*
X116314Y593510D01*
X116303Y593799D01*
X116269Y594070D01*
X116213Y594322D01*
X116135Y594556D01*
X116034Y594771D01*
X115910Y594967D01*
X115764Y595144D01*
X115596Y595303D01*
X115405Y595443D01*
X115192Y595564D01*
X114956Y595667D01*
X114698Y595751D01*
X114418Y595817D01*
X114115Y595863D01*
X113789Y595891D01*
X113441Y595901D01*
X110122Y595901D01*
X110122Y591031D01*
X113512Y591031D01*
G37*
%LPD*%
G36*
X95001Y584900D02*
X93512Y584900D01*
X93512Y597241D01*
X95710Y597241D01*
X98994Y588684D01*
X99166Y588148D01*
X99332Y587576D01*
X99546Y586722D01*
X99655Y587163D01*
X99840Y587786D01*
X100027Y588367D01*
X100142Y588684D01*
X103365Y597241D01*
X105511Y597241D01*
X105511Y584900D01*
X104004Y584900D01*
X104004Y593133D01*
X104024Y594473D01*
X104083Y595761D01*
X103676Y594364D01*
X103489Y593793D01*
X103312Y593308D01*
X100124Y584900D01*
X98951Y584900D01*
X95719Y593308D01*
X95228Y594797D01*
X94939Y595761D01*
X94966Y594788D01*
X95001Y593133D01*
X95001Y584900D01*
G37*
G36*
X80223Y584725D02*
X79748Y584737D01*
X79289Y584773D01*
X78847Y584833D01*
X78421Y584918D01*
X78013Y585026D01*
X77620Y585158D01*
X77245Y585315D01*
X76886Y585496D01*
X76546Y585699D01*
X76227Y585923D01*
X75928Y586169D01*
X75650Y586436D01*
X75393Y586724D01*
X75156Y587034D01*
X74940Y587364D01*
X74745Y587716D01*
X74571Y588086D01*
X74421Y588473D01*
X74294Y588875D01*
X74190Y589294D01*
X74109Y589728D01*
X74051Y590178D01*
X74016Y590645D01*
X74005Y591127D01*
X74011Y591498D01*
X74030Y591857D01*
X74061Y592206D01*
X74106Y592545D01*
X74162Y592872D01*
X74231Y593190D01*
X74313Y593496D01*
X74408Y593792D01*
X74515Y594077D01*
X74634Y594352D01*
X74767Y594616D01*
X74911Y594870D01*
X75069Y595113D01*
X75239Y595345D01*
X75616Y595778D01*
X76040Y596164D01*
X76267Y596338D01*
X76504Y596499D01*
X76751Y596646D01*
X77009Y596782D01*
X77276Y596904D01*
X77554Y597013D01*
X77842Y597110D01*
X78141Y597193D01*
X78449Y597264D01*
X78768Y597322D01*
X79097Y597367D01*
X79436Y597399D01*
X79785Y597418D01*
X80145Y597425D01*
X80645Y597414D01*
X81121Y597381D01*
X81573Y597327D01*
X82001Y597252D01*
X82405Y597154D01*
X82785Y597036D01*
X83141Y596895D01*
X83473Y596733D01*
X83783Y596547D01*
X84075Y596335D01*
X84349Y596097D01*
X84605Y595833D01*
X84842Y595543D01*
X85061Y595227D01*
X85261Y594885D01*
X85443Y594517D01*
X83849Y594044D01*
X83712Y594298D01*
X83562Y594534D01*
X83399Y594752D01*
X83224Y594953D01*
X83037Y595135D01*
X82837Y595300D01*
X82625Y595447D01*
X82400Y595577D01*
X82162Y595690D01*
X81910Y595787D01*
X81643Y595870D01*
X81363Y595938D01*
X81069Y595991D01*
X80760Y596028D01*
X80437Y596051D01*
X80101Y596058D01*
X79582Y596038D01*
X79095Y595978D01*
X78640Y595877D01*
X78215Y595735D01*
X77823Y595554D01*
X77462Y595332D01*
X77132Y595069D01*
X76834Y594767D01*
X76569Y594427D01*
X76339Y594055D01*
X76145Y593649D01*
X75986Y593211D01*
X75863Y592739D01*
X75775Y592235D01*
X75722Y591698D01*
X75704Y591127D01*
X75723Y590558D01*
X75779Y590020D01*
X75873Y589512D01*
X76004Y589035D01*
X76173Y588589D01*
X76379Y588174D01*
X76623Y587789D01*
X76904Y587436D01*
X77218Y587118D01*
X77561Y586844D01*
X77933Y586611D01*
X78334Y586421D01*
X78763Y586273D01*
X79221Y586167D01*
X79708Y586104D01*
X80223Y586082D01*
X80818Y586105D01*
X81392Y586174D01*
X81945Y586289D01*
X82479Y586450D01*
X82977Y586651D01*
X83426Y586884D01*
X83824Y587150D01*
X84173Y587449D01*
X84173Y589673D01*
X80486Y589673D01*
X80486Y591075D01*
X85715Y591075D01*
X85715Y586818D01*
X85463Y586576D01*
X85197Y586347D01*
X84917Y586133D01*
X84623Y585932D01*
X84316Y585746D01*
X83995Y585574D01*
X83660Y585416D01*
X83311Y585272D01*
X82951Y585144D01*
X82584Y585033D01*
X82209Y584939D01*
X81827Y584862D01*
X81438Y584802D01*
X81040Y584759D01*
X80636Y584733D01*
X80223Y584725D01*
G37*
G36*
X125349Y584725D02*
X124976Y584733D01*
X124615Y584759D01*
X124267Y584802D01*
X123930Y584863D01*
X123605Y584940D01*
X123293Y585035D01*
X122992Y585147D01*
X122704Y585277D01*
X122429Y585422D01*
X122171Y585584D01*
X121928Y585761D01*
X121701Y585953D01*
X121490Y586161D01*
X121295Y586385D01*
X121116Y586624D01*
X120952Y586879D01*
X120806Y587148D01*
X120680Y587430D01*
X120573Y587724D01*
X120486Y588031D01*
X120418Y588351D01*
X120369Y588683D01*
X120340Y589027D01*
X120330Y589384D01*
X120330Y597241D01*
X122003Y597241D01*
X122003Y589525D01*
X122017Y589115D01*
X122057Y588730D01*
X122124Y588371D01*
X122218Y588038D01*
X122338Y587730D01*
X122486Y587447D01*
X122660Y587190D01*
X122861Y586958D01*
X123088Y586753D01*
X123338Y586575D01*
X123612Y586425D01*
X123910Y586301D01*
X124232Y586206D01*
X124578Y586137D01*
X124947Y586096D01*
X125340Y586082D01*
X125745Y586097D01*
X126126Y586139D01*
X126484Y586210D01*
X126819Y586309D01*
X127131Y586437D01*
X127420Y586592D01*
X127686Y586776D01*
X127928Y586989D01*
X128145Y587229D01*
X128333Y587494D01*
X128491Y587786D01*
X128621Y588105D01*
X128722Y588449D01*
X128795Y588819D01*
X128838Y589216D01*
X128852Y589638D01*
X128852Y597241D01*
X130516Y597241D01*
X130516Y589542D01*
X130507Y589174D01*
X130477Y588819D01*
X130427Y588477D01*
X130358Y588147D01*
X130268Y587831D01*
X130159Y587527D01*
X130030Y587236D01*
X129881Y586958D01*
X129714Y586695D01*
X129531Y586447D01*
X129331Y586216D01*
X129115Y586000D01*
X128882Y585801D01*
X128633Y585617D01*
X128368Y585450D01*
X128086Y585299D01*
X127789Y585164D01*
X127480Y585048D01*
X127157Y584949D01*
X126821Y584868D01*
X126473Y584806D01*
X126111Y584761D01*
X125737Y584734D01*
X125349Y584725D01*
G37*
G36*
X68440Y584900D02*
X66776Y584900D01*
X66776Y595874D01*
X62537Y595874D01*
X62537Y597241D01*
X72679Y597241D01*
X72679Y595874D01*
X68440Y595874D01*
X68440Y584900D01*
G37*
G36*
X60493Y584900D02*
X58821Y584900D01*
X58821Y597241D01*
X60493Y597241D01*
X60493Y584900D01*
G37*
G36*
X88459Y584725D02*
X87040Y584725D01*
X90640Y597898D01*
X92024Y597898D01*
X88459Y584725D01*
G37*
G36*
X166456Y326727D02*
X166196Y327918D01*
X166398Y327968D01*
X166587Y328029D01*
X166763Y328103D01*
X166927Y328188D01*
X167077Y328286D01*
X167214Y328395D01*
X167339Y328517D01*
X167450Y328650D01*
X167550Y328796D01*
X167638Y328956D01*
X167715Y329129D01*
X167781Y329316D01*
X167880Y329731D01*
X167902Y329931D01*
X167933Y330201D01*
X164460Y330201D01*
X164309Y329629D01*
X164167Y329153D01*
X164102Y328970D01*
X164033Y328773D01*
X163906Y328489D01*
X163779Y328264D01*
X163643Y328062D01*
X163497Y327882D01*
X163342Y327725D01*
X163180Y327590D01*
X163012Y327475D01*
X162839Y327380D01*
X162660Y327305D01*
X162468Y327248D01*
X162259Y327208D01*
X162031Y327184D01*
X161784Y327176D01*
X161520Y327188D01*
X161271Y327225D01*
X161036Y327286D01*
X160817Y327373D01*
X160612Y327483D01*
X160422Y327619D01*
X160246Y327779D01*
X160086Y327964D01*
X159941Y328171D01*
X159814Y328399D01*
X159703Y328648D01*
X159610Y328917D01*
X159534Y329207D01*
X159476Y329518D01*
X159434Y329849D01*
X159410Y330201D01*
X158492Y330201D01*
X158492Y331070D01*
X159410Y331070D01*
X159433Y331388D01*
X159470Y331687D01*
X159523Y331968D01*
X159589Y332231D01*
X159671Y332474D01*
X159766Y332699D01*
X159877Y332906D01*
X160002Y333094D01*
X160143Y333266D01*
X160303Y333425D01*
X160481Y333570D01*
X160678Y333703D01*
X160894Y333823D01*
X161128Y333929D01*
X161380Y334022D01*
X161651Y334102D01*
X161882Y332884D01*
X161571Y332796D01*
X161296Y332672D01*
X161058Y332512D01*
X160856Y332316D01*
X160690Y332078D01*
X160561Y331791D01*
X160468Y331455D01*
X160411Y331070D01*
X163528Y331070D01*
X163672Y331651D01*
X163810Y332142D01*
X163942Y332542D01*
X164067Y332852D01*
X164194Y333103D01*
X164328Y333326D01*
X164470Y333521D01*
X164621Y333689D01*
X164782Y333834D01*
X164957Y333960D01*
X165146Y334069D01*
X165349Y334158D01*
X165568Y334229D01*
X165806Y334279D01*
X166062Y334309D01*
X166337Y334319D01*
X166618Y334306D01*
X166886Y334266D01*
X167139Y334200D01*
X167378Y334108D01*
X167603Y333988D01*
X167814Y333843D01*
X168010Y333671D01*
X168193Y333472D01*
X168358Y333249D01*
X168504Y333004D01*
X168630Y332737D01*
X168737Y332448D01*
X168825Y332136D01*
X168892Y331803D01*
X168941Y331447D01*
X168970Y331070D01*
X170105Y331070D01*
X170105Y330201D01*
X168970Y330201D01*
X168945Y329838D01*
X168903Y329494D01*
X168843Y329170D01*
X168766Y328865D01*
X168670Y328580D01*
X168557Y328314D01*
X168427Y328068D01*
X168278Y327841D01*
X168112Y327634D01*
X167929Y327446D01*
X167727Y327277D01*
X167508Y327128D01*
X167272Y326999D01*
X167017Y326889D01*
X166745Y326798D01*
X166456Y326727D01*
G37*
%LPC*%
G36*
X167940Y331070D02*
X167904Y331387D01*
X167887Y331535D01*
X167792Y331943D01*
X167728Y332125D01*
X167653Y332293D01*
X167567Y332447D01*
X167471Y332586D01*
X167365Y332710D01*
X167249Y332817D01*
X167123Y332908D01*
X166988Y332983D01*
X166843Y333040D01*
X166688Y333082D01*
X166524Y333107D01*
X166351Y333115D01*
X166133Y333103D01*
X165936Y333069D01*
X165758Y333012D01*
X165601Y332933D01*
X165460Y332832D01*
X165332Y332710D01*
X165217Y332569D01*
X165114Y332407D01*
X165014Y332195D01*
X164905Y331901D01*
X164788Y331526D01*
X164663Y331070D01*
X167940Y331070D01*
G37*
G36*
X161770Y328380D02*
X161969Y328391D01*
X162152Y328424D01*
X162319Y328479D01*
X162470Y328555D01*
X162475Y328558D01*
X162608Y328654D01*
X162735Y328773D01*
X162850Y328914D01*
X162954Y329077D01*
X163052Y329277D01*
X163150Y329531D01*
X163248Y329839D01*
X163346Y330201D01*
X160397Y330201D01*
X160440Y329774D01*
X160520Y329405D01*
X160636Y329092D01*
X160790Y328835D01*
X160980Y328636D01*
X161088Y328558D01*
X161206Y328494D01*
X161333Y328444D01*
X161470Y328409D01*
X161615Y328387D01*
X161770Y328380D01*
G37*
%LPD*%
G36*
X165524Y317336D02*
X159242Y317336D01*
X159242Y318674D01*
X165412Y318674D01*
X165740Y318685D01*
X166047Y318717D01*
X166334Y318770D01*
X166601Y318845D01*
X166847Y318942D01*
X167073Y319060D01*
X167279Y319199D01*
X167464Y319360D01*
X167628Y319541D01*
X167771Y319741D01*
X167891Y319961D01*
X167989Y320199D01*
X168066Y320456D01*
X168121Y320732D01*
X168154Y321028D01*
X168165Y321342D01*
X168153Y321666D01*
X168119Y321971D01*
X168063Y322257D01*
X167983Y322525D01*
X167881Y322774D01*
X167757Y323005D01*
X167610Y323218D01*
X167440Y323412D01*
X167248Y323585D01*
X167035Y323735D01*
X166802Y323862D01*
X166548Y323966D01*
X166272Y324047D01*
X165976Y324105D01*
X165659Y324139D01*
X165321Y324151D01*
X159242Y324151D01*
X159242Y325481D01*
X165398Y325481D01*
X165692Y325474D01*
X165976Y325450D01*
X166250Y325410D01*
X166513Y325355D01*
X166766Y325283D01*
X167009Y325196D01*
X167242Y325093D01*
X167464Y324974D01*
X167675Y324840D01*
X167873Y324694D01*
X168058Y324534D01*
X168230Y324361D01*
X168390Y324175D01*
X168536Y323976D01*
X168670Y323763D01*
X168791Y323538D01*
X168899Y323301D01*
X168992Y323053D01*
X169071Y322795D01*
X169135Y322527D01*
X169186Y322248D01*
X169221Y321959D01*
X169243Y321659D01*
X169250Y321349D01*
X169243Y321051D01*
X169222Y320763D01*
X169188Y320484D01*
X169140Y320215D01*
X169078Y319955D01*
X169002Y319705D01*
X168912Y319465D01*
X168809Y319234D01*
X168692Y319015D01*
X168563Y318808D01*
X168422Y318614D01*
X168268Y318432D01*
X168101Y318263D01*
X167922Y318107D01*
X167731Y317964D01*
X167527Y317833D01*
X167312Y317717D01*
X167087Y317616D01*
X166852Y317530D01*
X166606Y317460D01*
X166351Y317406D01*
X166085Y317367D01*
X165810Y317344D01*
X165524Y317336D01*
G37*
G36*
X166575Y335088D02*
X166456Y336391D01*
X166668Y336429D01*
X166866Y336480D01*
X167051Y336543D01*
X167222Y336620D01*
X167379Y336709D01*
X167523Y336812D01*
X167653Y336927D01*
X167769Y337055D01*
X167871Y337195D01*
X167960Y337349D01*
X168036Y337516D01*
X168097Y337695D01*
X168145Y337887D01*
X168179Y338092D01*
X168200Y338310D01*
X168207Y338541D01*
X168199Y338773D01*
X168177Y338992D01*
X168141Y339198D01*
X168089Y339391D01*
X168023Y339572D01*
X167943Y339739D01*
X167847Y339894D01*
X167737Y340036D01*
X167613Y340164D01*
X167474Y340274D01*
X167321Y340367D01*
X167154Y340444D01*
X166973Y340503D01*
X166777Y340545D01*
X166568Y340571D01*
X166344Y340579D01*
X166148Y340570D01*
X165963Y340541D01*
X165789Y340492D01*
X165627Y340424D01*
X165475Y340337D01*
X165334Y340231D01*
X165205Y340105D01*
X165086Y339959D01*
X164980Y339796D01*
X164889Y339615D01*
X164811Y339417D01*
X164748Y339202D01*
X164698Y338970D01*
X164663Y338720D01*
X164642Y338454D01*
X164635Y338170D01*
X164635Y337456D01*
X163542Y337456D01*
X163542Y338142D01*
X163535Y338394D01*
X163514Y338631D01*
X163478Y338854D01*
X163429Y339062D01*
X163366Y339256D01*
X163288Y339435D01*
X163196Y339599D01*
X163090Y339749D01*
X162972Y339883D01*
X162843Y339999D01*
X162703Y340097D01*
X162552Y340177D01*
X162390Y340240D01*
X162218Y340284D01*
X162034Y340311D01*
X161840Y340320D01*
X161647Y340313D01*
X161465Y340291D01*
X161293Y340255D01*
X161132Y340204D01*
X160981Y340138D01*
X160840Y340058D01*
X160710Y339964D01*
X160590Y339854D01*
X160482Y339731D01*
X160389Y339593D01*
X160310Y339442D01*
X160246Y339276D01*
X160196Y339096D01*
X160160Y338902D01*
X160138Y338693D01*
X160131Y338471D01*
X160138Y338268D01*
X160158Y338074D01*
X160191Y337891D01*
X160238Y337717D01*
X160298Y337554D01*
X160371Y337400D01*
X160458Y337257D01*
X160558Y337123D01*
X160671Y337001D01*
X160794Y336892D01*
X160928Y336797D01*
X161073Y336716D01*
X161229Y336648D01*
X161396Y336593D01*
X161574Y336552D01*
X161763Y336524D01*
X161665Y335256D01*
X161370Y335303D01*
X161092Y335372D01*
X160831Y335463D01*
X160586Y335578D01*
X160358Y335715D01*
X160147Y335874D01*
X159952Y336057D01*
X159774Y336261D01*
X159615Y336485D01*
X159477Y336725D01*
X159360Y336980D01*
X159264Y337250D01*
X159190Y337536D01*
X159137Y337837D01*
X159105Y338153D01*
X159095Y338485D01*
X159105Y338846D01*
X159138Y339186D01*
X159192Y339506D01*
X159267Y339804D01*
X159364Y340083D01*
X159483Y340340D01*
X159623Y340577D01*
X159784Y340793D01*
X159965Y340986D01*
X160163Y341153D01*
X160378Y341294D01*
X160610Y341410D01*
X160859Y341500D01*
X161125Y341564D01*
X161407Y341603D01*
X161707Y341616D01*
X161938Y341608D01*
X162158Y341583D01*
X162366Y341541D01*
X162564Y341484D01*
X162751Y341409D01*
X162926Y341318D01*
X163091Y341211D01*
X163244Y341087D01*
X163386Y340947D01*
X163516Y340793D01*
X163635Y340623D01*
X163741Y340438D01*
X163835Y340239D01*
X163917Y340024D01*
X163988Y339794D01*
X164046Y339550D01*
X164074Y339550D01*
X164112Y339819D01*
X164165Y340072D01*
X164235Y340311D01*
X164319Y340534D01*
X164420Y340741D01*
X164537Y340934D01*
X164669Y341111D01*
X164817Y341273D01*
X164978Y341417D01*
X165149Y341542D01*
X165330Y341648D01*
X165521Y341735D01*
X165722Y341802D01*
X165933Y341850D01*
X166154Y341879D01*
X166386Y341889D01*
X166717Y341875D01*
X167030Y341835D01*
X167323Y341767D01*
X167597Y341672D01*
X167852Y341550D01*
X168087Y341400D01*
X168304Y341224D01*
X168501Y341021D01*
X168676Y340792D01*
X168829Y340540D01*
X168957Y340265D01*
X169063Y339966D01*
X169145Y339645D01*
X169203Y339300D01*
X169238Y338932D01*
X169250Y338541D01*
X169240Y338176D01*
X169208Y337830D01*
X169155Y337502D01*
X169081Y337194D01*
X168986Y336904D01*
X168870Y336634D01*
X168733Y336382D01*
X168574Y336149D01*
X168395Y335937D01*
X168196Y335748D01*
X167976Y335582D01*
X167736Y335438D01*
X167476Y335316D01*
X167196Y335218D01*
X166895Y335142D01*
X166575Y335088D01*
G37*
D10*
X58974Y722947D02*
X56407Y723974D01*
X56408Y723973D02*
X56341Y724002D01*
X56276Y724034D01*
X56213Y724070D01*
X56152Y724109D01*
X56094Y724152D01*
X56037Y724197D01*
X55984Y724246D01*
X55933Y724297D01*
X55884Y724351D01*
X55839Y724408D01*
X55797Y724467D01*
X55759Y724528D01*
X55723Y724591D01*
X55691Y724656D01*
X55663Y724723D01*
X55638Y724791D01*
X55618Y724860D01*
X55600Y724931D01*
X55587Y725002D01*
X55578Y725074D01*
X55573Y725146D01*
X55571Y725218D01*
X55574Y725291D01*
X55580Y725363D01*
X55590Y725434D01*
X55604Y725505D01*
X55622Y725576D01*
X55644Y725645D01*
X55670Y725712D01*
X55699Y725779D01*
X55732Y725843D01*
X55768Y725906D01*
X55808Y725967D01*
X55850Y726025D01*
X55896Y726081D01*
X55945Y726134D01*
X55997Y726185D01*
X56052Y726233D01*
X56108Y726278D01*
X56168Y726319D01*
X56229Y726357D01*
X56293Y726392D01*
X56358Y726424D01*
X56425Y726452D01*
X56493Y726476D01*
X56563Y726496D01*
X56633Y726513D01*
X56704Y726525D01*
X56776Y726534D01*
X56849Y726539D01*
X56921Y726540D01*
X56920Y726539D02*
X57069Y726535D01*
X57218Y726528D01*
X57366Y726516D01*
X57514Y726501D01*
X57662Y726481D01*
X57809Y726458D01*
X57956Y726432D01*
X58101Y726401D01*
X58246Y726367D01*
X58390Y726329D01*
X58533Y726288D01*
X58675Y726243D01*
X58816Y726194D01*
X58955Y726141D01*
X59093Y726086D01*
X59230Y726026D01*
X58973Y722948D02*
X59040Y722919D01*
X59105Y722887D01*
X59168Y722851D01*
X59229Y722812D01*
X59287Y722769D01*
X59344Y722724D01*
X59397Y722675D01*
X59448Y722624D01*
X59497Y722570D01*
X59542Y722513D01*
X59584Y722454D01*
X59622Y722393D01*
X59658Y722330D01*
X59690Y722265D01*
X59718Y722198D01*
X59743Y722130D01*
X59763Y722061D01*
X59781Y721990D01*
X59794Y721919D01*
X59803Y721847D01*
X59808Y721775D01*
X59810Y721703D01*
X59807Y721630D01*
X59801Y721558D01*
X59791Y721487D01*
X59777Y721416D01*
X59759Y721345D01*
X59737Y721276D01*
X59711Y721209D01*
X59682Y721142D01*
X59649Y721078D01*
X59613Y721015D01*
X59573Y720954D01*
X59531Y720896D01*
X59485Y720840D01*
X59436Y720787D01*
X59384Y720736D01*
X59329Y720688D01*
X59273Y720643D01*
X59213Y720602D01*
X59152Y720564D01*
X59088Y720529D01*
X59023Y720497D01*
X58956Y720469D01*
X58888Y720445D01*
X58818Y720425D01*
X58748Y720408D01*
X58677Y720396D01*
X58605Y720387D01*
X58532Y720382D01*
X58460Y720381D01*
X58461Y720381D02*
X58255Y720386D01*
X58049Y720397D01*
X57844Y720412D01*
X57639Y720432D01*
X57435Y720456D01*
X57231Y720486D01*
X57028Y720520D01*
X56826Y720560D01*
X56625Y720604D01*
X56425Y720652D01*
X56226Y720706D01*
X56028Y720764D01*
X55832Y720827D01*
X55638Y720894D01*
X80381Y705066D02*
X82947Y707119D01*
X82947Y697881D01*
X80381Y697881D02*
X85513Y697881D01*
X81407Y408974D02*
X83974Y407947D01*
X81408Y408973D02*
X81341Y409002D01*
X81276Y409034D01*
X81213Y409070D01*
X81152Y409109D01*
X81094Y409152D01*
X81037Y409197D01*
X80984Y409246D01*
X80933Y409297D01*
X80884Y409351D01*
X80839Y409408D01*
X80797Y409467D01*
X80759Y409528D01*
X80723Y409591D01*
X80691Y409656D01*
X80663Y409723D01*
X80638Y409791D01*
X80618Y409860D01*
X80600Y409931D01*
X80587Y410002D01*
X80578Y410074D01*
X80573Y410146D01*
X80571Y410218D01*
X80574Y410291D01*
X80580Y410363D01*
X80590Y410434D01*
X80604Y410505D01*
X80622Y410576D01*
X80644Y410645D01*
X80670Y410712D01*
X80699Y410779D01*
X80732Y410843D01*
X80768Y410906D01*
X80808Y410967D01*
X80850Y411025D01*
X80896Y411081D01*
X80945Y411134D01*
X80997Y411185D01*
X81052Y411233D01*
X81108Y411278D01*
X81168Y411319D01*
X81229Y411357D01*
X81293Y411392D01*
X81358Y411424D01*
X81425Y411452D01*
X81493Y411476D01*
X81563Y411496D01*
X81633Y411513D01*
X81704Y411525D01*
X81776Y411534D01*
X81849Y411539D01*
X81921Y411540D01*
X81920Y411539D02*
X82069Y411535D01*
X82218Y411528D01*
X82366Y411516D01*
X82514Y411501D01*
X82662Y411481D01*
X82809Y411458D01*
X82956Y411432D01*
X83101Y411401D01*
X83246Y411367D01*
X83390Y411329D01*
X83533Y411288D01*
X83675Y411243D01*
X83816Y411194D01*
X83955Y411141D01*
X84093Y411086D01*
X84230Y411026D01*
X83973Y407948D02*
X84040Y407919D01*
X84105Y407887D01*
X84168Y407851D01*
X84229Y407812D01*
X84287Y407769D01*
X84344Y407724D01*
X84397Y407675D01*
X84448Y407624D01*
X84497Y407570D01*
X84542Y407513D01*
X84584Y407454D01*
X84622Y407393D01*
X84658Y407330D01*
X84690Y407265D01*
X84718Y407198D01*
X84743Y407130D01*
X84763Y407061D01*
X84781Y406990D01*
X84794Y406919D01*
X84803Y406847D01*
X84808Y406775D01*
X84810Y406703D01*
X84807Y406630D01*
X84801Y406558D01*
X84791Y406487D01*
X84777Y406416D01*
X84759Y406345D01*
X84737Y406276D01*
X84711Y406209D01*
X84682Y406142D01*
X84649Y406078D01*
X84613Y406015D01*
X84573Y405954D01*
X84531Y405896D01*
X84485Y405840D01*
X84436Y405787D01*
X84384Y405736D01*
X84329Y405688D01*
X84273Y405643D01*
X84213Y405602D01*
X84152Y405564D01*
X84088Y405529D01*
X84023Y405497D01*
X83956Y405469D01*
X83888Y405445D01*
X83818Y405425D01*
X83748Y405408D01*
X83677Y405396D01*
X83605Y405387D01*
X83532Y405382D01*
X83460Y405381D01*
X83461Y405381D02*
X83255Y405386D01*
X83049Y405397D01*
X82844Y405412D01*
X82639Y405432D01*
X82435Y405456D01*
X82231Y405486D01*
X82028Y405520D01*
X81826Y405560D01*
X81625Y405604D01*
X81425Y405652D01*
X81226Y405706D01*
X81028Y405764D01*
X80832Y405827D01*
X80638Y405894D01*
X95381Y390066D02*
X97947Y392119D01*
X97947Y382881D01*
X95381Y382881D02*
X100513Y382881D01*
D11*
X279412Y413700D02*
X279412Y58100D01*
X101612Y58100D02*
X101612Y413700D01*
X139712Y284160D02*
X139712Y187640D01*
X139712Y284160D02*
X139714Y284260D01*
X139720Y284359D01*
X139730Y284459D01*
X139743Y284557D01*
X139761Y284656D01*
X139782Y284753D01*
X139807Y284849D01*
X139836Y284945D01*
X139869Y285039D01*
X139905Y285132D01*
X139945Y285223D01*
X139989Y285313D01*
X140036Y285401D01*
X140086Y285487D01*
X140140Y285571D01*
X140197Y285653D01*
X140257Y285732D01*
X140321Y285810D01*
X140387Y285884D01*
X140456Y285956D01*
X140528Y286025D01*
X140602Y286091D01*
X140680Y286155D01*
X140759Y286215D01*
X140841Y286272D01*
X140925Y286326D01*
X141011Y286376D01*
X141099Y286423D01*
X141189Y286467D01*
X141280Y286507D01*
X141373Y286543D01*
X141467Y286576D01*
X141563Y286605D01*
X141659Y286630D01*
X141756Y286651D01*
X141855Y286669D01*
X141953Y286682D01*
X142053Y286692D01*
X142152Y286698D01*
X142252Y286700D01*
X238772Y286700D01*
X238872Y286698D01*
X238971Y286692D01*
X239071Y286682D01*
X239169Y286669D01*
X239268Y286651D01*
X239365Y286630D01*
X239461Y286605D01*
X239557Y286576D01*
X239651Y286543D01*
X239744Y286507D01*
X239835Y286467D01*
X239925Y286423D01*
X240013Y286376D01*
X240099Y286326D01*
X240183Y286272D01*
X240265Y286215D01*
X240344Y286155D01*
X240422Y286091D01*
X240496Y286025D01*
X240568Y285956D01*
X240637Y285884D01*
X240703Y285810D01*
X240767Y285732D01*
X240827Y285653D01*
X240884Y285571D01*
X240938Y285487D01*
X240988Y285401D01*
X241035Y285313D01*
X241079Y285223D01*
X241119Y285132D01*
X241155Y285039D01*
X241188Y284945D01*
X241217Y284849D01*
X241242Y284753D01*
X241263Y284656D01*
X241281Y284557D01*
X241294Y284459D01*
X241304Y284359D01*
X241310Y284260D01*
X241312Y284160D01*
X241312Y187640D01*
X241310Y187540D01*
X241304Y187441D01*
X241294Y187341D01*
X241281Y187243D01*
X241263Y187144D01*
X241242Y187047D01*
X241217Y186951D01*
X241188Y186855D01*
X241155Y186761D01*
X241119Y186668D01*
X241079Y186577D01*
X241035Y186487D01*
X240988Y186399D01*
X240938Y186313D01*
X240884Y186229D01*
X240827Y186147D01*
X240767Y186068D01*
X240703Y185990D01*
X240637Y185916D01*
X240568Y185844D01*
X240496Y185775D01*
X240422Y185709D01*
X240344Y185645D01*
X240265Y185585D01*
X240183Y185528D01*
X240099Y185474D01*
X240013Y185424D01*
X239925Y185377D01*
X239835Y185333D01*
X239744Y185293D01*
X239651Y185257D01*
X239557Y185224D01*
X239461Y185195D01*
X239365Y185170D01*
X239268Y185149D01*
X239169Y185131D01*
X239071Y185118D01*
X238971Y185108D01*
X238872Y185102D01*
X238772Y185100D01*
X142252Y185100D01*
X142152Y185102D01*
X142053Y185108D01*
X141953Y185118D01*
X141855Y185131D01*
X141756Y185149D01*
X141659Y185170D01*
X141563Y185195D01*
X141467Y185224D01*
X141373Y185257D01*
X141280Y185293D01*
X141189Y185333D01*
X141099Y185377D01*
X141011Y185424D01*
X140925Y185474D01*
X140841Y185528D01*
X140759Y185585D01*
X140680Y185645D01*
X140602Y185709D01*
X140528Y185775D01*
X140456Y185844D01*
X140387Y185916D01*
X140321Y185990D01*
X140257Y186068D01*
X140197Y186147D01*
X140140Y186229D01*
X140086Y186313D01*
X140036Y186399D01*
X139989Y186487D01*
X139945Y186577D01*
X139905Y186668D01*
X139869Y186761D01*
X139836Y186855D01*
X139807Y186951D01*
X139782Y187047D01*
X139761Y187144D01*
X139743Y187243D01*
X139730Y187341D01*
X139720Y187441D01*
X139714Y187540D01*
X139712Y187640D01*
X101612Y58100D02*
X279412Y58100D01*
X228612Y375600D02*
X228612Y394650D01*
X228612Y407350D01*
X228612Y413700D01*
X228612Y426400D01*
X152412Y426400D01*
X152412Y413700D01*
X152412Y407350D01*
X152412Y394650D01*
X152412Y375600D01*
X158762Y375600D01*
X168287Y375600D01*
X171462Y375600D01*
X177812Y375600D01*
X184162Y375600D01*
X190512Y375600D01*
X196862Y375600D01*
X203212Y375600D01*
X209562Y375600D01*
X212737Y375600D01*
X222262Y375600D01*
X228612Y375600D01*
X228612Y413700D02*
X279412Y413700D01*
X152412Y413700D02*
X101612Y413700D01*
D12*
X175272Y83500D02*
X208292Y83500D01*
X208392Y83502D01*
X208491Y83508D01*
X208591Y83518D01*
X208689Y83531D01*
X208788Y83549D01*
X208885Y83570D01*
X208981Y83595D01*
X209077Y83624D01*
X209171Y83657D01*
X209264Y83693D01*
X209355Y83733D01*
X209445Y83777D01*
X209533Y83824D01*
X209619Y83874D01*
X209703Y83928D01*
X209785Y83985D01*
X209864Y84045D01*
X209942Y84109D01*
X210016Y84175D01*
X210088Y84244D01*
X210157Y84316D01*
X210223Y84390D01*
X210287Y84468D01*
X210347Y84547D01*
X210404Y84629D01*
X210458Y84713D01*
X210508Y84799D01*
X210555Y84887D01*
X210599Y84977D01*
X210639Y85068D01*
X210675Y85161D01*
X210708Y85255D01*
X210737Y85351D01*
X210762Y85447D01*
X210783Y85544D01*
X210801Y85643D01*
X210814Y85741D01*
X210824Y85841D01*
X210830Y85940D01*
X210832Y86040D01*
X210832Y131760D01*
X210830Y131860D01*
X210824Y131959D01*
X210814Y132059D01*
X210801Y132157D01*
X210783Y132256D01*
X210762Y132353D01*
X210737Y132449D01*
X210708Y132545D01*
X210675Y132639D01*
X210639Y132732D01*
X210599Y132823D01*
X210555Y132913D01*
X210508Y133001D01*
X210458Y133087D01*
X210404Y133171D01*
X210347Y133253D01*
X210287Y133332D01*
X210223Y133410D01*
X210157Y133484D01*
X210088Y133556D01*
X210016Y133625D01*
X209942Y133691D01*
X209864Y133755D01*
X209785Y133815D01*
X209703Y133872D01*
X209619Y133926D01*
X209533Y133976D01*
X209445Y134023D01*
X209355Y134067D01*
X209264Y134107D01*
X209171Y134143D01*
X209077Y134176D01*
X208981Y134205D01*
X208885Y134230D01*
X208788Y134251D01*
X208689Y134269D01*
X208591Y134282D01*
X208491Y134292D01*
X208392Y134298D01*
X208292Y134300D01*
X175272Y134300D01*
X175172Y134298D01*
X175073Y134292D01*
X174973Y134282D01*
X174875Y134269D01*
X174776Y134251D01*
X174679Y134230D01*
X174583Y134205D01*
X174487Y134176D01*
X174393Y134143D01*
X174300Y134107D01*
X174209Y134067D01*
X174119Y134023D01*
X174031Y133976D01*
X173945Y133926D01*
X173861Y133872D01*
X173779Y133815D01*
X173700Y133755D01*
X173622Y133691D01*
X173548Y133625D01*
X173476Y133556D01*
X173407Y133484D01*
X173341Y133410D01*
X173277Y133332D01*
X173217Y133253D01*
X173160Y133171D01*
X173106Y133087D01*
X173056Y133001D01*
X173009Y132913D01*
X172965Y132823D01*
X172925Y132732D01*
X172889Y132639D01*
X172856Y132545D01*
X172827Y132449D01*
X172802Y132353D01*
X172781Y132256D01*
X172763Y132157D01*
X172750Y132059D01*
X172740Y131959D01*
X172734Y131860D01*
X172732Y131760D01*
X172732Y86040D01*
X172734Y85940D01*
X172740Y85841D01*
X172750Y85741D01*
X172763Y85643D01*
X172781Y85544D01*
X172802Y85447D01*
X172827Y85351D01*
X172856Y85255D01*
X172889Y85161D01*
X172925Y85068D01*
X172965Y84977D01*
X173009Y84887D01*
X173056Y84799D01*
X173106Y84713D01*
X173160Y84629D01*
X173217Y84547D01*
X173277Y84468D01*
X173341Y84390D01*
X173407Y84316D01*
X173476Y84244D01*
X173548Y84175D01*
X173622Y84109D01*
X173700Y84045D01*
X173779Y83985D01*
X173861Y83928D01*
X173945Y83874D01*
X174031Y83824D01*
X174119Y83777D01*
X174209Y83733D01*
X174300Y83693D01*
X174393Y83657D01*
X174487Y83624D01*
X174583Y83595D01*
X174679Y83570D01*
X174776Y83549D01*
X174875Y83531D01*
X174973Y83518D01*
X175073Y83508D01*
X175172Y83502D01*
X175272Y83500D01*
D11*
X191782Y89850D02*
X191475Y89854D01*
X191168Y89865D01*
X190862Y89883D01*
X190556Y89909D01*
X190251Y89943D01*
X189947Y89983D01*
X189644Y90031D01*
X189342Y90087D01*
X189042Y90149D01*
X188743Y90219D01*
X188446Y90296D01*
X188150Y90380D01*
X187857Y90472D01*
X187567Y90570D01*
X187279Y90675D01*
X186993Y90788D01*
X186710Y90907D01*
X186430Y91033D01*
X186153Y91165D01*
X185880Y91305D01*
X185610Y91451D01*
X185344Y91603D01*
X185081Y91762D01*
X184822Y91927D01*
X184568Y92098D01*
X184317Y92275D01*
X184071Y92459D01*
X183829Y92648D01*
X183593Y92843D01*
X183360Y93044D01*
X183133Y93250D01*
X182911Y93462D01*
X182694Y93679D01*
X182482Y93901D01*
X182276Y94128D01*
X182075Y94361D01*
X181880Y94597D01*
X181691Y94839D01*
X181507Y95085D01*
X181330Y95336D01*
X181159Y95590D01*
X180994Y95849D01*
X180835Y96112D01*
X180683Y96378D01*
X180537Y96648D01*
X180397Y96921D01*
X180265Y97198D01*
X180139Y97478D01*
X180020Y97761D01*
X179907Y98047D01*
X179802Y98335D01*
X179704Y98625D01*
X179612Y98918D01*
X179528Y99214D01*
X179451Y99511D01*
X179381Y99810D01*
X179319Y100110D01*
X179263Y100412D01*
X179215Y100715D01*
X179175Y101019D01*
X179141Y101324D01*
X179115Y101630D01*
X179097Y101936D01*
X179086Y102243D01*
X179082Y102550D01*
X179082Y115250D01*
X179086Y115557D01*
X179097Y115864D01*
X179115Y116170D01*
X179141Y116476D01*
X179175Y116781D01*
X179215Y117085D01*
X179263Y117388D01*
X179319Y117690D01*
X179381Y117990D01*
X179451Y118289D01*
X179528Y118586D01*
X179612Y118882D01*
X179704Y119175D01*
X179802Y119465D01*
X179907Y119753D01*
X180020Y120039D01*
X180139Y120322D01*
X180265Y120602D01*
X180397Y120879D01*
X180537Y121152D01*
X180683Y121422D01*
X180835Y121688D01*
X180994Y121951D01*
X181159Y122210D01*
X181330Y122464D01*
X181507Y122715D01*
X181691Y122961D01*
X181880Y123203D01*
X182075Y123439D01*
X182276Y123672D01*
X182482Y123899D01*
X182694Y124121D01*
X182911Y124338D01*
X183133Y124550D01*
X183360Y124756D01*
X183593Y124957D01*
X183829Y125152D01*
X184071Y125341D01*
X184317Y125525D01*
X184568Y125702D01*
X184822Y125873D01*
X185081Y126038D01*
X185344Y126197D01*
X185610Y126349D01*
X185880Y126495D01*
X186153Y126635D01*
X186430Y126767D01*
X186710Y126893D01*
X186993Y127012D01*
X187279Y127125D01*
X187567Y127230D01*
X187857Y127328D01*
X188150Y127420D01*
X188446Y127504D01*
X188743Y127581D01*
X189042Y127651D01*
X189342Y127713D01*
X189644Y127769D01*
X189947Y127817D01*
X190251Y127857D01*
X190556Y127891D01*
X190862Y127917D01*
X191168Y127935D01*
X191475Y127946D01*
X191782Y127950D01*
X192089Y127946D01*
X192396Y127935D01*
X192702Y127917D01*
X193008Y127891D01*
X193313Y127857D01*
X193617Y127817D01*
X193920Y127769D01*
X194222Y127713D01*
X194522Y127651D01*
X194821Y127581D01*
X195118Y127504D01*
X195414Y127420D01*
X195707Y127328D01*
X195997Y127230D01*
X196285Y127125D01*
X196571Y127012D01*
X196854Y126893D01*
X197134Y126767D01*
X197411Y126635D01*
X197684Y126495D01*
X197954Y126349D01*
X198220Y126197D01*
X198483Y126038D01*
X198742Y125873D01*
X198996Y125702D01*
X199247Y125525D01*
X199493Y125341D01*
X199735Y125152D01*
X199971Y124957D01*
X200204Y124756D01*
X200431Y124550D01*
X200653Y124338D01*
X200870Y124121D01*
X201082Y123899D01*
X201288Y123672D01*
X201489Y123439D01*
X201684Y123203D01*
X201873Y122961D01*
X202057Y122715D01*
X202234Y122464D01*
X202405Y122210D01*
X202570Y121951D01*
X202729Y121688D01*
X202881Y121422D01*
X203027Y121152D01*
X203167Y120879D01*
X203299Y120602D01*
X203425Y120322D01*
X203544Y120039D01*
X203657Y119753D01*
X203762Y119465D01*
X203860Y119175D01*
X203952Y118882D01*
X204036Y118586D01*
X204113Y118289D01*
X204183Y117990D01*
X204245Y117690D01*
X204301Y117388D01*
X204349Y117085D01*
X204389Y116781D01*
X204423Y116476D01*
X204449Y116170D01*
X204467Y115864D01*
X204478Y115557D01*
X204482Y115250D01*
X204482Y102550D01*
X204478Y102243D01*
X204467Y101936D01*
X204449Y101630D01*
X204423Y101324D01*
X204389Y101019D01*
X204349Y100715D01*
X204301Y100412D01*
X204245Y100110D01*
X204183Y99810D01*
X204113Y99511D01*
X204036Y99214D01*
X203952Y98918D01*
X203860Y98625D01*
X203762Y98335D01*
X203657Y98047D01*
X203544Y97761D01*
X203425Y97478D01*
X203299Y97198D01*
X203167Y96921D01*
X203027Y96648D01*
X202881Y96378D01*
X202729Y96112D01*
X202570Y95849D01*
X202405Y95590D01*
X202234Y95336D01*
X202057Y95085D01*
X201873Y94839D01*
X201684Y94597D01*
X201489Y94361D01*
X201288Y94128D01*
X201082Y93901D01*
X200870Y93679D01*
X200653Y93462D01*
X200431Y93250D01*
X200204Y93044D01*
X199971Y92843D01*
X199735Y92648D01*
X199493Y92459D01*
X199247Y92275D01*
X198996Y92098D01*
X198742Y91927D01*
X198483Y91762D01*
X198220Y91603D01*
X197954Y91451D01*
X197684Y91305D01*
X197411Y91165D01*
X197134Y91033D01*
X196854Y90907D01*
X196571Y90788D01*
X196285Y90675D01*
X195997Y90570D01*
X195707Y90472D01*
X195414Y90380D01*
X195118Y90296D01*
X194821Y90219D01*
X194522Y90149D01*
X194222Y90087D01*
X193920Y90031D01*
X193617Y89983D01*
X193313Y89943D01*
X193008Y89909D01*
X192702Y89883D01*
X192396Y89865D01*
X192089Y89854D01*
X191782Y89850D01*
D12*
X190512Y362900D02*
X190512Y375600D01*
X196862Y375600D02*
X196862Y362900D01*
X203212Y362900D02*
X203212Y375600D01*
X184162Y375600D02*
X184162Y362900D01*
X177812Y362900D02*
X177812Y375600D01*
X209562Y375600D02*
X209562Y362900D01*
X222262Y362900D01*
X222262Y375600D01*
X171462Y375600D02*
X171462Y362900D01*
X158762Y362900D01*
X158762Y375600D01*
X228612Y407350D02*
X241312Y407350D01*
X241312Y394650D01*
X228612Y394650D01*
X152412Y407350D02*
X139712Y407350D01*
X139712Y394650D01*
X152412Y394650D01*
X222262Y404175D02*
X222262Y420050D01*
X222262Y404175D02*
X222260Y404064D01*
X222254Y403954D01*
X222245Y403843D01*
X222231Y403733D01*
X222214Y403624D01*
X222193Y403515D01*
X222168Y403407D01*
X222139Y403300D01*
X222107Y403194D01*
X222071Y403089D01*
X222031Y402986D01*
X221988Y402884D01*
X221941Y402783D01*
X221890Y402684D01*
X221837Y402587D01*
X221780Y402493D01*
X221719Y402400D01*
X221656Y402309D01*
X221589Y402220D01*
X221519Y402134D01*
X221446Y402051D01*
X221371Y401969D01*
X221293Y401891D01*
X221211Y401816D01*
X221128Y401743D01*
X221042Y401673D01*
X220953Y401606D01*
X220862Y401543D01*
X220769Y401482D01*
X220674Y401425D01*
X220578Y401372D01*
X220479Y401321D01*
X220378Y401274D01*
X220276Y401231D01*
X220173Y401191D01*
X220068Y401155D01*
X219962Y401123D01*
X219855Y401094D01*
X219747Y401069D01*
X219638Y401048D01*
X219529Y401031D01*
X219419Y401017D01*
X219308Y401008D01*
X219198Y401002D01*
X219087Y401000D01*
X212737Y401000D01*
X212626Y401002D01*
X212516Y401008D01*
X212405Y401017D01*
X212295Y401031D01*
X212186Y401048D01*
X212077Y401069D01*
X211969Y401094D01*
X211862Y401123D01*
X211756Y401155D01*
X211651Y401191D01*
X211548Y401231D01*
X211446Y401274D01*
X211345Y401321D01*
X211246Y401372D01*
X211150Y401425D01*
X211055Y401482D01*
X210962Y401543D01*
X210871Y401606D01*
X210782Y401673D01*
X210696Y401743D01*
X210613Y401816D01*
X210531Y401891D01*
X210453Y401969D01*
X210378Y402051D01*
X210305Y402134D01*
X210235Y402220D01*
X210168Y402309D01*
X210105Y402400D01*
X210044Y402493D01*
X209987Y402588D01*
X209934Y402684D01*
X209883Y402783D01*
X209836Y402884D01*
X209793Y402986D01*
X209753Y403089D01*
X209717Y403194D01*
X209685Y403300D01*
X209656Y403407D01*
X209631Y403515D01*
X209610Y403624D01*
X209593Y403733D01*
X209579Y403843D01*
X209570Y403954D01*
X209564Y404064D01*
X209562Y404175D01*
X209562Y420050D01*
X158762Y420050D02*
X158762Y404175D01*
X158764Y404064D01*
X158770Y403954D01*
X158779Y403843D01*
X158793Y403733D01*
X158810Y403624D01*
X158831Y403515D01*
X158856Y403407D01*
X158885Y403300D01*
X158917Y403194D01*
X158953Y403089D01*
X158993Y402986D01*
X159036Y402884D01*
X159083Y402783D01*
X159134Y402684D01*
X159187Y402588D01*
X159244Y402493D01*
X159305Y402400D01*
X159368Y402309D01*
X159435Y402220D01*
X159505Y402134D01*
X159578Y402051D01*
X159653Y401969D01*
X159731Y401891D01*
X159813Y401816D01*
X159896Y401743D01*
X159982Y401673D01*
X160071Y401606D01*
X160162Y401543D01*
X160255Y401482D01*
X160350Y401425D01*
X160446Y401372D01*
X160545Y401321D01*
X160646Y401274D01*
X160748Y401231D01*
X160851Y401191D01*
X160956Y401155D01*
X161062Y401123D01*
X161169Y401094D01*
X161277Y401069D01*
X161386Y401048D01*
X161495Y401031D01*
X161605Y401017D01*
X161716Y401008D01*
X161826Y401002D01*
X161937Y401000D01*
X168287Y401000D01*
X168398Y401002D01*
X168508Y401008D01*
X168619Y401017D01*
X168729Y401031D01*
X168838Y401048D01*
X168947Y401069D01*
X169055Y401094D01*
X169162Y401123D01*
X169268Y401155D01*
X169373Y401191D01*
X169476Y401231D01*
X169578Y401274D01*
X169679Y401321D01*
X169778Y401372D01*
X169874Y401425D01*
X169969Y401482D01*
X170062Y401543D01*
X170153Y401606D01*
X170242Y401673D01*
X170328Y401743D01*
X170411Y401816D01*
X170493Y401891D01*
X170571Y401969D01*
X170646Y402051D01*
X170719Y402134D01*
X170789Y402220D01*
X170856Y402309D01*
X170919Y402400D01*
X170980Y402493D01*
X171037Y402587D01*
X171090Y402684D01*
X171141Y402783D01*
X171188Y402884D01*
X171231Y402986D01*
X171271Y403089D01*
X171307Y403194D01*
X171339Y403300D01*
X171368Y403407D01*
X171393Y403515D01*
X171414Y403624D01*
X171431Y403733D01*
X171445Y403843D01*
X171454Y403954D01*
X171460Y404064D01*
X171462Y404175D01*
X171462Y420050D01*
X209562Y420050D02*
X222262Y420050D01*
X171462Y420050D02*
X158762Y420050D01*
X209562Y318450D02*
X209562Y314640D01*
X209564Y314540D01*
X209570Y314441D01*
X209580Y314341D01*
X209593Y314243D01*
X209611Y314144D01*
X209632Y314047D01*
X209657Y313951D01*
X209686Y313855D01*
X209719Y313761D01*
X209755Y313668D01*
X209795Y313577D01*
X209839Y313487D01*
X209886Y313399D01*
X209936Y313313D01*
X209990Y313229D01*
X210047Y313147D01*
X210107Y313068D01*
X210171Y312990D01*
X210237Y312916D01*
X210306Y312844D01*
X210378Y312775D01*
X210452Y312709D01*
X210530Y312645D01*
X210609Y312585D01*
X210691Y312528D01*
X210775Y312474D01*
X210861Y312424D01*
X210949Y312377D01*
X211039Y312333D01*
X211130Y312293D01*
X211223Y312257D01*
X211317Y312224D01*
X211413Y312195D01*
X211509Y312170D01*
X211606Y312149D01*
X211705Y312131D01*
X211803Y312118D01*
X211903Y312108D01*
X212002Y312102D01*
X212102Y312100D01*
X215912Y312100D01*
X222262Y312100D01*
X228612Y312100D01*
X234962Y312100D01*
X238772Y312100D01*
X238872Y312102D01*
X238971Y312108D01*
X239071Y312118D01*
X239169Y312131D01*
X239268Y312149D01*
X239365Y312170D01*
X239461Y312195D01*
X239557Y312224D01*
X239651Y312257D01*
X239744Y312293D01*
X239835Y312333D01*
X239925Y312377D01*
X240013Y312424D01*
X240099Y312474D01*
X240183Y312528D01*
X240265Y312585D01*
X240344Y312645D01*
X240422Y312709D01*
X240496Y312775D01*
X240568Y312844D01*
X240637Y312916D01*
X240703Y312990D01*
X240767Y313068D01*
X240827Y313147D01*
X240884Y313229D01*
X240938Y313313D01*
X240988Y313399D01*
X241035Y313487D01*
X241079Y313577D01*
X241119Y313668D01*
X241155Y313761D01*
X241188Y313855D01*
X241217Y313951D01*
X241242Y314047D01*
X241263Y314144D01*
X241281Y314243D01*
X241294Y314341D01*
X241304Y314441D01*
X241310Y314540D01*
X241312Y314640D01*
X241312Y318450D01*
X241312Y324800D01*
X241312Y331150D01*
X241312Y337500D01*
X241312Y341310D01*
X241310Y341410D01*
X241304Y341509D01*
X241294Y341609D01*
X241281Y341707D01*
X241263Y341806D01*
X241242Y341903D01*
X241217Y341999D01*
X241188Y342095D01*
X241155Y342189D01*
X241119Y342282D01*
X241079Y342373D01*
X241035Y342463D01*
X240988Y342551D01*
X240938Y342637D01*
X240884Y342721D01*
X240827Y342803D01*
X240767Y342882D01*
X240703Y342960D01*
X240637Y343034D01*
X240568Y343106D01*
X240496Y343175D01*
X240422Y343241D01*
X240344Y343305D01*
X240265Y343365D01*
X240183Y343422D01*
X240099Y343476D01*
X240013Y343526D01*
X239925Y343573D01*
X239835Y343617D01*
X239744Y343657D01*
X239651Y343693D01*
X239557Y343726D01*
X239461Y343755D01*
X239365Y343780D01*
X239268Y343801D01*
X239169Y343819D01*
X239071Y343832D01*
X238971Y343842D01*
X238872Y343848D01*
X238772Y343850D01*
X234962Y343850D01*
X228612Y343850D01*
X222262Y343850D01*
X215912Y343850D01*
X212102Y343850D01*
X212002Y343848D01*
X211903Y343842D01*
X211803Y343832D01*
X211705Y343819D01*
X211606Y343801D01*
X211509Y343780D01*
X211413Y343755D01*
X211317Y343726D01*
X211223Y343693D01*
X211130Y343657D01*
X211039Y343617D01*
X210949Y343573D01*
X210861Y343526D01*
X210775Y343476D01*
X210691Y343422D01*
X210609Y343365D01*
X210530Y343305D01*
X210452Y343241D01*
X210378Y343175D01*
X210306Y343106D01*
X210237Y343034D01*
X210171Y342960D01*
X210107Y342882D01*
X210047Y342803D01*
X209990Y342721D01*
X209936Y342637D01*
X209886Y342551D01*
X209839Y342463D01*
X209795Y342373D01*
X209755Y342282D01*
X209719Y342189D01*
X209686Y342095D01*
X209657Y341999D01*
X209632Y341903D01*
X209611Y341806D01*
X209593Y341707D01*
X209580Y341609D01*
X209570Y341509D01*
X209564Y341410D01*
X209562Y341310D01*
X209562Y337500D01*
X209562Y331150D01*
X209562Y324800D01*
X209562Y318450D01*
X167652Y178750D02*
X142252Y178750D01*
X142152Y178748D01*
X142053Y178742D01*
X141953Y178732D01*
X141855Y178719D01*
X141756Y178701D01*
X141659Y178680D01*
X141563Y178655D01*
X141467Y178626D01*
X141373Y178593D01*
X141280Y178557D01*
X141189Y178517D01*
X141099Y178473D01*
X141011Y178426D01*
X140925Y178376D01*
X140841Y178322D01*
X140759Y178265D01*
X140680Y178205D01*
X140602Y178141D01*
X140528Y178075D01*
X140456Y178006D01*
X140387Y177934D01*
X140321Y177860D01*
X140257Y177782D01*
X140197Y177703D01*
X140140Y177621D01*
X140086Y177537D01*
X140036Y177451D01*
X139989Y177363D01*
X139945Y177273D01*
X139905Y177182D01*
X139869Y177089D01*
X139836Y176995D01*
X139807Y176899D01*
X139782Y176803D01*
X139761Y176706D01*
X139743Y176607D01*
X139730Y176509D01*
X139720Y176409D01*
X139714Y176310D01*
X139712Y176210D01*
X139712Y158430D01*
X139714Y158330D01*
X139720Y158231D01*
X139730Y158131D01*
X139743Y158033D01*
X139761Y157934D01*
X139782Y157837D01*
X139807Y157741D01*
X139836Y157645D01*
X139869Y157551D01*
X139905Y157458D01*
X139945Y157367D01*
X139989Y157277D01*
X140036Y157189D01*
X140086Y157103D01*
X140140Y157019D01*
X140197Y156937D01*
X140257Y156858D01*
X140321Y156780D01*
X140387Y156706D01*
X140456Y156634D01*
X140528Y156565D01*
X140602Y156499D01*
X140680Y156435D01*
X140759Y156375D01*
X140841Y156318D01*
X140925Y156264D01*
X141011Y156214D01*
X141099Y156167D01*
X141189Y156123D01*
X141280Y156083D01*
X141373Y156047D01*
X141467Y156014D01*
X141563Y155985D01*
X141659Y155960D01*
X141756Y155939D01*
X141855Y155921D01*
X141953Y155908D01*
X142053Y155898D01*
X142152Y155892D01*
X142252Y155890D01*
X167652Y155890D01*
X167752Y155892D01*
X167851Y155898D01*
X167951Y155908D01*
X168049Y155921D01*
X168148Y155939D01*
X168245Y155960D01*
X168341Y155985D01*
X168437Y156014D01*
X168531Y156047D01*
X168624Y156083D01*
X168715Y156123D01*
X168805Y156167D01*
X168893Y156214D01*
X168979Y156264D01*
X169063Y156318D01*
X169145Y156375D01*
X169224Y156435D01*
X169302Y156499D01*
X169376Y156565D01*
X169448Y156634D01*
X169517Y156706D01*
X169583Y156780D01*
X169647Y156858D01*
X169707Y156937D01*
X169764Y157019D01*
X169818Y157103D01*
X169868Y157189D01*
X169915Y157277D01*
X169959Y157367D01*
X169999Y157458D01*
X170035Y157551D01*
X170068Y157645D01*
X170097Y157741D01*
X170122Y157837D01*
X170143Y157934D01*
X170161Y158033D01*
X170174Y158131D01*
X170184Y158231D01*
X170190Y158330D01*
X170192Y158430D01*
X170192Y176210D01*
X170190Y176310D01*
X170184Y176409D01*
X170174Y176509D01*
X170161Y176607D01*
X170143Y176706D01*
X170122Y176803D01*
X170097Y176899D01*
X170068Y176995D01*
X170035Y177089D01*
X169999Y177182D01*
X169959Y177273D01*
X169915Y177363D01*
X169868Y177451D01*
X169818Y177537D01*
X169764Y177621D01*
X169707Y177703D01*
X169647Y177782D01*
X169583Y177860D01*
X169517Y177934D01*
X169448Y178006D01*
X169376Y178075D01*
X169302Y178141D01*
X169224Y178205D01*
X169145Y178265D01*
X169063Y178322D01*
X168979Y178376D01*
X168893Y178426D01*
X168805Y178473D01*
X168715Y178517D01*
X168624Y178557D01*
X168531Y178593D01*
X168437Y178626D01*
X168341Y178655D01*
X168245Y178680D01*
X168148Y178701D01*
X168049Y178719D01*
X167951Y178732D01*
X167851Y178742D01*
X167752Y178748D01*
X167652Y178750D01*
X228612Y308925D02*
X228612Y312100D01*
X222262Y312100D02*
X222262Y308925D01*
X215912Y308925D02*
X215912Y312100D01*
X234962Y312100D02*
X234962Y308925D01*
X241312Y318450D02*
X244487Y318450D01*
X244487Y324800D02*
X241312Y324800D01*
X241312Y331150D02*
X244487Y331150D01*
X244487Y337500D02*
X241312Y337500D01*
X234962Y343850D02*
X234962Y347025D01*
X228612Y347025D02*
X228612Y343850D01*
X222262Y343850D02*
X222262Y347025D01*
X215912Y347025D02*
X215912Y343850D01*
X209562Y318450D02*
X206387Y318450D01*
X206387Y324800D02*
X209562Y324800D01*
X209562Y331150D02*
X206387Y331150D01*
X206387Y337500D02*
X209562Y337500D01*
X203212Y375600D02*
X203212Y388300D01*
X222262Y388300D01*
X222262Y383649D01*
X222260Y383538D01*
X222254Y383426D01*
X222244Y383315D01*
X222231Y383205D01*
X222213Y383095D01*
X222192Y382985D01*
X222167Y382877D01*
X222138Y382769D01*
X222105Y382663D01*
X222068Y382557D01*
X222028Y382453D01*
X221985Y382351D01*
X221937Y382250D01*
X221886Y382151D01*
X221832Y382054D01*
X221774Y381958D01*
X221713Y381865D01*
X221649Y381774D01*
X221582Y381685D01*
X221511Y381599D01*
X221438Y381515D01*
X221362Y381434D01*
X221282Y381355D01*
X221201Y381280D01*
X221116Y381207D01*
X221029Y381137D01*
X220940Y381071D01*
X220848Y381007D01*
X212737Y375600D01*
X177812Y375600D02*
X177812Y388300D01*
X158762Y388300D01*
X158762Y383649D01*
X158764Y383538D01*
X158770Y383426D01*
X158780Y383315D01*
X158793Y383205D01*
X158811Y383095D01*
X158832Y382985D01*
X158857Y382877D01*
X158886Y382769D01*
X158919Y382663D01*
X158956Y382557D01*
X158996Y382453D01*
X159039Y382351D01*
X159087Y382250D01*
X159138Y382151D01*
X159192Y382054D01*
X159250Y381958D01*
X159311Y381865D01*
X159375Y381774D01*
X159442Y381685D01*
X159513Y381599D01*
X159586Y381515D01*
X159662Y381434D01*
X159742Y381355D01*
X159823Y381280D01*
X159908Y381207D01*
X159995Y381137D01*
X160084Y381071D01*
X160176Y381007D01*
X168287Y375600D01*
X219722Y173670D02*
X240042Y173670D01*
X219722Y173670D02*
X219622Y173668D01*
X219523Y173662D01*
X219423Y173652D01*
X219325Y173639D01*
X219226Y173621D01*
X219129Y173600D01*
X219033Y173575D01*
X218937Y173546D01*
X218843Y173513D01*
X218750Y173477D01*
X218659Y173437D01*
X218569Y173393D01*
X218481Y173346D01*
X218395Y173296D01*
X218311Y173242D01*
X218229Y173185D01*
X218150Y173125D01*
X218072Y173061D01*
X217998Y172995D01*
X217926Y172926D01*
X217857Y172854D01*
X217791Y172780D01*
X217727Y172702D01*
X217667Y172623D01*
X217610Y172541D01*
X217556Y172457D01*
X217506Y172371D01*
X217459Y172283D01*
X217415Y172193D01*
X217375Y172102D01*
X217339Y172009D01*
X217306Y171915D01*
X217277Y171819D01*
X217252Y171723D01*
X217231Y171626D01*
X217213Y171527D01*
X217200Y171429D01*
X217190Y171329D01*
X217184Y171230D01*
X217182Y171130D01*
X217182Y152080D01*
X217156Y151996D01*
X217134Y151912D01*
X217115Y151826D01*
X217101Y151740D01*
X217090Y151653D01*
X217083Y151565D01*
X217079Y151478D01*
X217080Y151390D01*
X217084Y151303D01*
X217092Y151215D01*
X217104Y151129D01*
X217120Y151042D01*
X217139Y150957D01*
X217162Y150873D01*
X217189Y150789D01*
X217220Y150707D01*
X217254Y150626D01*
X217291Y150547D01*
X217332Y150470D01*
X217376Y150394D01*
X217424Y150320D01*
X217474Y150249D01*
X217528Y150180D01*
X217585Y150113D01*
X217644Y150048D01*
X217706Y149987D01*
X217771Y149928D01*
X217839Y149872D01*
X217909Y149819D01*
X217981Y149769D01*
X218055Y149723D01*
X218131Y149679D01*
X218209Y149639D01*
X218288Y149603D01*
X218370Y149570D01*
X218452Y149540D01*
X238772Y149540D01*
X238883Y149520D01*
X238995Y149503D01*
X239107Y149491D01*
X239220Y149482D01*
X239333Y149478D01*
X239446Y149477D01*
X239559Y149481D01*
X239672Y149488D01*
X239784Y149499D01*
X239896Y149514D01*
X240008Y149533D01*
X240118Y149556D01*
X240228Y149583D01*
X240337Y149613D01*
X240445Y149648D01*
X240551Y149686D01*
X240656Y149728D01*
X240760Y149773D01*
X240861Y149822D01*
X240961Y149875D01*
X241060Y149931D01*
X241156Y149990D01*
X241250Y150053D01*
X241342Y150119D01*
X241431Y150188D01*
X241518Y150260D01*
X241602Y150335D01*
X241684Y150413D01*
X241763Y150494D01*
X241839Y150577D01*
X241912Y150664D01*
X241982Y150752D01*
X242049Y150843D01*
X242113Y150937D01*
X242173Y151032D01*
X242230Y151130D01*
X242284Y151229D01*
X242334Y151331D01*
X242381Y151434D01*
X242424Y151538D01*
X242463Y151644D01*
X242498Y151752D01*
X242530Y151860D01*
X242558Y151970D01*
X242582Y152080D01*
X242582Y171130D01*
X242580Y171230D01*
X242574Y171329D01*
X242564Y171429D01*
X242551Y171527D01*
X242533Y171626D01*
X242512Y171723D01*
X242487Y171819D01*
X242458Y171915D01*
X242425Y172009D01*
X242389Y172102D01*
X242349Y172193D01*
X242305Y172283D01*
X242258Y172371D01*
X242208Y172457D01*
X242154Y172541D01*
X242097Y172623D01*
X242037Y172702D01*
X241973Y172780D01*
X241907Y172854D01*
X241838Y172926D01*
X241766Y172995D01*
X241692Y173061D01*
X241614Y173125D01*
X241535Y173185D01*
X241453Y173242D01*
X241369Y173296D01*
X241283Y173346D01*
X241195Y173393D01*
X241105Y173437D01*
X241014Y173477D01*
X240921Y173513D01*
X240827Y173546D01*
X240731Y173575D01*
X240635Y173600D01*
X240538Y173621D01*
X240439Y173639D01*
X240341Y173652D01*
X240241Y173662D01*
X240142Y173668D01*
X240042Y173670D01*
X148602Y365440D02*
X135902Y365440D01*
X135802Y365438D01*
X135703Y365432D01*
X135603Y365422D01*
X135505Y365409D01*
X135406Y365391D01*
X135309Y365370D01*
X135213Y365345D01*
X135117Y365316D01*
X135023Y365283D01*
X134930Y365247D01*
X134839Y365207D01*
X134749Y365163D01*
X134661Y365116D01*
X134575Y365066D01*
X134491Y365012D01*
X134409Y364955D01*
X134330Y364895D01*
X134252Y364831D01*
X134178Y364765D01*
X134106Y364696D01*
X134037Y364624D01*
X133971Y364550D01*
X133907Y364472D01*
X133847Y364393D01*
X133790Y364311D01*
X133736Y364227D01*
X133686Y364141D01*
X133639Y364053D01*
X133595Y363963D01*
X133555Y363872D01*
X133519Y363779D01*
X133486Y363685D01*
X133457Y363589D01*
X133432Y363493D01*
X133411Y363396D01*
X133393Y363297D01*
X133380Y363199D01*
X133370Y363099D01*
X133364Y363000D01*
X133362Y362900D01*
X133362Y348930D01*
X133364Y348830D01*
X133370Y348731D01*
X133380Y348631D01*
X133393Y348533D01*
X133411Y348434D01*
X133432Y348337D01*
X133457Y348241D01*
X133486Y348145D01*
X133519Y348051D01*
X133555Y347958D01*
X133595Y347867D01*
X133639Y347777D01*
X133686Y347689D01*
X133736Y347603D01*
X133790Y347519D01*
X133847Y347437D01*
X133907Y347358D01*
X133971Y347280D01*
X134037Y347206D01*
X134106Y347134D01*
X134178Y347065D01*
X134252Y346999D01*
X134330Y346935D01*
X134409Y346875D01*
X134491Y346818D01*
X134575Y346764D01*
X134661Y346714D01*
X134749Y346667D01*
X134839Y346623D01*
X134930Y346583D01*
X135023Y346547D01*
X135117Y346514D01*
X135213Y346485D01*
X135309Y346460D01*
X135406Y346439D01*
X135505Y346421D01*
X135603Y346408D01*
X135703Y346398D01*
X135802Y346392D01*
X135902Y346390D01*
X148602Y346390D01*
X148702Y346392D01*
X148801Y346398D01*
X148901Y346408D01*
X148999Y346421D01*
X149098Y346439D01*
X149195Y346460D01*
X149291Y346485D01*
X149387Y346514D01*
X149481Y346547D01*
X149574Y346583D01*
X149665Y346623D01*
X149755Y346667D01*
X149843Y346714D01*
X149929Y346764D01*
X150013Y346818D01*
X150095Y346875D01*
X150174Y346935D01*
X150252Y346999D01*
X150326Y347065D01*
X150398Y347134D01*
X150467Y347206D01*
X150533Y347280D01*
X150597Y347358D01*
X150657Y347437D01*
X150714Y347519D01*
X150768Y347603D01*
X150818Y347689D01*
X150865Y347777D01*
X150909Y347867D01*
X150949Y347958D01*
X150985Y348051D01*
X151018Y348145D01*
X151047Y348241D01*
X151072Y348337D01*
X151093Y348434D01*
X151111Y348533D01*
X151124Y348631D01*
X151134Y348731D01*
X151140Y348830D01*
X151142Y348930D01*
X151142Y362900D01*
X151140Y363000D01*
X151134Y363099D01*
X151124Y363199D01*
X151111Y363297D01*
X151093Y363396D01*
X151072Y363493D01*
X151047Y363589D01*
X151018Y363685D01*
X150985Y363779D01*
X150949Y363872D01*
X150909Y363963D01*
X150865Y364053D01*
X150818Y364141D01*
X150768Y364227D01*
X150714Y364311D01*
X150657Y364393D01*
X150597Y364472D01*
X150533Y364550D01*
X150467Y364624D01*
X150398Y364696D01*
X150326Y364765D01*
X150252Y364831D01*
X150174Y364895D01*
X150095Y364955D01*
X150013Y365012D01*
X149929Y365066D01*
X149843Y365116D01*
X149755Y365163D01*
X149665Y365207D01*
X149574Y365247D01*
X149481Y365283D01*
X149387Y365316D01*
X149291Y365345D01*
X149195Y365370D01*
X149098Y365391D01*
X148999Y365409D01*
X148901Y365422D01*
X148801Y365432D01*
X148702Y365438D01*
X148602Y365440D01*
X240824Y711600D02*
X247174Y717950D01*
X240824Y711600D02*
X228124Y711600D01*
X221774Y717950D01*
X215424Y711600D01*
X202724Y711600D01*
X196374Y717950D01*
X190024Y711600D01*
X177324Y711600D01*
X170974Y717950D01*
X164624Y711600D01*
X151924Y711600D01*
X145574Y717950D01*
X139224Y711600D01*
X126524Y711600D01*
X120174Y717950D01*
X113824Y711600D01*
X101124Y711600D01*
X94774Y717950D01*
X88424Y711600D01*
X75724Y711600D01*
X69374Y717950D01*
X69374Y730650D01*
X75724Y737000D01*
X69374Y743350D01*
X69374Y756050D01*
X75724Y762400D01*
X69374Y768750D01*
X69374Y781450D01*
X75724Y787800D01*
X88424Y787800D01*
X94774Y781450D01*
X101124Y787800D01*
X113824Y787800D01*
X120174Y781450D01*
X126524Y787800D01*
X139224Y787800D01*
X145574Y781450D01*
X151924Y787800D01*
X164624Y787800D01*
X170974Y781450D01*
X177324Y787800D01*
X190024Y787800D01*
X196374Y781450D01*
X202724Y787800D01*
X215424Y787800D01*
X221774Y781450D01*
X228124Y787800D01*
X240824Y787800D01*
X247174Y781450D01*
X247174Y768750D01*
X240824Y762400D01*
X247174Y756050D01*
X247174Y743350D01*
X240824Y737000D01*
X247174Y730650D01*
X247174Y717950D01*
X11250Y603950D02*
X11250Y445200D01*
X11250Y603950D02*
X220800Y603950D01*
X220800Y445200D01*
X11250Y445200D01*
X208100Y534100D02*
X208100Y572200D01*
X201750Y565850D01*
X208100Y572200D02*
X214450Y565850D01*
X208100Y534100D02*
X170000Y534100D01*
X176350Y540450D01*
X170000Y534100D02*
X176350Y527750D01*
X86250Y402542D02*
X92600Y396192D01*
X92600Y383492D01*
X86250Y377142D01*
X92600Y370792D01*
X92600Y358092D01*
X86250Y351742D01*
X92600Y345392D01*
X92600Y332692D01*
X86250Y326342D01*
X92600Y319992D01*
X92600Y307292D01*
X86250Y300942D01*
X92600Y294592D01*
X92600Y281892D01*
X86250Y275542D01*
X92600Y269192D01*
X92600Y256492D01*
X86250Y250142D01*
X92600Y243792D01*
X92600Y231092D01*
X86250Y224742D01*
X92600Y218392D01*
X92600Y205692D01*
X86250Y199342D01*
X92600Y192992D01*
X92600Y180292D01*
X86250Y173942D01*
X92600Y167592D01*
X92600Y154892D01*
X86250Y148542D01*
X73550Y148542D01*
X67200Y154892D01*
X60850Y148542D01*
X48150Y148542D01*
X41800Y154892D01*
X35450Y148542D01*
X22750Y148542D01*
X16400Y154892D01*
X16400Y167592D01*
X22750Y173942D01*
X16400Y180292D01*
X16400Y192992D01*
X22750Y199342D01*
X16400Y205692D01*
X16400Y218392D01*
X22750Y224742D01*
X16400Y231092D01*
X16400Y243792D01*
X22750Y250142D01*
X16400Y256492D01*
X16400Y269192D01*
X22750Y275542D01*
X16400Y281892D01*
X16400Y294592D01*
X22750Y300942D01*
X16400Y307292D01*
X16400Y319992D01*
X22750Y326342D01*
X16400Y332692D01*
X16400Y345392D01*
X22750Y351742D01*
X16400Y358092D01*
X16400Y370792D01*
X22750Y377142D01*
X16400Y383492D01*
X16400Y396192D01*
X22750Y402542D01*
X35450Y402542D01*
X41800Y396192D01*
X48150Y402542D01*
X60850Y402542D01*
X67200Y396192D01*
X73550Y402542D01*
X86250Y402542D01*
M02*
