G04 EAGLE Gerber RS-274X export*
G75*
%MOMM*%
%FSLAX34Y34*%
%LPD*%
%INBottom Copper*%
%IPPOS*%
%AMOC8*
5,1,8,0,0,1.08239X$1,22.5*%
G01*
G04 Define Apertures*
%ADD10C,1.778000*%
%ADD11P,1.64956X8X292.5*%
%ADD12C,1.508000*%
%ADD13P,1.64956X8X22.5*%
%ADD14P,1.64956X8X112.5*%
%ADD15C,0.500000*%
G36*
X245721Y161120D02*
X244746Y160922D01*
X55254Y160922D01*
X54074Y161218D01*
X53308Y161853D01*
X52850Y162737D01*
X52773Y163729D01*
X53089Y164672D01*
X55775Y169324D01*
X57660Y176358D01*
X57660Y183642D01*
X55775Y190676D01*
X52134Y196984D01*
X46984Y202134D01*
X40676Y205775D01*
X33642Y207660D01*
X26358Y207660D01*
X19324Y205775D01*
X14672Y203089D01*
X13502Y202756D01*
X12521Y202923D01*
X11683Y203459D01*
X11120Y204279D01*
X10922Y205254D01*
X10922Y804746D01*
X11218Y805926D01*
X11853Y806692D01*
X12737Y807150D01*
X13729Y807227D01*
X14672Y806911D01*
X19324Y804225D01*
X26358Y802340D01*
X33642Y802340D01*
X40676Y804225D01*
X46984Y807866D01*
X52134Y813016D01*
X55775Y819324D01*
X57660Y826358D01*
X57660Y833642D01*
X55775Y840676D01*
X53089Y845328D01*
X52756Y846498D01*
X52923Y847479D01*
X53459Y848317D01*
X54279Y848880D01*
X55254Y849078D01*
X244746Y849078D01*
X245926Y848782D01*
X246692Y848147D01*
X247150Y847263D01*
X247227Y846271D01*
X246911Y845328D01*
X244225Y840676D01*
X242340Y833642D01*
X242340Y826358D01*
X244225Y819324D01*
X247866Y813016D01*
X253016Y807866D01*
X259324Y804225D01*
X266358Y802340D01*
X273642Y802340D01*
X280676Y804225D01*
X285328Y806911D01*
X286498Y807244D01*
X287479Y807077D01*
X288317Y806541D01*
X288880Y805721D01*
X289078Y804746D01*
X289078Y761716D01*
X288931Y760871D01*
X288415Y760020D01*
X287608Y759438D01*
X286638Y759217D01*
X285658Y759391D01*
X284824Y759934D01*
X284268Y760759D01*
X282922Y764010D01*
X280086Y766845D01*
X276382Y768380D01*
X275138Y768380D01*
X275138Y748220D01*
X276382Y748220D01*
X280086Y749755D01*
X282922Y752590D01*
X284268Y755841D01*
X284728Y756565D01*
X285530Y757154D01*
X286498Y757383D01*
X287479Y757216D01*
X288317Y756680D01*
X288880Y755859D01*
X289078Y754884D01*
X289078Y242295D01*
X288931Y241450D01*
X288415Y240599D01*
X287608Y240017D01*
X286638Y239796D01*
X285658Y239970D01*
X284824Y240513D01*
X284268Y241338D01*
X282537Y245519D01*
X279607Y248449D01*
X275780Y250034D01*
X271637Y250034D01*
X267809Y248449D01*
X264879Y245519D01*
X263318Y241749D01*
X262845Y241009D01*
X262038Y240427D01*
X261068Y240206D01*
X260088Y240381D01*
X259254Y240924D01*
X258698Y241749D01*
X257137Y245519D01*
X254207Y248449D01*
X250380Y250034D01*
X246237Y250034D01*
X242409Y248449D01*
X239479Y245519D01*
X237918Y241749D01*
X237445Y241009D01*
X236638Y240427D01*
X235668Y240206D01*
X234688Y240381D01*
X233854Y240924D01*
X233298Y241749D01*
X231737Y245519D01*
X228807Y248449D01*
X224980Y250034D01*
X220837Y250034D01*
X217009Y248449D01*
X214079Y245519D01*
X212518Y241749D01*
X212045Y241009D01*
X211238Y240427D01*
X210268Y240206D01*
X209288Y240381D01*
X208454Y240924D01*
X207898Y241749D01*
X206337Y245519D01*
X203407Y248449D01*
X199580Y250034D01*
X195437Y250034D01*
X191609Y248449D01*
X188679Y245519D01*
X187118Y241749D01*
X186645Y241009D01*
X185838Y240427D01*
X184868Y240206D01*
X183888Y240381D01*
X183054Y240924D01*
X182498Y241749D01*
X180937Y245519D01*
X178007Y248449D01*
X177675Y248586D01*
X176893Y249100D01*
X176330Y249921D01*
X176132Y250896D01*
X176132Y323692D01*
X175519Y325171D01*
X102756Y397935D01*
X102222Y398727D01*
X102024Y399702D01*
X102024Y410298D01*
X102207Y411236D01*
X102756Y412065D01*
X111935Y421244D01*
X112727Y421778D01*
X113702Y421976D01*
X146800Y421976D01*
X148279Y422589D01*
X189935Y464245D01*
X190548Y465724D01*
X190548Y533822D01*
X190731Y534760D01*
X191280Y535589D01*
X231435Y575744D01*
X232227Y576278D01*
X233202Y576476D01*
X264562Y576476D01*
X265481Y576301D01*
X266315Y575758D01*
X266347Y575711D01*
X269242Y572816D01*
X272573Y571436D01*
X276179Y571436D01*
X279511Y572816D01*
X282061Y575366D01*
X283440Y578697D01*
X283440Y582303D01*
X282061Y585634D01*
X279511Y588184D01*
X276179Y589564D01*
X272573Y589564D01*
X269242Y588184D01*
X266386Y585328D01*
X266358Y585285D01*
X265537Y584722D01*
X264562Y584524D01*
X236250Y584524D01*
X235386Y584678D01*
X234540Y585201D01*
X233964Y586012D01*
X233751Y586984D01*
X233933Y587962D01*
X234483Y588792D01*
X246835Y601144D01*
X247627Y601678D01*
X248602Y601876D01*
X264562Y601876D01*
X265481Y601701D01*
X266315Y601158D01*
X266347Y601111D01*
X269242Y598216D01*
X272573Y596836D01*
X276179Y596836D01*
X279511Y598216D01*
X282061Y600766D01*
X283440Y604097D01*
X283440Y607703D01*
X282061Y611034D01*
X279511Y613584D01*
X276179Y614964D01*
X272573Y614964D01*
X269242Y613584D01*
X266386Y610728D01*
X266358Y610685D01*
X265537Y610122D01*
X264562Y609924D01*
X245100Y609924D01*
X243621Y609311D01*
X176589Y542279D01*
X175976Y540800D01*
X175976Y472702D01*
X175793Y471764D01*
X175244Y470935D01*
X141589Y437280D01*
X140797Y436746D01*
X139822Y436548D01*
X106724Y436548D01*
X105245Y435935D01*
X87589Y418279D01*
X86976Y416800D01*
X86976Y393200D01*
X87589Y391721D01*
X141952Y337357D01*
X142486Y336565D01*
X142684Y335590D01*
X142684Y250896D01*
X142509Y249976D01*
X141966Y249142D01*
X141141Y248586D01*
X140809Y248449D01*
X137879Y245519D01*
X136868Y243076D01*
X136395Y242337D01*
X135588Y241755D01*
X134618Y241534D01*
X133638Y241708D01*
X132804Y242251D01*
X132248Y243076D01*
X130998Y246095D01*
X127783Y249310D01*
X123582Y251050D01*
X122070Y251050D01*
X122070Y210410D01*
X123582Y210410D01*
X127783Y212150D01*
X130998Y215365D01*
X132248Y218384D01*
X132721Y219123D01*
X133528Y219705D01*
X134498Y219926D01*
X135478Y219752D01*
X136311Y219209D01*
X136868Y218384D01*
X137879Y215941D01*
X140809Y213011D01*
X144637Y211426D01*
X148780Y211426D01*
X152607Y213011D01*
X155537Y215941D01*
X157098Y219711D01*
X157571Y220451D01*
X158378Y221033D01*
X159348Y221254D01*
X160328Y221079D01*
X161162Y220536D01*
X161718Y219711D01*
X163279Y215941D01*
X166209Y213011D01*
X170037Y211426D01*
X174180Y211426D01*
X178007Y213011D01*
X180937Y215941D01*
X182498Y219711D01*
X182971Y220451D01*
X183778Y221033D01*
X184748Y221254D01*
X185728Y221079D01*
X186562Y220536D01*
X187118Y219711D01*
X188679Y215941D01*
X191609Y213011D01*
X195437Y211426D01*
X199580Y211426D01*
X203407Y213011D01*
X206337Y215941D01*
X207898Y219711D01*
X208371Y220451D01*
X209178Y221033D01*
X210148Y221254D01*
X211128Y221079D01*
X211962Y220536D01*
X212518Y219711D01*
X214079Y215941D01*
X217009Y213011D01*
X220837Y211426D01*
X224980Y211426D01*
X228807Y213011D01*
X231737Y215941D01*
X233298Y219711D01*
X233771Y220451D01*
X234578Y221033D01*
X235548Y221254D01*
X236528Y221079D01*
X237362Y220536D01*
X237918Y219711D01*
X239479Y215941D01*
X242409Y213011D01*
X246237Y211426D01*
X250380Y211426D01*
X254207Y213011D01*
X257137Y215941D01*
X258698Y219711D01*
X259171Y220451D01*
X259978Y221033D01*
X260948Y221254D01*
X261928Y221079D01*
X262762Y220536D01*
X263318Y219711D01*
X264879Y215941D01*
X267809Y213011D01*
X269117Y212470D01*
X269841Y212010D01*
X270430Y211208D01*
X270659Y210240D01*
X270492Y209259D01*
X269956Y208421D01*
X269135Y207858D01*
X268160Y207660D01*
X266358Y207660D01*
X259324Y205775D01*
X253016Y202134D01*
X247866Y196984D01*
X244225Y190676D01*
X242340Y183642D01*
X242340Y176358D01*
X244225Y169324D01*
X246911Y164672D01*
X247244Y163502D01*
X247077Y162521D01*
X246541Y161683D01*
X245721Y161120D01*
G37*
%LPC*%
G36*
X122738Y784462D02*
X132056Y784462D01*
X132056Y785705D01*
X130522Y789410D01*
X127686Y792245D01*
X123982Y793780D01*
X122738Y793780D01*
X122738Y784462D01*
G37*
G36*
X111896Y784462D02*
X121214Y784462D01*
X121214Y793780D01*
X119971Y793780D01*
X116267Y792245D01*
X113431Y789410D01*
X111896Y785705D01*
X111896Y784462D01*
G37*
G36*
X272573Y774636D02*
X276179Y774636D01*
X279511Y776016D01*
X282061Y778566D01*
X283440Y781897D01*
X283440Y785503D01*
X282061Y788834D01*
X279511Y791384D01*
X276179Y792764D01*
X272573Y792764D01*
X269242Y791384D01*
X266692Y788834D01*
X265312Y785503D01*
X265312Y781897D01*
X266692Y778566D01*
X269242Y776016D01*
X272573Y774636D01*
G37*
G36*
X119971Y773620D02*
X121214Y773620D01*
X121214Y782938D01*
X111896Y782938D01*
X111896Y781695D01*
X113431Y777990D01*
X116267Y775155D01*
X119971Y773620D01*
G37*
G36*
X122738Y773620D02*
X123982Y773620D01*
X127686Y775155D01*
X130522Y777990D01*
X132056Y781695D01*
X132056Y782938D01*
X122738Y782938D01*
X122738Y773620D01*
G37*
G36*
X18382Y773142D02*
X27780Y773142D01*
X27780Y782540D01*
X24334Y782540D01*
X18382Y776588D01*
X18382Y773142D01*
G37*
G36*
X29304Y773142D02*
X38702Y773142D01*
X38702Y776588D01*
X32750Y782540D01*
X29304Y782540D01*
X29304Y773142D01*
G37*
G36*
X75554Y763236D02*
X83130Y763236D01*
X88486Y768592D01*
X88486Y776168D01*
X83130Y781524D01*
X75554Y781524D01*
X70198Y776168D01*
X70198Y768592D01*
X75554Y763236D01*
G37*
G36*
X50154Y763236D02*
X57730Y763236D01*
X63086Y768592D01*
X63086Y776168D01*
X57730Y781524D01*
X50154Y781524D01*
X44798Y776168D01*
X44798Y768592D01*
X50154Y763236D01*
G37*
G36*
X24334Y762220D02*
X27780Y762220D01*
X27780Y771618D01*
X18382Y771618D01*
X18382Y768172D01*
X24334Y762220D01*
G37*
G36*
X29304Y762220D02*
X32750Y762220D01*
X38702Y768172D01*
X38702Y771618D01*
X29304Y771618D01*
X29304Y762220D01*
G37*
G36*
X264296Y759062D02*
X273614Y759062D01*
X273614Y768380D01*
X272371Y768380D01*
X268667Y766845D01*
X265831Y764010D01*
X264296Y760305D01*
X264296Y759062D01*
G37*
G36*
X120173Y749236D02*
X123779Y749236D01*
X127111Y750616D01*
X129661Y753166D01*
X131040Y756497D01*
X131040Y760103D01*
X129661Y763434D01*
X127111Y765984D01*
X123779Y767364D01*
X120173Y767364D01*
X116842Y765984D01*
X114292Y763434D01*
X112912Y760103D01*
X112912Y756497D01*
X114292Y753166D01*
X116842Y750616D01*
X120173Y749236D01*
G37*
G36*
X272371Y748220D02*
X273614Y748220D01*
X273614Y757538D01*
X264296Y757538D01*
X264296Y756295D01*
X265831Y752590D01*
X268667Y749755D01*
X272371Y748220D01*
G37*
G36*
X18382Y747742D02*
X27780Y747742D01*
X27780Y757140D01*
X24334Y757140D01*
X18382Y751188D01*
X18382Y747742D01*
G37*
G36*
X29304Y747742D02*
X38702Y747742D01*
X38702Y751188D01*
X32750Y757140D01*
X29304Y757140D01*
X29304Y747742D01*
G37*
G36*
X50154Y737836D02*
X57730Y737836D01*
X63086Y743192D01*
X63086Y750768D01*
X57730Y756124D01*
X50154Y756124D01*
X44798Y750768D01*
X44798Y743192D01*
X50154Y737836D01*
G37*
G36*
X75554Y737836D02*
X83130Y737836D01*
X88486Y743192D01*
X88486Y750768D01*
X83130Y756124D01*
X75554Y756124D01*
X70198Y750768D01*
X70198Y743192D01*
X75554Y737836D01*
G37*
G36*
X24334Y736820D02*
X27780Y736820D01*
X27780Y746218D01*
X18382Y746218D01*
X18382Y742772D01*
X24334Y736820D01*
G37*
G36*
X29304Y736820D02*
X32750Y736820D01*
X38702Y742772D01*
X38702Y746218D01*
X29304Y746218D01*
X29304Y736820D01*
G37*
G36*
X120173Y723836D02*
X123779Y723836D01*
X127111Y725216D01*
X129661Y727766D01*
X131040Y731097D01*
X131040Y734703D01*
X129661Y738034D01*
X127111Y740584D01*
X123779Y741964D01*
X120173Y741964D01*
X116842Y740584D01*
X114292Y738034D01*
X112912Y734703D01*
X112912Y731097D01*
X114292Y727766D01*
X116842Y725216D01*
X120173Y723836D01*
G37*
G36*
X272573Y723836D02*
X276179Y723836D01*
X279511Y725216D01*
X282061Y727766D01*
X283440Y731097D01*
X283440Y734703D01*
X282061Y738034D01*
X279511Y740584D01*
X276179Y741964D01*
X272573Y741964D01*
X269242Y740584D01*
X266692Y738034D01*
X265312Y734703D01*
X265312Y731097D01*
X266692Y727766D01*
X269242Y725216D01*
X272573Y723836D01*
G37*
G36*
X29304Y722342D02*
X38702Y722342D01*
X38702Y725788D01*
X32750Y731740D01*
X29304Y731740D01*
X29304Y722342D01*
G37*
G36*
X18382Y722342D02*
X27780Y722342D01*
X27780Y731740D01*
X24334Y731740D01*
X18382Y725788D01*
X18382Y722342D01*
G37*
G36*
X50154Y712436D02*
X57730Y712436D01*
X63086Y717792D01*
X63086Y725368D01*
X57730Y730724D01*
X50154Y730724D01*
X44798Y725368D01*
X44798Y717792D01*
X50154Y712436D01*
G37*
G36*
X75554Y712436D02*
X83130Y712436D01*
X88486Y717792D01*
X88486Y725368D01*
X83130Y730724D01*
X75554Y730724D01*
X70198Y725368D01*
X70198Y717792D01*
X75554Y712436D01*
G37*
G36*
X24334Y711420D02*
X27780Y711420D01*
X27780Y720818D01*
X18382Y720818D01*
X18382Y717372D01*
X24334Y711420D01*
G37*
G36*
X29304Y711420D02*
X32750Y711420D01*
X38702Y717372D01*
X38702Y720818D01*
X29304Y720818D01*
X29304Y711420D01*
G37*
G36*
X272573Y698436D02*
X276179Y698436D01*
X279511Y699816D01*
X282061Y702366D01*
X283440Y705697D01*
X283440Y709303D01*
X282061Y712634D01*
X279511Y715184D01*
X276179Y716564D01*
X272573Y716564D01*
X269242Y715184D01*
X266692Y712634D01*
X265312Y709303D01*
X265312Y705697D01*
X266692Y702366D01*
X269242Y699816D01*
X272573Y698436D01*
G37*
G36*
X120173Y698436D02*
X123779Y698436D01*
X127111Y699816D01*
X129661Y702366D01*
X131040Y705697D01*
X131040Y709303D01*
X129661Y712634D01*
X127111Y715184D01*
X123779Y716564D01*
X120173Y716564D01*
X116842Y715184D01*
X114292Y712634D01*
X112912Y709303D01*
X112912Y705697D01*
X114292Y702366D01*
X116842Y699816D01*
X120173Y698436D01*
G37*
G36*
X29304Y696942D02*
X38702Y696942D01*
X38702Y700388D01*
X32750Y706340D01*
X29304Y706340D01*
X29304Y696942D01*
G37*
G36*
X18382Y696942D02*
X27780Y696942D01*
X27780Y706340D01*
X24334Y706340D01*
X18382Y700388D01*
X18382Y696942D01*
G37*
G36*
X50154Y687036D02*
X57730Y687036D01*
X63086Y692392D01*
X63086Y699968D01*
X57730Y705324D01*
X50154Y705324D01*
X44798Y699968D01*
X44798Y692392D01*
X50154Y687036D01*
G37*
G36*
X75554Y687036D02*
X83130Y687036D01*
X88486Y692392D01*
X88486Y699968D01*
X83130Y705324D01*
X75554Y705324D01*
X70198Y699968D01*
X70198Y692392D01*
X75554Y687036D01*
G37*
G36*
X29304Y686020D02*
X32750Y686020D01*
X38702Y691972D01*
X38702Y695418D01*
X29304Y695418D01*
X29304Y686020D01*
G37*
G36*
X24334Y686020D02*
X27780Y686020D01*
X27780Y695418D01*
X18382Y695418D01*
X18382Y691972D01*
X24334Y686020D01*
G37*
G36*
X120173Y673036D02*
X123779Y673036D01*
X127111Y674416D01*
X129661Y676966D01*
X131040Y680297D01*
X131040Y683903D01*
X129661Y687234D01*
X127111Y689784D01*
X123779Y691164D01*
X120173Y691164D01*
X116842Y689784D01*
X114292Y687234D01*
X112912Y683903D01*
X112912Y680297D01*
X114292Y676966D01*
X116842Y674416D01*
X120173Y673036D01*
G37*
G36*
X272573Y673036D02*
X276179Y673036D01*
X279511Y674416D01*
X282061Y676966D01*
X283440Y680297D01*
X283440Y683903D01*
X282061Y687234D01*
X279511Y689784D01*
X276179Y691164D01*
X272573Y691164D01*
X269242Y689784D01*
X266692Y687234D01*
X265312Y683903D01*
X265312Y680297D01*
X266692Y676966D01*
X269242Y674416D01*
X272573Y673036D01*
G37*
G36*
X29304Y671542D02*
X38702Y671542D01*
X38702Y674988D01*
X32750Y680940D01*
X29304Y680940D01*
X29304Y671542D01*
G37*
G36*
X18382Y671542D02*
X27780Y671542D01*
X27780Y680940D01*
X24334Y680940D01*
X18382Y674988D01*
X18382Y671542D01*
G37*
G36*
X50154Y661636D02*
X57730Y661636D01*
X63086Y666992D01*
X63086Y674568D01*
X57730Y679924D01*
X50154Y679924D01*
X44798Y674568D01*
X44798Y666992D01*
X50154Y661636D01*
G37*
G36*
X75554Y661636D02*
X83130Y661636D01*
X88486Y666992D01*
X88486Y674568D01*
X83130Y679924D01*
X75554Y679924D01*
X70198Y674568D01*
X70198Y666992D01*
X75554Y661636D01*
G37*
G36*
X24334Y660620D02*
X27780Y660620D01*
X27780Y670018D01*
X18382Y670018D01*
X18382Y666572D01*
X24334Y660620D01*
G37*
G36*
X29304Y660620D02*
X32750Y660620D01*
X38702Y666572D01*
X38702Y670018D01*
X29304Y670018D01*
X29304Y660620D01*
G37*
G36*
X120173Y647636D02*
X123779Y647636D01*
X127111Y649016D01*
X129661Y651566D01*
X131040Y654897D01*
X131040Y658503D01*
X129661Y661834D01*
X127111Y664384D01*
X123779Y665764D01*
X120173Y665764D01*
X116842Y664384D01*
X114292Y661834D01*
X112912Y658503D01*
X112912Y654897D01*
X114292Y651566D01*
X116842Y649016D01*
X120173Y647636D01*
G37*
G36*
X272573Y647636D02*
X276179Y647636D01*
X279511Y649016D01*
X282061Y651566D01*
X283440Y654897D01*
X283440Y658503D01*
X282061Y661834D01*
X279511Y664384D01*
X276179Y665764D01*
X272573Y665764D01*
X269242Y664384D01*
X266692Y661834D01*
X265312Y658503D01*
X265312Y654897D01*
X266692Y651566D01*
X269242Y649016D01*
X272573Y647636D01*
G37*
G36*
X29304Y646142D02*
X38702Y646142D01*
X38702Y649588D01*
X32750Y655540D01*
X29304Y655540D01*
X29304Y646142D01*
G37*
G36*
X18382Y646142D02*
X27780Y646142D01*
X27780Y655540D01*
X24334Y655540D01*
X18382Y649588D01*
X18382Y646142D01*
G37*
G36*
X75554Y636236D02*
X83130Y636236D01*
X88486Y641592D01*
X88486Y649168D01*
X83130Y654524D01*
X75554Y654524D01*
X70198Y649168D01*
X70198Y641592D01*
X75554Y636236D01*
G37*
G36*
X50154Y636236D02*
X57730Y636236D01*
X63086Y641592D01*
X63086Y649168D01*
X57730Y654524D01*
X50154Y654524D01*
X44798Y649168D01*
X44798Y641592D01*
X50154Y636236D01*
G37*
G36*
X29304Y635220D02*
X32750Y635220D01*
X38702Y641172D01*
X38702Y644618D01*
X29304Y644618D01*
X29304Y635220D01*
G37*
G36*
X24334Y635220D02*
X27780Y635220D01*
X27780Y644618D01*
X18382Y644618D01*
X18382Y641172D01*
X24334Y635220D01*
G37*
G36*
X120173Y622236D02*
X123779Y622236D01*
X127111Y623616D01*
X129661Y626166D01*
X131040Y629497D01*
X131040Y633103D01*
X129661Y636434D01*
X127111Y638984D01*
X123779Y640364D01*
X120173Y640364D01*
X116842Y638984D01*
X114292Y636434D01*
X112912Y633103D01*
X112912Y629497D01*
X114292Y626166D01*
X116842Y623616D01*
X120173Y622236D01*
G37*
G36*
X272573Y622236D02*
X276179Y622236D01*
X279511Y623616D01*
X282061Y626166D01*
X283440Y629497D01*
X283440Y633103D01*
X282061Y636434D01*
X279511Y638984D01*
X276179Y640364D01*
X272573Y640364D01*
X269242Y638984D01*
X266692Y636434D01*
X265312Y633103D01*
X265312Y629497D01*
X266692Y626166D01*
X269242Y623616D01*
X272573Y622236D01*
G37*
G36*
X120173Y596836D02*
X123779Y596836D01*
X127111Y598216D01*
X129661Y600766D01*
X131040Y604097D01*
X131040Y607703D01*
X129661Y611034D01*
X127111Y613584D01*
X123779Y614964D01*
X120173Y614964D01*
X116842Y613584D01*
X114292Y611034D01*
X112912Y607703D01*
X112912Y604097D01*
X114292Y600766D01*
X116842Y598216D01*
X120173Y596836D01*
G37*
G36*
X18382Y599982D02*
X27780Y599982D01*
X27780Y609380D01*
X24334Y609380D01*
X18382Y603428D01*
X18382Y599982D01*
G37*
G36*
X29304Y599982D02*
X38702Y599982D01*
X38702Y603428D01*
X32750Y609380D01*
X29304Y609380D01*
X29304Y599982D01*
G37*
G36*
X75554Y590076D02*
X83130Y590076D01*
X88486Y595432D01*
X88486Y603008D01*
X83130Y608364D01*
X75554Y608364D01*
X70198Y603008D01*
X70198Y595432D01*
X75554Y590076D01*
G37*
G36*
X50154Y590076D02*
X57730Y590076D01*
X63086Y595432D01*
X63086Y603008D01*
X57730Y608364D01*
X50154Y608364D01*
X44798Y603008D01*
X44798Y595432D01*
X50154Y590076D01*
G37*
G36*
X29304Y589060D02*
X32750Y589060D01*
X38702Y595012D01*
X38702Y598458D01*
X29304Y598458D01*
X29304Y589060D01*
G37*
G36*
X24334Y589060D02*
X27780Y589060D01*
X27780Y598458D01*
X18382Y598458D01*
X18382Y595012D01*
X24334Y589060D01*
G37*
G36*
X120173Y571436D02*
X123779Y571436D01*
X127111Y572816D01*
X129661Y575366D01*
X131040Y578697D01*
X131040Y582303D01*
X129661Y585634D01*
X127111Y588184D01*
X123779Y589564D01*
X120173Y589564D01*
X116842Y588184D01*
X114292Y585634D01*
X112912Y582303D01*
X112912Y578697D01*
X114292Y575366D01*
X116842Y572816D01*
X120173Y571436D01*
G37*
G36*
X18382Y574582D02*
X27780Y574582D01*
X27780Y583980D01*
X24334Y583980D01*
X18382Y578028D01*
X18382Y574582D01*
G37*
G36*
X29304Y574582D02*
X38702Y574582D01*
X38702Y578028D01*
X32750Y583980D01*
X29304Y583980D01*
X29304Y574582D01*
G37*
G36*
X50154Y564676D02*
X57730Y564676D01*
X63086Y570032D01*
X63086Y577608D01*
X57730Y582964D01*
X50154Y582964D01*
X44798Y577608D01*
X44798Y570032D01*
X50154Y564676D01*
G37*
G36*
X75554Y564676D02*
X83130Y564676D01*
X88486Y570032D01*
X88486Y577608D01*
X83130Y582964D01*
X75554Y582964D01*
X70198Y577608D01*
X70198Y570032D01*
X75554Y564676D01*
G37*
G36*
X29304Y563660D02*
X32750Y563660D01*
X38702Y569612D01*
X38702Y573058D01*
X29304Y573058D01*
X29304Y563660D01*
G37*
G36*
X24334Y563660D02*
X27780Y563660D01*
X27780Y573058D01*
X18382Y573058D01*
X18382Y569612D01*
X24334Y563660D01*
G37*
G36*
X272573Y546036D02*
X276179Y546036D01*
X279511Y547416D01*
X282061Y549966D01*
X283440Y553297D01*
X283440Y556903D01*
X282061Y560234D01*
X279511Y562784D01*
X276179Y564164D01*
X272573Y564164D01*
X269242Y562784D01*
X266692Y560234D01*
X265312Y556903D01*
X265312Y553297D01*
X266692Y549966D01*
X269242Y547416D01*
X272573Y546036D01*
G37*
G36*
X120173Y546036D02*
X123779Y546036D01*
X127111Y547416D01*
X129661Y549966D01*
X131040Y553297D01*
X131040Y556903D01*
X129661Y560234D01*
X127111Y562784D01*
X123779Y564164D01*
X120173Y564164D01*
X116842Y562784D01*
X114292Y560234D01*
X112912Y556903D01*
X112912Y553297D01*
X114292Y549966D01*
X116842Y547416D01*
X120173Y546036D01*
G37*
G36*
X18382Y549182D02*
X27780Y549182D01*
X27780Y558580D01*
X24334Y558580D01*
X18382Y552628D01*
X18382Y549182D01*
G37*
G36*
X29304Y549182D02*
X38702Y549182D01*
X38702Y552628D01*
X32750Y558580D01*
X29304Y558580D01*
X29304Y549182D01*
G37*
G36*
X50154Y539276D02*
X57730Y539276D01*
X63086Y544632D01*
X63086Y552208D01*
X57730Y557564D01*
X50154Y557564D01*
X44798Y552208D01*
X44798Y544632D01*
X50154Y539276D01*
G37*
G36*
X75554Y539276D02*
X83130Y539276D01*
X88486Y544632D01*
X88486Y552208D01*
X83130Y557564D01*
X75554Y557564D01*
X70198Y552208D01*
X70198Y544632D01*
X75554Y539276D01*
G37*
G36*
X29304Y538260D02*
X32750Y538260D01*
X38702Y544212D01*
X38702Y547658D01*
X29304Y547658D01*
X29304Y538260D01*
G37*
G36*
X24334Y538260D02*
X27780Y538260D01*
X27780Y547658D01*
X18382Y547658D01*
X18382Y544212D01*
X24334Y538260D01*
G37*
G36*
X120173Y520636D02*
X123779Y520636D01*
X127111Y522016D01*
X129661Y524566D01*
X131040Y527897D01*
X131040Y531503D01*
X129661Y534834D01*
X127111Y537384D01*
X123779Y538764D01*
X120173Y538764D01*
X116842Y537384D01*
X114292Y534834D01*
X112912Y531503D01*
X112912Y527897D01*
X114292Y524566D01*
X116842Y522016D01*
X120173Y520636D01*
G37*
G36*
X272573Y520636D02*
X276179Y520636D01*
X279511Y522016D01*
X282061Y524566D01*
X283440Y527897D01*
X283440Y531503D01*
X282061Y534834D01*
X279511Y537384D01*
X276179Y538764D01*
X272573Y538764D01*
X269242Y537384D01*
X266692Y534834D01*
X265312Y531503D01*
X265312Y527897D01*
X266692Y524566D01*
X269242Y522016D01*
X272573Y520636D01*
G37*
G36*
X18382Y523782D02*
X27780Y523782D01*
X27780Y533180D01*
X24334Y533180D01*
X18382Y527228D01*
X18382Y523782D01*
G37*
G36*
X29304Y523782D02*
X38702Y523782D01*
X38702Y527228D01*
X32750Y533180D01*
X29304Y533180D01*
X29304Y523782D01*
G37*
G36*
X50154Y513876D02*
X57730Y513876D01*
X63086Y519232D01*
X63086Y526808D01*
X57730Y532164D01*
X50154Y532164D01*
X44798Y526808D01*
X44798Y519232D01*
X50154Y513876D01*
G37*
G36*
X75554Y513876D02*
X83130Y513876D01*
X88486Y519232D01*
X88486Y526808D01*
X83130Y532164D01*
X75554Y532164D01*
X70198Y526808D01*
X70198Y519232D01*
X75554Y513876D01*
G37*
G36*
X24334Y512860D02*
X27780Y512860D01*
X27780Y522258D01*
X18382Y522258D01*
X18382Y518812D01*
X24334Y512860D01*
G37*
G36*
X29304Y512860D02*
X32750Y512860D01*
X38702Y518812D01*
X38702Y522258D01*
X29304Y522258D01*
X29304Y512860D01*
G37*
G36*
X120173Y495236D02*
X123779Y495236D01*
X127111Y496616D01*
X129661Y499166D01*
X131040Y502497D01*
X131040Y506103D01*
X129661Y509434D01*
X127111Y511984D01*
X123779Y513364D01*
X120173Y513364D01*
X116842Y511984D01*
X114292Y509434D01*
X112912Y506103D01*
X112912Y502497D01*
X114292Y499166D01*
X116842Y496616D01*
X120173Y495236D01*
G37*
G36*
X272573Y495236D02*
X276179Y495236D01*
X279511Y496616D01*
X282061Y499166D01*
X283440Y502497D01*
X283440Y506103D01*
X282061Y509434D01*
X279511Y511984D01*
X276179Y513364D01*
X272573Y513364D01*
X269242Y511984D01*
X266692Y509434D01*
X265312Y506103D01*
X265312Y502497D01*
X266692Y499166D01*
X269242Y496616D01*
X272573Y495236D01*
G37*
G36*
X29304Y498382D02*
X38702Y498382D01*
X38702Y501828D01*
X32750Y507780D01*
X29304Y507780D01*
X29304Y498382D01*
G37*
G36*
X18382Y498382D02*
X27780Y498382D01*
X27780Y507780D01*
X24334Y507780D01*
X18382Y501828D01*
X18382Y498382D01*
G37*
G36*
X50154Y488476D02*
X57730Y488476D01*
X63086Y493832D01*
X63086Y501408D01*
X57730Y506764D01*
X50154Y506764D01*
X44798Y501408D01*
X44798Y493832D01*
X50154Y488476D01*
G37*
G36*
X75554Y488476D02*
X83130Y488476D01*
X88486Y493832D01*
X88486Y501408D01*
X83130Y506764D01*
X75554Y506764D01*
X70198Y501408D01*
X70198Y493832D01*
X75554Y488476D01*
G37*
G36*
X24334Y487460D02*
X27780Y487460D01*
X27780Y496858D01*
X18382Y496858D01*
X18382Y493412D01*
X24334Y487460D01*
G37*
G36*
X29304Y487460D02*
X32750Y487460D01*
X38702Y493412D01*
X38702Y496858D01*
X29304Y496858D01*
X29304Y487460D01*
G37*
G36*
X120173Y469836D02*
X123779Y469836D01*
X127111Y471216D01*
X129661Y473766D01*
X131040Y477097D01*
X131040Y480703D01*
X129661Y484034D01*
X127111Y486584D01*
X123779Y487964D01*
X120173Y487964D01*
X116842Y486584D01*
X114292Y484034D01*
X112912Y480703D01*
X112912Y477097D01*
X114292Y473766D01*
X116842Y471216D01*
X120173Y469836D01*
G37*
G36*
X272573Y469836D02*
X276179Y469836D01*
X279511Y471216D01*
X282061Y473766D01*
X283440Y477097D01*
X283440Y480703D01*
X282061Y484034D01*
X279511Y486584D01*
X276179Y487964D01*
X272573Y487964D01*
X269242Y486584D01*
X266692Y484034D01*
X265312Y480703D01*
X265312Y477097D01*
X266692Y473766D01*
X269242Y471216D01*
X272573Y469836D01*
G37*
G36*
X18382Y472982D02*
X27780Y472982D01*
X27780Y482380D01*
X24334Y482380D01*
X18382Y476428D01*
X18382Y472982D01*
G37*
G36*
X29304Y472982D02*
X38702Y472982D01*
X38702Y476428D01*
X32750Y482380D01*
X29304Y482380D01*
X29304Y472982D01*
G37*
G36*
X75554Y463076D02*
X83130Y463076D01*
X88486Y468432D01*
X88486Y476008D01*
X83130Y481364D01*
X75554Y481364D01*
X70198Y476008D01*
X70198Y468432D01*
X75554Y463076D01*
G37*
G36*
X50154Y463076D02*
X57730Y463076D01*
X63086Y468432D01*
X63086Y476008D01*
X57730Y481364D01*
X50154Y481364D01*
X44798Y476008D01*
X44798Y468432D01*
X50154Y463076D01*
G37*
G36*
X29304Y462060D02*
X32750Y462060D01*
X38702Y468012D01*
X38702Y471458D01*
X29304Y471458D01*
X29304Y462060D01*
G37*
G36*
X24334Y462060D02*
X27780Y462060D01*
X27780Y471458D01*
X18382Y471458D01*
X18382Y468012D01*
X24334Y462060D01*
G37*
G36*
X120173Y444436D02*
X123779Y444436D01*
X127111Y445816D01*
X129661Y448366D01*
X131040Y451697D01*
X131040Y455303D01*
X129661Y458634D01*
X127111Y461184D01*
X123779Y462564D01*
X120173Y462564D01*
X116842Y461184D01*
X114292Y458634D01*
X112912Y455303D01*
X112912Y451697D01*
X114292Y448366D01*
X116842Y445816D01*
X120173Y444436D01*
G37*
G36*
X272573Y444436D02*
X276179Y444436D01*
X279511Y445816D01*
X282061Y448366D01*
X283440Y451697D01*
X283440Y455303D01*
X282061Y458634D01*
X279511Y461184D01*
X276179Y462564D01*
X272573Y462564D01*
X269242Y461184D01*
X266692Y458634D01*
X265312Y455303D01*
X265312Y451697D01*
X266692Y448366D01*
X269242Y445816D01*
X272573Y444436D01*
G37*
G36*
X18382Y447582D02*
X27780Y447582D01*
X27780Y456980D01*
X24334Y456980D01*
X18382Y451028D01*
X18382Y447582D01*
G37*
G36*
X29304Y447582D02*
X38702Y447582D01*
X38702Y451028D01*
X32750Y456980D01*
X29304Y456980D01*
X29304Y447582D01*
G37*
G36*
X50154Y437676D02*
X57730Y437676D01*
X63086Y443032D01*
X63086Y450608D01*
X57730Y455964D01*
X50154Y455964D01*
X44798Y450608D01*
X44798Y443032D01*
X50154Y437676D01*
G37*
G36*
X75554Y437676D02*
X83130Y437676D01*
X88486Y443032D01*
X88486Y450608D01*
X83130Y455964D01*
X75554Y455964D01*
X70198Y450608D01*
X70198Y443032D01*
X75554Y437676D01*
G37*
G36*
X29304Y436660D02*
X32750Y436660D01*
X38702Y442612D01*
X38702Y446058D01*
X29304Y446058D01*
X29304Y436660D01*
G37*
G36*
X24334Y436660D02*
X27780Y436660D01*
X27780Y446058D01*
X18382Y446058D01*
X18382Y442612D01*
X24334Y436660D01*
G37*
G36*
X118132Y395636D02*
X125708Y395636D01*
X131064Y400992D01*
X131064Y408568D01*
X125708Y413924D01*
X118132Y413924D01*
X112776Y408568D01*
X112776Y400992D01*
X118132Y395636D01*
G37*
G36*
X143532Y395636D02*
X151108Y395636D01*
X156464Y400992D01*
X156464Y408568D01*
X151108Y413924D01*
X143532Y413924D01*
X138176Y408568D01*
X138176Y400992D01*
X143532Y395636D01*
G37*
G36*
X168932Y395636D02*
X176508Y395636D01*
X181864Y400992D01*
X181864Y408568D01*
X176508Y413924D01*
X168932Y413924D01*
X163576Y408568D01*
X163576Y400992D01*
X168932Y395636D01*
G37*
G36*
X194332Y395636D02*
X201908Y395636D01*
X207264Y400992D01*
X207264Y408568D01*
X201908Y413924D01*
X194332Y413924D01*
X188976Y408568D01*
X188976Y400992D01*
X194332Y395636D01*
G37*
G36*
X270532Y395636D02*
X278108Y395636D01*
X283464Y400992D01*
X283464Y408568D01*
X278108Y413924D01*
X270532Y413924D01*
X265176Y408568D01*
X265176Y400992D01*
X270532Y395636D01*
G37*
G36*
X245132Y395636D02*
X252708Y395636D01*
X258064Y400992D01*
X258064Y408568D01*
X252708Y413924D01*
X245132Y413924D01*
X239776Y408568D01*
X239776Y400992D01*
X245132Y395636D01*
G37*
G36*
X219732Y395636D02*
X227308Y395636D01*
X232664Y400992D01*
X232664Y408568D01*
X227308Y413924D01*
X219732Y413924D01*
X214376Y408568D01*
X214376Y400992D01*
X219732Y395636D01*
G37*
G36*
X56722Y347382D02*
X66120Y347382D01*
X66120Y350828D01*
X60168Y356780D01*
X56722Y356780D01*
X56722Y347382D01*
G37*
G36*
X45800Y347382D02*
X55198Y347382D01*
X55198Y356780D01*
X51752Y356780D01*
X45800Y350828D01*
X45800Y347382D01*
G37*
G36*
X26772Y337476D02*
X34348Y337476D01*
X39704Y342832D01*
X39704Y350408D01*
X34348Y355764D01*
X26772Y355764D01*
X21416Y350408D01*
X21416Y342832D01*
X26772Y337476D01*
G37*
G36*
X51752Y336460D02*
X55198Y336460D01*
X55198Y345858D01*
X45800Y345858D01*
X45800Y342412D01*
X51752Y336460D01*
G37*
G36*
X56722Y336460D02*
X60168Y336460D01*
X66120Y342412D01*
X66120Y345858D01*
X56722Y345858D01*
X56722Y336460D01*
G37*
G36*
X56722Y321982D02*
X66120Y321982D01*
X66120Y325428D01*
X60168Y331380D01*
X56722Y331380D01*
X56722Y321982D01*
G37*
G36*
X45800Y321982D02*
X55198Y321982D01*
X55198Y331380D01*
X51752Y331380D01*
X45800Y325428D01*
X45800Y321982D01*
G37*
G36*
X26772Y312076D02*
X34348Y312076D01*
X39704Y317432D01*
X39704Y325008D01*
X34348Y330364D01*
X26772Y330364D01*
X21416Y325008D01*
X21416Y317432D01*
X26772Y312076D01*
G37*
G36*
X56722Y311060D02*
X60168Y311060D01*
X66120Y317012D01*
X66120Y320458D01*
X56722Y320458D01*
X56722Y311060D01*
G37*
G36*
X51752Y311060D02*
X55198Y311060D01*
X55198Y320458D01*
X45800Y320458D01*
X45800Y317012D01*
X51752Y311060D01*
G37*
G36*
X56722Y275182D02*
X66120Y275182D01*
X66120Y278628D01*
X60168Y284580D01*
X56722Y284580D01*
X56722Y275182D01*
G37*
G36*
X45800Y275182D02*
X55198Y275182D01*
X55198Y284580D01*
X51752Y284580D01*
X45800Y278628D01*
X45800Y275182D01*
G37*
G36*
X26772Y265276D02*
X34348Y265276D01*
X39704Y270632D01*
X39704Y278208D01*
X34348Y283564D01*
X26772Y283564D01*
X21416Y278208D01*
X21416Y270632D01*
X26772Y265276D01*
G37*
G36*
X51752Y264260D02*
X55198Y264260D01*
X55198Y273658D01*
X45800Y273658D01*
X45800Y270212D01*
X51752Y264260D01*
G37*
G36*
X56722Y264260D02*
X60168Y264260D01*
X66120Y270212D01*
X66120Y273658D01*
X56722Y273658D01*
X56722Y264260D01*
G37*
G36*
X56722Y249782D02*
X66120Y249782D01*
X66120Y253228D01*
X60168Y259180D01*
X56722Y259180D01*
X56722Y249782D01*
G37*
G36*
X45800Y249782D02*
X55198Y249782D01*
X55198Y259180D01*
X51752Y259180D01*
X45800Y253228D01*
X45800Y249782D01*
G37*
G36*
X26772Y239876D02*
X34348Y239876D01*
X39704Y245232D01*
X39704Y252808D01*
X34348Y258164D01*
X26772Y258164D01*
X21416Y252808D01*
X21416Y245232D01*
X26772Y239876D01*
G37*
G36*
X119034Y210410D02*
X120546Y210410D01*
X120546Y251050D01*
X119034Y251050D01*
X114833Y249310D01*
X111618Y246095D01*
X110368Y243076D01*
X109895Y242337D01*
X109088Y241755D01*
X108118Y241534D01*
X107138Y241708D01*
X106305Y242251D01*
X105748Y243076D01*
X104737Y245519D01*
X101807Y248449D01*
X97980Y250034D01*
X93837Y250034D01*
X90009Y248449D01*
X87079Y245519D01*
X85494Y241692D01*
X85494Y219769D01*
X87079Y215941D01*
X90009Y213011D01*
X93837Y211426D01*
X97980Y211426D01*
X101807Y213011D01*
X104737Y215941D01*
X105748Y218384D01*
X106221Y219123D01*
X107028Y219705D01*
X107998Y219926D01*
X108978Y219752D01*
X109812Y219209D01*
X110368Y218384D01*
X111618Y215365D01*
X114833Y212150D01*
X119034Y210410D01*
G37*
G36*
X56722Y238860D02*
X60168Y238860D01*
X66120Y244812D01*
X66120Y248258D01*
X56722Y248258D01*
X56722Y238860D01*
G37*
G36*
X51752Y238860D02*
X55198Y238860D01*
X55198Y248258D01*
X45800Y248258D01*
X45800Y244812D01*
X51752Y238860D01*
G37*
G36*
X56722Y224382D02*
X66120Y224382D01*
X66120Y227828D01*
X60168Y233780D01*
X56722Y233780D01*
X56722Y224382D01*
G37*
G36*
X45800Y224382D02*
X55198Y224382D01*
X55198Y233780D01*
X51752Y233780D01*
X45800Y227828D01*
X45800Y224382D01*
G37*
G36*
X26772Y214476D02*
X34348Y214476D01*
X39704Y219832D01*
X39704Y227408D01*
X34348Y232764D01*
X26772Y232764D01*
X21416Y227408D01*
X21416Y219832D01*
X26772Y214476D01*
G37*
G36*
X51752Y213460D02*
X55198Y213460D01*
X55198Y222858D01*
X45800Y222858D01*
X45800Y219412D01*
X51752Y213460D01*
G37*
G36*
X56722Y213460D02*
X60168Y213460D01*
X66120Y219412D01*
X66120Y222858D01*
X56722Y222858D01*
X56722Y213460D01*
G37*
%LPD*%
D10*
X172108Y221840D02*
X172108Y239620D01*
X197508Y239620D02*
X197508Y221840D01*
X146708Y221840D02*
X146708Y239620D01*
X121308Y239620D02*
X121308Y221840D01*
X95908Y221840D02*
X95908Y239620D01*
X222908Y239620D02*
X222908Y221840D01*
X248308Y221840D02*
X248308Y239620D01*
X273708Y239620D02*
X273708Y221840D01*
D11*
X79342Y772380D03*
X79342Y746980D03*
X79342Y721580D03*
X79342Y696180D03*
X79342Y670780D03*
X79342Y645380D03*
X53942Y772380D03*
X53942Y746980D03*
X53942Y721580D03*
X53942Y696180D03*
X53942Y670780D03*
X53942Y645380D03*
X28542Y772380D03*
X28542Y746980D03*
X28542Y721580D03*
X28542Y696180D03*
X28542Y670780D03*
X28542Y645380D03*
X79342Y599220D03*
X79342Y573820D03*
X79342Y548420D03*
X79342Y523020D03*
X79342Y497620D03*
X79342Y472220D03*
X79342Y446820D03*
X53942Y599220D03*
X53942Y573820D03*
X53942Y548420D03*
X53942Y523020D03*
X53942Y497620D03*
X53942Y472220D03*
X53942Y446820D03*
X28542Y599220D03*
X28542Y573820D03*
X28542Y548420D03*
X28542Y523020D03*
X28542Y497620D03*
X28542Y472220D03*
X28542Y446820D03*
D12*
X121976Y605900D03*
X121976Y580500D03*
X121976Y555100D03*
X121976Y529700D03*
X121976Y504300D03*
X121976Y478900D03*
X121976Y453500D03*
X121976Y631300D03*
X121976Y656700D03*
X121976Y682100D03*
X121976Y707500D03*
X121976Y732900D03*
X121976Y758300D03*
X121976Y783700D03*
X274376Y631300D03*
X274376Y605900D03*
X274376Y580500D03*
X274376Y656700D03*
X274376Y555100D03*
X274376Y682100D03*
X274376Y529700D03*
X274376Y504300D03*
X274376Y478900D03*
X274376Y453500D03*
X274376Y707500D03*
X274376Y732900D03*
X274376Y758300D03*
X274376Y783700D03*
D13*
X274320Y404780D03*
X248920Y404780D03*
X223520Y404780D03*
X198120Y404780D03*
X172720Y404780D03*
X147320Y404780D03*
X121920Y404780D03*
D14*
X55960Y274420D03*
X30560Y223620D03*
D13*
X55960Y249020D03*
D14*
X30560Y249020D03*
X30560Y274420D03*
X55960Y321220D03*
X55960Y346620D03*
X30560Y321220D03*
X55960Y223620D03*
X30560Y346620D03*
D15*
X146708Y338292D02*
X146708Y230730D01*
X146708Y338292D02*
X91000Y394000D01*
X91000Y416000D01*
X180000Y470000D02*
X180000Y540000D01*
X245900Y605900D01*
X274376Y605900D01*
X180000Y470000D02*
X142524Y432524D01*
X107524Y432524D02*
X91000Y416000D01*
X107524Y432524D02*
X142524Y432524D01*
X172108Y322892D02*
X172108Y230730D01*
X172108Y322892D02*
X98000Y397000D01*
X98000Y413000D01*
X111000Y426000D01*
X146000Y426000D01*
X230500Y580500D02*
X274376Y580500D01*
X230500Y580500D02*
X186524Y536524D01*
X186524Y466524D02*
X146000Y426000D01*
X186524Y466524D02*
X186524Y536524D01*
M02*
