G04 EAGLE Gerber RS-274X export*
G75*
%MOMM*%
%FSLAX34Y34*%
%LPD*%
%INTop Copper*%
%IPPOS*%
%AMOC8*
5,1,8,0,0,1.08239X$1,22.5*%
G01*
G04 Define Apertures*
%ADD10C,1.778000*%
%ADD11P,1.64956X8X292.5*%
%ADD12C,1.508000*%
%ADD13P,1.64956X8X22.5*%
%ADD14P,1.64956X8X112.5*%
%ADD15C,0.500000*%
%ADD16C,1.500000*%
G36*
X245721Y161120D02*
X244746Y160922D01*
X55254Y160922D01*
X54074Y161218D01*
X53308Y161853D01*
X52850Y162737D01*
X52773Y163729D01*
X53089Y164672D01*
X55775Y169324D01*
X57660Y176358D01*
X57660Y183642D01*
X55775Y190676D01*
X52134Y196984D01*
X46984Y202134D01*
X40676Y205775D01*
X33642Y207660D01*
X26358Y207660D01*
X19324Y205775D01*
X14672Y203089D01*
X13502Y202756D01*
X12521Y202923D01*
X11683Y203459D01*
X11120Y204279D01*
X10922Y205254D01*
X10922Y804746D01*
X11218Y805926D01*
X11853Y806692D01*
X12737Y807150D01*
X13729Y807227D01*
X14672Y806911D01*
X19324Y804225D01*
X26358Y802340D01*
X33642Y802340D01*
X40676Y804225D01*
X46984Y807866D01*
X52134Y813016D01*
X55775Y819324D01*
X57660Y826358D01*
X57660Y833642D01*
X55775Y840676D01*
X53089Y845328D01*
X52756Y846498D01*
X52923Y847479D01*
X53459Y848317D01*
X54279Y848880D01*
X55254Y849078D01*
X244746Y849078D01*
X245926Y848782D01*
X246692Y848147D01*
X247150Y847263D01*
X247227Y846271D01*
X246911Y845328D01*
X244225Y840676D01*
X242340Y833642D01*
X242340Y826358D01*
X244225Y819324D01*
X247866Y813016D01*
X253016Y807866D01*
X259324Y804225D01*
X266358Y802340D01*
X273642Y802340D01*
X280676Y804225D01*
X285328Y806911D01*
X286498Y807244D01*
X287479Y807077D01*
X288317Y806541D01*
X288880Y805721D01*
X289078Y804746D01*
X289078Y787116D01*
X288931Y786271D01*
X288415Y785420D01*
X287608Y784838D01*
X286638Y784617D01*
X285658Y784791D01*
X284824Y785334D01*
X284268Y786159D01*
X282922Y789410D01*
X280086Y792245D01*
X276382Y793780D01*
X275138Y793780D01*
X275138Y773620D01*
X276382Y773620D01*
X280086Y775155D01*
X282922Y777990D01*
X284268Y781241D01*
X284728Y781965D01*
X285530Y782554D01*
X286498Y782783D01*
X287479Y782616D01*
X288317Y782080D01*
X288880Y781259D01*
X289078Y780284D01*
X289078Y242295D01*
X288931Y241450D01*
X288415Y240599D01*
X287608Y240017D01*
X286638Y239796D01*
X285658Y239970D01*
X284824Y240513D01*
X284268Y241338D01*
X282537Y245519D01*
X279607Y248449D01*
X275780Y250034D01*
X271637Y250034D01*
X267809Y248449D01*
X264879Y245519D01*
X263318Y241749D01*
X262845Y241009D01*
X262038Y240427D01*
X261068Y240206D01*
X260088Y240381D01*
X259254Y240924D01*
X258698Y241749D01*
X257137Y245519D01*
X254207Y248449D01*
X250380Y250034D01*
X246237Y250034D01*
X242409Y248449D01*
X239479Y245519D01*
X237918Y241749D01*
X237445Y241009D01*
X236638Y240427D01*
X235668Y240206D01*
X234688Y240381D01*
X233854Y240924D01*
X233298Y241749D01*
X231737Y245519D01*
X228807Y248449D01*
X224980Y250034D01*
X220837Y250034D01*
X217009Y248449D01*
X214079Y245519D01*
X212518Y241749D01*
X212045Y241009D01*
X211238Y240427D01*
X210268Y240206D01*
X209288Y240381D01*
X208454Y240924D01*
X207898Y241749D01*
X206337Y245519D01*
X203407Y248449D01*
X199580Y250034D01*
X195437Y250034D01*
X191609Y248449D01*
X188679Y245519D01*
X187118Y241749D01*
X186645Y241009D01*
X185838Y240427D01*
X184868Y240206D01*
X183888Y240381D01*
X183054Y240924D01*
X182498Y241749D01*
X180937Y245519D01*
X178007Y248449D01*
X174180Y250034D01*
X170037Y250034D01*
X166209Y248449D01*
X163279Y245519D01*
X161718Y241749D01*
X161245Y241009D01*
X160438Y240427D01*
X159468Y240206D01*
X158488Y240381D01*
X157654Y240924D01*
X157098Y241749D01*
X155537Y245519D01*
X152607Y248449D01*
X148780Y250034D01*
X144637Y250034D01*
X140809Y248449D01*
X137879Y245519D01*
X136318Y241749D01*
X135845Y241009D01*
X135038Y240427D01*
X134068Y240206D01*
X133088Y240381D01*
X132254Y240924D01*
X131698Y241749D01*
X130137Y245519D01*
X127207Y248449D01*
X123380Y250034D01*
X119237Y250034D01*
X115409Y248449D01*
X112479Y245519D01*
X111468Y243076D01*
X110995Y242337D01*
X110188Y241755D01*
X109218Y241534D01*
X108238Y241708D01*
X107404Y242251D01*
X106848Y243076D01*
X105598Y246095D01*
X102383Y249310D01*
X98182Y251050D01*
X96670Y251050D01*
X96670Y210410D01*
X98182Y210410D01*
X102383Y212150D01*
X105598Y215365D01*
X106848Y218384D01*
X107321Y219123D01*
X108128Y219705D01*
X109098Y219926D01*
X110078Y219752D01*
X110911Y219209D01*
X111468Y218384D01*
X112479Y215941D01*
X115409Y213011D01*
X119237Y211426D01*
X123380Y211426D01*
X127207Y213011D01*
X130137Y215941D01*
X131698Y219711D01*
X132171Y220451D01*
X132978Y221033D01*
X133948Y221254D01*
X134928Y221079D01*
X135762Y220536D01*
X136318Y219711D01*
X137879Y215941D01*
X140809Y213011D01*
X144637Y211426D01*
X148780Y211426D01*
X152607Y213011D01*
X155537Y215941D01*
X157098Y219711D01*
X157571Y220451D01*
X158378Y221033D01*
X159348Y221254D01*
X160328Y221079D01*
X161162Y220536D01*
X161718Y219711D01*
X163279Y215941D01*
X166209Y213011D01*
X170037Y211426D01*
X174180Y211426D01*
X178007Y213011D01*
X180937Y215941D01*
X182498Y219711D01*
X182971Y220451D01*
X183778Y221033D01*
X184748Y221254D01*
X185728Y221079D01*
X186562Y220536D01*
X187118Y219711D01*
X188679Y215941D01*
X191609Y213011D01*
X195437Y211426D01*
X199580Y211426D01*
X203407Y213011D01*
X206337Y215941D01*
X207898Y219711D01*
X208371Y220451D01*
X209178Y221033D01*
X210148Y221254D01*
X211128Y221079D01*
X211962Y220536D01*
X212518Y219711D01*
X214079Y215941D01*
X217009Y213011D01*
X220837Y211426D01*
X224980Y211426D01*
X228807Y213011D01*
X231737Y215941D01*
X233298Y219711D01*
X233771Y220451D01*
X234578Y221033D01*
X235548Y221254D01*
X236528Y221079D01*
X237362Y220536D01*
X237918Y219711D01*
X239479Y215941D01*
X242409Y213011D01*
X246237Y211426D01*
X250380Y211426D01*
X254207Y213011D01*
X257137Y215941D01*
X258698Y219711D01*
X259171Y220451D01*
X259978Y221033D01*
X260948Y221254D01*
X261928Y221079D01*
X262762Y220536D01*
X263318Y219711D01*
X264879Y215941D01*
X267809Y213011D01*
X269117Y212470D01*
X269841Y212010D01*
X270430Y211208D01*
X270659Y210240D01*
X270492Y209259D01*
X269956Y208421D01*
X269135Y207858D01*
X268160Y207660D01*
X266358Y207660D01*
X259324Y205775D01*
X253016Y202134D01*
X247866Y196984D01*
X244225Y190676D01*
X242340Y183642D01*
X242340Y176358D01*
X244225Y169324D01*
X246911Y164672D01*
X247244Y163502D01*
X247077Y162521D01*
X246541Y161683D01*
X245721Y161120D01*
G37*
%LPC*%
G36*
X264296Y784462D02*
X273614Y784462D01*
X273614Y793780D01*
X272371Y793780D01*
X268667Y792245D01*
X265831Y789410D01*
X264296Y785705D01*
X264296Y784462D01*
G37*
G36*
X120173Y774636D02*
X123779Y774636D01*
X127111Y776016D01*
X129661Y778566D01*
X131040Y781897D01*
X131040Y785503D01*
X129661Y788834D01*
X127111Y791384D01*
X123779Y792764D01*
X120173Y792764D01*
X116842Y791384D01*
X114292Y788834D01*
X112912Y785503D01*
X112912Y781897D01*
X114292Y778566D01*
X116842Y776016D01*
X120173Y774636D01*
G37*
G36*
X272371Y773620D02*
X273614Y773620D01*
X273614Y782938D01*
X264296Y782938D01*
X264296Y781695D01*
X265831Y777990D01*
X268667Y775155D01*
X272371Y773620D01*
G37*
G36*
X43782Y773142D02*
X53180Y773142D01*
X53180Y782540D01*
X49734Y782540D01*
X43782Y776588D01*
X43782Y773142D01*
G37*
G36*
X54704Y773142D02*
X64102Y773142D01*
X64102Y776588D01*
X58150Y782540D01*
X54704Y782540D01*
X54704Y773142D01*
G37*
G36*
X120173Y749236D02*
X123779Y749236D01*
X127111Y750616D01*
X129661Y753166D01*
X131040Y756497D01*
X131040Y760103D01*
X129661Y763434D01*
X127111Y765984D01*
X123779Y767364D01*
X120173Y767364D01*
X116842Y765984D01*
X116615Y765757D01*
X116007Y765310D01*
X115051Y765033D01*
X114063Y765151D01*
X90202Y773031D01*
X89247Y773609D01*
X88684Y774430D01*
X88486Y775405D01*
X88486Y776168D01*
X83130Y781524D01*
X75554Y781524D01*
X70198Y776168D01*
X70198Y768592D01*
X75554Y763236D01*
X83130Y763236D01*
X84788Y764895D01*
X85396Y765342D01*
X86352Y765619D01*
X87340Y765501D01*
X111557Y757503D01*
X112527Y756911D01*
X113083Y756086D01*
X114292Y753166D01*
X116842Y750616D01*
X120173Y749236D01*
G37*
G36*
X24754Y763236D02*
X32330Y763236D01*
X37686Y768592D01*
X37686Y776168D01*
X32330Y781524D01*
X24754Y781524D01*
X19398Y776168D01*
X19398Y768592D01*
X24754Y763236D01*
G37*
G36*
X49734Y762220D02*
X53180Y762220D01*
X53180Y771618D01*
X43782Y771618D01*
X43782Y768172D01*
X49734Y762220D01*
G37*
G36*
X54704Y762220D02*
X58150Y762220D01*
X64102Y768172D01*
X64102Y771618D01*
X54704Y771618D01*
X54704Y762220D01*
G37*
G36*
X272573Y749236D02*
X276179Y749236D01*
X279511Y750616D01*
X282061Y753166D01*
X283440Y756497D01*
X283440Y760103D01*
X282061Y763434D01*
X279511Y765984D01*
X276179Y767364D01*
X272573Y767364D01*
X269242Y765984D01*
X266692Y763434D01*
X265312Y760103D01*
X265312Y756497D01*
X266692Y753166D01*
X269242Y750616D01*
X272573Y749236D01*
G37*
G36*
X54704Y747742D02*
X64102Y747742D01*
X64102Y751188D01*
X58150Y757140D01*
X54704Y757140D01*
X54704Y747742D01*
G37*
G36*
X43782Y747742D02*
X53180Y747742D01*
X53180Y757140D01*
X49734Y757140D01*
X43782Y751188D01*
X43782Y747742D01*
G37*
G36*
X24754Y737836D02*
X32330Y737836D01*
X37686Y743192D01*
X37686Y750768D01*
X32330Y756124D01*
X24754Y756124D01*
X19398Y750768D01*
X19398Y743192D01*
X24754Y737836D01*
G37*
G36*
X120173Y723836D02*
X123779Y723836D01*
X127111Y725216D01*
X129661Y727766D01*
X131040Y731097D01*
X131040Y734703D01*
X129661Y738034D01*
X127111Y740584D01*
X123779Y741964D01*
X120173Y741964D01*
X116842Y740584D01*
X116615Y740357D01*
X116007Y739910D01*
X115051Y739633D01*
X114063Y739751D01*
X90202Y747631D01*
X89247Y748209D01*
X88684Y749030D01*
X88486Y750005D01*
X88486Y750768D01*
X83130Y756124D01*
X75554Y756124D01*
X70198Y750768D01*
X70198Y743192D01*
X75554Y737836D01*
X83130Y737836D01*
X84788Y739495D01*
X85396Y739942D01*
X86352Y740219D01*
X87340Y740101D01*
X111557Y732103D01*
X112527Y731511D01*
X113083Y730686D01*
X114292Y727766D01*
X116842Y725216D01*
X120173Y723836D01*
G37*
G36*
X49734Y736820D02*
X53180Y736820D01*
X53180Y746218D01*
X43782Y746218D01*
X43782Y742772D01*
X49734Y736820D01*
G37*
G36*
X54704Y736820D02*
X58150Y736820D01*
X64102Y742772D01*
X64102Y746218D01*
X54704Y746218D01*
X54704Y736820D01*
G37*
G36*
X26772Y312076D02*
X34348Y312076D01*
X39704Y317432D01*
X39704Y325572D01*
X39584Y326163D01*
X39584Y341677D01*
X39704Y342293D01*
X39704Y350628D01*
X39688Y350651D01*
X39467Y351621D01*
X39158Y364508D01*
X39458Y365756D01*
X40096Y366520D01*
X106231Y419428D01*
X106817Y419778D01*
X107792Y419976D01*
X128794Y419976D01*
X130064Y419630D01*
X130803Y418964D01*
X131225Y418063D01*
X131261Y417068D01*
X130907Y416139D01*
X130218Y415421D01*
X128384Y414151D01*
X127001Y413707D01*
X126023Y413889D01*
X125970Y413924D01*
X118132Y413924D01*
X112776Y408568D01*
X112776Y400992D01*
X118132Y395636D01*
X125708Y395636D01*
X131064Y400992D01*
X131064Y404908D01*
X131452Y406245D01*
X132141Y406963D01*
X134253Y408426D01*
X135596Y408869D01*
X136577Y408702D01*
X137415Y408166D01*
X137978Y407345D01*
X138176Y406370D01*
X138176Y400992D01*
X143532Y395636D01*
X151108Y395636D01*
X156464Y400992D01*
X156464Y406788D01*
X156676Y407795D01*
X157249Y408608D01*
X159361Y410598D01*
X160028Y411049D01*
X160996Y411277D01*
X161977Y411111D01*
X162815Y410574D01*
X163378Y409754D01*
X163576Y408779D01*
X163576Y400992D01*
X168932Y395636D01*
X176508Y395636D01*
X181864Y400992D01*
X181864Y408942D01*
X181625Y409385D01*
X181620Y410380D01*
X182003Y411298D01*
X197514Y434166D01*
X198284Y434899D01*
X199221Y435236D01*
X200214Y435181D01*
X201108Y434743D01*
X201759Y433992D01*
X202067Y433045D01*
X201980Y432054D01*
X197154Y415716D01*
X196552Y414685D01*
X195732Y414122D01*
X194757Y413924D01*
X194332Y413924D01*
X188976Y408568D01*
X188976Y400992D01*
X194332Y395636D01*
X201908Y395636D01*
X207264Y400992D01*
X207264Y408568D01*
X205359Y410473D01*
X204950Y411011D01*
X204642Y411958D01*
X204729Y412949D01*
X211820Y436955D01*
X212227Y437760D01*
X212975Y438416D01*
X213920Y438729D01*
X214912Y438648D01*
X215793Y438187D01*
X216425Y437419D01*
X216708Y436465D01*
X218663Y414118D01*
X218490Y412962D01*
X217941Y412132D01*
X214376Y408568D01*
X214376Y400992D01*
X219732Y395636D01*
X227308Y395636D01*
X232664Y400992D01*
X232664Y408568D01*
X227350Y413882D01*
X226909Y414477D01*
X226627Y415431D01*
X224918Y434965D01*
X225018Y435917D01*
X225494Y436791D01*
X226272Y437411D01*
X227231Y437677D01*
X228218Y437549D01*
X229076Y437046D01*
X229670Y436248D01*
X241011Y412140D01*
X241248Y411116D01*
X241066Y410137D01*
X240516Y409308D01*
X239776Y408568D01*
X239776Y400992D01*
X245132Y395636D01*
X252708Y395636D01*
X258064Y400992D01*
X258064Y408568D01*
X252708Y413924D01*
X250652Y413924D01*
X249843Y414059D01*
X248984Y414562D01*
X248390Y415360D01*
X242056Y428824D01*
X241820Y429966D01*
X242048Y430935D01*
X242636Y431737D01*
X243490Y432247D01*
X244476Y432383D01*
X245437Y432124D01*
X246220Y431511D01*
X264578Y409998D01*
X264978Y409350D01*
X265176Y408375D01*
X265176Y400992D01*
X270532Y395636D01*
X278108Y395636D01*
X283464Y400992D01*
X283464Y408568D01*
X278108Y413924D01*
X272960Y413924D01*
X271842Y414188D01*
X271059Y414801D01*
X244622Y445782D01*
X244222Y446430D01*
X244024Y447405D01*
X244024Y467221D01*
X244207Y468160D01*
X244756Y468989D01*
X262678Y486910D01*
X263379Y487404D01*
X264346Y487641D01*
X265328Y487482D01*
X266170Y486952D01*
X266740Y486136D01*
X266945Y485163D01*
X266755Y484186D01*
X265312Y480703D01*
X265312Y477097D01*
X266692Y473766D01*
X269242Y471216D01*
X272573Y469836D01*
X276179Y469836D01*
X279511Y471216D01*
X282061Y473766D01*
X283440Y477097D01*
X283440Y480703D01*
X282061Y484034D01*
X279511Y486584D01*
X276179Y487964D01*
X272573Y487964D01*
X269090Y486521D01*
X268253Y486334D01*
X267270Y486485D01*
X266423Y487008D01*
X265848Y487819D01*
X265634Y488791D01*
X265817Y489769D01*
X266366Y490599D01*
X270282Y494515D01*
X271057Y495041D01*
X272030Y495247D01*
X272086Y495236D01*
X276179Y495236D01*
X279511Y496616D01*
X282061Y499166D01*
X283440Y502497D01*
X283440Y506103D01*
X282061Y509434D01*
X279511Y511984D01*
X276179Y513364D01*
X272573Y513364D01*
X269090Y511921D01*
X268253Y511734D01*
X267270Y511885D01*
X266423Y512408D01*
X265848Y513219D01*
X265634Y514191D01*
X265817Y515169D01*
X266366Y515999D01*
X270282Y519915D01*
X271057Y520441D01*
X272030Y520647D01*
X272086Y520636D01*
X276179Y520636D01*
X279511Y522016D01*
X282061Y524566D01*
X283440Y527897D01*
X283440Y531503D01*
X282061Y534834D01*
X279511Y537384D01*
X276179Y538764D01*
X272573Y538764D01*
X269090Y537321D01*
X268253Y537134D01*
X267270Y537285D01*
X266423Y537808D01*
X265848Y538619D01*
X265634Y539591D01*
X265817Y540569D01*
X266366Y541399D01*
X270282Y545315D01*
X271057Y545841D01*
X272030Y546047D01*
X272086Y546036D01*
X276179Y546036D01*
X279511Y547416D01*
X282061Y549966D01*
X283440Y553297D01*
X283440Y556903D01*
X282061Y560234D01*
X279511Y562784D01*
X276179Y564164D01*
X272573Y564164D01*
X269242Y562784D01*
X266692Y560234D01*
X265312Y556903D01*
X265312Y552865D01*
X265323Y552813D01*
X265141Y551835D01*
X264591Y551006D01*
X218292Y504706D01*
X217572Y504204D01*
X216604Y503975D01*
X215623Y504142D01*
X214785Y504678D01*
X214222Y505499D01*
X214024Y506474D01*
X214024Y564221D01*
X214207Y565160D01*
X214756Y565989D01*
X262678Y613910D01*
X263379Y614404D01*
X264346Y614641D01*
X265328Y614482D01*
X266170Y613952D01*
X266740Y613136D01*
X266945Y612163D01*
X266755Y611186D01*
X265312Y607703D01*
X265312Y604097D01*
X266692Y600766D01*
X269242Y598216D01*
X272573Y596836D01*
X276179Y596836D01*
X279511Y598216D01*
X282061Y600766D01*
X283440Y604097D01*
X283440Y607703D01*
X282061Y611034D01*
X279511Y613584D01*
X276179Y614964D01*
X272573Y614964D01*
X269090Y613521D01*
X268253Y613334D01*
X267270Y613485D01*
X266423Y614008D01*
X265848Y614819D01*
X265634Y615791D01*
X265817Y616769D01*
X266366Y617599D01*
X270282Y621515D01*
X271057Y622041D01*
X272030Y622247D01*
X272086Y622236D01*
X276179Y622236D01*
X279511Y623616D01*
X282061Y626166D01*
X283440Y629497D01*
X283440Y633103D01*
X282061Y636434D01*
X279511Y638984D01*
X276179Y640364D01*
X272573Y640364D01*
X269090Y638921D01*
X268253Y638734D01*
X267270Y638885D01*
X266423Y639408D01*
X265848Y640219D01*
X265634Y641191D01*
X265817Y642169D01*
X266366Y642999D01*
X270282Y646915D01*
X271057Y647441D01*
X272030Y647647D01*
X272086Y647636D01*
X276179Y647636D01*
X279511Y649016D01*
X282061Y651566D01*
X283440Y654897D01*
X283440Y658503D01*
X282061Y661834D01*
X279511Y664384D01*
X276179Y665764D01*
X272573Y665764D01*
X269090Y664321D01*
X268253Y664134D01*
X267270Y664285D01*
X266423Y664808D01*
X265848Y665619D01*
X265634Y666591D01*
X265817Y667569D01*
X266366Y668399D01*
X270282Y672315D01*
X271057Y672841D01*
X272030Y673047D01*
X272086Y673036D01*
X276179Y673036D01*
X279511Y674416D01*
X282061Y676966D01*
X283440Y680297D01*
X283440Y683903D01*
X282061Y687234D01*
X279511Y689784D01*
X276179Y691164D01*
X272573Y691164D01*
X269090Y689721D01*
X268253Y689534D01*
X267270Y689685D01*
X266423Y690208D01*
X265848Y691019D01*
X265634Y691991D01*
X265817Y692969D01*
X266366Y693799D01*
X270282Y697715D01*
X271057Y698241D01*
X272030Y698447D01*
X272086Y698436D01*
X276179Y698436D01*
X279511Y699816D01*
X282061Y702366D01*
X283440Y705697D01*
X283440Y709303D01*
X282061Y712634D01*
X279511Y715184D01*
X276179Y716564D01*
X272573Y716564D01*
X269242Y715184D01*
X266692Y712634D01*
X265312Y709303D01*
X265312Y705265D01*
X265323Y705213D01*
X265141Y704235D01*
X264591Y703406D01*
X178292Y617106D01*
X177572Y616604D01*
X176604Y616375D01*
X175623Y616542D01*
X174785Y617078D01*
X174222Y617899D01*
X174024Y618874D01*
X174024Y645227D01*
X174207Y646165D01*
X174756Y646994D01*
X250906Y723144D01*
X251698Y723678D01*
X252673Y723876D01*
X271980Y723876D01*
X272181Y723836D01*
X276179Y723836D01*
X279511Y725216D01*
X282061Y727766D01*
X283440Y731097D01*
X283440Y734703D01*
X282061Y738034D01*
X279511Y740584D01*
X276179Y741964D01*
X272181Y741964D01*
X271980Y741924D01*
X246105Y741924D01*
X242788Y740550D01*
X157350Y655112D01*
X155976Y651795D01*
X155976Y468773D01*
X155793Y467835D01*
X155244Y467006D01*
X133638Y445400D01*
X132936Y444906D01*
X131970Y444670D01*
X130988Y444829D01*
X130145Y445358D01*
X129576Y446174D01*
X129370Y447148D01*
X129561Y448124D01*
X131040Y451697D01*
X131040Y455303D01*
X129661Y458634D01*
X127111Y461184D01*
X123779Y462564D01*
X120173Y462564D01*
X116842Y461184D01*
X114292Y458634D01*
X113826Y457508D01*
X113559Y457024D01*
X112836Y456341D01*
X111903Y455995D01*
X88256Y452290D01*
X86931Y452442D01*
X86102Y452992D01*
X83130Y455964D01*
X75554Y455964D01*
X70198Y450608D01*
X70198Y443032D01*
X75554Y437676D01*
X83130Y437676D01*
X89218Y443765D01*
X89230Y443753D01*
X89666Y444164D01*
X90599Y444511D01*
X113160Y448046D01*
X114485Y447893D01*
X115315Y447343D01*
X116842Y445816D01*
X120173Y444436D01*
X123779Y444436D01*
X127352Y445916D01*
X128189Y446103D01*
X129173Y445952D01*
X130019Y445429D01*
X130595Y444618D01*
X130808Y443646D01*
X130626Y442668D01*
X130077Y441838D01*
X126994Y438756D01*
X126202Y438222D01*
X125227Y438024D01*
X104388Y438024D01*
X104112Y438039D01*
X102963Y438167D01*
X102810Y438123D01*
X102114Y438024D01*
X101955Y438024D01*
X100886Y437581D01*
X100625Y437490D01*
X99514Y437168D01*
X99390Y437069D01*
X98785Y436711D01*
X98638Y436650D01*
X97820Y435832D01*
X97614Y435648D01*
X25531Y377981D01*
X24981Y377647D01*
X24707Y377526D01*
X24004Y376789D01*
X23756Y376561D01*
X22961Y375925D01*
X22817Y375663D01*
X22436Y375144D01*
X22230Y374927D01*
X21863Y373977D01*
X21721Y373672D01*
X21229Y372781D01*
X21196Y372483D01*
X21044Y371858D01*
X20936Y371578D01*
X20960Y370560D01*
X20945Y370224D01*
X20833Y369212D01*
X20916Y368925D01*
X21014Y368289D01*
X21416Y351504D01*
X21405Y351443D01*
X21416Y351443D01*
X21416Y342268D01*
X21536Y341677D01*
X21536Y326163D01*
X21416Y325547D01*
X21416Y317432D01*
X26772Y312076D01*
G37*
G36*
X43782Y722342D02*
X53180Y722342D01*
X53180Y731740D01*
X49734Y731740D01*
X43782Y725788D01*
X43782Y722342D01*
G37*
G36*
X54704Y722342D02*
X64102Y722342D01*
X64102Y725788D01*
X58150Y731740D01*
X54704Y731740D01*
X54704Y722342D01*
G37*
G36*
X24754Y712436D02*
X32330Y712436D01*
X37686Y717792D01*
X37686Y725368D01*
X32330Y730724D01*
X24754Y730724D01*
X19398Y725368D01*
X19398Y717792D01*
X24754Y712436D01*
G37*
G36*
X120173Y698436D02*
X123779Y698436D01*
X127111Y699816D01*
X129661Y702366D01*
X131040Y705697D01*
X131040Y709303D01*
X129661Y712634D01*
X127111Y715184D01*
X123779Y716564D01*
X120173Y716564D01*
X116842Y715184D01*
X116615Y714957D01*
X116007Y714510D01*
X115051Y714233D01*
X114063Y714351D01*
X90202Y722231D01*
X89247Y722809D01*
X88684Y723630D01*
X88486Y724605D01*
X88486Y725368D01*
X83130Y730724D01*
X75554Y730724D01*
X70198Y725368D01*
X70198Y717792D01*
X75554Y712436D01*
X83130Y712436D01*
X84788Y714095D01*
X85396Y714542D01*
X86352Y714819D01*
X87340Y714701D01*
X111557Y706703D01*
X112527Y706111D01*
X113083Y705286D01*
X114292Y702366D01*
X116842Y699816D01*
X120173Y698436D01*
G37*
G36*
X54704Y711420D02*
X58150Y711420D01*
X64102Y717372D01*
X64102Y720818D01*
X54704Y720818D01*
X54704Y711420D01*
G37*
G36*
X49734Y711420D02*
X53180Y711420D01*
X53180Y720818D01*
X43782Y720818D01*
X43782Y717372D01*
X49734Y711420D01*
G37*
G36*
X43782Y696942D02*
X53180Y696942D01*
X53180Y706340D01*
X49734Y706340D01*
X43782Y700388D01*
X43782Y696942D01*
G37*
G36*
X54704Y696942D02*
X64102Y696942D01*
X64102Y700388D01*
X58150Y706340D01*
X54704Y706340D01*
X54704Y696942D01*
G37*
G36*
X24754Y687036D02*
X32330Y687036D01*
X37686Y692392D01*
X37686Y699968D01*
X32330Y705324D01*
X24754Y705324D01*
X19398Y699968D01*
X19398Y692392D01*
X24754Y687036D01*
G37*
G36*
X120173Y673036D02*
X123779Y673036D01*
X127111Y674416D01*
X129661Y676966D01*
X131040Y680297D01*
X131040Y683903D01*
X129661Y687234D01*
X127111Y689784D01*
X123779Y691164D01*
X120173Y691164D01*
X116842Y689784D01*
X116615Y689557D01*
X116007Y689110D01*
X115051Y688833D01*
X114063Y688951D01*
X90202Y696831D01*
X89247Y697409D01*
X88684Y698230D01*
X88486Y699205D01*
X88486Y699968D01*
X83130Y705324D01*
X75554Y705324D01*
X70198Y699968D01*
X70198Y692392D01*
X75554Y687036D01*
X83130Y687036D01*
X84788Y688695D01*
X85396Y689142D01*
X86352Y689419D01*
X87340Y689301D01*
X111557Y681303D01*
X112527Y680711D01*
X113083Y679886D01*
X114292Y676966D01*
X116842Y674416D01*
X120173Y673036D01*
G37*
G36*
X54704Y686020D02*
X58150Y686020D01*
X64102Y691972D01*
X64102Y695418D01*
X54704Y695418D01*
X54704Y686020D01*
G37*
G36*
X49734Y686020D02*
X53180Y686020D01*
X53180Y695418D01*
X43782Y695418D01*
X43782Y691972D01*
X49734Y686020D01*
G37*
G36*
X43782Y671542D02*
X53180Y671542D01*
X53180Y680940D01*
X49734Y680940D01*
X43782Y674988D01*
X43782Y671542D01*
G37*
G36*
X54704Y671542D02*
X64102Y671542D01*
X64102Y674988D01*
X58150Y680940D01*
X54704Y680940D01*
X54704Y671542D01*
G37*
G36*
X24754Y661636D02*
X32330Y661636D01*
X37686Y666992D01*
X37686Y674568D01*
X32330Y679924D01*
X24754Y679924D01*
X19398Y674568D01*
X19398Y666992D01*
X24754Y661636D01*
G37*
G36*
X120173Y647636D02*
X123779Y647636D01*
X127111Y649016D01*
X129661Y651566D01*
X131040Y654897D01*
X131040Y658503D01*
X129661Y661834D01*
X127111Y664384D01*
X123779Y665764D01*
X120173Y665764D01*
X116842Y664384D01*
X116615Y664157D01*
X116007Y663710D01*
X115051Y663433D01*
X114063Y663551D01*
X90202Y671431D01*
X89247Y672009D01*
X88684Y672830D01*
X88486Y673805D01*
X88486Y674568D01*
X83130Y679924D01*
X75554Y679924D01*
X70198Y674568D01*
X70198Y666992D01*
X75554Y661636D01*
X83130Y661636D01*
X84788Y663295D01*
X85396Y663742D01*
X86352Y664019D01*
X87340Y663901D01*
X111557Y655903D01*
X112527Y655311D01*
X113083Y654486D01*
X114292Y651566D01*
X116842Y649016D01*
X120173Y647636D01*
G37*
G36*
X49734Y660620D02*
X53180Y660620D01*
X53180Y670018D01*
X43782Y670018D01*
X43782Y666572D01*
X49734Y660620D01*
G37*
G36*
X54704Y660620D02*
X58150Y660620D01*
X64102Y666572D01*
X64102Y670018D01*
X54704Y670018D01*
X54704Y660620D01*
G37*
G36*
X54704Y646142D02*
X64102Y646142D01*
X64102Y649588D01*
X58150Y655540D01*
X54704Y655540D01*
X54704Y646142D01*
G37*
G36*
X43782Y646142D02*
X53180Y646142D01*
X53180Y655540D01*
X49734Y655540D01*
X43782Y649588D01*
X43782Y646142D01*
G37*
G36*
X120173Y622236D02*
X123779Y622236D01*
X127111Y623616D01*
X129661Y626166D01*
X131040Y629497D01*
X131040Y633103D01*
X129661Y636434D01*
X127111Y638984D01*
X123779Y640364D01*
X120173Y640364D01*
X116842Y638984D01*
X116615Y638757D01*
X116007Y638310D01*
X115051Y638033D01*
X114063Y638151D01*
X90202Y646031D01*
X89247Y646609D01*
X88684Y647430D01*
X88486Y648405D01*
X88486Y649168D01*
X83130Y654524D01*
X75554Y654524D01*
X70198Y649168D01*
X70198Y641592D01*
X75554Y636236D01*
X83130Y636236D01*
X84788Y637895D01*
X85396Y638342D01*
X86352Y638619D01*
X87340Y638501D01*
X111557Y630503D01*
X112527Y629911D01*
X113083Y629086D01*
X114292Y626166D01*
X116842Y623616D01*
X120173Y622236D01*
G37*
G36*
X24754Y636236D02*
X32330Y636236D01*
X37686Y641592D01*
X37686Y649168D01*
X32330Y654524D01*
X24754Y654524D01*
X19398Y649168D01*
X19398Y641592D01*
X24754Y636236D01*
G37*
G36*
X49734Y635220D02*
X53180Y635220D01*
X53180Y644618D01*
X43782Y644618D01*
X43782Y641172D01*
X49734Y635220D01*
G37*
G36*
X54704Y635220D02*
X58150Y635220D01*
X64102Y641172D01*
X64102Y644618D01*
X54704Y644618D01*
X54704Y635220D01*
G37*
G36*
X75554Y590076D02*
X83130Y590076D01*
X89218Y596165D01*
X89230Y596153D01*
X89666Y596564D01*
X90599Y596911D01*
X113160Y600446D01*
X114485Y600293D01*
X115315Y599743D01*
X116842Y598216D01*
X120173Y596836D01*
X123779Y596836D01*
X127111Y598216D01*
X129661Y600766D01*
X131040Y604097D01*
X131040Y607703D01*
X129661Y611034D01*
X127111Y613584D01*
X123779Y614964D01*
X120173Y614964D01*
X116842Y613584D01*
X114292Y611034D01*
X113826Y609908D01*
X113559Y609424D01*
X112836Y608741D01*
X111903Y608395D01*
X88256Y604690D01*
X86931Y604842D01*
X86102Y605392D01*
X83130Y608364D01*
X75554Y608364D01*
X70198Y603008D01*
X70198Y595432D01*
X75554Y590076D01*
G37*
G36*
X54704Y599982D02*
X64102Y599982D01*
X64102Y603428D01*
X58150Y609380D01*
X54704Y609380D01*
X54704Y599982D01*
G37*
G36*
X43782Y599982D02*
X53180Y599982D01*
X53180Y609380D01*
X49734Y609380D01*
X43782Y603428D01*
X43782Y599982D01*
G37*
G36*
X24754Y590076D02*
X32330Y590076D01*
X37686Y595432D01*
X37686Y603008D01*
X32330Y608364D01*
X24754Y608364D01*
X19398Y603008D01*
X19398Y595432D01*
X24754Y590076D01*
G37*
G36*
X49734Y589060D02*
X53180Y589060D01*
X53180Y598458D01*
X43782Y598458D01*
X43782Y595012D01*
X49734Y589060D01*
G37*
G36*
X54704Y589060D02*
X58150Y589060D01*
X64102Y595012D01*
X64102Y598458D01*
X54704Y598458D01*
X54704Y589060D01*
G37*
G36*
X272573Y571436D02*
X276179Y571436D01*
X279511Y572816D01*
X282061Y575366D01*
X283440Y578697D01*
X283440Y582303D01*
X282061Y585634D01*
X279511Y588184D01*
X276179Y589564D01*
X272573Y589564D01*
X269242Y588184D01*
X266692Y585634D01*
X265312Y582303D01*
X265312Y578697D01*
X266692Y575366D01*
X269242Y572816D01*
X272573Y571436D01*
G37*
G36*
X75554Y564676D02*
X83130Y564676D01*
X89218Y570765D01*
X89230Y570753D01*
X89666Y571164D01*
X90599Y571511D01*
X113160Y575046D01*
X114485Y574893D01*
X115315Y574343D01*
X116842Y572816D01*
X120173Y571436D01*
X123779Y571436D01*
X127111Y572816D01*
X129661Y575366D01*
X131040Y578697D01*
X131040Y582303D01*
X129661Y585634D01*
X127111Y588184D01*
X123779Y589564D01*
X120173Y589564D01*
X116842Y588184D01*
X114292Y585634D01*
X113826Y584508D01*
X113559Y584024D01*
X112836Y583341D01*
X111903Y582995D01*
X88256Y579290D01*
X86931Y579442D01*
X86102Y579992D01*
X83130Y582964D01*
X75554Y582964D01*
X70198Y577608D01*
X70198Y570032D01*
X75554Y564676D01*
G37*
G36*
X43782Y574582D02*
X53180Y574582D01*
X53180Y583980D01*
X49734Y583980D01*
X43782Y578028D01*
X43782Y574582D01*
G37*
G36*
X54704Y574582D02*
X64102Y574582D01*
X64102Y578028D01*
X58150Y583980D01*
X54704Y583980D01*
X54704Y574582D01*
G37*
G36*
X24754Y564676D02*
X32330Y564676D01*
X37686Y570032D01*
X37686Y577608D01*
X32330Y582964D01*
X24754Y582964D01*
X19398Y577608D01*
X19398Y570032D01*
X24754Y564676D01*
G37*
G36*
X49734Y563660D02*
X53180Y563660D01*
X53180Y573058D01*
X43782Y573058D01*
X43782Y569612D01*
X49734Y563660D01*
G37*
G36*
X54704Y563660D02*
X58150Y563660D01*
X64102Y569612D01*
X64102Y573058D01*
X54704Y573058D01*
X54704Y563660D01*
G37*
G36*
X75554Y539276D02*
X83130Y539276D01*
X89218Y545365D01*
X89230Y545353D01*
X89666Y545764D01*
X90599Y546111D01*
X113160Y549646D01*
X114485Y549493D01*
X115315Y548943D01*
X116842Y547416D01*
X120173Y546036D01*
X123779Y546036D01*
X127111Y547416D01*
X129661Y549966D01*
X131040Y553297D01*
X131040Y556903D01*
X129661Y560234D01*
X127111Y562784D01*
X123779Y564164D01*
X120173Y564164D01*
X116842Y562784D01*
X114292Y560234D01*
X113826Y559108D01*
X113559Y558624D01*
X112836Y557941D01*
X111903Y557595D01*
X88256Y553890D01*
X86931Y554042D01*
X86102Y554592D01*
X83130Y557564D01*
X75554Y557564D01*
X70198Y552208D01*
X70198Y544632D01*
X75554Y539276D01*
G37*
G36*
X43782Y549182D02*
X53180Y549182D01*
X53180Y558580D01*
X49734Y558580D01*
X43782Y552628D01*
X43782Y549182D01*
G37*
G36*
X54704Y549182D02*
X64102Y549182D01*
X64102Y552628D01*
X58150Y558580D01*
X54704Y558580D01*
X54704Y549182D01*
G37*
G36*
X24754Y539276D02*
X32330Y539276D01*
X37686Y544632D01*
X37686Y552208D01*
X32330Y557564D01*
X24754Y557564D01*
X19398Y552208D01*
X19398Y544632D01*
X24754Y539276D01*
G37*
G36*
X54704Y538260D02*
X58150Y538260D01*
X64102Y544212D01*
X64102Y547658D01*
X54704Y547658D01*
X54704Y538260D01*
G37*
G36*
X49734Y538260D02*
X53180Y538260D01*
X53180Y547658D01*
X43782Y547658D01*
X43782Y544212D01*
X49734Y538260D01*
G37*
G36*
X75554Y513876D02*
X83130Y513876D01*
X89218Y519965D01*
X89230Y519953D01*
X89666Y520364D01*
X90599Y520711D01*
X113160Y524246D01*
X114485Y524093D01*
X115315Y523543D01*
X116842Y522016D01*
X120173Y520636D01*
X123779Y520636D01*
X127111Y522016D01*
X129661Y524566D01*
X131040Y527897D01*
X131040Y531503D01*
X129661Y534834D01*
X127111Y537384D01*
X123779Y538764D01*
X120173Y538764D01*
X116842Y537384D01*
X114292Y534834D01*
X113826Y533708D01*
X113559Y533224D01*
X112836Y532541D01*
X111903Y532195D01*
X88256Y528490D01*
X86931Y528642D01*
X86102Y529192D01*
X83130Y532164D01*
X75554Y532164D01*
X70198Y526808D01*
X70198Y519232D01*
X75554Y513876D01*
G37*
G36*
X54704Y523782D02*
X64102Y523782D01*
X64102Y527228D01*
X58150Y533180D01*
X54704Y533180D01*
X54704Y523782D01*
G37*
G36*
X43782Y523782D02*
X53180Y523782D01*
X53180Y533180D01*
X49734Y533180D01*
X43782Y527228D01*
X43782Y523782D01*
G37*
G36*
X24754Y513876D02*
X32330Y513876D01*
X37686Y519232D01*
X37686Y526808D01*
X32330Y532164D01*
X24754Y532164D01*
X19398Y526808D01*
X19398Y519232D01*
X24754Y513876D01*
G37*
G36*
X49734Y512860D02*
X53180Y512860D01*
X53180Y522258D01*
X43782Y522258D01*
X43782Y518812D01*
X49734Y512860D01*
G37*
G36*
X54704Y512860D02*
X58150Y512860D01*
X64102Y518812D01*
X64102Y522258D01*
X54704Y522258D01*
X54704Y512860D01*
G37*
G36*
X75554Y488476D02*
X83130Y488476D01*
X89218Y494565D01*
X89230Y494553D01*
X89666Y494964D01*
X90599Y495311D01*
X113160Y498846D01*
X114485Y498693D01*
X115315Y498143D01*
X116842Y496616D01*
X120173Y495236D01*
X123779Y495236D01*
X127111Y496616D01*
X129661Y499166D01*
X131040Y502497D01*
X131040Y506103D01*
X129661Y509434D01*
X127111Y511984D01*
X123779Y513364D01*
X120173Y513364D01*
X116842Y511984D01*
X114292Y509434D01*
X113826Y508308D01*
X113559Y507824D01*
X112836Y507141D01*
X111903Y506795D01*
X88256Y503090D01*
X86931Y503242D01*
X86102Y503792D01*
X83130Y506764D01*
X75554Y506764D01*
X70198Y501408D01*
X70198Y493832D01*
X75554Y488476D01*
G37*
G36*
X43782Y498382D02*
X53180Y498382D01*
X53180Y507780D01*
X49734Y507780D01*
X43782Y501828D01*
X43782Y498382D01*
G37*
G36*
X54704Y498382D02*
X64102Y498382D01*
X64102Y501828D01*
X58150Y507780D01*
X54704Y507780D01*
X54704Y498382D01*
G37*
G36*
X24754Y488476D02*
X32330Y488476D01*
X37686Y493832D01*
X37686Y501408D01*
X32330Y506764D01*
X24754Y506764D01*
X19398Y501408D01*
X19398Y493832D01*
X24754Y488476D01*
G37*
G36*
X54704Y487460D02*
X58150Y487460D01*
X64102Y493412D01*
X64102Y496858D01*
X54704Y496858D01*
X54704Y487460D01*
G37*
G36*
X49734Y487460D02*
X53180Y487460D01*
X53180Y496858D01*
X43782Y496858D01*
X43782Y493412D01*
X49734Y487460D01*
G37*
G36*
X75554Y463076D02*
X83130Y463076D01*
X89218Y469165D01*
X89230Y469153D01*
X89666Y469564D01*
X90599Y469911D01*
X113160Y473446D01*
X114485Y473293D01*
X115315Y472743D01*
X116842Y471216D01*
X120173Y469836D01*
X123779Y469836D01*
X127111Y471216D01*
X129661Y473766D01*
X131040Y477097D01*
X131040Y480703D01*
X129661Y484034D01*
X127111Y486584D01*
X123779Y487964D01*
X120173Y487964D01*
X116842Y486584D01*
X114292Y484034D01*
X113826Y482908D01*
X113559Y482424D01*
X112836Y481741D01*
X111903Y481395D01*
X88256Y477690D01*
X86931Y477842D01*
X86102Y478392D01*
X83130Y481364D01*
X75554Y481364D01*
X70198Y476008D01*
X70198Y468432D01*
X75554Y463076D01*
G37*
G36*
X54704Y472982D02*
X64102Y472982D01*
X64102Y476428D01*
X58150Y482380D01*
X54704Y482380D01*
X54704Y472982D01*
G37*
G36*
X43782Y472982D02*
X53180Y472982D01*
X53180Y482380D01*
X49734Y482380D01*
X43782Y476428D01*
X43782Y472982D01*
G37*
G36*
X24754Y463076D02*
X32330Y463076D01*
X37686Y468432D01*
X37686Y476008D01*
X32330Y481364D01*
X24754Y481364D01*
X19398Y476008D01*
X19398Y468432D01*
X24754Y463076D01*
G37*
G36*
X49734Y462060D02*
X53180Y462060D01*
X53180Y471458D01*
X43782Y471458D01*
X43782Y468012D01*
X49734Y462060D01*
G37*
G36*
X54704Y462060D02*
X58150Y462060D01*
X64102Y468012D01*
X64102Y471458D01*
X54704Y471458D01*
X54704Y462060D01*
G37*
G36*
X272573Y444436D02*
X276179Y444436D01*
X279511Y445816D01*
X282061Y448366D01*
X283440Y451697D01*
X283440Y455303D01*
X282061Y458634D01*
X279511Y461184D01*
X276179Y462564D01*
X272573Y462564D01*
X269242Y461184D01*
X266692Y458634D01*
X265312Y455303D01*
X265312Y451697D01*
X266692Y448366D01*
X269242Y445816D01*
X272573Y444436D01*
G37*
G36*
X54704Y447582D02*
X64102Y447582D01*
X64102Y451028D01*
X58150Y456980D01*
X54704Y456980D01*
X54704Y447582D01*
G37*
G36*
X43782Y447582D02*
X53180Y447582D01*
X53180Y456980D01*
X49734Y456980D01*
X43782Y451028D01*
X43782Y447582D01*
G37*
G36*
X24754Y437676D02*
X32330Y437676D01*
X37686Y443032D01*
X37686Y450608D01*
X32330Y455964D01*
X24754Y455964D01*
X19398Y450608D01*
X19398Y443032D01*
X24754Y437676D01*
G37*
G36*
X49734Y436660D02*
X53180Y436660D01*
X53180Y446058D01*
X43782Y446058D01*
X43782Y442612D01*
X49734Y436660D01*
G37*
G36*
X54704Y436660D02*
X58150Y436660D01*
X64102Y442612D01*
X64102Y446058D01*
X54704Y446058D01*
X54704Y436660D01*
G37*
G36*
X52172Y337476D02*
X59748Y337476D01*
X65104Y342832D01*
X65104Y350408D01*
X59748Y355764D01*
X52172Y355764D01*
X46816Y350408D01*
X46816Y342832D01*
X52172Y337476D01*
G37*
G36*
X52172Y312076D02*
X59748Y312076D01*
X65104Y317432D01*
X65104Y325008D01*
X59748Y330364D01*
X52172Y330364D01*
X46816Y325008D01*
X46816Y317432D01*
X52172Y312076D01*
G37*
G36*
X31322Y275182D02*
X40720Y275182D01*
X40720Y278628D01*
X34768Y284580D01*
X31322Y284580D01*
X31322Y275182D01*
G37*
G36*
X20400Y275182D02*
X29798Y275182D01*
X29798Y284580D01*
X26352Y284580D01*
X20400Y278628D01*
X20400Y275182D01*
G37*
G36*
X52172Y265276D02*
X59748Y265276D01*
X65104Y270632D01*
X65104Y278208D01*
X59748Y283564D01*
X52172Y283564D01*
X46816Y278208D01*
X46816Y270632D01*
X52172Y265276D01*
G37*
G36*
X26352Y264260D02*
X29798Y264260D01*
X29798Y273658D01*
X20400Y273658D01*
X20400Y270212D01*
X26352Y264260D01*
G37*
G36*
X31322Y264260D02*
X34768Y264260D01*
X40720Y270212D01*
X40720Y273658D01*
X31322Y273658D01*
X31322Y264260D01*
G37*
G36*
X31322Y249782D02*
X40720Y249782D01*
X40720Y253228D01*
X34768Y259180D01*
X31322Y259180D01*
X31322Y249782D01*
G37*
G36*
X20400Y249782D02*
X29798Y249782D01*
X29798Y259180D01*
X26352Y259180D01*
X20400Y253228D01*
X20400Y249782D01*
G37*
G36*
X52172Y239876D02*
X59748Y239876D01*
X65104Y245232D01*
X65104Y252808D01*
X59748Y258164D01*
X52172Y258164D01*
X46816Y252808D01*
X46816Y245232D01*
X52172Y239876D01*
G37*
G36*
X84478Y231492D02*
X95146Y231492D01*
X95146Y251050D01*
X93634Y251050D01*
X89433Y249310D01*
X86218Y246095D01*
X84478Y241894D01*
X84478Y231492D01*
G37*
G36*
X26352Y238860D02*
X29798Y238860D01*
X29798Y248258D01*
X20400Y248258D01*
X20400Y244812D01*
X26352Y238860D01*
G37*
G36*
X31322Y238860D02*
X34768Y238860D01*
X40720Y244812D01*
X40720Y248258D01*
X31322Y248258D01*
X31322Y238860D01*
G37*
G36*
X20400Y224382D02*
X29798Y224382D01*
X29798Y233780D01*
X26352Y233780D01*
X20400Y227828D01*
X20400Y224382D01*
G37*
G36*
X31322Y224382D02*
X40720Y224382D01*
X40720Y227828D01*
X34768Y233780D01*
X31322Y233780D01*
X31322Y224382D01*
G37*
G36*
X52172Y214476D02*
X59748Y214476D01*
X65104Y219832D01*
X65104Y227408D01*
X59748Y232764D01*
X52172Y232764D01*
X46816Y227408D01*
X46816Y219832D01*
X52172Y214476D01*
G37*
G36*
X93634Y210410D02*
X95146Y210410D01*
X95146Y229968D01*
X84478Y229968D01*
X84478Y219566D01*
X86218Y215365D01*
X89433Y212150D01*
X93634Y210410D01*
G37*
G36*
X31322Y213460D02*
X34768Y213460D01*
X40720Y219412D01*
X40720Y222858D01*
X31322Y222858D01*
X31322Y213460D01*
G37*
G36*
X26352Y213460D02*
X29798Y213460D01*
X29798Y222858D01*
X20400Y222858D01*
X20400Y219412D01*
X26352Y213460D01*
G37*
%LPD*%
D10*
X172108Y221840D02*
X172108Y239620D01*
X197508Y239620D02*
X197508Y221840D01*
X146708Y221840D02*
X146708Y239620D01*
X121308Y239620D02*
X121308Y221840D01*
X95908Y221840D02*
X95908Y239620D01*
X222908Y239620D02*
X222908Y221840D01*
X248308Y221840D02*
X248308Y239620D01*
X273708Y239620D02*
X273708Y221840D01*
D11*
X79342Y772380D03*
X79342Y746980D03*
X79342Y721580D03*
X79342Y696180D03*
X79342Y670780D03*
X79342Y645380D03*
X53942Y772380D03*
X53942Y746980D03*
X53942Y721580D03*
X53942Y696180D03*
X53942Y670780D03*
X53942Y645380D03*
X28542Y772380D03*
X28542Y746980D03*
X28542Y721580D03*
X28542Y696180D03*
X28542Y670780D03*
X28542Y645380D03*
X79342Y599220D03*
X79342Y573820D03*
X79342Y548420D03*
X79342Y523020D03*
X79342Y497620D03*
X79342Y472220D03*
X79342Y446820D03*
X53942Y599220D03*
X53942Y573820D03*
X53942Y548420D03*
X53942Y523020D03*
X53942Y497620D03*
X53942Y472220D03*
X53942Y446820D03*
X28542Y599220D03*
X28542Y573820D03*
X28542Y548420D03*
X28542Y523020D03*
X28542Y497620D03*
X28542Y472220D03*
X28542Y446820D03*
D12*
X121976Y605900D03*
X121976Y580500D03*
X121976Y555100D03*
X121976Y529700D03*
X121976Y504300D03*
X121976Y478900D03*
X121976Y453500D03*
X121976Y631300D03*
X121976Y656700D03*
X121976Y682100D03*
X121976Y707500D03*
X121976Y732900D03*
X121976Y758300D03*
X121976Y783700D03*
X274376Y631300D03*
X274376Y605900D03*
X274376Y580500D03*
X274376Y656700D03*
X274376Y555100D03*
X274376Y682100D03*
X274376Y529700D03*
X274376Y504300D03*
X274376Y478900D03*
X274376Y453500D03*
X274376Y707500D03*
X274376Y732900D03*
X274376Y758300D03*
X274376Y783700D03*
D13*
X274320Y404780D03*
X248920Y404780D03*
X223520Y404780D03*
X198120Y404780D03*
X172720Y404780D03*
X147320Y404780D03*
X121920Y404780D03*
D14*
X55960Y274420D03*
X30560Y223620D03*
D13*
X55960Y249020D03*
D14*
X30560Y249020D03*
X30560Y274420D03*
X55960Y321220D03*
X55960Y346620D03*
X30560Y321220D03*
X55960Y223620D03*
X30560Y346620D03*
D15*
X240000Y445000D02*
X274320Y404780D01*
X240000Y445000D02*
X240000Y469924D01*
X274376Y504300D01*
X230000Y445000D02*
X248920Y404780D01*
X230000Y445000D02*
X230000Y485324D01*
X274376Y529700D01*
X220000Y445000D02*
X223520Y404780D01*
X220000Y445000D02*
X220000Y500724D01*
X274376Y555100D01*
X210000Y445000D02*
X198120Y404780D01*
X210000Y445000D02*
X210000Y566924D01*
X274376Y631300D01*
X200000Y445000D02*
X172720Y404780D01*
X200000Y445000D02*
X200000Y582324D01*
X274376Y656700D01*
X190000Y445000D02*
X147320Y404780D01*
X190000Y445000D02*
X190000Y597724D01*
X274376Y682100D01*
D16*
X30000Y370000D02*
X30560Y346620D01*
X30000Y370000D02*
X103750Y429000D01*
X130000Y429000D01*
X165000Y464000D01*
X165000Y650000D01*
X247900Y732900D01*
X274376Y732900D01*
X30560Y346620D02*
X30560Y321220D01*
D15*
X121920Y404780D02*
X180000Y445000D01*
X180000Y613124D01*
X274376Y707500D01*
X121976Y758300D02*
X79342Y772380D01*
X79342Y746980D02*
X121976Y732900D01*
X121976Y707500D02*
X79342Y721580D01*
X79342Y696180D02*
X121976Y682100D01*
X121976Y656700D02*
X79342Y670780D01*
X79342Y645380D02*
X121976Y631300D01*
X121976Y605900D02*
X79342Y599220D01*
X79342Y573820D02*
X121976Y580500D01*
X121976Y555100D02*
X79342Y548420D01*
X79342Y523020D02*
X121976Y529700D01*
X121976Y504300D02*
X79342Y497620D01*
X79342Y472220D02*
X121976Y478900D01*
X121976Y453500D02*
X79342Y446820D01*
M02*
