G04 EAGLE Gerber RS-274X export*
G75*
%MOMM*%
%FSLAX34Y34*%
%LPD*%
%INSilkscreen Top*%
%IPPOS*%
%AMOC8*
5,1,8,0,0,1.08239X$1,22.5*%
G01*
G04 Define Apertures*
%ADD10C,0.127000*%
%ADD11C,0.152400*%
G36*
X164148Y171292D02*
X163695Y171303D01*
X163265Y171338D01*
X162859Y171395D01*
X162477Y171475D01*
X162118Y171577D01*
X161783Y171703D01*
X161471Y171851D01*
X161183Y172023D01*
X160920Y172215D01*
X160681Y172426D01*
X160466Y172657D01*
X160277Y172907D01*
X160112Y173176D01*
X159971Y173465D01*
X159855Y173772D01*
X159764Y174099D01*
X161667Y174372D01*
X161721Y174181D01*
X161790Y174001D01*
X161873Y173832D01*
X161971Y173674D01*
X162082Y173528D01*
X162208Y173394D01*
X162348Y173270D01*
X162503Y173158D01*
X162671Y173058D01*
X162851Y172972D01*
X163045Y172899D01*
X163251Y172839D01*
X163469Y172792D01*
X163700Y172759D01*
X163944Y172739D01*
X164201Y172732D01*
X164543Y172745D01*
X164561Y172747D01*
X164864Y172784D01*
X165162Y172849D01*
X165438Y172939D01*
X165692Y173056D01*
X165924Y173198D01*
X166134Y173366D01*
X166322Y173560D01*
X166487Y173780D01*
X166631Y174026D01*
X166753Y174297D01*
X166852Y174595D01*
X166929Y174918D01*
X166985Y175268D01*
X167018Y175643D01*
X167029Y176044D01*
X167029Y177873D01*
X167008Y177873D01*
X166867Y177608D01*
X166715Y177360D01*
X166549Y177129D01*
X166372Y176915D01*
X166181Y176718D01*
X165979Y176538D01*
X165764Y176374D01*
X165551Y176238D01*
X165536Y176228D01*
X165297Y176098D01*
X165048Y175986D01*
X164790Y175891D01*
X164521Y175814D01*
X164243Y175754D01*
X163955Y175710D01*
X163657Y175685D01*
X163349Y175676D01*
X162843Y175698D01*
X162372Y175763D01*
X161936Y175871D01*
X161534Y176023D01*
X161167Y176218D01*
X160835Y176457D01*
X160537Y176738D01*
X160274Y177064D01*
X160044Y177435D01*
X159844Y177857D01*
X159675Y178328D01*
X159537Y178848D01*
X159429Y179418D01*
X159352Y180038D01*
X159306Y180708D01*
X159291Y181427D01*
X159307Y182156D01*
X159357Y182836D01*
X159440Y183467D01*
X159555Y184048D01*
X159704Y184580D01*
X159885Y185063D01*
X160100Y185496D01*
X160348Y185879D01*
X160629Y186215D01*
X160945Y186507D01*
X161295Y186754D01*
X161679Y186955D01*
X162097Y187112D01*
X162550Y187224D01*
X163038Y187292D01*
X163559Y187314D01*
X163857Y187305D01*
X164144Y187280D01*
X164421Y187237D01*
X164688Y187176D01*
X164945Y187099D01*
X165193Y187004D01*
X165430Y186892D01*
X165657Y186762D01*
X165873Y186617D01*
X166076Y186457D01*
X166266Y186282D01*
X166444Y186093D01*
X166609Y185889D01*
X166762Y185671D01*
X166902Y185438D01*
X167029Y185190D01*
X167050Y185190D01*
X167092Y186284D01*
X167134Y186886D01*
X167155Y187055D01*
X167176Y187135D01*
X168974Y187135D01*
X168946Y186775D01*
X168926Y186263D01*
X168911Y184780D01*
X168911Y176086D01*
X168892Y175505D01*
X168836Y174962D01*
X168743Y174457D01*
X168613Y173989D01*
X168446Y173558D01*
X168241Y173165D01*
X167999Y172809D01*
X167720Y172490D01*
X167404Y172209D01*
X167050Y171966D01*
X166660Y171760D01*
X166232Y171592D01*
X165767Y171460D01*
X165264Y171367D01*
X164725Y171311D01*
X164148Y171292D01*
G37*
%LPC*%
G36*
X163990Y177074D02*
X164211Y177082D01*
X164425Y177107D01*
X164633Y177148D01*
X164834Y177206D01*
X165029Y177280D01*
X165219Y177370D01*
X165401Y177477D01*
X165578Y177600D01*
X165746Y177738D01*
X165905Y177891D01*
X166054Y178058D01*
X166075Y178086D01*
X166193Y178240D01*
X166441Y178646D01*
X166650Y179108D01*
X166739Y179360D01*
X166816Y179623D01*
X166881Y179898D01*
X166934Y180185D01*
X166976Y180483D01*
X167005Y180793D01*
X167023Y181114D01*
X167029Y181448D01*
X167023Y181789D01*
X167005Y182118D01*
X166976Y182435D01*
X166934Y182740D01*
X166881Y183032D01*
X166816Y183313D01*
X166739Y183582D01*
X166650Y183839D01*
X166442Y184312D01*
X166194Y184725D01*
X166056Y184910D01*
X165908Y185079D01*
X165751Y185234D01*
X165583Y185374D01*
X165408Y185499D01*
X165227Y185607D01*
X165041Y185698D01*
X164849Y185773D01*
X164651Y185831D01*
X164447Y185872D01*
X164237Y185897D01*
X164022Y185905D01*
X163672Y185889D01*
X163346Y185840D01*
X163045Y185757D01*
X162768Y185643D01*
X162516Y185495D01*
X162289Y185314D01*
X162087Y185100D01*
X161909Y184854D01*
X161754Y184571D01*
X161619Y184247D01*
X161505Y183882D01*
X161412Y183477D01*
X161340Y183031D01*
X161288Y182544D01*
X161257Y182016D01*
X161246Y181448D01*
X161256Y180885D01*
X161285Y180363D01*
X161334Y179882D01*
X161402Y179442D01*
X161489Y179044D01*
X161595Y178686D01*
X161721Y178369D01*
X161867Y178094D01*
X162036Y177855D01*
X162232Y177648D01*
X162456Y177473D01*
X162708Y177329D01*
X162987Y177218D01*
X163294Y177138D01*
X163628Y177090D01*
X163990Y177074D01*
G37*
%LPD*%
G36*
X124827Y175550D02*
X124520Y175556D01*
X124223Y175574D01*
X123657Y175645D01*
X123130Y175763D01*
X122640Y175930D01*
X122189Y176143D01*
X121775Y176404D01*
X121400Y176713D01*
X121063Y177069D01*
X120765Y177470D01*
X120507Y177913D01*
X120288Y178398D01*
X120109Y178926D01*
X119970Y179496D01*
X119870Y180108D01*
X119811Y180762D01*
X119791Y181458D01*
X119811Y182171D01*
X119871Y182838D01*
X119970Y183459D01*
X120110Y184034D01*
X120289Y184563D01*
X120508Y185046D01*
X120767Y185483D01*
X121066Y185874D01*
X121404Y186219D01*
X121783Y186518D01*
X122201Y186771D01*
X122659Y186978D01*
X123157Y187139D01*
X123695Y187254D01*
X124272Y187323D01*
X124890Y187346D01*
X125520Y187323D01*
X126108Y187256D01*
X126652Y187144D01*
X127153Y186987D01*
X127611Y186785D01*
X128026Y186538D01*
X128398Y186247D01*
X128727Y185911D01*
X129016Y185527D01*
X129265Y185094D01*
X129477Y184612D01*
X129650Y184080D01*
X129784Y183499D01*
X129880Y182868D01*
X129938Y182188D01*
X129957Y181458D01*
X129937Y180736D01*
X129875Y180061D01*
X129773Y179433D01*
X129629Y178854D01*
X129444Y178321D01*
X129218Y177837D01*
X128951Y177400D01*
X128643Y177011D01*
X128296Y176669D01*
X127912Y176372D01*
X127491Y176121D01*
X127032Y175915D01*
X126536Y175755D01*
X126004Y175641D01*
X125434Y175573D01*
X124827Y175550D01*
G37*
%LPC*%
G36*
X124806Y176948D02*
X125216Y176965D01*
X125597Y177016D01*
X125946Y177102D01*
X126266Y177221D01*
X126555Y177375D01*
X126814Y177563D01*
X127042Y177785D01*
X127240Y178041D01*
X127411Y178334D01*
X127559Y178665D01*
X127685Y179034D01*
X127788Y179442D01*
X127868Y179889D01*
X127925Y180373D01*
X127959Y180897D01*
X127970Y181458D01*
X127959Y182027D01*
X127927Y182555D01*
X127872Y183043D01*
X127796Y183491D01*
X127697Y183899D01*
X127577Y184266D01*
X127435Y184593D01*
X127271Y184880D01*
X127082Y185130D01*
X126862Y185347D01*
X126613Y185531D01*
X126334Y185681D01*
X126026Y185797D01*
X125687Y185881D01*
X125319Y185931D01*
X124921Y185947D01*
X124521Y185930D01*
X124148Y185879D01*
X123805Y185794D01*
X123490Y185675D01*
X123204Y185522D01*
X122947Y185335D01*
X122719Y185114D01*
X122519Y184859D01*
X122345Y184568D01*
X122195Y184239D01*
X122068Y183871D01*
X121963Y183465D01*
X121882Y183021D01*
X121824Y182538D01*
X121790Y182017D01*
X121778Y181458D01*
X121789Y180913D01*
X121824Y180403D01*
X121881Y179928D01*
X121961Y179488D01*
X122063Y179083D01*
X122189Y178713D01*
X122337Y178378D01*
X122509Y178078D01*
X122704Y177813D01*
X122926Y177584D01*
X123174Y177389D01*
X123448Y177231D01*
X123749Y177107D01*
X124075Y177019D01*
X124427Y176966D01*
X124806Y176948D01*
G37*
%LPD*%
G36*
X211014Y175550D02*
X210708Y175556D01*
X210411Y175574D01*
X209845Y175645D01*
X209317Y175763D01*
X208828Y175930D01*
X208376Y176143D01*
X207963Y176404D01*
X207588Y176713D01*
X207251Y177069D01*
X206952Y177470D01*
X206694Y177913D01*
X206475Y178398D01*
X206297Y178926D01*
X206157Y179496D01*
X206058Y180108D01*
X205998Y180762D01*
X205978Y181458D01*
X205998Y182171D01*
X206058Y182838D01*
X206158Y183459D01*
X206297Y184034D01*
X206476Y184563D01*
X206696Y185046D01*
X206954Y185483D01*
X207253Y185874D01*
X207592Y186219D01*
X207970Y186518D01*
X208389Y186771D01*
X208847Y186978D01*
X209345Y187139D01*
X209882Y187254D01*
X210460Y187323D01*
X211077Y187346D01*
X211708Y187323D01*
X212295Y187256D01*
X212839Y187144D01*
X213340Y186987D01*
X213799Y186785D01*
X214214Y186538D01*
X214586Y186247D01*
X214915Y185911D01*
X215203Y185527D01*
X215453Y185094D01*
X215664Y184612D01*
X215837Y184080D01*
X215972Y183499D01*
X216068Y182868D01*
X216126Y182188D01*
X216145Y181458D01*
X216124Y180736D01*
X216063Y180061D01*
X215960Y179433D01*
X215816Y178854D01*
X215632Y178321D01*
X215406Y177837D01*
X215139Y177400D01*
X214831Y177011D01*
X214484Y176669D01*
X214099Y176372D01*
X213678Y176121D01*
X213220Y175915D01*
X212724Y175755D01*
X212191Y175641D01*
X211621Y175573D01*
X211014Y175550D01*
G37*
%LPC*%
G36*
X210993Y176948D02*
X211404Y176965D01*
X211784Y177016D01*
X212134Y177102D01*
X212453Y177221D01*
X212742Y177375D01*
X213001Y177563D01*
X213229Y177785D01*
X213427Y178041D01*
X213598Y178334D01*
X213747Y178665D01*
X213872Y179034D01*
X213975Y179442D01*
X214055Y179889D01*
X214112Y180373D01*
X214146Y180897D01*
X214158Y181458D01*
X214147Y182027D01*
X214114Y182555D01*
X214060Y183043D01*
X213983Y183491D01*
X213885Y183899D01*
X213765Y184266D01*
X213623Y184593D01*
X213459Y184880D01*
X213269Y185130D01*
X213050Y185347D01*
X212801Y185531D01*
X212522Y185681D01*
X212213Y185797D01*
X211875Y185881D01*
X211507Y185931D01*
X211109Y185947D01*
X210708Y185930D01*
X210336Y185879D01*
X209993Y185794D01*
X209678Y185675D01*
X209392Y185522D01*
X209135Y185335D01*
X208906Y185114D01*
X208707Y184859D01*
X208533Y184568D01*
X208382Y184239D01*
X208255Y183871D01*
X208151Y183465D01*
X208070Y183021D01*
X208012Y182538D01*
X207977Y182017D01*
X207966Y181458D01*
X207977Y180913D01*
X208011Y180403D01*
X208068Y179928D01*
X208148Y179488D01*
X208251Y179083D01*
X208377Y178713D01*
X208525Y178378D01*
X208696Y178078D01*
X208892Y177813D01*
X209114Y177584D01*
X209362Y177389D01*
X209636Y177231D01*
X209936Y177107D01*
X210262Y177019D01*
X210615Y176966D01*
X210993Y176948D01*
G37*
%LPD*%
G36*
X220418Y175760D02*
X218536Y175760D01*
X218536Y184707D01*
X218520Y186307D01*
X218501Y186818D01*
X218473Y187135D01*
X220260Y187135D01*
X220281Y186852D01*
X220307Y186321D01*
X220344Y185190D01*
X220376Y185190D01*
X220531Y185481D01*
X220692Y185749D01*
X220858Y185994D01*
X221030Y186215D01*
X221208Y186414D01*
X221391Y186590D01*
X221580Y186743D01*
X221774Y186873D01*
X221977Y186983D01*
X222190Y187080D01*
X222414Y187161D01*
X222649Y187227D01*
X222895Y187279D01*
X223152Y187316D01*
X223420Y187338D01*
X223698Y187346D01*
X224013Y187338D01*
X224311Y187313D01*
X224592Y187273D01*
X224856Y187217D01*
X225103Y187144D01*
X225333Y187056D01*
X225546Y186951D01*
X225743Y186831D01*
X225924Y186692D01*
X226090Y186535D01*
X226242Y186358D01*
X226380Y186163D01*
X226504Y185948D01*
X226613Y185715D01*
X226708Y185462D01*
X226789Y185190D01*
X226820Y185190D01*
X226972Y185467D01*
X227130Y185723D01*
X227297Y185960D01*
X227471Y186176D01*
X227653Y186372D01*
X227843Y186549D01*
X228040Y186705D01*
X228245Y186841D01*
X228459Y186959D01*
X228685Y187062D01*
X228921Y187149D01*
X229169Y187220D01*
X229427Y187275D01*
X229697Y187314D01*
X229977Y187338D01*
X230269Y187346D01*
X230685Y187331D01*
X231072Y187287D01*
X231430Y187214D01*
X231758Y187112D01*
X232057Y186980D01*
X232326Y186819D01*
X232566Y186629D01*
X232776Y186410D01*
X232960Y186157D01*
X233119Y185867D01*
X233254Y185540D01*
X233364Y185175D01*
X233449Y184772D01*
X233511Y184332D01*
X233547Y183855D01*
X233559Y183340D01*
X233559Y175760D01*
X231688Y175760D01*
X231688Y182972D01*
X231681Y183369D01*
X231660Y183734D01*
X231625Y184067D01*
X231575Y184368D01*
X231512Y184637D01*
X231434Y184874D01*
X231342Y185080D01*
X231236Y185254D01*
X231112Y185401D01*
X230965Y185529D01*
X230795Y185638D01*
X230603Y185727D01*
X230388Y185796D01*
X230150Y185845D01*
X229890Y185874D01*
X229606Y185884D01*
X229305Y185870D01*
X229021Y185827D01*
X228754Y185755D01*
X228504Y185654D01*
X228271Y185525D01*
X228056Y185367D01*
X227858Y185180D01*
X227677Y184964D01*
X227516Y184722D01*
X227376Y184456D01*
X227258Y184166D01*
X227161Y183851D01*
X227086Y183513D01*
X227032Y183150D01*
X226999Y182763D01*
X226989Y182352D01*
X226989Y175760D01*
X225117Y175760D01*
X225117Y182972D01*
X225110Y183369D01*
X225089Y183734D01*
X225054Y184067D01*
X225004Y184368D01*
X224941Y184637D01*
X224863Y184874D01*
X224771Y185080D01*
X224665Y185254D01*
X224541Y185401D01*
X224394Y185529D01*
X224224Y185638D01*
X224032Y185727D01*
X223817Y185796D01*
X223579Y185845D01*
X223319Y185874D01*
X223036Y185884D01*
X222741Y185870D01*
X222463Y185826D01*
X222200Y185754D01*
X221953Y185653D01*
X221722Y185523D01*
X221506Y185364D01*
X221306Y185176D01*
X221122Y184959D01*
X220957Y184716D01*
X220814Y184449D01*
X220693Y184159D01*
X220594Y183845D01*
X220517Y183507D01*
X220462Y183146D01*
X220429Y182761D01*
X220418Y182352D01*
X220418Y175760D01*
G37*
G36*
X72339Y175550D02*
X71727Y175573D01*
X71152Y175644D01*
X70615Y175761D01*
X70116Y175926D01*
X69655Y176137D01*
X69231Y176395D01*
X68845Y176701D01*
X68496Y177053D01*
X68187Y177452D01*
X67919Y177896D01*
X67692Y178386D01*
X67506Y178922D01*
X67362Y179503D01*
X67259Y180130D01*
X67197Y180803D01*
X67177Y181521D01*
X67197Y182205D01*
X67259Y182848D01*
X67362Y183450D01*
X67506Y184010D01*
X67692Y184530D01*
X67919Y185008D01*
X68187Y185446D01*
X68496Y185842D01*
X68843Y186195D01*
X69226Y186500D01*
X69644Y186758D01*
X70098Y186970D01*
X70587Y187134D01*
X71111Y187252D01*
X71670Y187322D01*
X72265Y187346D01*
X72573Y187340D01*
X72872Y187322D01*
X73440Y187251D01*
X73969Y187133D01*
X74459Y186968D01*
X74909Y186755D01*
X75321Y186496D01*
X75693Y186189D01*
X76026Y185834D01*
X76320Y185433D01*
X76575Y184984D01*
X76790Y184488D01*
X76966Y183945D01*
X77103Y183355D01*
X77201Y182717D01*
X77260Y182033D01*
X77280Y181301D01*
X77280Y181048D01*
X69164Y181048D01*
X69176Y180573D01*
X69214Y180126D01*
X69277Y179707D01*
X69366Y179316D01*
X69480Y178953D01*
X69619Y178618D01*
X69783Y178310D01*
X69973Y178031D01*
X70187Y177782D01*
X70424Y177566D01*
X70685Y177384D01*
X70969Y177234D01*
X71277Y177118D01*
X71607Y177035D01*
X71961Y176986D01*
X72339Y176969D01*
X72638Y176977D01*
X72923Y177000D01*
X73192Y177039D01*
X73446Y177093D01*
X73685Y177162D01*
X73909Y177247D01*
X74117Y177347D01*
X74310Y177463D01*
X74650Y177727D01*
X74931Y178023D01*
X75049Y178183D01*
X75152Y178352D01*
X75241Y178529D01*
X75314Y178714D01*
X76975Y178241D01*
X76837Y177915D01*
X76679Y177610D01*
X76501Y177326D01*
X76303Y177064D01*
X76084Y176822D01*
X75845Y176601D01*
X75586Y176401D01*
X75306Y176223D01*
X75006Y176065D01*
X74686Y175928D01*
X74345Y175813D01*
X73985Y175718D01*
X73603Y175644D01*
X73202Y175592D01*
X72780Y175560D01*
X72339Y175550D01*
G37*
%LPC*%
G36*
X75324Y182499D02*
X75276Y182933D01*
X75208Y183337D01*
X75122Y183711D01*
X75017Y184054D01*
X74893Y184366D01*
X74751Y184649D01*
X74590Y184901D01*
X74410Y185122D01*
X74210Y185316D01*
X73990Y185483D01*
X73749Y185625D01*
X73487Y185741D01*
X73205Y185831D01*
X72902Y185896D01*
X72578Y185934D01*
X72233Y185947D01*
X71898Y185933D01*
X71581Y185890D01*
X71281Y185818D01*
X70999Y185717D01*
X70736Y185588D01*
X70490Y185430D01*
X70262Y185243D01*
X70052Y185027D01*
X69862Y184787D01*
X69696Y184524D01*
X69553Y184241D01*
X69433Y183935D01*
X69336Y183609D01*
X69262Y183260D01*
X69212Y182890D01*
X69185Y182499D01*
X75324Y182499D01*
G37*
%LPD*%
G36*
X89089Y175550D02*
X88477Y175573D01*
X87902Y175644D01*
X87365Y175761D01*
X86866Y175926D01*
X86405Y176137D01*
X85981Y176395D01*
X85595Y176701D01*
X85246Y177053D01*
X84937Y177452D01*
X84669Y177896D01*
X84442Y178386D01*
X84256Y178922D01*
X84112Y179503D01*
X84009Y180130D01*
X83947Y180803D01*
X83927Y181521D01*
X83947Y182205D01*
X84009Y182848D01*
X84112Y183450D01*
X84256Y184010D01*
X84442Y184530D01*
X84669Y185008D01*
X84937Y185446D01*
X85246Y185842D01*
X85593Y186195D01*
X85976Y186500D01*
X86394Y186758D01*
X86848Y186970D01*
X87337Y187134D01*
X87861Y187252D01*
X88420Y187322D01*
X89015Y187346D01*
X89323Y187340D01*
X89622Y187322D01*
X90190Y187251D01*
X90719Y187133D01*
X91209Y186968D01*
X91659Y186755D01*
X92071Y186496D01*
X92443Y186189D01*
X92776Y185834D01*
X93070Y185433D01*
X93325Y184984D01*
X93540Y184488D01*
X93716Y183945D01*
X93853Y183355D01*
X93951Y182717D01*
X94010Y182033D01*
X94030Y181301D01*
X94030Y181048D01*
X85914Y181048D01*
X85926Y180573D01*
X85964Y180126D01*
X86027Y179707D01*
X86116Y179316D01*
X86230Y178953D01*
X86369Y178618D01*
X86533Y178310D01*
X86723Y178031D01*
X86937Y177782D01*
X87174Y177566D01*
X87435Y177384D01*
X87719Y177234D01*
X88027Y177118D01*
X88357Y177035D01*
X88711Y176986D01*
X89089Y176969D01*
X89388Y176977D01*
X89673Y177000D01*
X89942Y177039D01*
X90196Y177093D01*
X90435Y177162D01*
X90659Y177247D01*
X90867Y177347D01*
X91060Y177463D01*
X91400Y177727D01*
X91681Y178023D01*
X91799Y178183D01*
X91902Y178352D01*
X91991Y178529D01*
X92064Y178714D01*
X93725Y178241D01*
X93587Y177915D01*
X93429Y177610D01*
X93251Y177326D01*
X93053Y177064D01*
X92834Y176822D01*
X92595Y176601D01*
X92336Y176401D01*
X92056Y176223D01*
X91756Y176065D01*
X91436Y175928D01*
X91095Y175813D01*
X90735Y175718D01*
X90353Y175644D01*
X89952Y175592D01*
X89530Y175560D01*
X89089Y175550D01*
G37*
%LPC*%
G36*
X92074Y182499D02*
X92026Y182933D01*
X91958Y183337D01*
X91872Y183711D01*
X91767Y184054D01*
X91643Y184366D01*
X91501Y184649D01*
X91340Y184901D01*
X91160Y185122D01*
X90960Y185316D01*
X90740Y185483D01*
X90499Y185625D01*
X90237Y185741D01*
X89955Y185831D01*
X89652Y185896D01*
X89328Y185934D01*
X88983Y185947D01*
X88648Y185933D01*
X88331Y185890D01*
X88031Y185818D01*
X87749Y185717D01*
X87486Y185588D01*
X87240Y185430D01*
X87012Y185243D01*
X86802Y185027D01*
X86612Y184787D01*
X86446Y184524D01*
X86303Y184241D01*
X86183Y183935D01*
X86086Y183609D01*
X86012Y183260D01*
X85962Y182890D01*
X85935Y182499D01*
X92074Y182499D01*
G37*
%LPD*%
G36*
X173741Y175760D02*
X171848Y175760D01*
X171848Y191362D01*
X173741Y191362D01*
X173741Y187304D01*
X173732Y186652D01*
X173704Y185979D01*
X173657Y185190D01*
X173688Y185190D01*
X173845Y185460D01*
X174009Y185711D01*
X174180Y185943D01*
X174360Y186156D01*
X174547Y186351D01*
X174742Y186528D01*
X174945Y186686D01*
X175155Y186825D01*
X175376Y186947D01*
X175612Y187053D01*
X175862Y187142D01*
X176126Y187216D01*
X176405Y187272D01*
X176697Y187313D01*
X177005Y187338D01*
X177326Y187346D01*
X177773Y187331D01*
X178190Y187288D01*
X178577Y187216D01*
X178933Y187116D01*
X179259Y186986D01*
X179554Y186828D01*
X179819Y186641D01*
X180054Y186426D01*
X180260Y186176D01*
X180438Y185888D01*
X180589Y185561D01*
X180713Y185194D01*
X180809Y184789D01*
X180877Y184345D01*
X180918Y183862D01*
X180932Y183340D01*
X180932Y175760D01*
X179029Y175760D01*
X179029Y182972D01*
X179015Y183533D01*
X178974Y184017D01*
X178905Y184424D01*
X178808Y184754D01*
X178680Y185026D01*
X178517Y185260D01*
X178317Y185455D01*
X178083Y185611D01*
X177806Y185731D01*
X177481Y185816D01*
X177107Y185867D01*
X176685Y185884D01*
X176359Y185870D01*
X176050Y185826D01*
X175758Y185754D01*
X175482Y185653D01*
X175223Y185523D01*
X174980Y185364D01*
X174755Y185176D01*
X174545Y184959D01*
X174357Y184718D01*
X174193Y184456D01*
X174055Y184175D01*
X173942Y183874D01*
X173854Y183552D01*
X173791Y183211D01*
X173753Y182849D01*
X173741Y182467D01*
X173741Y175760D01*
G37*
G36*
X134241Y175760D02*
X132348Y175760D01*
X132348Y184707D01*
X132333Y186307D01*
X132313Y186818D01*
X132285Y187135D01*
X134073Y187135D01*
X134094Y186852D01*
X134120Y186321D01*
X134157Y185190D01*
X134188Y185190D01*
X134354Y185474D01*
X134527Y185736D01*
X134706Y185977D01*
X134891Y186196D01*
X135083Y186393D01*
X135281Y186569D01*
X135486Y186724D01*
X135697Y186857D01*
X135918Y186971D01*
X136151Y187071D01*
X136398Y187155D01*
X136658Y187223D01*
X136930Y187277D01*
X137216Y187315D01*
X137514Y187338D01*
X137826Y187346D01*
X138278Y187331D01*
X138699Y187288D01*
X139088Y187215D01*
X139446Y187113D01*
X139773Y186982D01*
X140068Y186822D01*
X140332Y186633D01*
X140565Y186415D01*
X140768Y186164D01*
X140944Y185874D01*
X141093Y185547D01*
X141215Y185181D01*
X141310Y184778D01*
X141378Y184337D01*
X141418Y183857D01*
X141432Y183340D01*
X141432Y175760D01*
X139529Y175760D01*
X139529Y182972D01*
X139515Y183503D01*
X139474Y183971D01*
X139405Y184376D01*
X139308Y184717D01*
X139181Y185006D01*
X139022Y185251D01*
X138829Y185453D01*
X138604Y185611D01*
X138334Y185731D01*
X138007Y185816D01*
X137624Y185867D01*
X137185Y185884D01*
X136852Y185870D01*
X136537Y185826D01*
X136241Y185753D01*
X135962Y185650D01*
X135702Y185519D01*
X135460Y185358D01*
X135236Y185168D01*
X135029Y184949D01*
X134845Y184703D01*
X134684Y184435D01*
X134549Y184145D01*
X134438Y183832D01*
X134352Y183496D01*
X134290Y183137D01*
X134253Y182756D01*
X134241Y182352D01*
X134241Y175760D01*
G37*
G36*
X100794Y175550D02*
X100215Y175573D01*
X99672Y175644D01*
X99163Y175762D01*
X98690Y175927D01*
X98253Y176139D01*
X97850Y176398D01*
X97483Y176705D01*
X97152Y177058D01*
X96857Y177457D01*
X96602Y177899D01*
X96386Y178384D01*
X96209Y178913D01*
X96072Y179484D01*
X95974Y180099D01*
X95915Y180757D01*
X95895Y181458D01*
X95915Y182154D01*
X95974Y182808D01*
X96073Y183419D01*
X96211Y183988D01*
X96388Y184514D01*
X96605Y184998D01*
X96861Y185439D01*
X97157Y185837D01*
X97489Y186191D01*
X97856Y186497D01*
X98257Y186756D01*
X98692Y186968D01*
X99161Y187134D01*
X99664Y187251D01*
X100202Y187322D01*
X100773Y187346D01*
X101200Y187332D01*
X101609Y187289D01*
X101999Y187219D01*
X102370Y187120D01*
X102723Y186992D01*
X103057Y186837D01*
X103373Y186653D01*
X103670Y186442D01*
X103944Y186205D01*
X104192Y185947D01*
X104413Y185667D01*
X104607Y185367D01*
X104774Y185044D01*
X104915Y184701D01*
X105028Y184336D01*
X105115Y183950D01*
X103170Y183803D01*
X103127Y184033D01*
X103069Y184251D01*
X102996Y184458D01*
X102910Y184652D01*
X102810Y184833D01*
X102695Y185003D01*
X102567Y185161D01*
X102424Y185306D01*
X102266Y185437D01*
X102093Y185550D01*
X101904Y185646D01*
X101699Y185724D01*
X101478Y185785D01*
X101241Y185828D01*
X100989Y185855D01*
X100721Y185863D01*
X100358Y185848D01*
X100021Y185801D01*
X99710Y185723D01*
X99425Y185614D01*
X99166Y185473D01*
X98933Y185301D01*
X98726Y185099D01*
X98545Y184865D01*
X98387Y184593D01*
X98250Y184280D01*
X98135Y183923D01*
X98040Y183524D01*
X97966Y183082D01*
X97914Y182598D01*
X97882Y182070D01*
X97872Y181500D01*
X97883Y180951D01*
X97916Y180438D01*
X97972Y179963D01*
X98050Y179524D01*
X98151Y179122D01*
X98274Y178756D01*
X98419Y178428D01*
X98587Y178136D01*
X98777Y177880D01*
X98989Y177658D01*
X99225Y177470D01*
X99483Y177316D01*
X99764Y177196D01*
X100067Y177111D01*
X100393Y177060D01*
X100742Y177043D01*
X100989Y177051D01*
X101226Y177077D01*
X101452Y177120D01*
X101668Y177179D01*
X101874Y177256D01*
X102070Y177350D01*
X102255Y177461D01*
X102429Y177589D01*
X102591Y177735D01*
X102736Y177899D01*
X102865Y178082D01*
X102977Y178283D01*
X103074Y178503D01*
X103154Y178741D01*
X103218Y178997D01*
X103265Y179271D01*
X105179Y179145D01*
X105108Y178746D01*
X105008Y178367D01*
X104878Y178008D01*
X104719Y177671D01*
X104529Y177354D01*
X104309Y177058D01*
X104060Y176782D01*
X103780Y176527D01*
X103476Y176298D01*
X103152Y176100D01*
X102808Y175932D01*
X102445Y175794D01*
X102062Y175687D01*
X101659Y175611D01*
X101237Y175565D01*
X100794Y175550D01*
G37*
G36*
X200107Y175550D02*
X199528Y175573D01*
X198984Y175644D01*
X198476Y175762D01*
X198003Y175927D01*
X197565Y176139D01*
X197163Y176398D01*
X196796Y176705D01*
X196464Y177058D01*
X196170Y177457D01*
X195914Y177899D01*
X195699Y178384D01*
X195522Y178913D01*
X195384Y179484D01*
X195286Y180099D01*
X195227Y180757D01*
X195208Y181458D01*
X195227Y182154D01*
X195287Y182808D01*
X195385Y183419D01*
X195523Y183988D01*
X195701Y184514D01*
X195917Y184998D01*
X196174Y185439D01*
X196469Y185837D01*
X196802Y186191D01*
X197168Y186497D01*
X197569Y186756D01*
X198004Y186968D01*
X198473Y187134D01*
X198977Y187251D01*
X199514Y187322D01*
X200086Y187346D01*
X200513Y187332D01*
X200921Y187289D01*
X201311Y187219D01*
X201683Y187120D01*
X202035Y186992D01*
X202370Y186837D01*
X202685Y186653D01*
X202982Y186442D01*
X203257Y186205D01*
X203504Y185947D01*
X203725Y185667D01*
X203919Y185367D01*
X204087Y185044D01*
X204227Y184701D01*
X204341Y184336D01*
X204428Y183950D01*
X202483Y183803D01*
X202439Y184033D01*
X202381Y184251D01*
X202309Y184458D01*
X202223Y184652D01*
X202122Y184833D01*
X202008Y185003D01*
X201879Y185161D01*
X201737Y185306D01*
X201579Y185437D01*
X201405Y185550D01*
X201216Y185646D01*
X201011Y185724D01*
X200790Y185785D01*
X200554Y185828D01*
X200301Y185855D01*
X200033Y185863D01*
X199670Y185848D01*
X199334Y185801D01*
X199023Y185723D01*
X198738Y185614D01*
X198479Y185473D01*
X198245Y185301D01*
X198038Y185099D01*
X197857Y184865D01*
X197699Y184593D01*
X197563Y184280D01*
X197447Y183923D01*
X197352Y183524D01*
X197279Y183082D01*
X197226Y182598D01*
X197195Y182070D01*
X197184Y181500D01*
X197195Y180951D01*
X197229Y180438D01*
X197285Y179963D01*
X197363Y179524D01*
X197464Y179122D01*
X197586Y178756D01*
X197732Y178428D01*
X197899Y178136D01*
X198089Y177880D01*
X198302Y177658D01*
X198537Y177470D01*
X198795Y177316D01*
X199076Y177196D01*
X199380Y177111D01*
X199706Y177060D01*
X200054Y177043D01*
X200302Y177051D01*
X200538Y177077D01*
X200765Y177120D01*
X200981Y177179D01*
X201187Y177256D01*
X201382Y177350D01*
X201567Y177461D01*
X201742Y177589D01*
X201903Y177735D01*
X202048Y177899D01*
X202177Y178082D01*
X202290Y178283D01*
X202386Y178503D01*
X202466Y178741D01*
X202530Y178997D01*
X202578Y179271D01*
X204491Y179145D01*
X204421Y178746D01*
X204321Y178367D01*
X204191Y178008D01*
X204031Y177671D01*
X203841Y177354D01*
X203622Y177058D01*
X203372Y176782D01*
X203093Y176527D01*
X202789Y176298D01*
X202465Y176100D01*
X202121Y175932D01*
X201758Y175794D01*
X201374Y175687D01*
X200972Y175611D01*
X200549Y175565D01*
X200107Y175550D01*
G37*
G36*
X146651Y175760D02*
X144759Y175760D01*
X144759Y185758D01*
X143160Y185758D01*
X143160Y187135D01*
X144759Y187135D01*
X144759Y188418D01*
X144769Y188793D01*
X144801Y189141D01*
X144855Y189462D01*
X144929Y189756D01*
X145025Y190022D01*
X145143Y190261D01*
X145282Y190473D01*
X145442Y190657D01*
X145624Y190818D01*
X145829Y190956D01*
X146056Y191074D01*
X146307Y191170D01*
X146579Y191245D01*
X146875Y191298D01*
X147193Y191330D01*
X147534Y191341D01*
X147913Y191333D01*
X148262Y191309D01*
X148581Y191270D01*
X148869Y191215D01*
X148869Y189774D01*
X148422Y189837D01*
X148028Y189858D01*
X147690Y189835D01*
X147403Y189766D01*
X147277Y189715D01*
X147165Y189651D01*
X147065Y189577D01*
X146977Y189490D01*
X146900Y189389D01*
X146834Y189269D01*
X146778Y189130D01*
X146732Y188973D01*
X146671Y188601D01*
X146651Y188155D01*
X146651Y187135D01*
X148869Y187135D01*
X148869Y185758D01*
X146651Y185758D01*
X146651Y175760D01*
G37*
G36*
X109642Y175592D02*
X109367Y175602D01*
X109109Y175632D01*
X108870Y175682D01*
X108648Y175753D01*
X108444Y175843D01*
X108258Y175954D01*
X108089Y176085D01*
X107938Y176236D01*
X107805Y176407D01*
X107690Y176598D01*
X107592Y176809D01*
X107513Y177041D01*
X107451Y177292D01*
X107406Y177564D01*
X107380Y177856D01*
X107371Y178168D01*
X107371Y185758D01*
X106057Y185758D01*
X106057Y187135D01*
X107444Y187135D01*
X108001Y189680D01*
X109263Y189680D01*
X109263Y187135D01*
X111366Y187135D01*
X111366Y185758D01*
X109263Y185758D01*
X109263Y178578D01*
X109280Y178198D01*
X109330Y177880D01*
X109414Y177622D01*
X109531Y177426D01*
X109690Y177281D01*
X109898Y177178D01*
X110155Y177116D01*
X110462Y177095D01*
X110672Y177104D01*
X110924Y177132D01*
X111555Y177242D01*
X111555Y175844D01*
X111084Y175734D01*
X110609Y175655D01*
X110128Y175608D01*
X109642Y175592D01*
G37*
G36*
X186267Y175592D02*
X185992Y175602D01*
X185734Y175632D01*
X185495Y175682D01*
X185273Y175753D01*
X185069Y175843D01*
X184883Y175954D01*
X184714Y176085D01*
X184563Y176236D01*
X184430Y176407D01*
X184315Y176598D01*
X184217Y176809D01*
X184138Y177041D01*
X184076Y177292D01*
X184031Y177564D01*
X184005Y177856D01*
X183996Y178168D01*
X183996Y185758D01*
X182682Y185758D01*
X182682Y187135D01*
X184069Y187135D01*
X184626Y189680D01*
X185888Y189680D01*
X185888Y187135D01*
X187991Y187135D01*
X187991Y185758D01*
X185888Y185758D01*
X185888Y178578D01*
X185905Y178198D01*
X185955Y177880D01*
X186039Y177622D01*
X186156Y177426D01*
X186315Y177281D01*
X186523Y177178D01*
X186780Y177116D01*
X187087Y177095D01*
X187297Y177104D01*
X187549Y177132D01*
X188180Y177242D01*
X188180Y175844D01*
X187709Y175734D01*
X187234Y175655D01*
X186753Y175608D01*
X186267Y175592D01*
G37*
G36*
X81574Y175760D02*
X79681Y175760D01*
X79681Y191362D01*
X81574Y191362D01*
X81574Y175760D01*
G37*
G36*
X152168Y175760D02*
X150275Y175760D01*
X150275Y191362D01*
X152168Y191362D01*
X152168Y175760D01*
G37*
G36*
X115116Y175760D02*
X113223Y175760D01*
X113223Y184486D01*
X113208Y185748D01*
X113160Y187135D01*
X114948Y187135D01*
X115011Y185587D01*
X115032Y184812D01*
X115074Y184812D01*
X115308Y185485D01*
X115432Y185778D01*
X115560Y186042D01*
X115692Y186277D01*
X115829Y186484D01*
X115970Y186661D01*
X116115Y186809D01*
X116269Y186935D01*
X116439Y187044D01*
X116624Y187136D01*
X116824Y187212D01*
X117039Y187270D01*
X117270Y187312D01*
X117515Y187337D01*
X117776Y187346D01*
X117966Y187339D01*
X118157Y187319D01*
X118543Y187241D01*
X118543Y185506D01*
X118338Y185552D01*
X118102Y185585D01*
X117834Y185604D01*
X117534Y185611D01*
X117248Y185595D01*
X116980Y185548D01*
X116729Y185468D01*
X116496Y185357D01*
X116280Y185215D01*
X116081Y185040D01*
X115900Y184834D01*
X115736Y184596D01*
X115591Y184329D01*
X115465Y184034D01*
X115358Y183712D01*
X115271Y183362D01*
X115203Y182985D01*
X115155Y182581D01*
X115126Y182149D01*
X115116Y181690D01*
X115116Y175760D01*
G37*
G36*
X156938Y175760D02*
X155046Y175760D01*
X155046Y187135D01*
X156938Y187135D01*
X156938Y175760D01*
G37*
G36*
X192340Y175760D02*
X190290Y175760D01*
X190290Y178062D01*
X192340Y178062D01*
X192340Y175760D01*
G37*
G36*
X156938Y189553D02*
X155046Y189553D01*
X155046Y191362D01*
X156938Y191362D01*
X156938Y189553D01*
G37*
G36*
X65758Y397500D02*
X63782Y397500D01*
X63782Y412077D01*
X69917Y412077D01*
X70512Y412059D01*
X71073Y412005D01*
X71600Y411915D01*
X72092Y411790D01*
X72549Y411628D01*
X72972Y411431D01*
X73360Y411198D01*
X73713Y410928D01*
X74029Y410627D01*
X74302Y410295D01*
X74533Y409935D01*
X74722Y409545D01*
X74869Y409125D01*
X74974Y408676D01*
X75037Y408198D01*
X75058Y407690D01*
X75037Y407186D01*
X74974Y406709D01*
X74868Y406258D01*
X74721Y405833D01*
X74531Y405435D01*
X74299Y405064D01*
X74025Y404719D01*
X73708Y404400D01*
X73356Y404114D01*
X72973Y403866D01*
X72560Y403657D01*
X72116Y403485D01*
X71643Y403351D01*
X71139Y403256D01*
X70605Y403199D01*
X70041Y403180D01*
X65758Y403180D01*
X65758Y397500D01*
G37*
%LPC*%
G36*
X69761Y404742D02*
X70162Y404753D01*
X70537Y404788D01*
X70886Y404845D01*
X71210Y404925D01*
X71507Y405028D01*
X71779Y405154D01*
X72025Y405302D01*
X72244Y405474D01*
X72438Y405668D01*
X72606Y405885D01*
X72749Y406126D01*
X72865Y406389D01*
X72956Y406675D01*
X73020Y406983D01*
X73059Y407315D01*
X73072Y407670D01*
X73059Y408012D01*
X73019Y408332D01*
X72953Y408629D01*
X72860Y408905D01*
X72741Y409159D01*
X72595Y409391D01*
X72422Y409600D01*
X72224Y409788D01*
X71998Y409953D01*
X71746Y410097D01*
X71468Y410218D01*
X71163Y410317D01*
X70832Y410395D01*
X70474Y410450D01*
X70090Y410483D01*
X69679Y410494D01*
X65758Y410494D01*
X65758Y404742D01*
X69761Y404742D01*
G37*
%LPD*%
G36*
X79883Y397500D02*
X77907Y397500D01*
X77907Y412077D01*
X84042Y412077D01*
X84637Y412059D01*
X85198Y412005D01*
X85725Y411915D01*
X86217Y411790D01*
X86674Y411628D01*
X87097Y411431D01*
X87485Y411198D01*
X87838Y410928D01*
X88154Y410627D01*
X88427Y410295D01*
X88658Y409935D01*
X88847Y409545D01*
X88994Y409125D01*
X89099Y408676D01*
X89162Y408198D01*
X89183Y407690D01*
X89162Y407186D01*
X89099Y406709D01*
X88993Y406258D01*
X88846Y405833D01*
X88656Y405435D01*
X88424Y405064D01*
X88150Y404719D01*
X87833Y404400D01*
X87481Y404114D01*
X87098Y403866D01*
X86685Y403657D01*
X86241Y403485D01*
X85768Y403351D01*
X85264Y403256D01*
X84730Y403199D01*
X84166Y403180D01*
X79883Y403180D01*
X79883Y397500D01*
G37*
%LPC*%
G36*
X83886Y404742D02*
X84287Y404753D01*
X84662Y404788D01*
X85011Y404845D01*
X85335Y404925D01*
X85632Y405028D01*
X85904Y405154D01*
X86150Y405302D01*
X86369Y405474D01*
X86563Y405668D01*
X86731Y405885D01*
X86874Y406126D01*
X86990Y406389D01*
X87081Y406675D01*
X87145Y406983D01*
X87184Y407315D01*
X87197Y407670D01*
X87184Y408012D01*
X87144Y408332D01*
X87078Y408629D01*
X86985Y408905D01*
X86866Y409159D01*
X86720Y409391D01*
X86547Y409600D01*
X86349Y409788D01*
X86123Y409953D01*
X85871Y410097D01*
X85593Y410218D01*
X85288Y410317D01*
X84957Y410395D01*
X84599Y410450D01*
X84215Y410483D01*
X83804Y410494D01*
X79883Y410494D01*
X79883Y404742D01*
X83886Y404742D01*
G37*
%LPD*%
G36*
X93790Y397500D02*
X92032Y397500D01*
X92032Y412077D01*
X94628Y412077D01*
X98508Y401969D01*
X98711Y401337D01*
X98906Y400661D01*
X99065Y400059D01*
X99160Y399652D01*
X99288Y400173D01*
X99506Y400909D01*
X99727Y401596D01*
X99863Y401969D01*
X103670Y412077D01*
X106205Y412077D01*
X106205Y397500D01*
X104426Y397500D01*
X104426Y407225D01*
X104449Y408808D01*
X104478Y409576D01*
X104519Y410328D01*
X104272Y409453D01*
X104038Y408678D01*
X103817Y408005D01*
X103608Y407432D01*
X99843Y397500D01*
X98456Y397500D01*
X94639Y407432D01*
X94059Y409190D01*
X93718Y410328D01*
X93749Y409180D01*
X93790Y407225D01*
X93790Y397500D01*
G37*
G36*
X147254Y373293D02*
X146950Y373300D01*
X146656Y373322D01*
X146371Y373357D01*
X146095Y373408D01*
X145828Y373472D01*
X145570Y373551D01*
X145321Y373644D01*
X145081Y373751D01*
X144850Y373872D01*
X144628Y374008D01*
X144416Y374159D01*
X144212Y374323D01*
X143832Y374695D01*
X143488Y375124D01*
X143182Y375608D01*
X142918Y376144D01*
X142694Y376732D01*
X142510Y377372D01*
X142368Y378064D01*
X142266Y378808D01*
X142205Y379604D01*
X142184Y380452D01*
X142206Y381371D01*
X142269Y382235D01*
X142375Y383045D01*
X142523Y383799D01*
X142714Y384498D01*
X142947Y385143D01*
X143222Y385732D01*
X143375Y386006D01*
X143540Y386266D01*
X143713Y386512D01*
X143896Y386742D01*
X144088Y386955D01*
X144289Y387153D01*
X144499Y387336D01*
X144718Y387502D01*
X144945Y387652D01*
X145182Y387787D01*
X145428Y387906D01*
X145682Y388009D01*
X145946Y388096D01*
X146218Y388167D01*
X146500Y388223D01*
X146790Y388262D01*
X147090Y388286D01*
X147398Y388294D01*
X147801Y388282D01*
X148185Y388248D01*
X148550Y388190D01*
X148896Y388108D01*
X149223Y388004D01*
X149530Y387876D01*
X149819Y387726D01*
X150088Y387552D01*
X150339Y387355D01*
X150570Y387134D01*
X150782Y386891D01*
X150975Y386624D01*
X151149Y386334D01*
X151305Y386021D01*
X151440Y385684D01*
X151557Y385325D01*
X149778Y385004D01*
X149620Y385421D01*
X149422Y385783D01*
X149308Y385943D01*
X149183Y386088D01*
X149049Y386221D01*
X148904Y386339D01*
X148749Y386443D01*
X148583Y386533D01*
X148408Y386610D01*
X148222Y386672D01*
X148026Y386721D01*
X147820Y386756D01*
X147604Y386777D01*
X147378Y386784D01*
X146991Y386760D01*
X146626Y386691D01*
X146284Y386575D01*
X145964Y386412D01*
X145667Y386204D01*
X145392Y385948D01*
X145140Y385647D01*
X144910Y385299D01*
X144705Y384907D01*
X144528Y384474D01*
X144378Y383999D01*
X144255Y383482D01*
X144159Y382924D01*
X144091Y382324D01*
X144050Y381683D01*
X144036Y381000D01*
X144169Y381229D01*
X144315Y381443D01*
X144475Y381643D01*
X144647Y381829D01*
X144831Y382001D01*
X145029Y382159D01*
X145240Y382303D01*
X145464Y382433D01*
X145698Y382548D01*
X145941Y382648D01*
X146192Y382733D01*
X146452Y382802D01*
X146720Y382856D01*
X146996Y382894D01*
X147281Y382917D01*
X147574Y382925D01*
X148066Y382905D01*
X148531Y382846D01*
X148970Y382747D01*
X149383Y382609D01*
X149771Y382432D01*
X150132Y382215D01*
X150467Y381958D01*
X150776Y381663D01*
X151054Y381333D01*
X151294Y380977D01*
X151498Y380594D01*
X151665Y380183D01*
X151794Y379745D01*
X151887Y379281D01*
X151942Y378788D01*
X151961Y378269D01*
X151941Y377708D01*
X151883Y377177D01*
X151785Y376676D01*
X151648Y376205D01*
X151472Y375765D01*
X151257Y375356D01*
X151002Y374976D01*
X150709Y374628D01*
X150381Y374315D01*
X150024Y374044D01*
X149636Y373814D01*
X149219Y373627D01*
X148772Y373481D01*
X148296Y373377D01*
X147790Y373314D01*
X147254Y373293D01*
G37*
%LPC*%
G36*
X147192Y374793D02*
X147519Y374807D01*
X147828Y374850D01*
X148119Y374920D01*
X148392Y375019D01*
X148646Y375147D01*
X148883Y375302D01*
X149102Y375486D01*
X149302Y375698D01*
X149481Y375935D01*
X149637Y376193D01*
X149769Y376473D01*
X149876Y376773D01*
X149960Y377095D01*
X150020Y377437D01*
X150056Y377801D01*
X150068Y378186D01*
X150055Y378571D01*
X150019Y378933D01*
X149958Y379272D01*
X149874Y379588D01*
X149764Y379882D01*
X149631Y380153D01*
X149474Y380402D01*
X149292Y380628D01*
X149088Y380829D01*
X148866Y381004D01*
X148624Y381151D01*
X148363Y381272D01*
X148083Y381366D01*
X147784Y381433D01*
X147466Y381473D01*
X147129Y381487D01*
X146811Y381475D01*
X146509Y381439D01*
X146222Y381380D01*
X145951Y381297D01*
X145696Y381190D01*
X145456Y381059D01*
X145232Y380905D01*
X145024Y380726D01*
X144836Y380527D01*
X144673Y380310D01*
X144536Y380075D01*
X144423Y379822D01*
X144335Y379552D01*
X144273Y379263D01*
X144235Y378956D01*
X144222Y378631D01*
X144235Y378219D01*
X144274Y377826D01*
X144340Y377452D01*
X144431Y377098D01*
X144548Y376762D01*
X144691Y376445D01*
X144860Y376148D01*
X145055Y375869D01*
X145271Y375617D01*
X145501Y375398D01*
X145746Y375213D01*
X146006Y375062D01*
X146280Y374944D01*
X146569Y374860D01*
X146873Y374810D01*
X147192Y374793D01*
G37*
%LPD*%
G36*
X172829Y373293D02*
X172332Y373307D01*
X171860Y373349D01*
X171411Y373418D01*
X170988Y373516D01*
X170589Y373641D01*
X170215Y373794D01*
X169865Y373974D01*
X169540Y374183D01*
X169241Y374418D01*
X168971Y374677D01*
X168730Y374962D01*
X168518Y375272D01*
X168335Y375606D01*
X168180Y375965D01*
X168054Y376350D01*
X167957Y376759D01*
X169840Y376976D01*
X169921Y376714D01*
X170016Y376469D01*
X170126Y376241D01*
X170250Y376030D01*
X170389Y375836D01*
X170542Y375658D01*
X170710Y375498D01*
X170892Y375354D01*
X171089Y375228D01*
X171300Y375118D01*
X171526Y375025D01*
X171766Y374949D01*
X172020Y374890D01*
X172289Y374848D01*
X172573Y374822D01*
X172871Y374814D01*
X173236Y374828D01*
X173580Y374870D01*
X173904Y374941D01*
X174208Y375040D01*
X174491Y375167D01*
X174754Y375323D01*
X174997Y375507D01*
X175219Y375719D01*
X175418Y375956D01*
X175590Y376214D01*
X175736Y376493D01*
X175855Y376794D01*
X175948Y377115D01*
X176015Y377458D01*
X176054Y377822D01*
X176068Y378207D01*
X176054Y378543D01*
X176014Y378862D01*
X175948Y379165D01*
X175854Y379451D01*
X175734Y379721D01*
X175587Y379974D01*
X175414Y380211D01*
X175214Y380431D01*
X174991Y380630D01*
X174750Y380803D01*
X174490Y380948D01*
X174212Y381068D01*
X173915Y381160D01*
X173599Y381227D01*
X173265Y381267D01*
X172912Y381280D01*
X172541Y381265D01*
X172183Y381220D01*
X171838Y381146D01*
X171505Y381042D01*
X171179Y380902D01*
X170853Y380721D01*
X170528Y380499D01*
X170202Y380235D01*
X168381Y380235D01*
X168867Y388077D01*
X177154Y388077D01*
X177154Y386494D01*
X170564Y386494D01*
X170284Y381869D01*
X170596Y382088D01*
X170927Y382277D01*
X171275Y382437D01*
X171642Y382568D01*
X172028Y382670D01*
X172432Y382742D01*
X172854Y382786D01*
X173295Y382801D01*
X173819Y382781D01*
X174316Y382722D01*
X174786Y382623D01*
X175228Y382485D01*
X175643Y382308D01*
X176031Y382091D01*
X176391Y381834D01*
X176725Y381538D01*
X177024Y381211D01*
X177283Y380860D01*
X177503Y380484D01*
X177683Y380085D01*
X177823Y379662D01*
X177922Y379215D01*
X177982Y378744D01*
X178002Y378249D01*
X177981Y377687D01*
X177917Y377156D01*
X177809Y376656D01*
X177659Y376187D01*
X177467Y375749D01*
X177231Y375341D01*
X176953Y374964D01*
X176631Y374617D01*
X176272Y374307D01*
X175880Y374038D01*
X175454Y373810D01*
X174996Y373624D01*
X174504Y373479D01*
X173979Y373376D01*
X173421Y373314D01*
X172829Y373293D01*
G37*
G36*
X201223Y373500D02*
X199464Y373500D01*
X199464Y376800D01*
X192595Y376800D01*
X192595Y378249D01*
X199267Y388077D01*
X201223Y388077D01*
X201223Y378269D01*
X203271Y378269D01*
X203271Y376800D01*
X201223Y376800D01*
X201223Y373500D01*
G37*
%LPC*%
G36*
X199464Y378269D02*
X199464Y385977D01*
X199174Y385428D01*
X198771Y384746D01*
X195036Y379242D01*
X194478Y378476D01*
X194312Y378269D01*
X199464Y378269D01*
G37*
%LPD*%
G36*
X224016Y373293D02*
X223476Y373309D01*
X222965Y373356D01*
X222481Y373434D01*
X222025Y373543D01*
X221598Y373683D01*
X221198Y373855D01*
X220826Y374057D01*
X220483Y374291D01*
X220170Y374556D01*
X219890Y374850D01*
X219644Y375175D01*
X219431Y375529D01*
X219252Y375913D01*
X219106Y376327D01*
X218994Y376771D01*
X218915Y377245D01*
X220840Y377421D01*
X220896Y377108D01*
X220971Y376815D01*
X221065Y376542D01*
X221178Y376289D01*
X221310Y376057D01*
X221461Y375845D01*
X221631Y375653D01*
X221820Y375481D01*
X222028Y375330D01*
X222255Y375198D01*
X222501Y375087D01*
X222766Y374996D01*
X223050Y374925D01*
X223353Y374875D01*
X223675Y374845D01*
X224016Y374835D01*
X224358Y374845D01*
X224681Y374878D01*
X224986Y374932D01*
X225271Y375008D01*
X225538Y375105D01*
X225786Y375224D01*
X226015Y375365D01*
X226224Y375528D01*
X226412Y375712D01*
X226575Y375916D01*
X226713Y376142D01*
X226826Y376389D01*
X226913Y376657D01*
X226976Y376946D01*
X227014Y377256D01*
X227026Y377586D01*
X227012Y377876D01*
X226969Y378149D01*
X226897Y378405D01*
X226797Y378646D01*
X226669Y378870D01*
X226511Y379077D01*
X226325Y379268D01*
X226111Y379443D01*
X225869Y379600D01*
X225602Y379735D01*
X225310Y379850D01*
X224992Y379944D01*
X224649Y380017D01*
X224280Y380069D01*
X223887Y380100D01*
X223467Y380111D01*
X222412Y380111D01*
X222412Y381725D01*
X223426Y381725D01*
X223798Y381735D01*
X224149Y381766D01*
X224478Y381818D01*
X224785Y381891D01*
X225071Y381985D01*
X225336Y382100D01*
X225579Y382236D01*
X225800Y382392D01*
X225998Y382567D01*
X226169Y382758D01*
X226314Y382964D01*
X226433Y383187D01*
X226525Y383426D01*
X226591Y383681D01*
X226630Y383952D01*
X226643Y384239D01*
X226633Y384523D01*
X226600Y384792D01*
X226547Y385046D01*
X226471Y385285D01*
X226375Y385508D01*
X226256Y385716D01*
X226117Y385908D01*
X225955Y386085D01*
X225773Y386244D01*
X225570Y386382D01*
X225346Y386498D01*
X225101Y386593D01*
X224835Y386668D01*
X224548Y386721D01*
X224241Y386752D01*
X223912Y386763D01*
X223612Y386753D01*
X223326Y386723D01*
X223055Y386674D01*
X222799Y386605D01*
X222557Y386516D01*
X222330Y386408D01*
X222118Y386280D01*
X221921Y386132D01*
X221741Y385966D01*
X221580Y385784D01*
X221440Y385586D01*
X221319Y385371D01*
X221219Y385141D01*
X221138Y384894D01*
X221077Y384631D01*
X221036Y384352D01*
X219164Y384497D01*
X219232Y384932D01*
X219334Y385343D01*
X219469Y385729D01*
X219638Y386090D01*
X219841Y386427D01*
X220076Y386740D01*
X220346Y387027D01*
X220648Y387290D01*
X220979Y387526D01*
X221333Y387730D01*
X221709Y387902D01*
X222108Y388043D01*
X222530Y388153D01*
X222975Y388231D01*
X223443Y388278D01*
X223933Y388294D01*
X224466Y388278D01*
X224968Y388230D01*
X225440Y388151D01*
X225882Y388039D01*
X226293Y387896D01*
X226673Y387721D01*
X227023Y387514D01*
X227342Y387275D01*
X227627Y387008D01*
X227874Y386715D01*
X228082Y386398D01*
X228253Y386056D01*
X228386Y385688D01*
X228481Y385295D01*
X228538Y384878D01*
X228557Y384435D01*
X228545Y384094D01*
X228509Y383769D01*
X228447Y383461D01*
X228362Y383169D01*
X228252Y382893D01*
X228118Y382634D01*
X227959Y382391D01*
X227776Y382164D01*
X227570Y381955D01*
X227341Y381762D01*
X227091Y381588D01*
X226818Y381431D01*
X226523Y381292D01*
X226206Y381170D01*
X225867Y381066D01*
X225505Y380980D01*
X225505Y380938D01*
X225903Y380883D01*
X226277Y380804D01*
X226630Y380702D01*
X226959Y380576D01*
X227266Y380428D01*
X227550Y380256D01*
X227811Y380060D01*
X228050Y379842D01*
X228264Y379604D01*
X228449Y379352D01*
X228605Y379084D01*
X228733Y378802D01*
X228833Y378505D01*
X228904Y378193D01*
X228947Y377866D01*
X228961Y377524D01*
X228941Y377034D01*
X228881Y376573D01*
X228780Y376139D01*
X228640Y375735D01*
X228460Y375358D01*
X228239Y375010D01*
X227979Y374691D01*
X227678Y374400D01*
X227340Y374141D01*
X226968Y373916D01*
X226562Y373725D01*
X226121Y373570D01*
X225646Y373449D01*
X225137Y373362D01*
X224593Y373310D01*
X224016Y373293D01*
G37*
G36*
X253826Y373500D02*
X244174Y373500D01*
X244174Y374814D01*
X244452Y375401D01*
X244760Y375953D01*
X245096Y376469D01*
X245462Y376950D01*
X245847Y377402D01*
X246242Y377832D01*
X246646Y378240D01*
X247060Y378626D01*
X247894Y379349D01*
X248721Y380018D01*
X249503Y380659D01*
X250205Y381300D01*
X250521Y381625D01*
X250804Y381957D01*
X251056Y382298D01*
X251276Y382645D01*
X251455Y383009D01*
X251583Y383395D01*
X251659Y383805D01*
X251678Y384019D01*
X251685Y384239D01*
X251674Y384530D01*
X251641Y384805D01*
X251586Y385063D01*
X251509Y385304D01*
X251410Y385529D01*
X251289Y385736D01*
X251146Y385927D01*
X250981Y386101D01*
X250797Y386256D01*
X250595Y386390D01*
X250377Y386504D01*
X250141Y386597D01*
X249888Y386670D01*
X249618Y386721D01*
X249330Y386753D01*
X249026Y386763D01*
X248735Y386753D01*
X248457Y386722D01*
X248193Y386672D01*
X247941Y386601D01*
X247703Y386510D01*
X247477Y386399D01*
X247265Y386268D01*
X247066Y386116D01*
X246883Y385946D01*
X246720Y385760D01*
X246577Y385558D01*
X246454Y385339D01*
X246351Y385104D01*
X246267Y384853D01*
X246204Y384585D01*
X246160Y384301D01*
X244257Y384477D01*
X244325Y384902D01*
X244427Y385306D01*
X244563Y385687D01*
X244731Y386046D01*
X244934Y386383D01*
X245169Y386698D01*
X245439Y386990D01*
X245741Y387259D01*
X246072Y387502D01*
X246426Y387712D01*
X246802Y387890D01*
X247201Y388035D01*
X247623Y388149D01*
X248068Y388229D01*
X248536Y388278D01*
X249026Y388294D01*
X249561Y388278D01*
X250064Y388229D01*
X250535Y388148D01*
X250975Y388034D01*
X251382Y387888D01*
X251758Y387709D01*
X252102Y387498D01*
X252414Y387254D01*
X252692Y386981D01*
X252932Y386680D01*
X253136Y386352D01*
X253303Y385996D01*
X253432Y385613D01*
X253525Y385203D01*
X253580Y384765D01*
X253599Y384301D01*
X253574Y383877D01*
X253502Y383455D01*
X253380Y383034D01*
X253211Y382614D01*
X252993Y382195D01*
X252728Y381776D01*
X252416Y381357D01*
X252057Y380938D01*
X251587Y380462D01*
X250943Y379870D01*
X250123Y379163D01*
X249129Y378342D01*
X248565Y377867D01*
X248061Y377417D01*
X247618Y376991D01*
X247236Y376588D01*
X246909Y376201D01*
X246631Y375821D01*
X246402Y375449D01*
X246222Y375083D01*
X253826Y375083D01*
X253826Y373500D01*
G37*
G36*
X279857Y373500D02*
X270722Y373500D01*
X270722Y375083D01*
X274436Y375083D01*
X274436Y386297D01*
X271146Y383949D01*
X271146Y385708D01*
X274591Y388077D01*
X276309Y388077D01*
X276309Y375083D01*
X279857Y375083D01*
X279857Y373500D01*
G37*
G36*
X35130Y792289D02*
X22788Y792289D01*
X22788Y793634D01*
X35130Y793634D01*
X35130Y792289D01*
G37*
G36*
X54755Y788362D02*
X53235Y788362D01*
X53235Y792790D01*
X48848Y792790D01*
X48848Y794300D01*
X53235Y794300D01*
X53235Y798728D01*
X54755Y798728D01*
X54755Y794300D01*
X59142Y794300D01*
X59142Y792790D01*
X54755Y792790D01*
X54755Y788362D01*
G37*
G36*
X68781Y787500D02*
X67022Y787500D01*
X67022Y802077D01*
X69619Y802077D01*
X73498Y791969D01*
X73701Y791337D01*
X73897Y790661D01*
X74056Y790059D01*
X74150Y789652D01*
X74278Y790173D01*
X74497Y790909D01*
X74718Y791596D01*
X74853Y791969D01*
X78661Y802077D01*
X81195Y802077D01*
X81195Y787500D01*
X79416Y787500D01*
X79416Y797225D01*
X79439Y798808D01*
X79468Y799576D01*
X79509Y800328D01*
X79262Y799453D01*
X79028Y798678D01*
X78807Y798005D01*
X78599Y797432D01*
X74833Y787500D01*
X73447Y787500D01*
X69629Y797432D01*
X69050Y799190D01*
X68708Y800328D01*
X68739Y799180D01*
X68781Y797225D01*
X68781Y787500D01*
G37*
G36*
X93658Y787500D02*
X84523Y787500D01*
X84523Y789083D01*
X88237Y789083D01*
X88237Y800297D01*
X84947Y797949D01*
X84947Y799708D01*
X88392Y802077D01*
X90109Y802077D01*
X90109Y789083D01*
X93658Y789083D01*
X93658Y787500D01*
G37*
G36*
X35130Y621289D02*
X22788Y621289D01*
X22788Y622634D01*
X35130Y622634D01*
X35130Y621289D01*
G37*
G36*
X54755Y617362D02*
X53235Y617362D01*
X53235Y621790D01*
X48848Y621790D01*
X48848Y623300D01*
X53235Y623300D01*
X53235Y627728D01*
X54755Y627728D01*
X54755Y623300D01*
X59142Y623300D01*
X59142Y621790D01*
X54755Y621790D01*
X54755Y617362D01*
G37*
G36*
X73181Y615293D02*
X72532Y615308D01*
X71919Y615351D01*
X71340Y615423D01*
X70797Y615525D01*
X70288Y615655D01*
X69815Y615814D01*
X69376Y616002D01*
X68973Y616219D01*
X68604Y616465D01*
X68271Y616740D01*
X67972Y617044D01*
X67709Y617376D01*
X67480Y617738D01*
X67287Y618129D01*
X67128Y618548D01*
X67005Y618997D01*
X68919Y619380D01*
X69013Y619062D01*
X69131Y618766D01*
X69272Y618492D01*
X69436Y618240D01*
X69623Y618010D01*
X69834Y617802D01*
X70068Y617615D01*
X70326Y617450D01*
X70607Y617306D01*
X70912Y617181D01*
X71242Y617075D01*
X71595Y616988D01*
X71974Y616921D01*
X72376Y616873D01*
X72802Y616844D01*
X73253Y616835D01*
X73718Y616845D01*
X74156Y616876D01*
X74566Y616927D01*
X74949Y616999D01*
X75304Y617091D01*
X75632Y617204D01*
X75933Y617338D01*
X76207Y617492D01*
X76451Y617665D01*
X76662Y617858D01*
X76840Y618071D01*
X76987Y618302D01*
X77100Y618553D01*
X77182Y618823D01*
X77230Y619112D01*
X77247Y619421D01*
X77226Y619761D01*
X77165Y620068D01*
X77063Y620340D01*
X76921Y620580D01*
X76741Y620792D01*
X76529Y620986D01*
X76284Y621160D01*
X76005Y621314D01*
X75696Y621453D01*
X75359Y621581D01*
X74993Y621696D01*
X74598Y621800D01*
X72788Y622225D01*
X71976Y622416D01*
X71268Y622607D01*
X70665Y622799D01*
X70165Y622990D01*
X69741Y623187D01*
X69365Y623395D01*
X69035Y623614D01*
X68753Y623844D01*
X68510Y624089D01*
X68297Y624354D01*
X68114Y624640D01*
X67962Y624945D01*
X67842Y625273D01*
X67756Y625623D01*
X67705Y625997D01*
X67687Y626394D01*
X67710Y626848D01*
X67777Y627276D01*
X67889Y627677D01*
X68046Y628052D01*
X68247Y628399D01*
X68493Y628720D01*
X68784Y629013D01*
X69120Y629280D01*
X69498Y629518D01*
X69914Y629724D01*
X70369Y629898D01*
X70862Y630041D01*
X71394Y630151D01*
X71965Y630231D01*
X72574Y630278D01*
X73222Y630294D01*
X73825Y630282D01*
X74391Y630246D01*
X74920Y630187D01*
X75413Y630104D01*
X75869Y629997D01*
X76289Y629866D01*
X76672Y629712D01*
X77019Y629534D01*
X77335Y629327D01*
X77627Y629086D01*
X77894Y628813D01*
X78136Y628506D01*
X78354Y628165D01*
X78548Y627791D01*
X78716Y627383D01*
X78861Y626942D01*
X76916Y626601D01*
X76826Y626880D01*
X76719Y627140D01*
X76594Y627380D01*
X76450Y627600D01*
X76288Y627801D01*
X76109Y627981D01*
X75911Y628141D01*
X75695Y628282D01*
X75459Y628404D01*
X75201Y628510D01*
X74922Y628600D01*
X74621Y628674D01*
X74299Y628731D01*
X73955Y628772D01*
X73589Y628796D01*
X73202Y628804D01*
X72777Y628795D01*
X72379Y628768D01*
X72007Y628723D01*
X71660Y628659D01*
X71339Y628578D01*
X71045Y628478D01*
X70776Y628361D01*
X70532Y628225D01*
X70317Y628071D01*
X70130Y627900D01*
X69971Y627710D01*
X69842Y627503D01*
X69741Y627278D01*
X69669Y627036D01*
X69626Y626775D01*
X69612Y626497D01*
X69634Y626176D01*
X69701Y625883D01*
X69812Y625619D01*
X69969Y625385D01*
X70167Y625174D01*
X70404Y624979D01*
X70681Y624801D01*
X70998Y624640D01*
X71418Y624479D01*
X72004Y624300D01*
X72757Y624104D01*
X73677Y623890D01*
X75017Y623575D01*
X75670Y623399D01*
X76295Y623192D01*
X76886Y622950D01*
X77438Y622669D01*
X77696Y622511D01*
X77936Y622336D01*
X78159Y622144D01*
X78364Y621935D01*
X78550Y621708D01*
X78714Y621462D01*
X78858Y621196D01*
X78979Y620911D01*
X79077Y620603D01*
X79146Y620269D01*
X79188Y619910D01*
X79202Y619524D01*
X79196Y619276D01*
X79177Y619034D01*
X79103Y618573D01*
X78980Y618139D01*
X78808Y617735D01*
X78586Y617358D01*
X78314Y617010D01*
X77994Y616691D01*
X77624Y616400D01*
X77210Y616141D01*
X76755Y615916D01*
X76260Y615725D01*
X75725Y615570D01*
X75149Y615449D01*
X74533Y615362D01*
X73877Y615310D01*
X73181Y615293D01*
G37*
G36*
X90916Y615500D02*
X81781Y615500D01*
X81781Y617083D01*
X85495Y617083D01*
X85495Y628297D01*
X82206Y625949D01*
X82206Y627708D01*
X85651Y630077D01*
X87368Y630077D01*
X87368Y617083D01*
X90916Y617083D01*
X90916Y615500D01*
G37*
G36*
X62130Y297289D02*
X49788Y297289D01*
X49788Y298634D01*
X62130Y298634D01*
X62130Y297289D01*
G37*
G36*
X62130Y368289D02*
X49788Y368289D01*
X49788Y369634D01*
X62130Y369634D01*
X62130Y368289D01*
G37*
G36*
X33755Y363015D02*
X33579Y364939D01*
X33892Y364995D01*
X34185Y365070D01*
X34458Y365164D01*
X34711Y365277D01*
X34943Y365409D01*
X35155Y365560D01*
X35347Y365730D01*
X35519Y365919D01*
X35670Y366127D01*
X35802Y366354D01*
X35913Y366600D01*
X36004Y366865D01*
X36075Y367149D01*
X36125Y367452D01*
X36155Y367774D01*
X36165Y368115D01*
X36155Y368457D01*
X36122Y368781D01*
X36068Y369085D01*
X35992Y369371D01*
X35895Y369637D01*
X35776Y369885D01*
X35635Y370114D01*
X35472Y370324D01*
X35289Y370512D01*
X35084Y370675D01*
X34858Y370812D01*
X34611Y370925D01*
X34343Y371013D01*
X34054Y371075D01*
X33744Y371113D01*
X33414Y371126D01*
X33124Y371111D01*
X32851Y371068D01*
X32595Y370997D01*
X32354Y370897D01*
X32130Y370768D01*
X31923Y370611D01*
X31732Y370425D01*
X31557Y370210D01*
X31400Y369968D01*
X31265Y369701D01*
X31150Y369409D01*
X31056Y369091D01*
X30983Y368748D01*
X30931Y368380D01*
X30900Y367986D01*
X30889Y367567D01*
X30889Y366511D01*
X29275Y366511D01*
X29275Y367525D01*
X29265Y367897D01*
X29234Y368248D01*
X29182Y368577D01*
X29109Y368884D01*
X29015Y369171D01*
X28900Y369435D01*
X28765Y369678D01*
X28608Y369900D01*
X28433Y370097D01*
X28242Y370269D01*
X28036Y370413D01*
X27813Y370532D01*
X27574Y370624D01*
X27319Y370690D01*
X27048Y370730D01*
X26761Y370743D01*
X26477Y370732D01*
X26208Y370700D01*
X25954Y370646D01*
X25715Y370571D01*
X25492Y370474D01*
X25284Y370356D01*
X25092Y370216D01*
X24915Y370055D01*
X24756Y369872D01*
X24618Y369669D01*
X24502Y369445D01*
X24407Y369200D01*
X24332Y368934D01*
X24280Y368648D01*
X24248Y368340D01*
X24237Y368012D01*
X24247Y367711D01*
X24277Y367425D01*
X24326Y367154D01*
X24395Y366898D01*
X24484Y366657D01*
X24592Y366430D01*
X24720Y366218D01*
X24868Y366020D01*
X25034Y365840D01*
X25216Y365680D01*
X25414Y365539D01*
X25629Y365419D01*
X25859Y365318D01*
X26106Y365237D01*
X26369Y365177D01*
X26648Y365136D01*
X26503Y363263D01*
X26068Y363331D01*
X25657Y363433D01*
X25271Y363569D01*
X24910Y363738D01*
X24573Y363940D01*
X24260Y364176D01*
X23973Y364445D01*
X23710Y364748D01*
X23474Y365078D01*
X23270Y365432D01*
X23098Y365808D01*
X22957Y366208D01*
X22847Y366630D01*
X22769Y367074D01*
X22722Y367542D01*
X22706Y368032D01*
X22722Y368565D01*
X22770Y369068D01*
X22849Y369540D01*
X22961Y369981D01*
X23104Y370392D01*
X23279Y370772D01*
X23486Y371122D01*
X23725Y371441D01*
X23992Y371726D01*
X24285Y371973D01*
X24602Y372182D01*
X24945Y372353D01*
X25312Y372486D01*
X25705Y372581D01*
X26122Y372638D01*
X26565Y372657D01*
X26906Y372644D01*
X27231Y372608D01*
X27539Y372547D01*
X27831Y372461D01*
X28107Y372352D01*
X28366Y372217D01*
X28609Y372059D01*
X28836Y371876D01*
X29045Y371669D01*
X29238Y371441D01*
X29412Y371190D01*
X29569Y370917D01*
X29708Y370622D01*
X29830Y370305D01*
X29934Y369966D01*
X30020Y369605D01*
X30062Y369605D01*
X30117Y370002D01*
X30196Y370377D01*
X30298Y370729D01*
X30424Y371058D01*
X30572Y371365D01*
X30744Y371649D01*
X30940Y371911D01*
X31158Y372150D01*
X31396Y372363D01*
X31648Y372548D01*
X31916Y372705D01*
X32198Y372833D01*
X32495Y372932D01*
X32807Y373003D01*
X33134Y373046D01*
X33476Y373060D01*
X33966Y373040D01*
X34427Y372980D01*
X34861Y372880D01*
X35265Y372739D01*
X35642Y372559D01*
X35990Y372339D01*
X36309Y372078D01*
X36600Y371777D01*
X36859Y371439D01*
X37084Y371067D01*
X37275Y370661D01*
X37430Y370220D01*
X37551Y369745D01*
X37638Y369236D01*
X37690Y368693D01*
X37707Y368115D01*
X37691Y367576D01*
X37645Y367064D01*
X37567Y366580D01*
X37457Y366125D01*
X37317Y365697D01*
X37145Y365298D01*
X36943Y364926D01*
X36709Y364582D01*
X36444Y364269D01*
X36150Y363989D01*
X35825Y363743D01*
X35471Y363531D01*
X35087Y363352D01*
X34673Y363206D01*
X34229Y363094D01*
X33755Y363015D01*
G37*
G36*
X33755Y380671D02*
X33579Y382595D01*
X33892Y382651D01*
X34185Y382726D01*
X34458Y382820D01*
X34711Y382933D01*
X34943Y383065D01*
X35155Y383216D01*
X35347Y383386D01*
X35519Y383575D01*
X35670Y383783D01*
X35802Y384010D01*
X35913Y384256D01*
X36004Y384521D01*
X36075Y384805D01*
X36125Y385108D01*
X36155Y385430D01*
X36165Y385771D01*
X36155Y386114D01*
X36122Y386437D01*
X36068Y386741D01*
X35992Y387027D01*
X35895Y387294D01*
X35776Y387541D01*
X35635Y387770D01*
X35472Y387980D01*
X35289Y388168D01*
X35084Y388331D01*
X34858Y388469D01*
X34611Y388581D01*
X34343Y388669D01*
X34054Y388732D01*
X33744Y388769D01*
X33414Y388782D01*
X33124Y388768D01*
X32851Y388725D01*
X32595Y388653D01*
X32354Y388553D01*
X32130Y388424D01*
X31923Y388267D01*
X31732Y388081D01*
X31557Y387866D01*
X31400Y387625D01*
X31265Y387358D01*
X31150Y387065D01*
X31056Y386748D01*
X30983Y386405D01*
X30931Y386036D01*
X30900Y385642D01*
X30889Y385223D01*
X30889Y384168D01*
X29275Y384168D01*
X29275Y385182D01*
X29265Y385554D01*
X29234Y385904D01*
X29182Y386233D01*
X29109Y386541D01*
X29015Y386827D01*
X28900Y387091D01*
X28765Y387334D01*
X28608Y387556D01*
X28433Y387753D01*
X28242Y387925D01*
X28036Y388070D01*
X27813Y388188D01*
X27574Y388280D01*
X27319Y388346D01*
X27048Y388386D01*
X26761Y388399D01*
X26477Y388388D01*
X26208Y388356D01*
X25954Y388302D01*
X25715Y388227D01*
X25492Y388130D01*
X25284Y388012D01*
X25092Y387872D01*
X24915Y387711D01*
X24756Y387529D01*
X24618Y387325D01*
X24502Y387101D01*
X24407Y386856D01*
X24332Y386590D01*
X24280Y386304D01*
X24248Y385996D01*
X24237Y385668D01*
X24247Y385367D01*
X24277Y385082D01*
X24326Y384811D01*
X24395Y384554D01*
X24484Y384313D01*
X24592Y384086D01*
X24720Y383874D01*
X24868Y383676D01*
X25034Y383496D01*
X25216Y383336D01*
X25414Y383196D01*
X25629Y383075D01*
X25859Y382974D01*
X26106Y382894D01*
X26369Y382833D01*
X26648Y382792D01*
X26503Y380919D01*
X26068Y380988D01*
X25657Y381090D01*
X25271Y381225D01*
X24910Y381394D01*
X24573Y381596D01*
X24260Y381832D01*
X23973Y382101D01*
X23710Y382404D01*
X23474Y382735D01*
X23270Y383088D01*
X23098Y383465D01*
X22957Y383864D01*
X22847Y384286D01*
X22769Y384731D01*
X22722Y385198D01*
X22706Y385689D01*
X22722Y386222D01*
X22770Y386724D01*
X22849Y387196D01*
X22961Y387637D01*
X23104Y388048D01*
X23279Y388428D01*
X23486Y388778D01*
X23725Y389097D01*
X23992Y389382D01*
X24285Y389629D01*
X24602Y389838D01*
X24945Y390009D01*
X25312Y390142D01*
X25705Y390237D01*
X26122Y390294D01*
X26565Y390313D01*
X26906Y390301D01*
X27231Y390264D01*
X27539Y390203D01*
X27831Y390118D01*
X28107Y390008D01*
X28366Y389874D01*
X28609Y389715D01*
X28836Y389532D01*
X29045Y389326D01*
X29238Y389097D01*
X29412Y388846D01*
X29569Y388574D01*
X29708Y388279D01*
X29830Y387962D01*
X29934Y387622D01*
X30020Y387261D01*
X30062Y387261D01*
X30117Y387658D01*
X30196Y388033D01*
X30298Y388385D01*
X30424Y388715D01*
X30572Y389021D01*
X30744Y389306D01*
X30940Y389567D01*
X31158Y389806D01*
X31396Y390019D01*
X31648Y390204D01*
X31916Y390361D01*
X32198Y390489D01*
X32495Y390588D01*
X32807Y390660D01*
X33134Y390702D01*
X33476Y390716D01*
X33966Y390696D01*
X34427Y390636D01*
X34861Y390536D01*
X35265Y390396D01*
X35642Y390215D01*
X35990Y389995D01*
X36309Y389734D01*
X36600Y389434D01*
X36859Y389096D01*
X37084Y388724D01*
X37275Y388317D01*
X37430Y387877D01*
X37551Y387402D01*
X37638Y386892D01*
X37690Y386349D01*
X37707Y385771D01*
X37691Y385232D01*
X37645Y384720D01*
X37567Y384237D01*
X37457Y383781D01*
X37317Y383353D01*
X37145Y382954D01*
X36943Y382582D01*
X36709Y382238D01*
X36444Y381925D01*
X36150Y381646D01*
X35825Y381400D01*
X35471Y381187D01*
X35087Y381008D01*
X34673Y380862D01*
X34229Y380750D01*
X33755Y380671D01*
G37*
G36*
X22923Y391738D02*
X22923Y393818D01*
X33186Y397853D01*
X35762Y398722D01*
X33186Y399591D01*
X22923Y403605D01*
X22923Y405684D01*
X37500Y399735D01*
X37500Y397687D01*
X22923Y391738D01*
G37*
G36*
X37500Y375924D02*
X35234Y375924D01*
X35234Y377941D01*
X37500Y377941D01*
X37500Y375924D01*
G37*
G36*
X32210Y292848D02*
X30700Y292848D01*
X30700Y297235D01*
X26272Y297235D01*
X26272Y298755D01*
X30700Y298755D01*
X30700Y303142D01*
X32210Y303142D01*
X32210Y298755D01*
X36638Y298755D01*
X36638Y297235D01*
X32210Y297235D01*
X32210Y292848D01*
G37*
G36*
X180546Y800000D02*
X174628Y800000D01*
X174628Y814577D01*
X179925Y814577D01*
X180547Y814563D01*
X181128Y814521D01*
X181669Y814452D01*
X182170Y814356D01*
X182631Y814231D01*
X183052Y814079D01*
X183433Y813900D01*
X183774Y813692D01*
X184074Y813457D01*
X184335Y813195D01*
X184556Y812904D01*
X184736Y812587D01*
X184876Y812241D01*
X184976Y811868D01*
X185037Y811467D01*
X185057Y811039D01*
X185045Y810722D01*
X185011Y810418D01*
X184955Y810127D01*
X184876Y809849D01*
X184774Y809584D01*
X184649Y809332D01*
X184502Y809092D01*
X184332Y808866D01*
X184142Y808655D01*
X184025Y808547D01*
X183933Y808463D01*
X183705Y808288D01*
X183458Y808132D01*
X183193Y807993D01*
X182909Y807873D01*
X182606Y807771D01*
X182284Y807687D01*
X182706Y807623D01*
X183103Y807536D01*
X183476Y807426D01*
X183823Y807292D01*
X184145Y807135D01*
X184443Y806954D01*
X184716Y806750D01*
X184830Y806645D01*
X184964Y806523D01*
X185184Y806276D01*
X185375Y806013D01*
X185537Y805735D01*
X185670Y805440D01*
X185773Y805131D01*
X185846Y804805D01*
X185890Y804464D01*
X185905Y804107D01*
X185883Y803634D01*
X185816Y803189D01*
X185706Y802770D01*
X185551Y802378D01*
X185351Y802013D01*
X185108Y801676D01*
X184820Y801365D01*
X184488Y801081D01*
X184116Y800828D01*
X183710Y800608D01*
X183269Y800422D01*
X182794Y800270D01*
X182284Y800152D01*
X181739Y800068D01*
X181160Y800017D01*
X180546Y800000D01*
G37*
%LPC*%
G36*
X180443Y801583D02*
X180880Y801593D01*
X181286Y801625D01*
X181662Y801677D01*
X182007Y801751D01*
X182322Y801846D01*
X182605Y801961D01*
X182858Y802098D01*
X183081Y802255D01*
X183275Y802434D01*
X183443Y802633D01*
X183585Y802853D01*
X183701Y803093D01*
X183792Y803355D01*
X183857Y803636D01*
X183895Y803939D01*
X183908Y804262D01*
X183894Y804574D01*
X183852Y804866D01*
X183781Y805138D01*
X183682Y805389D01*
X183555Y805621D01*
X183399Y805832D01*
X183215Y806023D01*
X183003Y806194D01*
X182763Y806345D01*
X182494Y806476D01*
X182197Y806587D01*
X181872Y806677D01*
X181518Y806748D01*
X181136Y806798D01*
X180726Y806828D01*
X180287Y806838D01*
X176604Y806838D01*
X176604Y801583D01*
X180443Y801583D01*
G37*
G36*
X179925Y808380D02*
X180309Y808389D01*
X180667Y808417D01*
X181000Y808463D01*
X181308Y808529D01*
X181591Y808612D01*
X181849Y808714D01*
X182081Y808835D01*
X182289Y808975D01*
X182472Y809133D01*
X182631Y809312D01*
X182765Y809510D01*
X182875Y809729D01*
X182960Y809967D01*
X183022Y810225D01*
X183058Y810503D01*
X183070Y810801D01*
X183058Y811085D01*
X183020Y811348D01*
X182957Y811591D01*
X182869Y811812D01*
X182755Y812012D01*
X182616Y812191D01*
X182453Y812350D01*
X182263Y812487D01*
X182050Y812606D01*
X181815Y812709D01*
X181556Y812796D01*
X181275Y812867D01*
X180972Y812923D01*
X180646Y812962D01*
X180297Y812986D01*
X179925Y812994D01*
X176604Y812994D01*
X176604Y808380D01*
X179925Y808380D01*
G37*
%LPD*%
G36*
X214214Y799793D02*
X213612Y799816D01*
X213046Y799886D01*
X212518Y800001D01*
X212027Y800163D01*
X211573Y800371D01*
X211156Y800625D01*
X210776Y800926D01*
X210433Y801272D01*
X210128Y801665D01*
X209865Y802102D01*
X209641Y802584D01*
X209459Y803111D01*
X209317Y803683D01*
X209215Y804300D01*
X209154Y804962D01*
X209134Y805669D01*
X209154Y806342D01*
X209215Y806975D01*
X209317Y807567D01*
X209459Y808119D01*
X209641Y808630D01*
X209865Y809101D01*
X210128Y809531D01*
X210433Y809921D01*
X210775Y810268D01*
X211151Y810569D01*
X211563Y810823D01*
X212009Y811031D01*
X212490Y811193D01*
X213006Y811308D01*
X213556Y811378D01*
X214141Y811401D01*
X214739Y811377D01*
X215298Y811308D01*
X215818Y811192D01*
X216300Y811029D01*
X216744Y810820D01*
X217149Y810564D01*
X217515Y810262D01*
X217843Y809914D01*
X218132Y809519D01*
X218382Y809077D01*
X218594Y808589D01*
X218768Y808055D01*
X218903Y807474D01*
X218999Y806846D01*
X219057Y806172D01*
X219076Y805452D01*
X219076Y805204D01*
X211090Y805204D01*
X211102Y804736D01*
X211139Y804297D01*
X211202Y803884D01*
X211289Y803499D01*
X211401Y803142D01*
X211538Y802812D01*
X211699Y802510D01*
X211886Y802235D01*
X212097Y801990D01*
X212330Y801777D01*
X212587Y801598D01*
X212866Y801451D01*
X213169Y801337D01*
X213494Y801255D01*
X213843Y801206D01*
X214214Y801190D01*
X214509Y801197D01*
X214789Y801220D01*
X215054Y801258D01*
X215304Y801311D01*
X215539Y801380D01*
X215759Y801463D01*
X215964Y801562D01*
X216154Y801676D01*
X216489Y801935D01*
X216765Y802227D01*
X216881Y802385D01*
X216983Y802551D01*
X217070Y802725D01*
X217142Y802907D01*
X218776Y802442D01*
X218641Y802121D01*
X218485Y801821D01*
X218310Y801541D01*
X218115Y801283D01*
X217899Y801045D01*
X217664Y800828D01*
X217409Y800631D01*
X217134Y800455D01*
X216839Y800300D01*
X216524Y800166D01*
X216189Y800052D01*
X215834Y799959D01*
X215459Y799886D01*
X215064Y799835D01*
X214649Y799803D01*
X214214Y799793D01*
G37*
%LPC*%
G36*
X217152Y806631D02*
X217104Y807059D01*
X217037Y807456D01*
X216953Y807824D01*
X216849Y808161D01*
X216728Y808469D01*
X216587Y808747D01*
X216429Y808995D01*
X216252Y809213D01*
X216055Y809403D01*
X215839Y809568D01*
X215602Y809708D01*
X215344Y809822D01*
X215066Y809911D01*
X214768Y809974D01*
X214449Y810012D01*
X214110Y810025D01*
X213780Y810011D01*
X213468Y809968D01*
X213173Y809897D01*
X212896Y809798D01*
X212637Y809671D01*
X212395Y809516D01*
X212170Y809332D01*
X211964Y809120D01*
X211777Y808883D01*
X211614Y808625D01*
X211473Y808345D01*
X211355Y808045D01*
X211259Y807723D01*
X211187Y807381D01*
X211137Y807017D01*
X211110Y806631D01*
X217152Y806631D01*
G37*
%LPD*%
G36*
X233026Y799793D02*
X232424Y799816D01*
X231859Y799886D01*
X231331Y800001D01*
X230840Y800163D01*
X230385Y800371D01*
X229968Y800625D01*
X229588Y800926D01*
X229245Y801272D01*
X228941Y801665D01*
X228677Y802102D01*
X228454Y802584D01*
X228271Y803111D01*
X228129Y803683D01*
X228028Y804300D01*
X227967Y804962D01*
X227947Y805669D01*
X227967Y806342D01*
X228028Y806975D01*
X228129Y807567D01*
X228271Y808119D01*
X228454Y808630D01*
X228677Y809101D01*
X228941Y809531D01*
X229245Y809921D01*
X229587Y810268D01*
X229964Y810569D01*
X230375Y810823D01*
X230821Y811031D01*
X231302Y811193D01*
X231818Y811308D01*
X232369Y811378D01*
X232954Y811401D01*
X233551Y811377D01*
X234111Y811308D01*
X234631Y811192D01*
X235113Y811029D01*
X235556Y810820D01*
X235961Y810564D01*
X236327Y810262D01*
X236655Y809914D01*
X236944Y809519D01*
X237195Y809077D01*
X237407Y808589D01*
X237580Y808055D01*
X237715Y807474D01*
X237812Y806846D01*
X237869Y806172D01*
X237889Y805452D01*
X237889Y805204D01*
X229902Y805204D01*
X229914Y804736D01*
X229952Y804297D01*
X230014Y803884D01*
X230101Y803499D01*
X230213Y803142D01*
X230350Y802812D01*
X230512Y802510D01*
X230699Y802235D01*
X230909Y801990D01*
X231143Y801777D01*
X231399Y801598D01*
X231679Y801451D01*
X231981Y801337D01*
X232307Y801255D01*
X232655Y801206D01*
X233026Y801190D01*
X233321Y801197D01*
X233601Y801220D01*
X233866Y801258D01*
X234116Y801311D01*
X234351Y801380D01*
X234571Y801463D01*
X234776Y801562D01*
X234966Y801676D01*
X235301Y801935D01*
X235578Y802227D01*
X235694Y802385D01*
X235795Y802551D01*
X235882Y802725D01*
X235954Y802907D01*
X237589Y802442D01*
X237453Y802121D01*
X237298Y801821D01*
X237123Y801541D01*
X236927Y801283D01*
X236712Y801045D01*
X236477Y800828D01*
X236222Y800631D01*
X235946Y800455D01*
X235651Y800300D01*
X235336Y800166D01*
X235001Y800052D01*
X234646Y799959D01*
X234271Y799886D01*
X233876Y799835D01*
X233461Y799803D01*
X233026Y799793D01*
G37*
%LPC*%
G36*
X235964Y806631D02*
X235916Y807059D01*
X235850Y807456D01*
X235765Y807824D01*
X235662Y808161D01*
X235540Y808469D01*
X235400Y808747D01*
X235241Y808995D01*
X235064Y809213D01*
X234868Y809403D01*
X234651Y809568D01*
X234414Y809708D01*
X234157Y809822D01*
X233879Y809911D01*
X233580Y809974D01*
X233262Y810012D01*
X232923Y810025D01*
X232593Y810011D01*
X232280Y809968D01*
X231986Y809897D01*
X231709Y809798D01*
X231449Y809671D01*
X231207Y809516D01*
X230983Y809332D01*
X230776Y809120D01*
X230590Y808883D01*
X230426Y808625D01*
X230285Y808345D01*
X230167Y808045D01*
X230072Y807723D01*
X229999Y807381D01*
X229950Y807017D01*
X229923Y806631D01*
X235964Y806631D01*
G37*
%LPD*%
G36*
X196636Y800000D02*
X194660Y800000D01*
X194660Y814577D01*
X196636Y814577D01*
X196636Y808411D01*
X204519Y808411D01*
X204519Y814577D01*
X206495Y814577D01*
X206495Y800000D01*
X204519Y800000D01*
X204519Y806756D01*
X196636Y806756D01*
X196636Y800000D01*
G37*
G36*
X165904Y799793D02*
X165255Y799808D01*
X164642Y799851D01*
X164063Y799923D01*
X163520Y800025D01*
X163011Y800155D01*
X162538Y800314D01*
X162099Y800502D01*
X161696Y800719D01*
X161327Y800965D01*
X160994Y801240D01*
X160695Y801544D01*
X160432Y801876D01*
X160203Y802238D01*
X160010Y802629D01*
X159851Y803048D01*
X159728Y803497D01*
X161641Y803880D01*
X161736Y803562D01*
X161854Y803266D01*
X161994Y802992D01*
X162159Y802740D01*
X162346Y802510D01*
X162557Y802302D01*
X162791Y802115D01*
X163048Y801950D01*
X163330Y801806D01*
X163635Y801681D01*
X163964Y801575D01*
X164318Y801488D01*
X164696Y801421D01*
X165099Y801373D01*
X165525Y801344D01*
X165976Y801335D01*
X166441Y801345D01*
X166879Y801376D01*
X167289Y801427D01*
X167672Y801499D01*
X168027Y801591D01*
X168355Y801704D01*
X168656Y801838D01*
X168930Y801992D01*
X169174Y802165D01*
X169385Y802358D01*
X169563Y802571D01*
X169710Y802802D01*
X169823Y803053D01*
X169905Y803323D01*
X169953Y803612D01*
X169970Y803921D01*
X169949Y804261D01*
X169888Y804568D01*
X169786Y804840D01*
X169644Y805080D01*
X169464Y805292D01*
X169252Y805486D01*
X169006Y805660D01*
X168728Y805814D01*
X168419Y805953D01*
X168081Y806081D01*
X167716Y806196D01*
X167321Y806300D01*
X165511Y806725D01*
X164699Y806916D01*
X163991Y807107D01*
X163388Y807299D01*
X162888Y807490D01*
X162464Y807687D01*
X162088Y807895D01*
X161758Y808114D01*
X161476Y808344D01*
X161232Y808589D01*
X161019Y808854D01*
X160837Y809140D01*
X160684Y809445D01*
X160565Y809773D01*
X160479Y810123D01*
X160427Y810497D01*
X160410Y810894D01*
X160433Y811348D01*
X160500Y811776D01*
X160612Y812177D01*
X160769Y812552D01*
X160970Y812899D01*
X161216Y813220D01*
X161507Y813513D01*
X161843Y813780D01*
X162221Y814018D01*
X162637Y814224D01*
X163092Y814398D01*
X163585Y814541D01*
X164117Y814651D01*
X164688Y814731D01*
X165297Y814778D01*
X165945Y814794D01*
X166548Y814782D01*
X167114Y814746D01*
X167643Y814687D01*
X168136Y814604D01*
X168592Y814497D01*
X169012Y814366D01*
X169395Y814212D01*
X169742Y814034D01*
X170058Y813827D01*
X170350Y813586D01*
X170617Y813313D01*
X170859Y813006D01*
X171077Y812665D01*
X171270Y812291D01*
X171439Y811883D01*
X171583Y811442D01*
X169638Y811101D01*
X169549Y811380D01*
X169442Y811640D01*
X169316Y811880D01*
X169173Y812100D01*
X169011Y812301D01*
X168832Y812481D01*
X168634Y812641D01*
X168418Y812782D01*
X168182Y812904D01*
X167924Y813010D01*
X167645Y813100D01*
X167344Y813174D01*
X167022Y813231D01*
X166678Y813272D01*
X166312Y813296D01*
X165924Y813304D01*
X165500Y813295D01*
X165102Y813268D01*
X164730Y813223D01*
X164383Y813159D01*
X164062Y813078D01*
X163767Y812978D01*
X163498Y812861D01*
X163255Y812725D01*
X163040Y812571D01*
X162853Y812400D01*
X162694Y812210D01*
X162565Y812003D01*
X162464Y811778D01*
X162392Y811536D01*
X162349Y811275D01*
X162335Y810997D01*
X162357Y810676D01*
X162424Y810383D01*
X162535Y810119D01*
X162692Y809885D01*
X162890Y809674D01*
X163127Y809479D01*
X163404Y809301D01*
X163721Y809140D01*
X164141Y808979D01*
X164727Y808800D01*
X165480Y808604D01*
X166400Y808390D01*
X167740Y808075D01*
X168393Y807899D01*
X169018Y807692D01*
X169609Y807450D01*
X170161Y807169D01*
X170419Y807011D01*
X170659Y806836D01*
X170882Y806644D01*
X171087Y806435D01*
X171273Y806208D01*
X171437Y805962D01*
X171581Y805696D01*
X171702Y805411D01*
X171800Y805103D01*
X171869Y804769D01*
X171911Y804410D01*
X171925Y804024D01*
X171919Y803776D01*
X171900Y803534D01*
X171826Y803073D01*
X171703Y802639D01*
X171530Y802235D01*
X171309Y801858D01*
X171037Y801510D01*
X170717Y801191D01*
X170347Y800900D01*
X169933Y800641D01*
X169478Y800416D01*
X168983Y800225D01*
X168447Y800070D01*
X167872Y799949D01*
X167256Y799862D01*
X166600Y799810D01*
X165904Y799793D01*
G37*
G36*
X151047Y799793D02*
X150606Y799803D01*
X150180Y799834D01*
X149768Y799885D01*
X149371Y799956D01*
X148987Y800048D01*
X148618Y800160D01*
X148263Y800292D01*
X147922Y800445D01*
X147598Y800617D01*
X147293Y800808D01*
X147006Y801017D01*
X146738Y801244D01*
X146489Y801490D01*
X146258Y801754D01*
X146046Y802037D01*
X145853Y802338D01*
X145681Y802656D01*
X145532Y802989D01*
X145406Y803336D01*
X145302Y803699D01*
X145222Y804076D01*
X145165Y804468D01*
X145130Y804875D01*
X145119Y805297D01*
X145119Y814577D01*
X147095Y814577D01*
X147095Y805462D01*
X147111Y804978D01*
X147158Y804524D01*
X147237Y804100D01*
X147348Y803706D01*
X147491Y803342D01*
X147665Y803009D01*
X147871Y802705D01*
X148109Y802431D01*
X148376Y802189D01*
X148672Y801979D01*
X148996Y801801D01*
X149347Y801655D01*
X149727Y801542D01*
X150136Y801461D01*
X150572Y801413D01*
X151036Y801397D01*
X151514Y801413D01*
X151965Y801464D01*
X152388Y801547D01*
X152783Y801664D01*
X153152Y801815D01*
X153493Y801999D01*
X153807Y802216D01*
X154093Y802467D01*
X154349Y802751D01*
X154571Y803065D01*
X154759Y803409D01*
X154912Y803785D01*
X155031Y804192D01*
X155117Y804629D01*
X155168Y805098D01*
X155185Y805597D01*
X155185Y814577D01*
X157151Y814577D01*
X157151Y805483D01*
X157139Y805048D01*
X157104Y804629D01*
X157045Y804225D01*
X156963Y803836D01*
X156858Y803462D01*
X156729Y803103D01*
X156576Y802759D01*
X156400Y802431D01*
X156203Y802120D01*
X155987Y801828D01*
X155751Y801554D01*
X155495Y801300D01*
X155220Y801064D01*
X154926Y800847D01*
X154613Y800650D01*
X154280Y800471D01*
X153929Y800312D01*
X153564Y800174D01*
X153182Y800058D01*
X152786Y799963D01*
X152374Y799888D01*
X151947Y799835D01*
X151505Y799804D01*
X151047Y799793D01*
G37*
G36*
X223347Y800000D02*
X221484Y800000D01*
X221484Y808587D01*
X221469Y809828D01*
X221422Y811194D01*
X223181Y811194D01*
X223243Y809670D01*
X223264Y808907D01*
X223305Y808907D01*
X223536Y809570D01*
X223658Y809858D01*
X223784Y810118D01*
X223914Y810349D01*
X224048Y810552D01*
X224187Y810727D01*
X224329Y810873D01*
X224482Y810997D01*
X224649Y811104D01*
X224831Y811195D01*
X225028Y811269D01*
X225240Y811326D01*
X225466Y811368D01*
X225708Y811392D01*
X225964Y811401D01*
X226151Y811394D01*
X226339Y811375D01*
X226719Y811297D01*
X226719Y809590D01*
X226518Y809636D01*
X226285Y809668D01*
X226021Y809687D01*
X225726Y809694D01*
X225445Y809678D01*
X225181Y809631D01*
X224934Y809553D01*
X224704Y809444D01*
X224492Y809304D01*
X224296Y809132D01*
X224118Y808929D01*
X223957Y808695D01*
X223814Y808432D01*
X223690Y808142D01*
X223585Y807825D01*
X223499Y807481D01*
X223432Y807110D01*
X223385Y806712D01*
X223356Y806287D01*
X223347Y805835D01*
X223347Y800000D01*
G37*
G36*
X242780Y800000D02*
X240763Y800000D01*
X240763Y802266D01*
X242780Y802266D01*
X242780Y800000D01*
G37*
G36*
X248686Y800000D02*
X246669Y800000D01*
X246669Y802266D01*
X248686Y802266D01*
X248686Y800000D01*
G37*
G36*
X254561Y800000D02*
X252544Y800000D01*
X252544Y802266D01*
X254561Y802266D01*
X254561Y800000D01*
G37*
G36*
X273708Y338881D02*
X268838Y342253D01*
X264231Y339039D01*
X264231Y340782D01*
X267919Y343147D01*
X264231Y345494D01*
X264231Y347255D01*
X268821Y344040D01*
X273708Y347456D01*
X273708Y345696D01*
X269819Y343147D01*
X273708Y340581D01*
X273708Y338881D01*
G37*
G36*
X226131Y306974D02*
X226131Y308655D01*
X231369Y310652D01*
X231662Y310757D01*
X232805Y311152D01*
X233891Y311511D01*
X232166Y312124D01*
X226131Y314200D01*
X226131Y315864D01*
X235608Y312220D01*
X236317Y311932D01*
X236929Y311653D01*
X237445Y311384D01*
X237863Y311125D01*
X238210Y310865D01*
X238509Y310590D01*
X238762Y310302D01*
X238967Y310000D01*
X239126Y309681D01*
X239240Y309342D01*
X239308Y308983D01*
X239330Y308603D01*
X239324Y308292D01*
X239306Y308007D01*
X239276Y307749D01*
X239234Y307517D01*
X238052Y307517D01*
X238091Y307867D01*
X238104Y308253D01*
X238096Y308434D01*
X238070Y308611D01*
X238028Y308783D01*
X237969Y308950D01*
X237893Y309112D01*
X237800Y309270D01*
X237563Y309571D01*
X237259Y309852D01*
X236887Y310115D01*
X236448Y310358D01*
X235941Y310582D01*
X235564Y310731D01*
X226131Y306974D01*
G37*
G36*
X175730Y345030D02*
X174057Y345030D01*
X174057Y357371D01*
X179251Y357371D01*
X179755Y357356D01*
X180230Y357310D01*
X180676Y357234D01*
X181092Y357128D01*
X181480Y356991D01*
X181837Y356824D01*
X182166Y356626D01*
X182465Y356399D01*
X182732Y356143D01*
X182963Y355863D01*
X183159Y355557D01*
X183319Y355227D01*
X183444Y354872D01*
X183533Y354492D01*
X183586Y354087D01*
X183604Y353657D01*
X183586Y353230D01*
X183532Y352826D01*
X183443Y352444D01*
X183318Y352085D01*
X183157Y351748D01*
X182961Y351434D01*
X182729Y351142D01*
X182461Y350872D01*
X182162Y350630D01*
X181838Y350420D01*
X181489Y350242D01*
X181113Y350097D01*
X180712Y349984D01*
X180286Y349903D01*
X179834Y349855D01*
X179356Y349838D01*
X175730Y349838D01*
X175730Y345030D01*
G37*
%LPC*%
G36*
X179120Y351161D02*
X179459Y351171D01*
X179776Y351200D01*
X180072Y351248D01*
X180346Y351316D01*
X180598Y351403D01*
X180827Y351510D01*
X181035Y351635D01*
X181222Y351781D01*
X181386Y351945D01*
X181528Y352129D01*
X181649Y352333D01*
X181747Y352555D01*
X181824Y352797D01*
X181878Y353059D01*
X181911Y353339D01*
X181922Y353640D01*
X181911Y353929D01*
X181877Y354200D01*
X181821Y354452D01*
X181743Y354686D01*
X181642Y354901D01*
X181518Y355097D01*
X181372Y355274D01*
X181204Y355433D01*
X181013Y355573D01*
X180800Y355694D01*
X180564Y355797D01*
X180306Y355881D01*
X180026Y355947D01*
X179723Y355993D01*
X179397Y356021D01*
X179049Y356031D01*
X175730Y356031D01*
X175730Y351161D01*
X179120Y351161D01*
G37*
%LPD*%
G36*
X160609Y345030D02*
X159120Y345030D01*
X159120Y357371D01*
X161318Y357371D01*
X164602Y348814D01*
X164774Y348278D01*
X164940Y347706D01*
X165154Y346852D01*
X165263Y347293D01*
X165448Y347916D01*
X165635Y348497D01*
X165750Y348814D01*
X168973Y357371D01*
X171119Y357371D01*
X171119Y345030D01*
X169612Y345030D01*
X169612Y353263D01*
X169632Y354603D01*
X169691Y355891D01*
X169284Y354494D01*
X169097Y353923D01*
X168920Y353438D01*
X165732Y345030D01*
X164559Y345030D01*
X161327Y353438D01*
X160836Y354927D01*
X160547Y355891D01*
X160574Y354918D01*
X160609Y353263D01*
X160609Y345030D01*
G37*
G36*
X145831Y344855D02*
X145356Y344867D01*
X144897Y344903D01*
X144455Y344963D01*
X144029Y345048D01*
X143621Y345156D01*
X143228Y345288D01*
X142853Y345445D01*
X142494Y345626D01*
X142154Y345829D01*
X141835Y346053D01*
X141536Y346299D01*
X141258Y346566D01*
X141001Y346854D01*
X140764Y347164D01*
X140548Y347494D01*
X140353Y347846D01*
X140179Y348216D01*
X140029Y348603D01*
X139902Y349005D01*
X139798Y349424D01*
X139717Y349858D01*
X139659Y350308D01*
X139624Y350775D01*
X139613Y351257D01*
X139619Y351628D01*
X139638Y351987D01*
X139669Y352336D01*
X139714Y352675D01*
X139770Y353002D01*
X139839Y353320D01*
X139921Y353626D01*
X140016Y353922D01*
X140123Y354207D01*
X140242Y354482D01*
X140375Y354746D01*
X140519Y355000D01*
X140677Y355243D01*
X140847Y355475D01*
X141224Y355908D01*
X141648Y356294D01*
X141875Y356468D01*
X142112Y356629D01*
X142359Y356776D01*
X142617Y356912D01*
X142884Y357034D01*
X143162Y357143D01*
X143450Y357240D01*
X143749Y357323D01*
X144057Y357394D01*
X144376Y357452D01*
X144705Y357497D01*
X145044Y357529D01*
X145393Y357548D01*
X145753Y357555D01*
X146253Y357544D01*
X146729Y357511D01*
X147181Y357457D01*
X147609Y357382D01*
X148013Y357284D01*
X148393Y357166D01*
X148749Y357025D01*
X149081Y356863D01*
X149391Y356677D01*
X149683Y356465D01*
X149957Y356227D01*
X150213Y355963D01*
X150450Y355673D01*
X150669Y355357D01*
X150869Y355015D01*
X151051Y354647D01*
X149457Y354174D01*
X149320Y354428D01*
X149170Y354664D01*
X149007Y354882D01*
X148832Y355083D01*
X148645Y355265D01*
X148445Y355430D01*
X148233Y355577D01*
X148008Y355707D01*
X147770Y355820D01*
X147518Y355917D01*
X147251Y356000D01*
X146971Y356068D01*
X146677Y356121D01*
X146368Y356158D01*
X146045Y356181D01*
X145709Y356188D01*
X145190Y356168D01*
X144703Y356108D01*
X144248Y356007D01*
X143823Y355865D01*
X143431Y355684D01*
X143070Y355462D01*
X142740Y355199D01*
X142442Y354897D01*
X142177Y354557D01*
X141947Y354185D01*
X141753Y353779D01*
X141594Y353341D01*
X141471Y352869D01*
X141383Y352365D01*
X141330Y351828D01*
X141312Y351257D01*
X141331Y350688D01*
X141387Y350150D01*
X141481Y349642D01*
X141612Y349165D01*
X141781Y348719D01*
X141987Y348304D01*
X142231Y347919D01*
X142512Y347566D01*
X142826Y347248D01*
X143169Y346974D01*
X143541Y346741D01*
X143942Y346551D01*
X144371Y346403D01*
X144829Y346297D01*
X145316Y346234D01*
X145831Y346212D01*
X146426Y346235D01*
X147000Y346304D01*
X147553Y346419D01*
X148087Y346580D01*
X148585Y346781D01*
X149034Y347014D01*
X149432Y347280D01*
X149781Y347579D01*
X149781Y349803D01*
X146094Y349803D01*
X146094Y351205D01*
X151323Y351205D01*
X151323Y346948D01*
X151071Y346706D01*
X150805Y346477D01*
X150525Y346263D01*
X150231Y346062D01*
X149924Y345876D01*
X149603Y345704D01*
X149268Y345546D01*
X148919Y345402D01*
X148559Y345274D01*
X148192Y345163D01*
X147817Y345069D01*
X147435Y344992D01*
X147046Y344932D01*
X146648Y344889D01*
X146244Y344863D01*
X145831Y344855D01*
G37*
G36*
X190957Y344855D02*
X190584Y344863D01*
X190223Y344889D01*
X189875Y344932D01*
X189538Y344993D01*
X189213Y345070D01*
X188901Y345165D01*
X188600Y345277D01*
X188312Y345407D01*
X188037Y345552D01*
X187779Y345714D01*
X187536Y345891D01*
X187309Y346083D01*
X187098Y346291D01*
X186903Y346515D01*
X186724Y346754D01*
X186560Y347009D01*
X186414Y347278D01*
X186288Y347560D01*
X186181Y347854D01*
X186094Y348161D01*
X186026Y348481D01*
X185977Y348813D01*
X185948Y349157D01*
X185938Y349514D01*
X185938Y357371D01*
X187611Y357371D01*
X187611Y349655D01*
X187625Y349245D01*
X187665Y348860D01*
X187732Y348501D01*
X187826Y348168D01*
X187946Y347860D01*
X188094Y347577D01*
X188268Y347320D01*
X188469Y347088D01*
X188696Y346883D01*
X188946Y346705D01*
X189220Y346555D01*
X189518Y346431D01*
X189840Y346336D01*
X190186Y346267D01*
X190555Y346226D01*
X190948Y346212D01*
X191353Y346227D01*
X191734Y346269D01*
X192092Y346340D01*
X192427Y346439D01*
X192739Y346567D01*
X193028Y346722D01*
X193294Y346906D01*
X193536Y347119D01*
X193753Y347359D01*
X193941Y347624D01*
X194099Y347916D01*
X194229Y348235D01*
X194330Y348579D01*
X194403Y348949D01*
X194446Y349346D01*
X194460Y349768D01*
X194460Y357371D01*
X196124Y357371D01*
X196124Y349672D01*
X196115Y349304D01*
X196085Y348949D01*
X196035Y348607D01*
X195966Y348277D01*
X195876Y347961D01*
X195767Y347657D01*
X195638Y347366D01*
X195489Y347088D01*
X195322Y346825D01*
X195139Y346577D01*
X194939Y346346D01*
X194723Y346130D01*
X194490Y345931D01*
X194241Y345747D01*
X193976Y345580D01*
X193694Y345429D01*
X193397Y345294D01*
X193088Y345178D01*
X192765Y345079D01*
X192429Y344998D01*
X192081Y344936D01*
X191719Y344891D01*
X191345Y344864D01*
X190957Y344855D01*
G37*
G36*
X134048Y345030D02*
X132384Y345030D01*
X132384Y356004D01*
X128145Y356004D01*
X128145Y357371D01*
X138287Y357371D01*
X138287Y356004D01*
X134048Y356004D01*
X134048Y345030D01*
G37*
G36*
X126101Y345030D02*
X124429Y345030D01*
X124429Y357371D01*
X126101Y357371D01*
X126101Y345030D01*
G37*
G36*
X154067Y344855D02*
X152648Y344855D01*
X156248Y358028D01*
X157632Y358028D01*
X154067Y344855D01*
G37*
G36*
X224741Y643825D02*
X224266Y643837D01*
X223807Y643873D01*
X223365Y643933D01*
X222939Y644018D01*
X222531Y644126D01*
X222139Y644258D01*
X221763Y644415D01*
X221404Y644596D01*
X221064Y644799D01*
X220745Y645023D01*
X220446Y645269D01*
X220168Y645536D01*
X219911Y645824D01*
X219674Y646134D01*
X219458Y646464D01*
X219263Y646816D01*
X219090Y647186D01*
X218939Y647573D01*
X218812Y647975D01*
X218708Y648394D01*
X218627Y648828D01*
X218569Y649278D01*
X218534Y649745D01*
X218523Y650227D01*
X218529Y650598D01*
X218548Y650957D01*
X218580Y651306D01*
X218624Y651645D01*
X218680Y651972D01*
X218750Y652290D01*
X218831Y652596D01*
X218926Y652892D01*
X219033Y653177D01*
X219152Y653452D01*
X219285Y653716D01*
X219429Y653970D01*
X219587Y654213D01*
X219757Y654445D01*
X220134Y654878D01*
X220558Y655264D01*
X220785Y655438D01*
X221022Y655599D01*
X221269Y655746D01*
X221527Y655882D01*
X221794Y656004D01*
X222072Y656113D01*
X222360Y656210D01*
X222659Y656293D01*
X222967Y656364D01*
X223286Y656422D01*
X223615Y656467D01*
X223954Y656499D01*
X224303Y656518D01*
X224663Y656525D01*
X225163Y656514D01*
X225639Y656481D01*
X226091Y656427D01*
X226519Y656352D01*
X226923Y656254D01*
X227303Y656136D01*
X227659Y655995D01*
X227991Y655833D01*
X228301Y655647D01*
X228594Y655435D01*
X228867Y655197D01*
X229123Y654933D01*
X229360Y654643D01*
X229579Y654327D01*
X229779Y653985D01*
X229962Y653617D01*
X228368Y653144D01*
X228230Y653398D01*
X228080Y653634D01*
X227917Y653852D01*
X227742Y654053D01*
X227555Y654235D01*
X227355Y654400D01*
X227143Y654547D01*
X226918Y654677D01*
X226680Y654790D01*
X226428Y654887D01*
X226162Y654970D01*
X225881Y655038D01*
X225587Y655091D01*
X225278Y655128D01*
X224956Y655151D01*
X224619Y655158D01*
X224100Y655138D01*
X223613Y655078D01*
X223158Y654977D01*
X222734Y654835D01*
X222341Y654654D01*
X221980Y654432D01*
X221650Y654169D01*
X221352Y653867D01*
X221087Y653527D01*
X220858Y653155D01*
X220663Y652749D01*
X220505Y652311D01*
X220381Y651839D01*
X220293Y651335D01*
X220240Y650798D01*
X220222Y650227D01*
X220241Y649658D01*
X220297Y649120D01*
X220391Y648612D01*
X220522Y648135D01*
X220691Y647689D01*
X220897Y647274D01*
X221141Y646889D01*
X221422Y646536D01*
X221736Y646218D01*
X222079Y645944D01*
X222451Y645711D01*
X222852Y645521D01*
X223281Y645373D01*
X223739Y645267D01*
X224226Y645204D01*
X224741Y645182D01*
X225336Y645205D01*
X225910Y645274D01*
X226463Y645389D01*
X226997Y645550D01*
X227495Y645751D01*
X227944Y645984D01*
X228343Y646250D01*
X228692Y646549D01*
X228692Y648773D01*
X225004Y648773D01*
X225004Y650175D01*
X230233Y650175D01*
X230233Y645918D01*
X229981Y645676D01*
X229715Y645447D01*
X229435Y645233D01*
X229142Y645032D01*
X228834Y644846D01*
X228513Y644674D01*
X228178Y644516D01*
X227829Y644372D01*
X227469Y644244D01*
X227102Y644133D01*
X226728Y644039D01*
X226345Y643962D01*
X225956Y643902D01*
X225558Y643859D01*
X225154Y643833D01*
X224741Y643825D01*
G37*
G36*
X169808Y643825D02*
X169298Y643844D01*
X168820Y643903D01*
X168373Y644001D01*
X167957Y644138D01*
X167572Y644314D01*
X167219Y644529D01*
X166897Y644784D01*
X166607Y645077D01*
X166349Y645409D01*
X166126Y645780D01*
X165937Y646188D01*
X165783Y646634D01*
X165662Y647118D01*
X165576Y647641D01*
X165525Y648201D01*
X165508Y648800D01*
X165525Y649369D01*
X165576Y649905D01*
X165662Y650406D01*
X165783Y650873D01*
X165937Y651306D01*
X166126Y651705D01*
X166349Y652069D01*
X166607Y652399D01*
X166896Y652693D01*
X167215Y652947D01*
X167564Y653163D01*
X167942Y653339D01*
X168349Y653476D01*
X168785Y653574D01*
X169251Y653632D01*
X169747Y653652D01*
X170253Y653632D01*
X170726Y653573D01*
X171167Y653475D01*
X171575Y653337D01*
X171950Y653160D01*
X172293Y652944D01*
X172603Y652688D01*
X172880Y652393D01*
X173125Y652058D01*
X173337Y651685D01*
X173517Y651272D01*
X173664Y650819D01*
X173778Y650327D01*
X173859Y649796D01*
X173908Y649226D01*
X173925Y648616D01*
X173925Y648406D01*
X167163Y648406D01*
X167174Y648010D01*
X167205Y647638D01*
X167258Y647288D01*
X167332Y646963D01*
X167427Y646660D01*
X167542Y646381D01*
X167679Y646125D01*
X167838Y645892D01*
X168016Y645685D01*
X168214Y645505D01*
X168431Y645353D01*
X168667Y645228D01*
X168923Y645132D01*
X169199Y645063D01*
X169494Y645021D01*
X169808Y645007D01*
X170058Y645014D01*
X170295Y645033D01*
X170520Y645065D01*
X170731Y645110D01*
X170930Y645168D01*
X171116Y645239D01*
X171290Y645322D01*
X171450Y645419D01*
X171734Y645638D01*
X171968Y645885D01*
X172152Y646160D01*
X172287Y646461D01*
X173671Y646067D01*
X173556Y645796D01*
X173425Y645542D01*
X173276Y645305D01*
X173111Y645086D01*
X172928Y644885D01*
X172729Y644701D01*
X172513Y644534D01*
X172280Y644385D01*
X172030Y644254D01*
X171764Y644140D01*
X171480Y644044D01*
X171179Y643965D01*
X170862Y643904D01*
X170528Y643860D01*
X170176Y643834D01*
X169808Y643825D01*
G37*
%LPC*%
G36*
X172296Y649614D02*
X172255Y649976D01*
X172199Y650312D01*
X172127Y650624D01*
X172039Y650909D01*
X171936Y651170D01*
X171818Y651405D01*
X171684Y651615D01*
X171534Y651799D01*
X171367Y651961D01*
X171184Y652100D01*
X170983Y652218D01*
X170765Y652315D01*
X170530Y652390D01*
X170277Y652444D01*
X170008Y652476D01*
X169721Y652487D01*
X169441Y652475D01*
X169177Y652439D01*
X168927Y652379D01*
X168693Y652295D01*
X168473Y652188D01*
X168268Y652056D01*
X168078Y651900D01*
X167903Y651721D01*
X167745Y651520D01*
X167607Y651302D01*
X167488Y651065D01*
X167388Y650811D01*
X167307Y650539D01*
X167246Y650248D01*
X167203Y649940D01*
X167181Y649614D01*
X172296Y649614D01*
G37*
%LPD*%
G36*
X179808Y643825D02*
X179298Y643844D01*
X178820Y643903D01*
X178373Y644001D01*
X177957Y644138D01*
X177572Y644314D01*
X177219Y644529D01*
X176897Y644784D01*
X176607Y645077D01*
X176349Y645409D01*
X176126Y645780D01*
X175937Y646188D01*
X175783Y646634D01*
X175662Y647118D01*
X175576Y647641D01*
X175525Y648201D01*
X175508Y648800D01*
X175525Y649369D01*
X175576Y649905D01*
X175662Y650406D01*
X175783Y650873D01*
X175937Y651306D01*
X176126Y651705D01*
X176349Y652069D01*
X176607Y652399D01*
X176896Y652693D01*
X177215Y652947D01*
X177564Y653163D01*
X177942Y653339D01*
X178349Y653476D01*
X178785Y653574D01*
X179251Y653632D01*
X179747Y653652D01*
X180253Y653632D01*
X180726Y653573D01*
X181167Y653475D01*
X181575Y653337D01*
X181950Y653160D01*
X182293Y652944D01*
X182603Y652688D01*
X182880Y652393D01*
X183125Y652058D01*
X183337Y651685D01*
X183517Y651272D01*
X183664Y650819D01*
X183778Y650327D01*
X183859Y649796D01*
X183908Y649226D01*
X183925Y648616D01*
X183925Y648406D01*
X177163Y648406D01*
X177174Y648010D01*
X177205Y647638D01*
X177258Y647288D01*
X177332Y646963D01*
X177427Y646660D01*
X177542Y646381D01*
X177679Y646125D01*
X177838Y645892D01*
X178016Y645685D01*
X178214Y645505D01*
X178431Y645353D01*
X178667Y645228D01*
X178923Y645132D01*
X179199Y645063D01*
X179494Y645021D01*
X179808Y645007D01*
X180058Y645014D01*
X180295Y645033D01*
X180520Y645065D01*
X180731Y645110D01*
X180930Y645168D01*
X181116Y645239D01*
X181290Y645322D01*
X181450Y645419D01*
X181734Y645638D01*
X181968Y645885D01*
X182152Y646160D01*
X182287Y646461D01*
X183671Y646067D01*
X183556Y645796D01*
X183425Y645542D01*
X183276Y645305D01*
X183111Y645086D01*
X182928Y644885D01*
X182729Y644701D01*
X182513Y644534D01*
X182280Y644385D01*
X182030Y644254D01*
X181764Y644140D01*
X181480Y644044D01*
X181179Y643965D01*
X180862Y643904D01*
X180528Y643860D01*
X180176Y643834D01*
X179808Y643825D01*
G37*
%LPC*%
G36*
X182296Y649614D02*
X182255Y649976D01*
X182199Y650312D01*
X182127Y650624D01*
X182039Y650909D01*
X181936Y651170D01*
X181818Y651405D01*
X181684Y651615D01*
X181534Y651799D01*
X181367Y651961D01*
X181184Y652100D01*
X180983Y652218D01*
X180765Y652315D01*
X180530Y652390D01*
X180277Y652444D01*
X180008Y652476D01*
X179721Y652487D01*
X179441Y652475D01*
X179177Y652439D01*
X178927Y652379D01*
X178693Y652295D01*
X178473Y652188D01*
X178268Y652056D01*
X178078Y651900D01*
X177903Y651721D01*
X177745Y651520D01*
X177607Y651302D01*
X177488Y651065D01*
X177388Y650811D01*
X177307Y650539D01*
X177246Y650248D01*
X177203Y649940D01*
X177181Y649614D01*
X182296Y649614D01*
G37*
%LPD*%
G36*
X205325Y640278D02*
X205014Y640284D01*
X204729Y640302D01*
X204471Y640332D01*
X204239Y640374D01*
X204239Y641556D01*
X204589Y641517D01*
X204975Y641504D01*
X205156Y641512D01*
X205333Y641538D01*
X205505Y641580D01*
X205672Y641639D01*
X205834Y641715D01*
X205992Y641808D01*
X206293Y642045D01*
X206574Y642349D01*
X206837Y642721D01*
X207080Y643160D01*
X207304Y643667D01*
X207453Y644044D01*
X203696Y653477D01*
X205377Y653477D01*
X207374Y648239D01*
X207480Y647946D01*
X207874Y646803D01*
X208233Y645717D01*
X208846Y647442D01*
X210922Y653477D01*
X212586Y653477D01*
X208942Y644000D01*
X208654Y643291D01*
X208375Y642679D01*
X208106Y642163D01*
X207847Y641745D01*
X207587Y641398D01*
X207312Y641099D01*
X207024Y640846D01*
X206722Y640641D01*
X206403Y640482D01*
X206064Y640369D01*
X205705Y640300D01*
X205325Y640278D01*
G37*
G36*
X187535Y644000D02*
X185958Y644000D01*
X185958Y651454D01*
X185945Y652787D01*
X185929Y653212D01*
X185906Y653477D01*
X187395Y653477D01*
X187412Y653240D01*
X187434Y652798D01*
X187465Y651856D01*
X187491Y651856D01*
X187773Y652311D01*
X188077Y652694D01*
X188236Y652859D01*
X188402Y653005D01*
X188572Y653134D01*
X188748Y653245D01*
X188932Y653340D01*
X189126Y653423D01*
X189332Y653493D01*
X189548Y653550D01*
X189775Y653595D01*
X190013Y653626D01*
X190262Y653646D01*
X190521Y653652D01*
X190898Y653640D01*
X191249Y653603D01*
X191573Y653543D01*
X191871Y653458D01*
X192143Y653349D01*
X192389Y653216D01*
X192609Y653058D01*
X192803Y652877D01*
X192972Y652667D01*
X193119Y652426D01*
X193243Y652153D01*
X193345Y651849D01*
X193424Y651513D01*
X193480Y651145D01*
X193514Y650746D01*
X193526Y650315D01*
X193526Y644000D01*
X191940Y644000D01*
X191940Y650008D01*
X191929Y650451D01*
X191894Y650840D01*
X191837Y651178D01*
X191756Y651462D01*
X191651Y651703D01*
X191518Y651907D01*
X191357Y652075D01*
X191170Y652207D01*
X190945Y652306D01*
X190673Y652378D01*
X190353Y652420D01*
X189987Y652434D01*
X189710Y652422D01*
X189448Y652386D01*
X189201Y652325D01*
X188969Y652240D01*
X188752Y652130D01*
X188550Y651996D01*
X188363Y651838D01*
X188192Y651655D01*
X188038Y651451D01*
X187904Y651227D01*
X187791Y650985D01*
X187699Y650724D01*
X187627Y650445D01*
X187576Y650146D01*
X187545Y649828D01*
X187535Y649492D01*
X187535Y644000D01*
G37*
G36*
X199159Y643825D02*
X198729Y643834D01*
X198325Y643861D01*
X197946Y643907D01*
X197592Y643970D01*
X197264Y644052D01*
X196961Y644152D01*
X196683Y644271D01*
X196431Y644407D01*
X196201Y644563D01*
X195993Y644739D01*
X195806Y644936D01*
X195639Y645153D01*
X195494Y645390D01*
X195369Y645648D01*
X195265Y645926D01*
X195183Y646225D01*
X196575Y646496D01*
X196632Y646312D01*
X196703Y646141D01*
X196787Y645982D01*
X196884Y645836D01*
X196995Y645703D01*
X197119Y645582D01*
X197256Y645475D01*
X197407Y645379D01*
X197573Y645296D01*
X197753Y645224D01*
X197949Y645163D01*
X198160Y645113D01*
X198629Y645047D01*
X199159Y645025D01*
X199449Y645030D01*
X199719Y645048D01*
X199968Y645076D01*
X200198Y645117D01*
X200407Y645168D01*
X200597Y645232D01*
X200766Y645306D01*
X200915Y645393D01*
X201045Y645490D01*
X201158Y645600D01*
X201254Y645720D01*
X201332Y645852D01*
X201393Y645996D01*
X201436Y646151D01*
X201462Y646318D01*
X201471Y646496D01*
X201447Y646763D01*
X201375Y647004D01*
X201254Y647219D01*
X201086Y647407D01*
X200864Y647575D01*
X200582Y647727D01*
X200242Y647864D01*
X199842Y647985D01*
X198712Y648283D01*
X198082Y648457D01*
X197551Y648630D01*
X197117Y648801D01*
X196781Y648970D01*
X196510Y649148D01*
X196270Y649344D01*
X196061Y649558D01*
X195883Y649789D01*
X195741Y650044D01*
X195640Y650326D01*
X195579Y650635D01*
X195559Y650972D01*
X195574Y651286D01*
X195617Y651581D01*
X195689Y651857D01*
X195790Y652114D01*
X195920Y652351D01*
X196079Y652569D01*
X196267Y652768D01*
X196483Y652947D01*
X196727Y653106D01*
X196998Y653244D01*
X197295Y653360D01*
X197618Y653456D01*
X197968Y653530D01*
X198345Y653583D01*
X198747Y653615D01*
X199176Y653626D01*
X199558Y653617D01*
X199920Y653591D01*
X200262Y653548D01*
X200583Y653488D01*
X200885Y653410D01*
X201166Y653315D01*
X201427Y653203D01*
X201668Y653074D01*
X201889Y652926D01*
X202088Y652756D01*
X202266Y652566D01*
X202423Y652356D01*
X202558Y652124D01*
X202672Y651872D01*
X202766Y651599D01*
X202837Y651305D01*
X201419Y651129D01*
X201379Y651283D01*
X201325Y651426D01*
X201258Y651561D01*
X201177Y651687D01*
X200973Y651910D01*
X200714Y652097D01*
X200402Y652245D01*
X200042Y652350D01*
X199634Y652413D01*
X199176Y652434D01*
X198677Y652414D01*
X198248Y652353D01*
X198060Y652308D01*
X197889Y652252D01*
X197736Y652186D01*
X197600Y652110D01*
X197481Y652024D01*
X197378Y651928D01*
X197290Y651821D01*
X197219Y651703D01*
X197163Y651575D01*
X197124Y651437D01*
X197100Y651288D01*
X197092Y651129D01*
X197105Y650937D01*
X197144Y650762D01*
X197210Y650604D01*
X197302Y650464D01*
X197420Y650337D01*
X197563Y650221D01*
X197731Y650114D01*
X197924Y650017D01*
X198187Y649916D01*
X198563Y649798D01*
X199658Y649509D01*
X200241Y649354D01*
X200735Y649206D01*
X201143Y649063D01*
X201462Y648927D01*
X201724Y648790D01*
X201956Y648645D01*
X202160Y648494D01*
X202334Y648335D01*
X202485Y648167D01*
X202617Y647986D01*
X202732Y647793D01*
X202829Y647587D01*
X202905Y647367D01*
X202960Y647132D01*
X202993Y646883D01*
X203004Y646619D01*
X202988Y646293D01*
X202941Y645987D01*
X202862Y645700D01*
X202751Y645432D01*
X202609Y645183D01*
X202435Y644954D01*
X202229Y644743D01*
X201992Y644552D01*
X201727Y644381D01*
X201436Y644234D01*
X201120Y644109D01*
X200778Y644007D01*
X200411Y643927D01*
X200019Y643870D01*
X199602Y643836D01*
X199159Y643825D01*
G37*
G36*
X162114Y644000D02*
X160450Y644000D01*
X160450Y654974D01*
X156211Y654974D01*
X156211Y656341D01*
X166354Y656341D01*
X166354Y654974D01*
X162114Y654974D01*
X162114Y644000D01*
G37*
G36*
X238816Y643860D02*
X238587Y643868D01*
X238373Y643893D01*
X238174Y643935D01*
X237989Y643994D01*
X237819Y644069D01*
X237664Y644162D01*
X237523Y644271D01*
X237398Y644396D01*
X237287Y644539D01*
X237191Y644698D01*
X237109Y644874D01*
X237043Y645067D01*
X236991Y645276D01*
X236954Y645503D01*
X236932Y645746D01*
X236925Y646006D01*
X236925Y652329D01*
X235830Y652329D01*
X235830Y653477D01*
X236986Y653477D01*
X237450Y655596D01*
X238501Y655596D01*
X238501Y653477D01*
X240253Y653477D01*
X240253Y652329D01*
X238501Y652329D01*
X238501Y646347D01*
X238515Y646031D01*
X238557Y645766D01*
X238627Y645552D01*
X238724Y645388D01*
X238857Y645268D01*
X239030Y645181D01*
X239244Y645130D01*
X239500Y645112D01*
X239885Y645143D01*
X240411Y645235D01*
X240411Y644070D01*
X240019Y643978D01*
X239622Y643912D01*
X239222Y643873D01*
X238816Y643860D01*
G37*
G36*
X234335Y644000D02*
X232758Y644000D01*
X232758Y653477D01*
X234335Y653477D01*
X234335Y644000D01*
G37*
G36*
X234335Y655491D02*
X232758Y655491D01*
X232758Y656998D01*
X234335Y656998D01*
X234335Y655491D01*
G37*
D10*
X76858Y205330D02*
X76858Y364080D01*
X286408Y364080D01*
X286408Y205330D01*
X76858Y205330D01*
X273708Y294230D02*
X273708Y332330D01*
X267358Y325980D01*
X273708Y332330D02*
X280058Y325980D01*
X273708Y294230D02*
X235608Y294230D01*
X241958Y300580D01*
X235608Y294230D02*
X241958Y287880D01*
X92042Y766030D02*
X92042Y778730D01*
X92042Y766030D02*
X85692Y759680D01*
X92042Y753330D01*
X92042Y740630D01*
X85692Y734280D01*
X92042Y727930D01*
X92042Y715230D01*
X85692Y708880D01*
X92042Y702530D01*
X92042Y689830D01*
X85692Y683480D01*
X92042Y677130D01*
X92042Y664430D01*
X85692Y658080D01*
X92042Y651730D01*
X92042Y639030D01*
X85692Y632680D01*
X72992Y632680D01*
X66642Y639030D01*
X60292Y632680D01*
X47592Y632680D01*
X41242Y639030D01*
X34892Y632680D01*
X22192Y632680D01*
X15842Y639030D01*
X15842Y651730D01*
X22192Y658080D01*
X15842Y664430D01*
X15842Y677130D01*
X22192Y683480D01*
X15842Y689830D01*
X15842Y702530D01*
X22192Y708880D01*
X15842Y715230D01*
X15842Y727930D01*
X22192Y734280D01*
X15842Y740630D01*
X15842Y753330D01*
X22192Y759680D01*
X15842Y766030D01*
X15842Y778730D01*
X22192Y785080D01*
X34892Y785080D01*
X41242Y778730D01*
X47592Y785080D01*
X60292Y785080D01*
X66642Y778730D01*
X72992Y785080D01*
X85692Y785080D01*
X92042Y778730D01*
X85692Y611920D02*
X92042Y605570D01*
X92042Y592870D01*
X85692Y586520D01*
X92042Y580170D01*
X92042Y567470D01*
X85692Y561120D01*
X92042Y554770D01*
X92042Y542070D01*
X85692Y535720D01*
X92042Y529370D01*
X92042Y516670D01*
X85692Y510320D01*
X92042Y503970D01*
X92042Y491270D01*
X85692Y484920D01*
X92042Y478570D01*
X92042Y465870D01*
X85692Y459520D01*
X92042Y453170D01*
X92042Y440470D01*
X85692Y434120D01*
X72992Y434120D01*
X66642Y440470D01*
X60292Y434120D01*
X47592Y434120D01*
X41242Y440470D01*
X34892Y434120D01*
X22192Y434120D01*
X15842Y440470D01*
X15842Y453170D01*
X22192Y459520D01*
X15842Y465870D01*
X15842Y478570D01*
X22192Y484920D01*
X15842Y491270D01*
X15842Y503970D01*
X22192Y510320D01*
X15842Y516670D01*
X15842Y529370D01*
X22192Y535720D01*
X15842Y542070D01*
X15842Y554770D01*
X22192Y561120D01*
X15842Y567470D01*
X15842Y580170D01*
X22192Y586520D01*
X15842Y592870D01*
X15842Y605570D01*
X22192Y611920D01*
X34892Y611920D01*
X41242Y605570D01*
X47592Y611920D01*
X60292Y611920D01*
X66642Y605570D01*
X72992Y611920D01*
X85692Y611920D01*
X109276Y796400D02*
X287076Y796400D01*
X287076Y440800D01*
X109276Y440800D01*
X109276Y796400D01*
D11*
X267970Y417480D02*
X280670Y417480D01*
X287020Y411130D01*
X287020Y398430D01*
X280670Y392080D01*
X261620Y398430D02*
X261620Y411130D01*
X267970Y417480D01*
X261620Y398430D02*
X267970Y392080D01*
X280670Y392080D01*
X255270Y417480D02*
X242570Y417480D01*
X255270Y417480D02*
X261620Y411130D01*
X261620Y398430D01*
X255270Y392080D01*
X236220Y398430D02*
X236220Y411130D01*
X242570Y417480D01*
X236220Y398430D02*
X242570Y392080D01*
X255270Y392080D01*
X229870Y417480D02*
X217170Y417480D01*
X229870Y417480D02*
X236220Y411130D01*
X236220Y398430D01*
X229870Y392080D01*
X210820Y398430D02*
X210820Y411130D01*
X217170Y417480D01*
X210820Y398430D02*
X217170Y392080D01*
X229870Y392080D01*
X204470Y417480D02*
X191770Y417480D01*
X204470Y417480D02*
X210820Y411130D01*
X210820Y398430D01*
X204470Y392080D01*
X185420Y398430D02*
X185420Y411130D01*
X191770Y417480D01*
X185420Y398430D02*
X191770Y392080D01*
X204470Y392080D01*
X179070Y417480D02*
X166370Y417480D01*
X179070Y417480D02*
X185420Y411130D01*
X185420Y398430D01*
X179070Y392080D01*
X160020Y398430D02*
X160020Y411130D01*
X166370Y417480D01*
X160020Y398430D02*
X166370Y392080D01*
X179070Y392080D01*
X153670Y417480D02*
X140970Y417480D01*
X153670Y417480D02*
X160020Y411130D01*
X160020Y398430D01*
X153670Y392080D01*
X134620Y398430D02*
X134620Y411130D01*
X140970Y417480D01*
X134620Y398430D02*
X140970Y392080D01*
X153670Y392080D01*
X128270Y417480D02*
X115570Y417480D01*
X128270Y417480D02*
X134620Y411130D01*
X134620Y398430D01*
X128270Y392080D01*
X109220Y398430D02*
X109220Y411130D01*
X115570Y417480D01*
X109220Y398430D02*
X115570Y392080D01*
X128270Y392080D01*
X43260Y280770D02*
X43260Y268070D01*
X43260Y280770D02*
X49610Y287120D01*
X62310Y287120D01*
X68660Y280770D01*
X62310Y261720D02*
X49610Y261720D01*
X43260Y268070D01*
X62310Y261720D02*
X68660Y268070D01*
X68660Y280770D01*
X17860Y229970D02*
X17860Y217270D01*
X17860Y229970D02*
X24210Y236320D01*
X36910Y236320D01*
X43260Y229970D01*
X36910Y210920D02*
X24210Y210920D01*
X17860Y217270D01*
X36910Y210920D02*
X43260Y217270D01*
X43260Y229970D01*
X49610Y261720D02*
X62310Y261720D01*
X68660Y255370D01*
X68660Y242670D01*
X62310Y236320D01*
X43260Y242670D02*
X43260Y255370D01*
X49610Y261720D01*
X43260Y242670D02*
X49610Y236320D01*
X62310Y236320D01*
X17860Y242670D02*
X17860Y255370D01*
X24210Y261720D01*
X36910Y261720D01*
X43260Y255370D01*
X36910Y236320D02*
X24210Y236320D01*
X17860Y242670D01*
X36910Y236320D02*
X43260Y242670D01*
X43260Y255370D01*
X17860Y268070D02*
X17860Y280770D01*
X24210Y287120D01*
X36910Y287120D01*
X43260Y280770D01*
X36910Y261720D02*
X24210Y261720D01*
X17860Y268070D01*
X36910Y261720D02*
X43260Y268070D01*
X43260Y280770D01*
X43260Y314870D02*
X43260Y327570D01*
X49610Y333920D01*
X62310Y333920D01*
X68660Y327570D01*
X62310Y308520D02*
X49610Y308520D01*
X43260Y314870D01*
X62310Y308520D02*
X68660Y314870D01*
X68660Y327570D01*
X43260Y340270D02*
X43260Y352970D01*
X49610Y359320D01*
X62310Y359320D01*
X68660Y352970D01*
X62310Y333920D02*
X49610Y333920D01*
X43260Y340270D01*
X62310Y333920D02*
X68660Y340270D01*
X68660Y352970D01*
X17860Y327570D02*
X17860Y314870D01*
X17860Y327570D02*
X24210Y333920D01*
X36910Y333920D01*
X43260Y327570D01*
X36910Y308520D02*
X24210Y308520D01*
X17860Y314870D01*
X36910Y308520D02*
X43260Y314870D01*
X43260Y327570D01*
X43260Y229970D02*
X43260Y217270D01*
X43260Y229970D02*
X49610Y236320D01*
X62310Y236320D01*
X68660Y229970D01*
X62310Y210920D02*
X49610Y210920D01*
X43260Y217270D01*
X62310Y210920D02*
X68660Y217270D01*
X68660Y229970D01*
X17860Y340270D02*
X17860Y352970D01*
X24210Y359320D01*
X36910Y359320D01*
X43260Y352970D01*
X36910Y333920D02*
X24210Y333920D01*
X17860Y340270D01*
X36910Y333920D02*
X43260Y340270D01*
X43260Y352970D01*
M02*
