M48
;GenerationSoftware,Autodesk,EAGLE,9.7.0*%
;CreationDate,2022-08-25T05:10:25Z*%
FMAT,2
ICI,OFF
METRIC,TZ,000.000
T4C0.800
T3C0.965
T2C1.016
T1C3.000
%
G90
M71
T1
X26990Y82985
X3010Y82985
X3000Y3000
X27000Y3000
T2
X13287Y74970
X8207Y74970
X2910Y18664
X2910Y21204
X2910Y23744
X2910Y26284
X2910Y28824
X2910Y31364
X2910Y33904
X2910Y36444
X2910Y38984
X5450Y16124
X5450Y18664
X5450Y21204
X5450Y23744
X5450Y26284
X5450Y28824
X5450Y31364
X5450Y33904
X5450Y36444
X5450Y38984
X7990Y16124
X7990Y18664
X7990Y21204
X7990Y23744
X7990Y26284
X7990Y28824
X7990Y31364
X7990Y33904
X7990Y36444
X7990Y38984
X8207Y77510
X10747Y77510
X23447Y72430
X20907Y72430
X18367Y72430
X15827Y72430
X13287Y72430
X10747Y72430
X8207Y72430
X23447Y74970
X20907Y74970
X18367Y74970
X15827Y74970
X13287Y77510
X10747Y74970
X2910Y16124
X23447Y77510
X20907Y77510
X18367Y77510
X15827Y77510
T3
X11431Y35020
X13971Y7080
X16511Y7080
X11431Y32480
X11431Y29940
X11431Y27400
X11431Y24860
X11431Y22320
X11431Y19780
X11431Y17240
X11431Y14700
X19051Y7080
X21591Y7080
X24131Y7080
X26671Y37560
X26671Y40100
X11431Y40100
X26671Y35020
X11431Y37560
X26671Y32480
X26671Y29940
X26671Y27400
X26671Y24860
X26671Y22320
X26671Y19780
X26671Y17240
X26671Y14700
X26671Y12160
X26671Y9620
X26671Y7080
X11431Y7080
X11431Y9620
X11431Y12160
T4
X20810Y47060
X18270Y47060
X15730Y47060
X3030Y47060
X5570Y47060
X8110Y47060
X13190Y47060
X10650Y47060
M30